<?xml version="1.0" encoding="UTF-8" standalone="no"?>
<svg
   xmlns:dc="http://purl.org/dc/elements/1.1/"
   xmlns:cc="http://creativecommons.org/ns#"
   xmlns:rdf="http://www.w3.org/1999/02/22-rdf-syntax-ns#"
   xmlns:svg="http://www.w3.org/2000/svg"
   xmlns="http://www.w3.org/2000/svg"
   xmlns:xlink="http://www.w3.org/1999/xlink"
   xmlns:sodipodi="http://sodipodi.sourceforge.net/DTD/sodipodi-0.dtd"
   xmlns:inkscape="http://www.inkscape.org/namespaces/inkscape"
   version="1.1"
   viewBox="0 0 437.28349 331.20371"
   stroke-miterlimit="10"
   id="svg1464"
   sodipodi:docname="BEF_conversion.svg"
   width="437.28348"
   height="331.2037"
   style="fill:none;stroke:none;stroke-linecap:square;stroke-miterlimit:10"
   inkscape:version="0.92.4 (5da689c313, 2019-01-14)">
  <metadata
     id="metadata1470">
    <rdf:RDF>
      <cc:Work
         rdf:about="">
        <dc:format>image/svg+xml</dc:format>
        <dc:type
           rdf:resource="http://purl.org/dc/dcmitype/StillImage" />
        <dc:title></dc:title>
      </cc:Work>
    </rdf:RDF>
  </metadata>
  <defs
     id="defs1468">
    <defs
       id="defs1333">
      <filter
         filterUnits="userSpaceOnUse"
         id="shadowFilter-p.1">
        <feGaussianBlur
           id="feGaussianBlur1320"
           result="blur"
           stdDeviation="2.0"
           in="SourceAlpha" />
        <feComponentTransfer
           id="feComponentTransfer1330"
           in="blur"
           style="color-interpolation-filters:sRGB">
          <feFuncR
             id="feFuncR1322"
             intercept="0.8"
             slope="0"
             type="linear" />
          <feFuncG
             id="feFuncG1324"
             intercept="0.8"
             slope="0"
             type="linear" />
          <feFuncB
             id="feFuncB1326"
             intercept="0.8"
             slope="0"
             type="linear" />
          <feFuncA
             id="feFuncA1328"
             intercept="0"
             slope="0.36"
             type="linear" />
        </feComponentTransfer>
      </filter>
    </defs>
    <defs
       id="defs1357">
      <filter
         filterUnits="userSpaceOnUse"
         id="shadowFilter-p.2">
        <feGaussianBlur
           id="feGaussianBlur1344"
           result="blur"
           stdDeviation="2.0"
           in="SourceAlpha" />
        <feComponentTransfer
           id="feComponentTransfer1354"
           in="blur"
           style="color-interpolation-filters:sRGB">
          <feFuncR
             id="feFuncR1346"
             intercept="0.8"
             slope="0"
             type="linear" />
          <feFuncG
             id="feFuncG1348"
             intercept="0.8"
             slope="0"
             type="linear" />
          <feFuncB
             id="feFuncB1350"
             intercept="0.8"
             slope="0"
             type="linear" />
          <feFuncA
             id="feFuncA1352"
             intercept="0"
             slope="0.36"
             type="linear" />
        </feComponentTransfer>
      </filter>
    </defs>
    <defs
       id="defs1383">
      <filter
         filterUnits="userSpaceOnUse"
         id="shadowFilter-p.3">
        <feGaussianBlur
           id="feGaussianBlur1370"
           result="blur"
           stdDeviation="2.0"
           in="SourceAlpha" />
        <feComponentTransfer
           id="feComponentTransfer1380"
           in="blur"
           style="color-interpolation-filters:sRGB">
          <feFuncR
             id="feFuncR1372"
             intercept="0.8"
             slope="0"
             type="linear" />
          <feFuncG
             id="feFuncG1374"
             intercept="0.8"
             slope="0"
             type="linear" />
          <feFuncB
             id="feFuncB1376"
             intercept="0.8"
             slope="0"
             type="linear" />
          <feFuncA
             id="feFuncA1378"
             intercept="0"
             slope="0.36"
             type="linear" />
        </feComponentTransfer>
      </filter>
    </defs>
    <defs
       id="defs1451">
      <filter
         filterUnits="userSpaceOnUse"
         id="shadowFilter-p.4">
        <feGaussianBlur
           id="feGaussianBlur1438"
           result="blur"
           stdDeviation="2.0"
           in="SourceAlpha" />
        <feComponentTransfer
           id="feComponentTransfer1448"
           in="blur"
           style="color-interpolation-filters:sRGB">
          <feFuncR
             id="feFuncR1440"
             intercept="0.8"
             slope="0"
             type="linear" />
          <feFuncG
             id="feFuncG1442"
             intercept="0.8"
             slope="0"
             type="linear" />
          <feFuncB
             id="feFuncB1444"
             intercept="0.8"
             slope="0"
             type="linear" />
          <feFuncA
             id="feFuncA1446"
             intercept="0"
             slope="0.36"
             type="linear" />
        </feComponentTransfer>
      </filter>
    </defs>
  </defs>
  <sodipodi:namedview
     pagecolor="#ffffff"
     bordercolor="#666666"
     borderopacity="1"
     objecttolerance="10"
     gridtolerance="10"
     guidetolerance="10"
     inkscape:pageopacity="0"
     inkscape:pageshadow="2"
     inkscape:window-width="3440"
     inkscape:window-height="1362"
     id="namedview1466"
     showgrid="false"
     inkscape:zoom="2.3136036"
     inkscape:cx="202.49185"
     inkscape:cy="168.40215"
     inkscape:window-x="162"
     inkscape:window-y="0"
     inkscape:window-maximized="1"
     inkscape:current-layer="svg1464" />
  <clipPath
     id="p.0">
    <path
       d="M 0,0 H 466.71127 V 350.05774 H 0 Z"
       id="path1299"
       inkscape:connector-curvature="0"
       style="clip-rule:nonzero" />
  </clipPath>
  <path
     style="fill:#000000;fill-opacity:0;fill-rule:evenodd"
     inkscape:connector-curvature="0"
     id="path1304"
     d="m 155.30488,46.620736 -0.063,40.440947" />
  <path
     style="fill-rule:evenodd;stroke:#4285f4;stroke-width:2;stroke-linecap:butt;stroke-linejoin:round"
     inkscape:connector-curvature="0"
     id="path1306"
     d="m 155.30488,46.620736 -0.0443,28.440957" />
  <path
     style="fill:#4285f4;fill-rule:evenodd;stroke:#4285f4;stroke-width:2;stroke-linecap:butt"
     inkscape:connector-curvature="0"
     id="path1308"
     d="m 151.95712,75.056553 3.28932,9.08133 3.3176,-9.07105 z" />
  <path
     style="fill:#000000;fill-opacity:0;fill-rule:evenodd"
     inkscape:connector-curvature="0"
     id="path1310"
     d="m 155.30488,217.7664 -0.063,40.44093" />
  <path
     style="fill-rule:evenodd;stroke:#4285f4;stroke-width:2;stroke-linecap:butt;stroke-linejoin:round"
     inkscape:connector-curvature="0"
     id="path1312"
     d="m 155.30488,217.76639 -0.0443,28.44098" />
  <path
     style="fill:#4285f4;fill-rule:evenodd;stroke:#4285f4;stroke-width:2;stroke-linecap:butt"
     inkscape:connector-curvature="0"
     id="path1314"
     d="m 151.95712,246.20221 3.28932,9.08133 3.3176,-9.07105 z" />
  <g
     style="filter:url(#shadowFilter-p.1)"
     id="g1318"
     transform="translate(-15.649908,-16.536037)">
    <use
       height="100%"
       width="100%"
       y="0"
       x="0"
       id="use1316"
       transform="translate(21.012219,21.03555)"
       xlink:href="#p.1" />
  </g>
  <g
     id="p.1"
     transform="translate(-15.649908,-16.536037)">
    <path
       style="fill:#d9d9d9;fill-rule:evenodd"
       inkscape:connector-curvature="0"
       id="path1335"
       d="M 16.149908,276.68857 H 452.43339 v 70.55118 H 16.149908 Z" />
    <path
       style="fill-rule:evenodd;stroke:#666666;stroke-width:1;stroke-linecap:butt;stroke-linejoin:round"
       inkscape:connector-curvature="0"
       id="path1337"
       d="M 16.149908,276.68857 H 452.43339 v 70.55118 H 16.149908 Z" />
  </g>
  <g
     style="filter:url(#shadowFilter-p.2)"
     id="g1342"
     transform="translate(-15.649908,-16.536037)">
    <use
       height="100%"
       width="100%"
       y="0"
       x="0"
       id="use1340"
       transform="translate(21.012219,21.03555)"
       xlink:href="#p.2" />
  </g>
  <g
     id="p.2"
     transform="translate(-15.649908,-16.536037)">
    <path
       style="fill:#ffffff;fill-rule:evenodd"
       inkscape:connector-curvature="0"
       id="path1359"
       d="M 35.799145,17.036037 H 232.83851 v 45.85827 H 35.799145 Z" />
    <path
       style="fill-rule:evenodd;stroke:#666666;stroke-width:1;stroke-linecap:butt;stroke-linejoin:round"
       inkscape:connector-curvature="0"
       id="path1361"
       d="M 35.799145,17.036037 H 232.83851 v 45.85827 H 35.799145 Z" />
    <path
       style="fill:#ff6f00;fill-rule:nonzero"
       inkscape:connector-curvature="0"
       id="path1363"
       d="m 109.94377,36.41892 h -3.1875 v -2.046875 h 8.54688 v 2.046875 h -3.1875 v 9.40625 h -2.17188 z m 7.09552,-2.046875 h 7.26562 v 2.046875 h -5.10937 v 2.78125 h 4.59375 v 2.046875 h -4.59375 v 4.578125 h -2.15625 z m 7.85551,11.453125 z m 7.79526,-11.453125 h 2.48438 l 4.29687,11.453125 h -2.39062 l -0.95313,-2.734375 h -4.39062 l -0.95313,2.734375 h -2.39062 z m 2.73438,6.734375 -1.01563,-2.875 -0.40625,-1.375 h -0.125 l -0.42187,1.375 -1.03125,2.875 z m 5.59889,-6.734375 h 4.03125 q 1.09375,0 1.98437,0.453125 0.89063,0.453125 1.40625,1.28125 0.51563,0.828125 0.51563,1.875 0,1.0625 -0.51563,1.890625 -0.51562,0.828125 -1.40625,1.296875 -0.89062,0.453125 -1.98437,0.453125 h -1.875 v 4.203125 h -2.15625 z m 4.09375,5.203125 q 0.79687,0 1.25,-0.46875 0.46875,-0.46875 0.46875,-1.125 0,-0.65625 -0.46875,-1.109375 -0.45313,-0.453125 -1.25,-0.453125 h -1.9375 v 3.15625 z m 5.66627,-5.203125 h 2.15625 V 45.82517 h -2.15625 z m 7.58051,11.703125 q -1.48438,0 -2.40625,-0.59375 -0.92188,-0.609375 -1.28125,-1.59375 l 1.85937,-0.8125 q 0.26563,0.578125 0.73438,0.875 0.46875,0.296875 1.09375,0.296875 0.57812,0 0.95312,-0.1875 0.39063,-0.1875 0.39063,-0.609375 0,-0.390625 -0.35938,-0.59375 -0.34375,-0.203125 -1.04687,-0.359375 l -0.95313,-0.203125 q -1,-0.25 -1.65625,-0.875 -0.65625,-0.640625 -0.65625,-1.578125 0,-0.703125 0.42188,-1.265625 0.42187,-0.5625 1.15625,-0.859375 0.73437,-0.3125 1.60937,-0.3125 2.53125,0 3.375,1.78125 l -1.79687,0.78125 q -0.46875,-0.859375 -1.53125,-0.859375 -0.54688,0 -0.875,0.203125 -0.3125,0.203125 -0.3125,0.5 0,0.578125 1.09375,0.859375 l 1.20312,0.296875 q 1.21875,0.296875 1.82813,0.921875 0.60937,0.625 0.60937,1.53125 0,0.796875 -0.45312,1.390625 -0.45313,0.59375 -1.25,0.9375 -0.78125,0.328125 -1.75,0.328125 z" />
  </g>
  <g
     style="filter:url(#shadowFilter-p.3)"
     id="g1368"
     transform="translate(-15.649908,-16.536037)">
    <use
       height="100%"
       width="100%"
       y="0"
       x="0"
       id="use1366"
       transform="translate(21.012219,21.03555)"
       xlink:href="#p.3" />
  </g>
  <g
     id="p.3"
     transform="translate(-15.649908,-16.536037)">
    <path
       style="fill:#ffffff;fill-rule:evenodd"
       inkscape:connector-curvature="0"
       id="path1385"
       d="m 107.49374,102.89067 h 343.3386 v 135.1496 h -343.3386 z" />
    <path
       style="fill-rule:evenodd;stroke:#666666;stroke-width:1;stroke-linecap:butt;stroke-linejoin:round"
       inkscape:connector-curvature="0"
       id="path1387"
       d="m 107.49374,102.89067 h 343.3386 v 135.1496 h -343.3386 z" />
    <path
       style="fill:#ff6f00;fill-rule:nonzero"
       inkscape:connector-curvature="0"
       id="path1389"
       d="m 121.89121,115.79755 h 2.15625 v 9.40625 h 4.84376 v 2.04688 h -7.00001 z m 12.28141,11.70313 q -1.26563,0 -2.25,-0.5625 -0.98438,-0.5625 -1.54688,-1.54688 -0.54687,-0.98437 -0.54687,-2.21875 0,-1.21875 0.54687,-2.20312 0.5625,-1 1.54688,-1.5625 0.98437,-0.57813 2.25,-0.57813 1.25,0 2.23437,0.57813 1,0.5625 1.54688,1.5625 0.5625,0.98437 0.5625,2.20312 0,1.23438 -0.5625,2.21875 -0.54688,0.98438 -1.54688,1.54688 -0.98437,0.5625 -2.23437,0.5625 z m 0,-1.9375 q 0.60937,0 1.125,-0.28125 0.51562,-0.28125 0.8125,-0.82813 0.3125,-0.54687 0.3125,-1.28125 0,-0.71875 -0.3125,-1.26562 -0.29688,-0.54688 -0.8125,-0.82813 -0.51563,-0.29687 -1.125,-0.29687 -0.60938,0 -1.125,0.29687 -0.5,0.28125 -0.8125,0.82813 -0.3125,0.54687 -0.3125,1.26562 0,0.71875 0.3125,1.28125 0.3125,0.54688 0.8125,0.82813 0.51562,0.28125 1.125,0.28125 z m 4.86752,-6.46875 h 2.35938 l 1.40625,5.29687 h 0.10937 l 1.625,-5.29687 h 2.15625 l 1.625,5.29687 h 0.10938 l 1.40625,-5.29687 h 2.32812 l -2.60937,8.15625 h -2.25 l -1.67188,-5.28125 h -0.10937 l -1.65625,5.28125 h -2.23438 z m 17.90241,8.40625 q -1.21875,0 -2.1875,-0.54688 -0.96875,-0.5625 -1.53125,-1.54687 -0.54688,-0.98438 -0.54688,-2.21875 0,-1.17188 0.53125,-2.17188 0.54688,-1 1.5,-1.59375 0.96875,-0.59375 2.15625,-0.59375 1.26563,0 2.17188,0.54688 0.92187,0.54687 1.39062,1.5 0.46875,0.9375 0.46875,2.09375 0,0.35937 -0.0469,0.70312 h -6.125 q 0.15625,0.96875 0.76562,1.48438 0.625,0.5 1.48438,0.5 0.71875,0 1.23437,-0.3125 0.53125,-0.3125 0.82813,-0.84375 l 1.70312,0.82812 q -1.25,2.17188 -3.79687,2.17188 z m 1.9375,-5.32813 q -0.0312,-0.375 -0.28125,-0.75 -0.25,-0.375 -0.6875,-0.625 -0.4375,-0.25 -1.03125,-0.25 -0.75,0 -1.29688,0.4375 -0.53125,0.4375 -0.76562,1.1875 z m 3.64201,-3.07812 h 1.95313 v 1.07812 h 0.14062 q 0.29688,-0.5625 0.9375,-0.9375 0.64063,-0.39062 1.40625,-0.39062 0.5625,0 1.03125,0.1875 v 2.09375 q -0.4375,-0.15625 -0.73437,-0.23438 -0.29688,-0.0781 -0.625,-0.0781 -0.9375,0 -1.48438,0.67187 -0.53125,0.67188 -0.53125,1.70313 v 4.0625 h -2.09375 z m 8.00389,-0.90625 q -0.5625,0 -0.96875,-0.39063 -0.39062,-0.40625 -0.39062,-0.96875 0,-0.54687 0.39062,-0.9375 0.40625,-0.40625 0.96875,-0.40625 0.5625,0 0.95313,0.40625 0.39062,0.39063 0.39062,0.9375 0,0.5625 -0.39062,0.96875 -0.39063,0.39063 -0.95313,0.39063 z m -1.04687,0.90625 h 2.09375 v 8.15625 h -2.09375 z m 4.27501,0 h 1.95312 v 1.01562 h 0.14063 q 0.35937,-0.59375 1.03125,-0.9375 0.67187,-0.34375 1.45312,-0.34375 1.48438,0 2.25,0.90625 0.76563,0.89063 0.76563,2.4375 v 5.07813 h -2.09375 v -4.8125 q 0,-0.78125 -0.40625,-1.21875 -0.39063,-0.4375 -1.10938,-0.4375 -0.85937,0 -1.375,0.65625 -0.51562,0.65625 -0.51562,1.65625 v 4.15625 h -2.09375 z m 13.25401,11.87499 q -1.54688,0 -2.57813,-0.70312 -1.01562,-0.70313 -1.375,-1.67188 l 1.96875,-0.79687 q 0.26563,0.60937 0.78125,0.95312 0.53125,0.35938 1.20313,0.35938 1,0 1.57812,-0.60938 0.57813,-0.60937 0.57813,-1.73437 v -0.64062 h -0.125 q -0.375,0.54687 -1,0.84375 -0.625,0.28125 -1.42188,0.28125 -1.01562,0 -1.89062,-0.51563 -0.875,-0.53125 -1.40625,-1.46875 -0.51563,-0.95312 -0.51563,-2.21875 0,-1.26562 0.51563,-2.21875 0.53125,-0.95312 1.40625,-1.46875 0.875,-0.53125 1.89062,-0.53125 0.79688,0 1.42188,0.29688 0.625,0.28125 1,0.82812 h 0.125 v -0.85937 h 2.01562 v 7.59375 q 0,1.31249 -0.51562,2.26562 -0.5,0.96875 -1.45313,1.48437 -0.9375,0.53125 -2.20312,0.53125 z m 0.0312,-5.62499 q 0.89062,0 1.5,-0.60938 0.625,-0.625 0.625,-1.6875 0,-1.10937 -0.60938,-1.70312 -0.60937,-0.60938 -1.51562,-0.60938 -0.89063,0 -1.51563,0.60938 -0.625,0.60937 -0.625,1.70312 0,1.07813 0.625,1.6875 0.625,0.60938 1.51563,0.60938 z m 5.17152,1.90625 z m 7.25963,0.25 q -1.29687,0 -2.125,-0.75 -0.82812,-0.76563 -0.82812,-2 0,-0.8125 0.42187,-1.4375 0.4375,-0.625 1.1875,-0.95313 0.75,-0.34375 1.67188,-0.34375 1.26562,0 2.15625,0.375 v -0.35937 q 0,-0.67188 -0.51563,-1.07813 -0.5,-0.42187 -1.34375,-0.42187 -0.57812,0 -1.10937,0.26562 -0.53125,0.26563 -0.89063,0.6875 l -1.34375,-1.04687 q 0.59375,-0.76563 1.48438,-1.1875 0.90625,-0.42188 1.95312,-0.42188 1.875,0 2.84375,0.875 0.98438,0.85938 0.98438,2.51563 v 5.03125 h -2.0625 v -0.82813 h -0.125 q -0.375,0.46875 -0.98438,0.78125 -0.59375,0.29688 -1.375,0.29688 z m 0.5,-1.625 q 0.90625,0 1.4375,-0.57813 0.54688,-0.59375 0.54688,-1.375 -0.8125,-0.39062 -1.71875,-0.39062 -1.625,0 -1.625,1.21875 0,0.5 0.34375,0.8125 0.35937,0.3125 1.01562,0.3125 z m 5.99164,-6.78125 h 1.95312 v 1.01562 h 0.14063 q 0.35937,-0.59375 1.03125,-0.9375 0.67187,-0.34375 1.45312,-0.34375 1.48438,0 2.25,0.90625 0.76563,0.89063 0.76563,2.4375 v 5.07813 h -2.09375 v -4.8125 q 0,-0.78125 -0.40625,-1.21875 -0.39063,-0.4375 -1.10938,-0.4375 -0.85937,0 -1.375,0.65625 -0.51562,0.65625 -0.51562,1.65625 v 4.15625 h -2.09375 z m 13.08401,8.40625 q -1.10937,0 -2.01562,-0.54688 -0.90625,-0.54687 -1.42188,-1.53125 -0.51562,-0.98437 -0.51562,-2.25 0,-1.25 0.51562,-2.23437 0.51563,-1 1.42188,-1.54688 0.90625,-0.5625 2.01562,-0.5625 0.82813,0 1.46875,0.35938 0.64063,0.35937 0.96875,0.89062 h 0.14063 l -0.14063,-1.14062 v -3.14063 h 2.09375 v 11.45313 h -1.95312 v -0.96875 h -0.14063 q -0.3125,0.51562 -0.96875,0.875 -0.64062,0.34375 -1.46875,0.34375 z m 0.34375,-1.9375 q 0.59375,0 1.10938,-0.29688 0.51562,-0.29687 0.8125,-0.84375 0.3125,-0.54687 0.3125,-1.25 0,-0.70312 -0.3125,-1.25 -0.29688,-0.54687 -0.8125,-0.84375 -0.51563,-0.29687 -1.10938,-0.29687 -0.57812,0 -1.09375,0.29687 -0.5,0.29688 -0.8125,0.84375 -0.29687,0.54688 -0.29687,1.25 0,0.70313 0.29687,1.25 0.3125,0.54688 0.8125,0.84375 0.51563,0.29688 1.09375,0.29688 z m 5.22103,1.6875 z m 10.14274,0.25 q -1.67187,0 -3.04687,-0.78125 -1.375,-0.79688 -2.15625,-2.17188 -0.78125,-1.375 -0.78125,-3.03125 0,-1.64062 0.78125,-3.01562 0.78125,-1.375 2.15625,-2.17188 1.375,-0.79687 3.04687,-0.79687 1.6875,0 3.04688,0.79687 1.375,0.79688 2.15625,2.17188 0.78125,1.375 0.78125,3.01562 0,1.65625 -0.78125,3.03125 -0.78125,1.375 -2.15625,2.17188 -1.35938,0.78125 -3.04688,0.78125 z m 0,-2.04688 q 1.0625,0 1.9375,-0.48437 0.875,-0.5 1.375,-1.39063 0.51563,-0.90625 0.51563,-2.0625 0,-1.14062 -0.51563,-2.03125 -0.5,-0.90625 -1.375,-1.39062 -0.875,-0.5 -1.9375,-0.5 -1.0625,0 -1.9375,0.5 -0.85937,0.48437 -1.375,1.39062 -0.5,0.89063 -0.5,2.03125 0,1.15625 0.5,2.0625 0.51563,0.89063 1.375,1.39063 0.875,0.48437 1.9375,0.48437 z m 7.67441,-6.35937 h 1.96875 v 0.98437 h 0.14063 q 0.32812,-0.53125 0.96875,-0.89062 0.64062,-0.35938 1.46875,-0.35938 1.10937,0 2.01562,0.5625 0.90625,0.54688 1.40625,1.54688 0.51563,0.98437 0.51563,2.23437 0,1.26563 -0.51563,2.25 -0.5,0.98438 -1.40625,1.53125 -0.90625,0.54688 -2.01562,0.54688 -0.82813,0 -1.48438,-0.34375 -0.64062,-0.35938 -0.95312,-0.875 h -0.14063 l 0.14063,1.14062 v 3.28125 h -2.10938 z m 4.1875,6.46875 q 0.59375,0 1.09375,-0.29688 0.51563,-0.29687 0.8125,-0.84375 0.3125,-0.54687 0.3125,-1.25 0,-0.70312 -0.3125,-1.25 -0.29687,-0.54687 -0.8125,-0.84375 -0.5,-0.29687 -1.09375,-0.29687 -0.57812,0 -1.09375,0.29687 -0.51562,0.29688 -0.82812,0.84375 -0.29688,0.54688 -0.29688,1.25 0,0.70313 0.29688,1.25 0.3125,0.54688 0.82812,0.84375 0.51563,0.29688 1.09375,0.29688 z m 9.14951,1.8125 q -0.60938,0 -1.125,-0.17188 -0.51563,-0.1875 -0.82813,-0.51562 -0.75,-0.71875 -0.75,-2.04688 v -3.76562 h -1.42187 v -1.78125 h 1.42187 v -2.3125 h 2.09375 v 2.3125 h 1.99999 v 1.78125 h -1.99999 v 3.39062 q 0,0.60938 0.26563,0.89063 0.23437,0.25 0.78123,0.25 0.29688,0 0.5,-0.0781 0.20313,-0.0781 0.51563,-0.26562 v 2.04687 q -0.6875,0.26563 -1.45311,0.26563 z m 4.39302,-9.1875 q -0.5625,0 -0.96875,-0.39063 -0.39063,-0.40625 -0.39063,-0.96875 0,-0.54687 0.39063,-0.9375 0.40625,-0.40625 0.96875,-0.40625 0.5625,0 0.95312,0.40625 0.39063,0.39063 0.39063,0.9375 0,0.5625 -0.39063,0.96875 -0.39062,0.39063 -0.95312,0.39063 z m -1.04688,0.90625 h 2.09375 v 8.15625 h -2.09375 z m 4.275,0 h 1.95312 v 1.01562 h 0.14063 q 0.375,-0.59375 1.01562,-0.9375 0.65625,-0.34375 1.45313,-0.34375 0.875,0 1.51562,0.42188 0.64063,0.40625 0.90625,1.03125 0.40625,-0.64063 1.09375,-1.04688 0.70313,-0.40625 1.64063,-0.40625 1.39062,0 2.10937,0.85938 0.73438,0.85937 0.73438,2.3125 v 5.25 h -2.07813 v -4.85938 q 0,-0.76562 -0.35937,-1.1875 -0.35938,-0.42187 -1,-0.42187 -0.8125,0 -1.29688,0.65625 -0.48437,0.64062 -0.48437,1.70312 v 4.10938 h -2.10938 v -4.85938 q 0,-0.76562 -0.375,-1.1875 -0.375,-0.42187 -1.0625,-0.42187 -0.76562,0 -1.23437,0.65625 -0.46875,0.64062 -0.46875,1.70312 v 4.10938 h -2.09375 z m 15.74792,-0.90625 q -0.5625,0 -0.96875,-0.39063 -0.39062,-0.40625 -0.39062,-0.96875 0,-0.54687 0.39062,-0.9375 0.40625,-0.40625 0.96875,-0.40625 0.5625,0 0.95313,0.40625 0.39062,0.39063 0.39062,0.9375 0,0.5625 -0.39062,0.96875 -0.39063,0.39063 -0.95313,0.39063 z m -1.04687,0.90625 h 2.09375 v 8.15625 h -2.09375 z m 3.85312,6.4375 4.25,-4.67188 h -4.125 v -1.76562 h 6.70312 v 1.70312 l -4.25,4.67188 h 4.375 v 1.78125 h -6.95312 z m 10.92227,1.96875 q -1.29688,0 -2.125,-0.75 -0.82813,-0.76563 -0.82813,-2 0,-0.8125 0.42188,-1.4375 0.4375,-0.625 1.1875,-0.95313 0.75,-0.34375 1.67187,-0.34375 1.26563,0 2.15625,0.375 v -0.35937 q 0,-0.67188 -0.51562,-1.07813 -0.5,-0.42187 -1.34375,-0.42187 -0.57813,0 -1.10938,0.26562 -0.53125,0.26563 -0.89062,0.6875 l -1.34375,-1.04687 q 0.59375,-0.76563 1.48437,-1.1875 0.90625,-0.42188 1.95313,-0.42188 1.875,0 2.84375,0.875 0.98437,0.85938 0.98437,2.51563 v 5.03125 h -2.0625 v -0.82813 h -0.125 q -0.375,0.46875 -0.98437,0.78125 -0.59375,0.29688 -1.375,0.29688 z m 0.5,-1.625 q 0.90625,0 1.4375,-0.57813 0.54687,-0.59375 0.54687,-1.375 -0.8125,-0.39062 -1.71875,-0.39062 -1.625,0 -1.625,1.21875 0,0.5 0.34375,0.8125 0.35938,0.3125 1.01563,0.3125 z m 9.37851,1.5 q -0.60938,0 -1.125,-0.17188 -0.51563,-0.1875 -0.82813,-0.51562 -0.75,-0.71875 -0.75,-2.04688 v -3.76562 h -1.42187 v -1.78125 h 1.42187 v -2.3125 h 2.09375 v 2.3125 h 2 v 1.78125 h -2 v 3.39062 q 0,0.60938 0.26563,0.89063 0.23437,0.25 0.78125,0.25 0.29687,0 0.5,-0.0781 0.20312,-0.0781 0.51562,-0.26562 v 2.04687 q -0.6875,0.26563 -1.45312,0.26563 z m 4.393,-9.1875 q -0.5625,0 -0.96875,-0.39063 -0.39062,-0.40625 -0.39062,-0.96875 0,-0.54687 0.39062,-0.9375 0.40625,-0.40625 0.96875,-0.40625 0.5625,0 0.95313,0.40625 0.39062,0.39063 0.39062,0.9375 0,0.5625 -0.39062,0.96875 -0.39063,0.39063 -0.95313,0.39063 z m -1.04687,0.90625 h 2.09375 v 8.15625 h -2.09375 z m 8.08563,8.40625 q -1.26562,0 -2.25,-0.5625 -0.98437,-0.5625 -1.54687,-1.54688 -0.54688,-0.98437 -0.54688,-2.21875 0,-1.21875 0.54688,-2.20312 0.5625,-1 1.54687,-1.5625 0.98438,-0.57813 2.25,-0.57813 1.25,0 2.23438,0.57813 1,0.5625 1.54687,1.5625 0.5625,0.98437 0.5625,2.20312 0,1.23438 -0.5625,2.21875 -0.54687,0.98438 -1.54687,1.54688 -0.98438,0.5625 -2.23438,0.5625 z m 0,-1.9375 q 0.60938,0 1.125,-0.28125 0.51563,-0.28125 0.8125,-0.82813 0.3125,-0.54687 0.3125,-1.28125 0,-0.71875 -0.3125,-1.26562 -0.29687,-0.54688 -0.8125,-0.82813 -0.51562,-0.29687 -1.125,-0.29687 -0.60937,0 -1.125,0.29687 -0.5,0.28125 -0.8125,0.82813 -0.3125,0.54687 -0.3125,1.26562 0,0.71875 0.3125,1.28125 0.3125,0.54688 0.8125,0.82813 0.51563,0.28125 1.125,0.28125 z m 5.7894,-6.46875 h 1.95312 v 1.01562 h 0.14063 q 0.35937,-0.59375 1.03125,-0.9375 0.67187,-0.34375 1.45312,-0.34375 1.48438,0 2.25,0.90625 0.76563,0.89063 0.76563,2.4375 v 5.07813 h -2.09375 v -4.8125 q 0,-0.78125 -0.40625,-1.21875 -0.39063,-0.4375 -1.10938,-0.4375 -0.85937,0 -1.375,0.65625 -0.51562,0.65625 -0.51562,1.65625 v 4.15625 h -2.09375 z m 8.55276,8.15625 z m 5.05652,-11.45313 h 4.03125 q 1.09375,0 1.98438,0.45313 0.89062,0.45312 1.40625,1.28125 0.51562,0.82812 0.51562,1.875 0,1.0625 -0.51562,1.89062 -0.51563,0.82813 -1.40625,1.29688 -0.89063,0.45312 -1.98438,0.45312 h -1.875 v 4.20313 h -2.15625 z m 4.09375,5.20313 q 0.79688,0 1.25,-0.46875 0.46875,-0.46875 0.46875,-1.125 0,-0.65625 -0.46875,-1.10938 -0.45312,-0.45312 -1.25,-0.45312 h -1.9375 v 3.15625 z m 7.54938,6.5 q -1.29688,0 -2.125,-0.75 -0.82813,-0.76563 -0.82813,-2 0,-0.8125 0.42188,-1.4375 0.4375,-0.625 1.1875,-0.95313 0.75,-0.34375 1.67187,-0.34375 1.26563,0 2.15625,0.375 v -0.35937 q 0,-0.67188 -0.51562,-1.07813 -0.5,-0.42187 -1.34375,-0.42187 -0.57813,0 -1.10938,0.26562 -0.53125,0.26563 -0.89062,0.6875 l -1.34375,-1.04687 q 0.59375,-0.76563 1.48437,-1.1875 0.90625,-0.42188 1.95313,-0.42188 1.875,0 2.84375,0.875 0.98437,0.85938 0.98437,2.51563 v 5.03125 h -2.0625 v -0.82813 h -0.125 q -0.375,0.46875 -0.98437,0.78125 -0.59375,0.29688 -1.375,0.29688 z m 0.5,-1.625 q 0.90625,0 1.4375,-0.57813 0.54687,-0.59375 0.54687,-1.375 -0.8125,-0.39062 -1.71875,-0.39062 -1.625,0 -1.625,1.21875 0,0.5 0.34375,0.8125 0.35938,0.3125 1.01563,0.3125 z m 9.0054,1.625 q -1.48437,0 -2.40625,-0.59375 -0.92187,-0.60938 -1.28125,-1.59375 l 1.85938,-0.8125 q 0.26562,0.57812 0.73437,0.875 0.46875,0.29687 1.09375,0.29687 0.57813,0 0.95313,-0.1875 0.39062,-0.1875 0.39062,-0.60937 0,-0.39063 -0.35937,-0.59375 -0.34375,-0.20313 -1.04688,-0.35938 l -0.95312,-0.20312 q -1,-0.25 -1.65625,-0.875 -0.65625,-0.64063 -0.65625,-1.57813 0,-0.70312 0.42187,-1.26562 0.42188,-0.5625 1.15625,-0.85938 0.73438,-0.3125 1.60938,-0.3125 2.53125,0 3.375,1.78125 l -1.79688,0.78125 q -0.46875,-0.85937 -1.53125,-0.85937 -0.54687,0 -0.875,0.20312 -0.3125,0.20313 -0.3125,0.5 0,0.57813 1.09375,0.85938 l 1.20313,0.29687 q 1.21875,0.29688 1.82812,0.92188 0.60938,0.625 0.60938,1.53125 0,0.79687 -0.45313,1.39062 -0.45312,0.59375 -1.25,0.9375 -0.78125,0.32813 -1.75,0.32813 z m 8.08002,0 q -1.48438,0 -2.40625,-0.59375 -0.92188,-0.60938 -1.28125,-1.59375 l 1.85937,-0.8125 q 0.26563,0.57812 0.73438,0.875 0.46875,0.29687 1.09375,0.29687 0.57812,0 0.95312,-0.1875 0.39063,-0.1875 0.39063,-0.60937 0,-0.39063 -0.35938,-0.59375 -0.34375,-0.20313 -1.04687,-0.35938 l -0.95313,-0.20312 q -1,-0.25 -1.65625,-0.875 -0.65625,-0.64063 -0.65625,-1.57813 0,-0.70312 0.42188,-1.26562 0.42187,-0.5625 1.15625,-0.85938 0.73437,-0.3125 1.60937,-0.3125 2.53125,0 3.375,1.78125 l -1.79687,0.78125 q -0.46875,-0.85937 -1.53125,-0.85937 -0.54688,0 -0.875,0.20312 -0.3125,0.20313 -0.3125,0.5 0,0.57813 1.09375,0.85938 l 1.20312,0.29687 q 1.21875,0.29688 1.82813,0.92188 0.60937,0.625 0.60937,1.53125 0,0.79687 -0.45312,1.39062 -0.45313,0.59375 -1.25,0.9375 -0.78125,0.32813 -1.75,0.32813 z m 8.87875,0 q -1.21875,0 -2.1875,-0.54688 -0.96875,-0.5625 -1.53125,-1.54687 -0.54687,-0.98438 -0.54687,-2.21875 0,-1.17188 0.53125,-2.17188 0.54687,-1 1.5,-1.59375 0.96875,-0.59375 2.15625,-0.59375 1.26562,0 2.17187,0.54688 0.92188,0.54687 1.39063,1.5 0.46875,0.9375 0.46875,2.09375 0,0.35937 -0.0469,0.70312 h -6.125 q 0.15625,0.96875 0.76563,1.48438 0.625,0.5 1.48437,0.5 0.71875,0 1.23438,-0.3125 0.53125,-0.3125 0.82812,-0.84375 l 1.70313,0.82812 q -1.25,2.17188 -3.79688,2.17188 z m 1.9375,-5.32813 q -0.0312,-0.375 -0.28125,-0.75 -0.25,-0.375 -0.6875,-0.625 -0.4375,-0.25 -1.03125,-0.25 -0.75,0 -1.29687,0.4375 -0.53125,0.4375 -0.76563,1.1875 z m 6.8158,5.32813 q -1.48438,0 -2.40625,-0.59375 -0.92188,-0.60938 -1.28125,-1.59375 l 1.85937,-0.8125 q 0.26563,0.57812 0.73438,0.875 0.46875,0.29687 1.09375,0.29687 0.57812,0 0.95312,-0.1875 0.39063,-0.1875 0.39063,-0.60937 0,-0.39063 -0.35938,-0.59375 -0.34375,-0.20313 -1.04687,-0.35938 l -0.95313,-0.20312 q -1,-0.25 -1.65625,-0.875 -0.65625,-0.64063 -0.65625,-1.57813 0,-0.70312 0.42188,-1.26562 0.42187,-0.5625 1.15625,-0.85938 0.73437,-0.3125 1.60937,-0.3125 2.53125,0 3.375,1.78125 l -1.79687,0.78125 q -0.46875,-0.85937 -1.53125,-0.85937 -0.54688,0 -0.875,0.20312 -0.3125,0.20313 -0.3125,0.5 0,0.57813 1.09375,0.85938 l 1.20312,0.29687 q 1.21875,0.29688 1.82813,0.92188 0.60937,0.625 0.60937,1.53125 0,0.79687 -0.45312,1.39062 -0.45313,0.59375 -1.25,0.9375 -0.78125,0.32813 -1.75,0.32813 z m 3.95502,-0.25 z m 7.5877,2.17187 q -1.14062,-1.26563 -1.98437,-3.20312 -0.82813,-1.9375 -0.82813,-4.125 0,-2.17188 0.82813,-4.10938 0.84375,-1.95312 1.98437,-3.21875 l 1.57813,1.09375 q -2.29688,2.85938 -2.29688,6.23438 0,3.375 2.29688,6.24999 z m 3.21277,-13.625 h 2.78125 l 3.04688,8.04688 h 0.125 l 3.03125,-8.04688 h 2.8125 v 11.45313 h -2.15625 v -5.64063 l 0.14062,-1.90625 h -0.14062 l -2.90625,7.54688 h -1.67188 l -2.9375,-7.54688 h -0.125 l 0.125,1.90625 v 5.64063 h -2.125 z m 14.40003,0 h 2.15625 v 9.40625 h 4.84375 v 2.04688 h -7 z m 8.81604,0 h 2.15625 v 11.45313 h -2.15625 z m 4.768,0 h 4.17188 q 1.125,0 2,0.46875 0.875,0.45313 1.34375,1.28125 0.48437,0.82813 0.48437,1.85938 0,1.10937 -0.70312,1.96875 -0.6875,0.84375 -1.75,1.23437 l -0.0156,0.10938 3.07813,4.40625 v 0.125 h -2.48438 l -2.95312,-4.29688 h -1.01563 v 4.29688 h -2.15625 z m 4.15625,5.17188 q 0.73438,0 1.20313,-0.45313 0.46875,-0.45312 0.46875,-1.14062 0,-0.65625 -0.45313,-1.10938 -0.4375,-0.46875 -1.1875,-0.46875 h -2.03125 v 3.17188 z m 4.98779,7.37499 q 2.3125,-2.87499 2.3125,-6.24999 0,-3.375 -2.3125,-6.23438 l 1.59375,-1.09375 q 1.14063,1.26563 1.96875,3.21875 0.84375,1.9375 0.84375,4.10938 0,2.1875 -0.84375,4.125 -0.82812,1.93749 -1.96875,3.20312 z" />
  </g>
  <path
     style="fill:#ffd966;fill-rule:evenodd"
     inkscape:connector-curvature="0"
     id="path1392"
     d="m 106.77615,49.564213 v 0 c 0,-6.296917 5.10465,-11.401577 11.40157,-11.401577 h 78.83464 c 3.0239,0 5.92392,1.201233 8.06214,3.339443 2.13821,2.13821 3.33944,5.038246 3.33944,8.062134 v 0 0 c 0,6.296913 -5.10466,11.401573 -11.40158,11.401573 h -78.83464 c -6.29692,0 -11.40157,-5.10466 -11.40157,-11.401573 z" />
  <path
     style="fill-rule:evenodd;stroke:#595959;stroke-width:1;stroke-linecap:butt;stroke-linejoin:round"
     inkscape:connector-curvature="0"
     id="path1394"
     d="m 106.77615,49.564213 v 0 c 0,-6.296917 5.10465,-11.401577 11.40157,-11.401577 h 78.83464 c 3.0239,0 5.92392,1.201233 8.06214,3.339443 2.13821,2.13821 3.33944,5.038246 3.33944,8.062134 v 0 0 c 0,6.296913 -5.10466,11.401573 -11.40158,11.401573 h -78.83464 c -6.29692,0 -11.40157,-5.10466 -11.40157,-11.401573 z" />
  <path
     style="fill:#000000;fill-rule:nonzero"
     inkscape:connector-curvature="0"
     id="path1396"
     d="M 127.52084,55.424203 V 45.314832 h -3.78125 v -1.34375 h 9.07812 v 1.34375 h -3.78125 v 10.109371 z m 6.92969,0 V 43.971082 h 7.73437 v 1.34375 h -6.21875 v 3.546871 h 5.375 v 1.359375 h -5.375 v 5.203125 z m 19.5,-4.5 v -1.34375 h 4.85937 v 4.25 q -1.125,0.890625 -2.3125,1.34375 -1.1875,0.453125 -2.4375,0.453125 -1.6875,0 -3.0625,-0.71875 -1.375,-0.734375 -2.07812,-2.09375 -0.70313,-1.375 -0.70313,-3.0625 0,-1.671875 0.6875,-3.124996 0.70313,-1.453125 2.01563,-2.15625 1.3125,-0.703125 3.03125,-0.703125 1.23437,0 2.23437,0.40625 1.01563,0.40625 1.57813,1.125 0.57812,0.71875 0.875,1.875 l -1.375,0.374996 q -0.25,-0.874996 -0.64063,-1.374996 -0.375,-0.5 -1.09375,-0.796875 -0.70312,-0.3125 -1.57812,-0.3125 -1.03125,0 -1.79688,0.328125 -0.75,0.3125 -1.21875,0.828125 -0.46875,0.515625 -0.71875,1.125 -0.4375,1.062496 -0.4375,2.312496 0,1.53125 0.51563,2.5625 0.53125,1.03125 1.53125,1.53125 1.01562,0.5 2.15625,0.5 0.98437,0 1.92187,-0.375 0.9375,-0.390625 1.42188,-0.8125 v -2.140625 z m 6.89843,4.5 v -8.296871 h 1.26563 v 1.249996 q 0.48437,-0.875 0.89062,-1.156246 0.40625,-0.28125 0.90625,-0.28125 0.70313,0 1.4375,0.453125 l -0.48437,1.296871 q -0.51563,-0.296875 -1.03125,-0.296875 -0.45313,0 -0.82813,0.28125 -0.35937,0.265625 -0.51562,0.765625 -0.23438,0.75 -0.23438,1.640625 v 4.34375 z m 10.75,-1.03125 q -0.78125,0.671875 -1.5,0.953125 -0.71875,0.265625 -1.54687,0.265625 -1.375,0 -2.10938,-0.671875 -0.73437,-0.671875 -0.73437,-1.703125 0,-0.609375 0.28125,-1.109375 0.28125,-0.515625 0.71875,-0.8125 0.45312,-0.3125 1.01562,-0.46875 0.42188,-0.109375 1.25,-0.203125 1.70313,-0.203125 2.51563,-0.484375 0,-0.296875 0,-0.375 0,-0.859375 -0.39063,-1.203125 -0.54687,-0.484375 -1.60937,-0.484375 -0.98438,0 -1.46875,0.359375 -0.46875,0.34375 -0.6875,1.21875 l -1.375,-0.1875 q 0.1875,-0.875 0.60937,-1.421875 0.4375,-0.546875 1.25,-0.828121 0.8125,-0.296875 1.875,-0.296875 1.0625,0 1.71875,0.25 0.67188,0.25 0.98438,0.624996 0.3125,0.375 0.4375,0.953125 0.0781,0.359375 0.0781,1.296875 v 1.875 q 0,1.96875 0.0781,2.484375 0.0937,0.515625 0.35937,1 h -1.46875 q -0.21875,-0.4375 -0.28125,-1.03125 z m -0.10937,-3.140625 q -0.76563,0.3125 -2.29688,0.53125 -0.875,0.125 -1.23437,0.28125 -0.35938,0.15625 -0.5625,0.46875 -0.1875,0.296875 -0.1875,0.65625 0,0.5625 0.42187,0.9375 0.4375,0.375 1.25,0.375 0.8125,0 1.4375,-0.34375 0.64063,-0.359375 0.9375,-0.984375 0.23438,-0.46875 0.23438,-1.40625 z m 3.60156,7.359375 V 47.127332 h 1.28125 v 1.078121 q 0.45313,-0.640625 1.01563,-0.953121 0.57812,-0.3125 1.39062,-0.3125 1.0625,0 1.875,0.546871 0.8125,0.546875 1.21875,1.546875 0.42188,0.984375 0.42188,2.171875 0,1.28125 -0.46875,2.296875 -0.45313,1.015625 -1.32813,1.5625 -0.85937,0.546875 -1.82812,0.546875 -0.70313,0 -1.26563,-0.296875 -0.54687,-0.296875 -0.90625,-0.75 v 4.046875 z m 1.26563,-7.296875 q 0,1.609375 0.64062,2.375 0.65625,0.765625 1.57813,0.765625 0.9375,0 1.60937,-0.796875 0.67188,-0.796875 0.67188,-2.453125 0,-1.59375 -0.65625,-2.375 -0.65625,-0.796875 -1.5625,-0.796875 -0.89063,0 -1.59375,0.84375 -0.6875,0.84375 -0.6875,2.4375 z m 7.63281,4.109375 V 43.971082 h 1.40625 v 4.109371 q 0.98437,-1.140621 2.48437,-1.140621 0.92188,0 1.59375,0.359375 0.6875,0.359371 0.96875,0.999996 0.29688,0.640625 0.29688,1.859375 v 5.265625 h -1.40625 v -5.265625 q 0,-1.046875 -0.45313,-1.53125 -0.45312,-0.484375 -1.29687,-0.484375 -0.625,0 -1.17188,0.328125 -0.54687,0.328125 -0.78125,0.890625 -0.23437,0.546875 -0.23437,1.515625 v 4.546875 z" />
  <path
     style="fill:#000000;fill-opacity:0;fill-rule:evenodd"
     inkscape:connector-curvature="0"
     id="path1398"
     d="M 39.978609,46.000303 39.443174,260.20501" />
  <path
     style="fill-rule:evenodd;stroke:#ff6f00;stroke-width:2;stroke-linecap:butt;stroke-linejoin:round"
     inkscape:connector-curvature="0"
     id="path1400"
     d="M 39.978609,46.000298 39.473169,248.20505" />
  <path
     style="fill:#ff6f00;fill-rule:evenodd;stroke:#ff6f00;stroke-width:2;stroke-linecap:butt"
     inkscape:connector-curvature="0"
     id="path1402"
     d="m 36.169718,248.19681 3.280765,9.08441 3.32614,-9.0679 z" />
  <path
     style="fill:#ffd966;fill-rule:evenodd"
     inkscape:connector-curvature="0"
     id="path1404"
     d="m 104.24541,133.19206 v 0 c 0,-6.29692 5.10466,-11.40158 11.40157,-11.40158 H 289.8832 c 3.0239,0 5.92392,1.20123 8.06214,3.33945 2.13821,2.13821 3.33944,5.03823 3.33944,8.06213 v 0 0 c 0,6.29691 -5.10467,11.40157 -11.40158,11.40157 H 115.64698 c -6.29691,0 -11.40157,-5.10466 -11.40157,-11.40157 z" />
  <path
     style="fill-rule:evenodd;stroke:#595959;stroke-width:1;stroke-linecap:butt;stroke-linejoin:round"
     inkscape:connector-curvature="0"
     id="path1406"
     d="m 104.24541,133.19206 v 0 c 0,-6.29692 5.10466,-11.40158 11.40157,-11.40158 H 289.8832 c 3.0239,0 5.92392,1.20123 8.06214,3.33945 2.13821,2.13821 3.33944,5.03823 3.33944,8.06213 v 0 0 c 0,6.29691 -5.10467,11.40157 -11.40158,11.40157 H 115.64698 c -6.29691,0 -11.40157,-5.10466 -11.40157,-11.40157 z" />
  <path
     style="fill:#000000;fill-rule:nonzero"
     inkscape:connector-curvature="0"
     id="path1408"
     d="m 146.31196,139.05206 v -11.45313 h 2.28125 l 2.71875,8.10938 q 0.375,1.125 0.54687,1.6875 0.1875,-0.625 0.60938,-1.82813 l 2.73437,-7.96875 h 2.04688 v 11.45313 h -1.46875 v -9.59375 l -3.32813,9.59375 h -1.35937 l -3.3125,-9.75 v 9.75 z m 13.3125,0 v -11.45313 h 1.51562 v 10.09375 h 5.64063 v 1.35938 z m 9.22656,0 v -11.45313 h 1.51563 v 11.45313 z m 4.21094,0 v -11.45313 h 5.07812 q 1.53125,0 2.32813,0.3125 0.79687,0.29688 1.26562,1.07813 0.48438,0.78125 0.48438,1.73437 0,1.21875 -0.79688,2.0625 -0.78125,0.82813 -2.4375,1.04688 0.60938,0.29687 0.92188,0.57812 0.65625,0.60938 1.25,1.51563 l 2,3.125 h -1.90625 l -1.51563,-2.39063 q -0.67187,-1.03125 -1.10937,-1.57812 -0.42188,-0.54688 -0.76563,-0.76563 -0.32812,-0.21875 -0.6875,-0.29687 -0.25,-0.0625 -0.84375,-0.0625 h -1.75 v 5.09375 z m 1.51562,-6.40625 h 3.25 q 1.04688,0 1.625,-0.20313 0.59375,-0.21875 0.89063,-0.6875 0.3125,-0.48437 0.3125,-1.03125 0,-0.8125 -0.59375,-1.32812 -0.59375,-0.53125 -1.85938,-0.53125 h -3.625 z m 17.08594,6.40625 v -10.10938 h -3.78125 v -1.34375 h 9.07813 v 1.34375 h -3.78125 v 10.10938 z m 6.92969,0 v -11.45313 h 7.73438 v 1.34375 h -6.21875 v 3.54688 h 5.375 v 1.35937 h -5.375 v 5.20313 z m 14.14063,0 v -11.45313 h 3.95312 q 1.32813,0 2.03125,0.15625 0.98438,0.23438 1.6875,0.82813 0.90625,0.76562 1.34375,1.95312 0.45313,1.1875 0.45313,2.71875 0,1.3125 -0.3125,2.32813 -0.29688,1 -0.78125,1.65625 -0.46875,0.65625 -1.03125,1.04687 -0.5625,0.375 -1.375,0.57813 -0.79688,0.1875 -1.82813,0.1875 z m 1.51562,-1.35938 h 2.45313 q 1.125,0 1.76562,-0.20312 0.65625,-0.21875 1.03125,-0.59375 0.54688,-0.54688 0.84375,-1.45313 0.29688,-0.90625 0.29688,-2.20312 0,-1.79688 -0.59375,-2.76563 -0.57813,-0.96875 -1.42188,-1.29687 -0.60937,-0.23438 -1.96875,-0.23438 h -2.40625 z m 9.86719,-8.48437 v -1.60938 h 1.40625 v 1.60938 z m 0,9.84375 v -8.29688 h 1.40625 v 8.29688 z m 8.96094,-1.03125 q -0.78125,0.67187 -1.5,0.95312 -0.71875,0.26563 -1.54688,0.26563 -1.375,0 -2.10937,-0.67188 -0.73438,-0.67187 -0.73438,-1.70312 0,-0.60938 0.28125,-1.10938 0.28125,-0.51562 0.71875,-0.8125 0.45313,-0.3125 1.01563,-0.46875 0.42187,-0.10937 1.25,-0.20312 1.70312,-0.20313 2.51562,-0.48438 0,-0.29687 0,-0.375 0,-0.85937 -0.39062,-1.20312 -0.54688,-0.48438 -1.60938,-0.48438 -0.98437,0 -1.46875,0.35938 -0.46875,0.34375 -0.6875,1.21875 l -1.375,-0.1875 q 0.1875,-0.875 0.60938,-1.42188 0.4375,-0.54687 1.25,-0.82812 0.8125,-0.29688 1.875,-0.29688 1.0625,0 1.71875,0.25 0.67187,0.25 0.98437,0.625 0.3125,0.375 0.4375,0.95313 0.0781,0.35937 0.0781,1.29687 v 1.875 q 0,1.96875 0.0781,2.48438 0.0937,0.51562 0.35938,1 h -1.46875 q -0.21875,-0.4375 -0.28125,-1.03125 z m -0.10938,-3.14063 q -0.76562,0.3125 -2.29687,0.53125 -0.875,0.125 -1.23438,0.28125 -0.35937,0.15625 -0.5625,0.46875 -0.1875,0.29688 -0.1875,0.65625 0,0.5625 0.42188,0.9375 0.4375,0.375 1.25,0.375 0.8125,0 1.4375,-0.34375 0.64062,-0.35937 0.9375,-0.98437 0.23437,-0.46875 0.23437,-1.40625 z m 3.57031,4.17188 v -11.45313 h 1.40625 v 11.45313 z m 9.2578,-2.67188 1.45313,0.17188 q -0.34375,1.28125 -1.28125,1.98437 -0.92188,0.70313 -2.35938,0.70313 -1.82812,0 -2.89062,-1.125 -1.06249,-1.125 -1.06249,-3.14063 0,-2.09375 1.07811,-3.25 1.07813,-1.15625 2.79688,-1.15625 1.65625,0 2.70312,1.14063 1.0625,1.125 1.0625,3.17187 0,0.125 0,0.375 h -6.1875 q 0.0781,1.375 0.76563,2.10938 0.70312,0.71875 1.73437,0.71875 0.78125,0 1.32813,-0.40625 0.54687,-0.40625 0.85937,-1.29688 z m -4.60937,-2.28125 h 4.625 q -0.0937,-1.04687 -0.53125,-1.5625 -0.67188,-0.8125 -1.73438,-0.8125 -0.96875,0 -1.64062,0.65625 -0.65625,0.64063 -0.71875,1.71875 z m 13.24218,1.90625 1.39063,0.1875 q -0.23438,1.42188 -1.17188,2.23438 -0.92187,0.8125 -2.28125,0.8125 -1.70312,0 -2.75,-1.10938 -1.03125,-1.125 -1.03125,-3.20312 0,-1.34375 0.4375,-2.34375 0.45313,-1.01563 1.35938,-1.51563 0.92187,-0.5 1.98437,-0.5 1.35938,0 2.21875,0.6875 0.85938,0.67188 1.09375,1.9375 l -1.35937,0.20313 q -0.20313,-0.82813 -0.70313,-1.25 -0.48437,-0.42188 -1.1875,-0.42188 -1.0625,0 -1.73437,0.76563 -0.65625,0.75 -0.65625,2.40625 0,1.67187 0.64062,2.4375 0.64063,0.75 1.67188,0.75 0.82812,0 1.375,-0.5 0.5625,-0.51563 0.70312,-1.57813 z m 5.65625,1.78125 0.20313,1.25 q -0.59375,0.125 -1.0625,0.125 -0.76563,0 -1.1875,-0.23437 -0.42188,-0.25 -0.59375,-0.64063 -0.17188,-0.40625 -0.17188,-1.67187 v -4.76563 h -1.03125 v -1.09375 h 1.03125 v -2.0625 l 1.40625,-0.84375 v 2.90625 h 1.40625 v 1.09375 h -1.40625 v 4.84375 q 0,0.60938 0.0625,0.78125 0.0781,0.17188 0.25,0.28125 0.17188,0.0937 0.48438,0.0937 0.23437,0 0.60937,-0.0625 z" />
  <path
     style="fill:#d9d9d9;fill-rule:evenodd"
     inkscape:connector-curvature="0"
     id="path1410"
     d="m 104.2451,177.00202 v 0 c 0,-6.29692 5.10466,-11.40157 11.40157,-11.40157 h 209.95274 c 3.0239,0 5.92395,1.20124 8.06214,3.33944 2.13821,2.13821 3.33944,5.03825 3.33944,8.06213 v 0 0 c 0,6.29692 -5.10464,11.40158 -11.40158,11.40158 H 115.64667 c -6.29691,0 -11.40157,-5.10466 -11.40157,-11.40158 z" />
  <path
     style="fill-rule:evenodd;stroke:#595959;stroke-width:1;stroke-linecap:butt;stroke-linejoin:round"
     inkscape:connector-curvature="0"
     id="path1412"
     d="m 104.2451,177.00202 v 0 c 0,-6.29692 5.10466,-11.40157 11.40157,-11.40157 h 209.95274 c 3.0239,0 5.92395,1.20124 8.06214,3.33944 2.13821,2.13821 3.33944,5.03825 3.33944,8.06213 v 0 0 c 0,6.29692 -5.10464,11.40158 -11.40158,11.40158 H 115.64667 c -6.29691,0 -11.40157,-5.10466 -11.40157,-11.40158 z" />
  <path
     style="fill:#000000;fill-rule:nonzero"
     inkscape:connector-curvature="0"
     id="path1414"
     d="m 123.2754,182.86202 v -10.10938 h -3.78125 v -1.34375 h 9.07812 v 1.34375 h -3.78125 v 10.10938 z m 6.92969,0 v -11.45313 h 7.73437 v 1.34375 h -6.21875 v 3.54688 h 5.375 v 1.35937 h -5.375 v 5.20313 z m 9.72656,0 v -11.45313 h 5.07812 q 1.53125,0 2.32813,0.3125 0.79687,0.29688 1.26562,1.07813 0.48438,0.78125 0.48438,1.73437 0,1.21875 -0.79688,2.0625 -0.78125,0.82813 -2.4375,1.04688 0.60938,0.29687 0.92188,0.57812 0.65625,0.60938 1.25,1.51563 l 2,3.125 h -1.90625 l -1.51563,-2.39063 q -0.67187,-1.03125 -1.10937,-1.57812 -0.42188,-0.54688 -0.76563,-0.76563 -0.32812,-0.21875 -0.6875,-0.29687 -0.25,-0.0625 -0.84375,-0.0625 h -1.75 v 5.09375 z m 1.51562,-6.40625 h 3.25 q 1.04688,0 1.625,-0.20313 0.59375,-0.21875 0.89063,-0.6875 0.3125,-0.48437 0.3125,-1.03125 0,-0.8125 -0.59375,-1.32812 -0.59375,-0.53125 -1.85938,-0.53125 h -3.625 z m 12.64063,6.40625 v -10.10938 h -3.78125 v -1.34375 h 9.07812 v 1.34375 h -3.78125 v 10.10938 z m 11.05469,0 v -11.45313 h 1.51562 v 4.70313 h 5.95313 v -4.70313 h 1.51562 v 11.45313 h -1.51562 v -5.40625 h -5.95313 v 5.40625 z m 10.80468,-4.15625 q 0,-2.29688 1.28125,-3.40625 1.07813,-0.92188 2.60938,-0.92188 1.71875,0 2.79687,1.125 1.09375,1.10938 1.09375,3.09375 0,1.59375 -0.48437,2.51563 -0.48438,0.92187 -1.40625,1.4375 -0.90625,0.5 -2,0.5 -1.73438,0 -2.8125,-1.10938 -1.07813,-1.125 -1.07813,-3.23437 z m 1.45313,0 q 0,1.59375 0.6875,2.39062 0.70312,0.79688 1.75,0.79688 1.04687,0 1.73437,-0.79688 0.70313,-0.79687 0.70313,-2.4375 0,-1.53125 -0.70313,-2.32812 -0.6875,-0.79688 -1.73437,-0.79688 -1.04688,0 -1.75,0.79688 -0.6875,0.78125 -0.6875,2.375 z m 7.41406,1.67187 1.39063,-0.21875 q 0.10937,0.84375 0.64062,1.29688 0.54688,0.4375 1.5,0.4375 0.96875,0 1.4375,-0.39063 0.46875,-0.40625 0.46875,-0.9375 0,-0.46875 -0.40625,-0.75 -0.29687,-0.1875 -1.4375,-0.46875 -1.54687,-0.39062 -2.15625,-0.67187 -0.59375,-0.29688 -0.90625,-0.79688 -0.29687,-0.5 -0.29687,-1.10937 0,-0.5625 0.25,-1.03125 0.25,-0.46875 0.6875,-0.78125 0.32812,-0.25 0.89062,-0.40625 0.57813,-0.17188 1.21875,-0.17188 0.98438,0 1.71875,0.28125 0.73438,0.28125 1.07813,0.76563 0.35937,0.46875 0.5,1.28125 l -1.375,0.1875 q -0.0937,-0.64063 -0.54688,-1 -0.45312,-0.35938 -1.26562,-0.35938 -0.96875,0 -1.39063,0.32813 -0.40625,0.3125 -0.40625,0.73437 0,0.28125 0.17188,0.5 0.17187,0.21875 0.53125,0.375 0.21875,0.0781 1.25,0.35938 1.48437,0.39062 2.07812,0.65625 0.59375,0.25 0.92188,0.73437 0.34375,0.48438 0.34375,1.20313 0,0.70312 -0.42188,1.32812 -0.40625,0.60938 -1.1875,0.95313 -0.76562,0.34375 -1.73437,0.34375 -1.625,0 -2.46875,-0.67188 -0.84375,-0.67187 -1.07813,-2 z m 11.625,1.21875 0.20313,1.25 q -0.59375,0.125 -1.0625,0.125 -0.76563,0 -1.1875,-0.23437 -0.42188,-0.25 -0.59375,-0.64063 -0.17188,-0.40625 -0.17188,-1.67187 v -4.76563 h -1.03125 v -1.09375 h 1.03125 v -2.0625 l 1.40625,-0.84375 v 2.90625 h 1.40625 v 1.09375 h -1.40625 v 4.84375 q 0,0.60938 0.0625,0.78125 0.0781,0.17188 0.25,0.28125 0.17188,0.0937 0.48438,0.0937 0.23437,0 0.60937,-0.0625 z m 6,1.26563 v -11.45313 h 4.32813 q 1.14062,0 1.73437,0.10938 0.84375,0.14062 1.40625,0.53125 0.57813,0.39062 0.92188,1.10937 0.35937,0.70313 0.35937,1.5625 0,1.45313 -0.9375,2.46875 -0.92187,1.01563 -3.35937,1.01563 h -2.9375 v 4.65625 z m 1.51563,-6.01563 h 2.96875 q 1.46875,0 2.07812,-0.54687 0.625,-0.54688 0.625,-1.53125 0,-0.71875 -0.375,-1.23438 -0.35937,-0.51562 -0.95312,-0.67187 -0.375,-0.10938 -1.40625,-0.10938 h -2.9375 z m 8.96875,6.01563 v -8.29688 h 1.26562 v 1.25 q 0.48438,-0.875 0.89063,-1.15625 0.40625,-0.28125 0.90625,-0.28125 0.70312,0 1.4375,0.45313 l -0.48438,1.29687 q -0.51562,-0.29687 -1.03125,-0.29687 -0.45312,0 -0.82812,0.28125 -0.35938,0.26562 -0.51563,0.76562 -0.23437,0.75 -0.23437,1.64063 v 4.34375 z m 4.8125,-4.15625 q 0,-2.29688 1.28125,-3.40625 1.07812,-0.92188 2.60937,-0.92188 1.71875,0 2.79688,1.125 1.09375,1.10938 1.09375,3.09375 0,1.59375 -0.48438,2.51563 -0.48437,0.92187 -1.40625,1.4375 -0.90625,0.5 -2,0.5 -1.73437,0 -2.8125,-1.10938 -1.07812,-1.125 -1.07812,-3.23437 z m 1.45312,0 q 0,1.59375 0.6875,2.39062 0.70313,0.79688 1.75,0.79688 1.04688,0 1.73438,-0.79688 0.70312,-0.79687 0.70312,-2.4375 0,-1.53125 -0.70312,-2.32812 -0.6875,-0.79688 -1.73438,-0.79688 -1.04687,0 -1.75,0.79688 -0.6875,0.78125 -0.6875,2.375 z m 7.71094,4.84375 1.375,0.20312 q 0.0781,0.64063 0.46875,0.92188 0.53125,0.39062 1.4375,0.39062 0.96875,0 1.5,-0.39062 0.53125,-0.39063 0.71875,-1.09375 0.10937,-0.42188 0.10937,-1.8125 -0.92187,1.09375 -2.29687,1.09375 -1.71875,0 -2.65625,-1.23438 -0.9375,-1.23437 -0.9375,-2.96875 0,-1.1875 0.42187,-2.1875 0.4375,-1 1.25,-1.54687 0.82813,-0.54688 1.92188,-0.54688 1.46875,0 2.42187,1.1875 v -1 h 1.29688 v 7.17188 q 0,1.9375 -0.39063,2.75 -0.39062,0.8125 -1.25,1.28125 -0.85937,0.46875 -2.10937,0.46875 -1.48438,0 -2.40625,-0.67188 -0.90625,-0.67187 -0.875,-2.01562 z m 1.17187,-4.98438 q 0,1.625 0.64063,2.375 0.65625,0.75 1.625,0.75 0.96875,0 1.625,-0.73437 0.65625,-0.75 0.65625,-2.34375 0,-1.53125 -0.67188,-2.29688 -0.67187,-0.78125 -1.625,-0.78125 -0.9375,0 -1.59375,0.76563 -0.65625,0.76562 -0.65625,2.26562 z m 7.97657,4.29688 v -8.29688 h 1.26562 v 1.25 q 0.48438,-0.875 0.89063,-1.15625 0.40625,-0.28125 0.90625,-0.28125 0.70312,0 1.43748,0.45313 l -0.48436,1.29687 q -0.51562,-0.29687 -1.03125,-0.29687 -0.45312,0 -0.82812,0.28125 -0.35938,0.26562 -0.51563,0.76562 -0.23437,0.75 -0.23437,1.64063 v 4.34375 z m 10.74998,-1.03125 q -0.78125,0.67187 -1.5,0.95312 -0.71875,0.26563 -1.54687,0.26563 -1.375,0 -2.10938,-0.67188 -0.73437,-0.67187 -0.73437,-1.70312 0,-0.60938 0.28125,-1.10938 0.28125,-0.51562 0.71875,-0.8125 0.45312,-0.3125 1.01562,-0.46875 0.42188,-0.10937 1.25,-0.20312 1.70313,-0.20313 2.51563,-0.48438 0,-0.29687 0,-0.375 0,-0.85937 -0.39063,-1.20312 -0.54687,-0.48438 -1.60937,-0.48438 -0.98438,0 -1.46875,0.35938 -0.46875,0.34375 -0.6875,1.21875 l -1.375,-0.1875 q 0.1875,-0.875 0.60937,-1.42188 0.4375,-0.54687 1.25,-0.82812 0.8125,-0.29688 1.875,-0.29688 1.0625,0 1.71875,0.25 0.67188,0.25 0.98438,0.625 0.3125,0.375 0.4375,0.95313 0.0781,0.35937 0.0781,1.29687 v 1.875 q 0,1.96875 0.0781,2.48438 0.0937,0.51562 0.35937,1 h -1.46875 q -0.21875,-0.4375 -0.28125,-1.03125 z m -0.10937,-3.14063 q -0.76563,0.3125 -2.29688,0.53125 -0.875,0.125 -1.23437,0.28125 -0.35938,0.15625 -0.5625,0.46875 -0.1875,0.29688 -0.1875,0.65625 0,0.5625 0.42187,0.9375 0.4375,0.375 1.25,0.375 0.8125,0 1.4375,-0.34375 0.64063,-0.35937 0.9375,-0.98437 0.23438,-0.46875 0.23438,-1.40625 z m 3.60156,4.17188 v -8.29688 h 1.25 v 1.15625 q 0.39062,-0.60937 1.03125,-0.96875 0.65625,-0.375 1.48437,-0.375 0.92188,0 1.51563,0.39063 0.59375,0.375 0.82812,1.0625 0.98438,-1.45313 2.5625,-1.45313 1.23438,0 1.89063,0.6875 0.67187,0.67188 0.67187,2.09375 v 5.70313 h -1.39062 v -5.23438 q 0,-0.84375 -0.14063,-1.20312 -0.14062,-0.375 -0.5,-0.59375 -0.35937,-0.23438 -0.84375,-0.23438 -0.875,0 -1.45312,0.57813 -0.57813,0.57812 -0.57813,1.85937 v 4.82813 h -1.40625 v -5.39063 q 0,-0.9375 -0.34375,-1.40625 -0.34375,-0.46875 -1.125,-0.46875 -0.59375,0 -1.09375,0.3125 -0.5,0.3125 -0.73437,0.92188 -0.21875,0.59375 -0.21875,1.71875 v 4.3125 z m 17.77344,-9.84375 v -1.60938 h 1.40625 v 1.60938 z m 0,9.84375 v -8.29688 h 1.40625 v 8.29688 z m 3.55469,0 v -8.29688 h 1.26562 v 1.17188 q 0.90625,-1.35938 2.64063,-1.35938 0.75,0 1.375,0.26563 0.625,0.26562 0.9375,0.70312 0.3125,0.4375 0.4375,1.04688 0.0781,0.39062 0.0781,1.35937 v 5.10938 h -1.40625 v -5.04688 q 0,-0.85937 -0.17187,-1.28125 -0.15625,-0.4375 -0.57813,-0.6875 -0.40625,-0.25 -0.96875,-0.25 -0.90625,0 -1.5625,0.57813 -0.64062,0.5625 -0.64062,2.15625 v 4.53125 z m 13.46875,0 v -11.45313 h 2.28125 l 2.71875,8.10938 q 0.375,1.125 0.54687,1.6875 0.1875,-0.625 0.60938,-1.82813 l 2.73437,-7.96875 h 2.04688 v 11.45313 h -1.46875 v -9.59375 l -3.32813,9.59375 h -1.35937 l -3.3125,-9.75 v 9.75 z m 13.3125,0 v -11.45313 h 1.51562 v 10.09375 h 5.64063 v 1.35938 z m 9.22656,0 v -11.45313 h 1.51562 v 11.45313 z m 4.21094,0 v -11.45313 h 5.07812 q 1.53125,0 2.32813,0.3125 0.79687,0.29688 1.26562,1.07813 0.48438,0.78125 0.48438,1.73437 0,1.21875 -0.79688,2.0625 -0.78125,0.82813 -2.4375,1.04688 0.60938,0.29687 0.92188,0.57812 0.65625,0.60938 1.25,1.51563 l 2,3.125 h -1.90625 l -1.51563,-2.39063 q -0.67187,-1.03125 -1.10937,-1.57812 -0.42188,-0.54688 -0.76563,-0.76563 -0.32812,-0.21875 -0.6875,-0.29687 -0.25,-0.0625 -0.84375,-0.0625 h -1.75 v 5.09375 z m 1.51562,-6.40625 h 3.25 q 1.04688,0 1.625,-0.20313 0.59375,-0.21875 0.89063,-0.6875 0.3125,-0.48437 0.3125,-1.03125 0,-0.8125 -0.59375,-1.32812 -0.59375,-0.53125 -1.85938,-0.53125 h -3.625 z" />
  <path
     style="fill:#000000;fill-opacity:0;fill-rule:evenodd"
     inkscape:connector-curvature="0"
     id="path1416"
     d="m 155.25852,144.24718 0.0315,22.04724" />
  <path
     style="fill-rule:evenodd;stroke:#4285f4;stroke-width:2;stroke-linecap:butt;stroke-linejoin:round"
     inkscape:connector-curvature="0"
     id="path1418"
     d="m 155.25852,144.24718 0.0144,10.04726" />
  <path
     style="fill:#4285f4;fill-rule:evenodd;stroke:#4285f4;stroke-width:2;stroke-linecap:butt"
     inkscape:connector-curvature="0"
     id="path1420"
     d="m 151.96941,154.29915 3.31644,9.07147 3.29048,-9.0809 z" />
  <path
     style="fill:#d9d9d9;fill-rule:evenodd"
     inkscape:connector-curvature="0"
     id="path1422"
     d="m 104.24541,220.98192 v 0 c 0,-6.29691 5.10466,-11.40157 11.40157,-11.40157 h 278.74017 c 3.0239,0 5.92392,1.20124 8.06214,3.33945 2.13821,2.1382 3.33944,5.03824 3.33944,8.06212 v 0 0 c 0,6.29692 -5.10467,11.40158 -11.40158,11.40158 H 115.64698 c -6.29691,0 -11.40157,-5.10466 -11.40157,-11.40158 z" />
  <path
     style="fill-rule:evenodd;stroke:#595959;stroke-width:1;stroke-linecap:butt;stroke-linejoin:round"
     inkscape:connector-curvature="0"
     id="path1424"
     d="m 104.24541,220.98192 v 0 c 0,-6.29691 5.10466,-11.40157 11.40157,-11.40157 h 278.74017 c 3.0239,0 5.92392,1.20124 8.06214,3.33945 2.13821,2.1382 3.33944,5.03824 3.33944,8.06212 v 0 0 c 0,6.29692 -5.10467,11.40158 -11.40158,11.40158 H 115.64698 c -6.29691,0 -11.40157,-5.10466 -11.40157,-11.40158 z" />
  <path
     style="fill:#000000;fill-rule:nonzero"
     inkscape:connector-curvature="0"
     id="path1426"
     d="m 121.65379,226.84192 v -10.10938 h -3.78125 v -1.34375 h 9.07812 v 1.34375 h -3.78125 v 10.10938 z m 6.92969,0 v -11.45313 h 7.73437 v 1.34375 h -6.21875 v 3.54688 h 5.375 v 1.35937 h -5.375 v 5.20313 z m 9.72656,0 v -11.45313 h 5.07812 q 1.53125,0 2.32813,0.3125 0.79687,0.29688 1.26562,1.07813 0.48438,0.78125 0.48438,1.73437 0,1.21875 -0.79688,2.0625 -0.78125,0.82813 -2.4375,1.04688 0.60938,0.29687 0.92188,0.57812 0.65625,0.60938 1.25,1.51563 l 2,3.125 h -1.90625 l -1.51563,-2.39063 q -0.67187,-1.03125 -1.10937,-1.57812 -0.42188,-0.54688 -0.76563,-0.76563 -0.32812,-0.21875 -0.6875,-0.29687 -0.25,-0.0625 -0.84375,-0.0625 h -1.75 v 5.09375 z m 1.51562,-6.40625 h 3.25 q 1.04688,0 1.625,-0.20313 0.59375,-0.21875 0.89063,-0.6875 0.3125,-0.48437 0.3125,-1.03125 0,-0.8125 -0.59375,-1.32812 -0.59375,-0.53125 -1.85938,-0.53125 h -3.625 z m 12.64063,6.40625 v -10.10938 h -3.78125 v -1.34375 h 9.07812 v 1.34375 h -3.78125 v 10.10938 z m 10.94531,0 v -11.45313 h 4.29688 q 1.3125,0 2.10937,0.34375 0.79688,0.34375 1.23438,1.07813 0.45312,0.71875 0.45312,1.5 0,0.73437 -0.40625,1.39062 -0.39062,0.64063 -1.1875,1.04688 1.03125,0.29687 1.59375,1.03125 0.5625,0.73437 0.5625,1.73437 0,0.8125 -0.34375,1.5 -0.34375,0.6875 -0.84375,1.0625 -0.5,0.375 -1.25,0.57813 -0.75,0.1875 -1.84375,0.1875 z m 1.51563,-6.64063 h 2.48437 q 1,0 1.4375,-0.14062 0.57813,-0.17188 0.875,-0.5625 0.29688,-0.40625 0.29688,-1 0,-0.57813 -0.28125,-1 -0.26563,-0.4375 -0.78125,-0.59375 -0.5,-0.17188 -1.73438,-0.17188 h -2.29687 z m 0,5.28125 h 2.85937 q 0.73438,0 1.03125,-0.0469 0.51563,-0.0937 0.85938,-0.3125 0.35937,-0.21875 0.57812,-0.64063 0.23438,-0.42187 0.23438,-0.96875 0,-0.64062 -0.32813,-1.10937 -0.32812,-0.46875 -0.90625,-0.65625 -0.57812,-0.20313 -1.67187,-0.20313 h -2.65625 z m 9.04687,-8.48437 v -1.60938 h 1.40625 v 1.60938 z m 0,9.84375 v -8.29688 h 1.40625 v 8.29688 z m 3.55469,0 v -8.29688 h 1.26562 v 1.17188 q 0.90625,-1.35938 2.64063,-1.35938 0.75,0 1.375,0.26563 0.625,0.26562 0.9375,0.70312 0.3125,0.4375 0.4375,1.04688 0.0781,0.39062 0.0781,1.35937 v 5.10938 h -1.40625 v -5.04688 q 0,-0.85937 -0.17187,-1.28125 -0.15625,-0.4375 -0.57813,-0.6875 -0.40625,-0.25 -0.96875,-0.25 -0.90625,0 -1.5625,0.57813 -0.64062,0.5625 -0.64062,2.15625 v 4.53125 z m 14.30469,-1.03125 q -0.78125,0.67187 -1.5,0.95312 -0.71875,0.26563 -1.54688,0.26563 -1.375,0 -2.10937,-0.67188 -0.73438,-0.67187 -0.73438,-1.70312 0,-0.60938 0.28125,-1.10938 0.28125,-0.51562 0.71875,-0.8125 0.45313,-0.3125 1.01563,-0.46875 0.42187,-0.10937 1.25,-0.20312 1.70312,-0.20313 2.51562,-0.48438 0,-0.29687 0,-0.375 0,-0.85937 -0.39062,-1.20312 -0.54688,-0.48438 -1.60938,-0.48438 -0.98437,0 -1.46875,0.35938 -0.46875,0.34375 -0.6875,1.21875 l -1.375,-0.1875 q 0.1875,-0.875 0.60938,-1.42188 0.4375,-0.54687 1.25,-0.82812 0.8125,-0.29688 1.875,-0.29688 1.0625,0 1.71875,0.25 0.67187,0.25 0.98437,0.625 0.3125,0.375 0.4375,0.95313 0.0781,0.35937 0.0781,1.29687 v 1.875 q 0,1.96875 0.0781,2.48438 0.0937,0.51562 0.35938,1 h -1.46875 q -0.21875,-0.4375 -0.28125,-1.03125 z m -0.10938,-3.14063 q -0.76562,0.3125 -2.29687,0.53125 -0.875,0.125 -1.23438,0.28125 -0.35937,0.15625 -0.5625,0.46875 -0.1875,0.29688 -0.1875,0.65625 0,0.5625 0.42188,0.9375 0.4375,0.375 1.25,0.375 0.8125,0 1.4375,-0.34375 0.64062,-0.35937 0.9375,-0.98437 0.23437,-0.46875 0.23437,-1.40625 z m 3.58594,4.17188 v -8.29688 h 1.26562 v 1.25 q 0.48438,-0.875 0.89063,-1.15625 0.40625,-0.28125 0.90625,-0.28125 0.70312,0 1.4375,0.45313 l -0.48438,1.29687 q -0.51562,-0.29687 -1.03125,-0.29687 -0.45312,0 -0.82812,0.28125 -0.35938,0.26562 -0.51563,0.76562 -0.23437,0.75 -0.23437,1.64063 v 4.34375 z m 5.28125,3.20312 -0.15625,-1.32812 q 0.45312,0.125 0.79687,0.125 0.46875,0 0.75,-0.15625 0.28125,-0.15625 0.46875,-0.4375 0.125,-0.20313 0.42188,-1.04688 0.0469,-0.10937 0.125,-0.34375 l -3.14063,-8.3125 h 1.51563 l 1.71875,4.79688 q 0.34375,0.92187 0.60937,1.92187 0.23438,-0.96875 0.57813,-1.89062 l 1.76562,-4.82813 h 1.40625 l -3.15625,8.4375 q -0.5,1.375 -0.78125,1.89063 -0.375,0.6875 -0.85937,1.01562 -0.48438,0.32813 -1.15625,0.32813 -0.40625,0 -0.90625,-0.17188 z m 12.71094,-3.20312 v -11.45313 h 8.28125 v 1.34375 h -6.76563 v 3.51563 h 6.34375 v 1.34375 h -6.34375 v 3.89062 h 7.03125 v 1.35938 z m 9.53125,0 3.03125,-4.3125 -2.8125,-3.98438 h 1.76562 l 1.26563,1.9375 q 0.35937,0.5625 0.57812,0.9375 0.34375,-0.51562 0.64063,-0.92187 l 1.39062,-1.95313 h 1.6875 l -2.875,3.90625 3.09375,4.39063 h -1.73437 l -1.70313,-2.57813 -0.45312,-0.70312 -2.17188,3.28125 z m 14.60937,-2.67188 1.45313,0.17188 q -0.34375,1.28125 -1.28125,1.98437 -0.92188,0.70313 -2.35938,0.70313 -1.82812,0 -2.89062,-1.125 -1.0625,-1.125 -1.0625,-3.14063 0,-2.09375 1.07812,-3.25 1.07813,-1.15625 2.79688,-1.15625 1.65625,0 2.70312,1.14063 1.0625,1.125 1.0625,3.17187 0,0.125 0,0.375 h -6.1875 q 0.0781,1.375 0.76563,2.10938 0.70312,0.71875 1.73437,0.71875 0.78125,0 1.32813,-0.40625 0.54687,-0.40625 0.85937,-1.29688 z m -4.60937,-2.28125 h 4.625 q -0.0937,-1.04687 -0.53125,-1.5625 -0.67188,-0.8125 -1.73438,-0.8125 -0.96875,0 -1.64062,0.65625 -0.65625,0.64063 -0.71875,1.71875 z m 13.24217,1.90625 1.39062,0.1875 q -0.23437,1.42188 -1.17187,2.23438 -0.92188,0.8125 -2.28125,0.8125 -1.70313,0 -2.75,-1.10938 -1.03124,-1.125 -1.03124,-3.20312 0,-1.34375 0.43749,-2.34375 0.45312,-1.01563 1.35937,-1.51563 0.92188,-0.5 1.98438,-0.5 1.35937,0 2.21875,0.6875 0.85937,0.67188 1.09375,1.9375 l -1.35938,0.20313 q -0.20312,-0.82813 -0.70312,-1.25 -0.48438,-0.42188 -1.1875,-0.42188 -1.0625,0 -1.73438,0.76563 -0.65625,0.75 -0.65625,2.40625 0,1.67187 0.64063,2.4375 0.64062,0.75 1.67187,0.75 0.82813,0 1.375,-0.5 0.5625,-0.51563 0.70313,-1.57813 z m 8.03125,3.04688 v -1.21875 q -0.96875,1.40625 -2.64063,1.40625 -0.73437,0 -1.375,-0.28125 -0.625,-0.28125 -0.9375,-0.70313 -0.3125,-0.4375 -0.4375,-1.04687 -0.0781,-0.42188 -0.0781,-1.3125 v -5.14063 h 1.40625 v 4.59375 q 0,1.10938 0.0781,1.48438 0.14063,0.5625 0.5625,0.875 0.4375,0.3125 1.0625,0.3125 0.64063,0 1.1875,-0.3125 0.5625,-0.32813 0.78125,-0.89063 0.23438,-0.5625 0.23438,-1.625 v -4.4375 h 1.40625 v 8.29688 z m 6.52344,-1.26563 0.20312,1.25 q -0.59375,0.125 -1.0625,0.125 -0.76562,0 -1.1875,-0.23437 -0.42187,-0.25 -0.59375,-0.64063 -0.17187,-0.40625 -0.17187,-1.67187 v -4.76563 h -1.03125 v -1.09375 h 1.03125 v -2.0625 l 1.40625,-0.84375 v 2.90625 h 1.40625 v 1.09375 h -1.40625 v 4.84375 q 0,0.60938 0.0625,0.78125 0.0781,0.17188 0.25,0.28125 0.17187,0.0937 0.48437,0.0937 0.23438,0 0.60938,-0.0625 z m 6.78906,0.23438 q -0.78125,0.67187 -1.5,0.95312 -0.71875,0.26563 -1.54688,0.26563 -1.375,0 -2.10937,-0.67188 -0.73438,-0.67187 -0.73438,-1.70312 0,-0.60938 0.28125,-1.10938 0.28125,-0.51562 0.71875,-0.8125 0.45313,-0.3125 1.01563,-0.46875 0.42187,-0.10937 1.25,-0.20312 1.70312,-0.20313 2.51562,-0.48438 0,-0.29687 0,-0.375 0,-0.85937 -0.39062,-1.20312 -0.54688,-0.48438 -1.60938,-0.48438 -0.98437,0 -1.46875,0.35938 -0.46875,0.34375 -0.6875,1.21875 l -1.375,-0.1875 q 0.1875,-0.875 0.60938,-1.42188 0.4375,-0.54687 1.25,-0.82812 0.8125,-0.29688 1.875,-0.29688 1.0625,0 1.71875,0.25 0.67187,0.25 0.98437,0.625 0.3125,0.375 0.4375,0.95313 0.0781,0.35937 0.0781,1.29687 v 1.875 q 0,1.96875 0.0781,2.48438 0.0937,0.51562 0.35938,1 h -1.46875 q -0.21875,-0.4375 -0.28125,-1.03125 z m -0.10938,-3.14063 q -0.76562,0.3125 -2.29687,0.53125 -0.875,0.125 -1.23438,0.28125 -0.35937,0.15625 -0.5625,0.46875 -0.1875,0.29688 -0.1875,0.65625 0,0.5625 0.42188,0.9375 0.4375,0.375 1.25,0.375 0.8125,0 1.4375,-0.34375 0.64062,-0.35937 0.9375,-0.98437 0.23437,-0.46875 0.23437,-1.40625 z m 4.89844,4.17188 h -1.3125 v -11.45313 h 1.40625 v 4.07813 q 0.89063,-1.10938 2.28125,-1.10938 0.76563,0 1.4375,0.3125 0.6875,0.29688 1.125,0.85938 0.45313,0.5625 0.70313,1.35937 0.25,0.78125 0.25,1.67188 0,2.14062 -1.0625,3.3125 -1.04688,1.15625 -2.53125,1.15625 -1.46875,0 -2.29688,-1.23438 z m -0.0156,-4.21875 q 0,1.5 0.40625,2.15625 0.65625,1.09375 1.79687,1.09375 0.92188,0 1.59375,-0.79688 0.67188,-0.8125 0.67188,-2.39062 0,-1.625 -0.65625,-2.39063 -0.64063,-0.78125 -1.54688,-0.78125 -0.92187,0 -1.59375,0.79688 -0.67187,0.79687 -0.67187,2.3125 z m 7.58593,4.21875 v -11.45313 h 1.40625 v 11.45313 z m 9.25782,-2.67188 1.45312,0.17188 q -0.34375,1.28125 -1.28125,1.98437 -0.92187,0.70313 -2.35937,0.70313 -1.82813,0 -2.89063,-1.125 -1.0625,-1.125 -1.0625,-3.14063 0,-2.09375 1.07813,-3.25 1.07812,-1.15625 2.79687,-1.15625 1.65625,0 2.70313,1.14063 1.0625,1.125 1.0625,3.17187 0,0.125 0,0.375 h -6.1875 q 0.0781,1.375 0.76562,2.10938 0.70313,0.71875 1.73438,0.71875 0.78125,0 1.32812,-0.40625 0.54688,-0.40625 0.85938,-1.29688 z m -4.60938,-2.28125 h 4.625 q -0.0937,-1.04687 -0.53125,-1.5625 -0.67187,-0.8125 -1.73437,-0.8125 -0.96875,0 -1.64063,0.65625 -0.65625,0.64063 -0.71875,1.71875 z m 12.53125,4.95313 v -11.45313 h 7.73438 v 1.34375 h -6.21877 v 3.54688 h 5.375 v 1.35937 h -5.375 v 5.20313 z m 8.99219,-4.15625 q 0,-2.29688 1.28125,-3.40625 1.07812,-0.92188 2.60937,-0.92188 1.71875,0 2.79688,1.125 1.09375,1.10938 1.09375,3.09375 0,1.59375 -0.48438,2.51563 -0.48437,0.92187 -1.40625,1.4375 -0.90625,0.5 -2,0.5 -1.73437,0 -2.8125,-1.10938 -1.07812,-1.125 -1.07812,-3.23437 z m 1.45312,0 q 0,1.59375 0.6875,2.39062 0.70313,0.79688 1.75,0.79688 1.04688,0 1.73438,-0.79688 0.70312,-0.79687 0.70312,-2.4375 0,-1.53125 -0.70312,-2.32812 -0.6875,-0.79688 -1.73438,-0.79688 -1.04687,0 -1.75,0.79688 -0.6875,0.78125 -0.6875,2.375 z m 7.96094,4.15625 v -8.29688 h 1.26563 v 1.25 q 0.48437,-0.875 0.89062,-1.15625 0.40625,-0.28125 0.90625,-0.28125 0.70313,0 1.4375,0.45313 l -0.48437,1.29687 q -0.51563,-0.29687 -1.03125,-0.29687 -0.45313,0 -0.82813,0.28125 -0.35937,0.26562 -0.51562,0.76562 -0.23438,0.75 -0.23438,1.64063 v 4.34375 z m 5.34375,0 v -8.29688 h 1.25 v 1.15625 q 0.39063,-0.60937 1.03125,-0.96875 0.65625,-0.375 1.48438,-0.375 0.92187,0 1.51562,0.39063 0.59375,0.375 0.82813,1.0625 0.98437,-1.45313 2.5625,-1.45313 1.23437,0 1.89062,0.6875 0.67188,0.67188 0.67188,2.09375 v 5.70313 h -1.39063 v -5.23438 q 0,-0.84375 -0.14062,-1.20312 -0.14063,-0.375 -0.5,-0.59375 -0.35938,-0.23438 -0.84375,-0.23438 -0.875,0 -1.45313,0.57813 -0.57812,0.57812 -0.57812,1.85937 v 4.82813 h -1.40625 v -5.39063 q 0,-0.9375 -0.34375,-1.40625 -0.34375,-0.46875 -1.125,-0.46875 -0.59375,0 -1.09375,0.3125 -0.5,0.3125 -0.73438,0.92188 -0.21875,0.59375 -0.21875,1.71875 v 4.3125 z m 18.73438,-1.03125 q -0.78125,0.67187 -1.5,0.95312 -0.71875,0.26563 -1.54688,0.26563 -1.375,0 -2.10937,-0.67188 -0.73438,-0.67187 -0.73438,-1.70312 0,-0.60938 0.28125,-1.10938 0.28125,-0.51562 0.71875,-0.8125 0.45313,-0.3125 1.01563,-0.46875 0.42187,-0.10937 1.25,-0.20312 1.70312,-0.20313 2.51562,-0.48438 0,-0.29687 0,-0.375 0,-0.85937 -0.39062,-1.20312 -0.54688,-0.48438 -1.60938,-0.48438 -0.98437,0 -1.46875,0.35938 -0.46875,0.34375 -0.6875,1.21875 l -1.375,-0.1875 q 0.1875,-0.875 0.60938,-1.42188 0.4375,-0.54687 1.25,-0.82812 0.8125,-0.29688 1.875,-0.29688 1.0625,0 1.71875,0.25 0.67187,0.25 0.98437,0.625 0.3125,0.375 0.4375,0.95313 0.0781,0.35937 0.0781,1.29687 v 1.875 q 0,1.96875 0.0781,2.48438 0.0937,0.51562 0.35938,1 h -1.46872 q -0.21875,-0.4375 -0.28125,-1.03125 z m -0.10938,-3.14063 q -0.76562,0.3125 -2.29687,0.53125 -0.875,0.125 -1.23438,0.28125 -0.35937,0.15625 -0.5625,0.46875 -0.1875,0.29688 -0.1875,0.65625 0,0.5625 0.42188,0.9375 0.4375,0.375 1.25,0.375 0.8125,0 1.4375,-0.34375 0.64062,-0.35937 0.9375,-0.98437 0.23437,-0.46875 0.23437,-1.40625 z m 6.66406,2.90625 0.20313,1.25 q -0.59375,0.125 -1.0625,0.125 -0.76563,0 -1.1875,-0.23437 -0.42188,-0.25 -0.59375,-0.64063 -0.17188,-0.40625 -0.17188,-1.67187 v -4.76563 h -1.03125 v -1.09375 h 1.03125 v -2.0625 l 1.40625,-0.84375 v 2.90625 h 1.40625 v 1.09375 h -1.40625 v 4.84375 q 0,0.60938 0.0625,0.78125 0.0781,0.17188 0.25,0.28125 0.17188,0.0937 0.48438,0.0937 0.23437,0 0.60937,-0.0625 z m 8.51563,4.64063 q -1.17188,-1.46875 -1.98438,-3.4375 -0.79687,-1.98438 -0.79687,-4.09375 0,-1.85938 0.60937,-3.5625 0.70313,-1.96875 2.17188,-3.9375 h 1 q -0.9375,1.625 -1.25,2.32812 -0.46875,1.07813 -0.75,2.25 -0.32813,1.45313 -0.32813,2.9375 0,3.75 2.32813,7.51563 z m 2.75,-3.375 v -11.45313 h 4.29687 q 1.3125,0 2.10938,0.34375 0.79687,0.34375 1.23437,1.07813 0.45313,0.71875 0.45313,1.5 0,0.73437 -0.40625,1.39062 -0.39063,0.64063 -1.1875,1.04688 1.03125,0.29687 1.59375,1.03125 0.5625,0.73437 0.5625,1.73437 0,0.8125 -0.34375,1.5 -0.34375,0.6875 -0.84375,1.0625 -0.5,0.375 -1.25,0.57813 -0.75,0.1875 -1.84375,0.1875 z m 1.51562,-6.64063 h 2.48438 q 1,0 1.4375,-0.14062 0.57812,-0.17188 0.875,-0.5625 0.29687,-0.40625 0.29687,-1 0,-0.57813 -0.28125,-1 -0.26562,-0.4375 -0.78125,-0.59375 -0.5,-0.17188 -1.73437,-0.17188 h -2.29688 z m 0,5.28125 h 2.85938 q 0.73437,0 1.03125,-0.0469 0.51562,-0.0937 0.85937,-0.3125 0.35938,-0.21875 0.57813,-0.64063 0.23437,-0.42187 0.23437,-0.96875 0,-0.64062 -0.32812,-1.10937 -0.32813,-0.46875 -0.90625,-0.65625 -0.57813,-0.20313 -1.67188,-0.20313 h -2.65625 z m 9.25,1.35938 v -11.45313 h 8.28125 v 1.34375 h -6.76562 v 3.51563 h 6.34375 v 1.34375 h -6.34375 v 3.89062 h 7.03125 v 1.35938 z m 10.71875,0 v -11.45313 h 7.73438 v 1.34375 h -6.21875 v 3.54688 h 5.375 v 1.35937 h -5.375 v 5.20313 z m 10.44532,3.375 h -1.01563 q 2.34375,-3.76563 2.34375,-7.51563 0,-1.46875 -0.34375,-2.92187 -0.26562,-1.17188 -0.73437,-2.25 -0.3125,-0.70313 -1.26563,-2.34375 h 1.01563 q 1.46875,1.96875 2.17187,3.9375 0.59375,1.70312 0.59375,3.5625 0,2.10937 -0.8125,4.09375 -0.79687,1.96875 -1.95312,3.4375 z" />
  <path
     style="fill:#000000;fill-opacity:0;fill-rule:evenodd"
     inkscape:connector-curvature="0"
     id="path1428"
     d="m 155.25852,188.22881 0.0315,22.04724" />
  <path
     style="fill-rule:evenodd;stroke:#4285f4;stroke-width:2;stroke-linecap:butt;stroke-linejoin:round"
     inkscape:connector-curvature="0"
     id="path1430"
     d="m 155.25852,188.22881 0.0144,10.04726" />
  <path
     style="fill:#4285f4;fill-rule:evenodd;stroke:#4285f4;stroke-width:2;stroke-linecap:butt"
     inkscape:connector-curvature="0"
     id="path1432"
     d="m 151.96941,198.28078 3.31644,9.07147 3.29048,-9.0809 z" />
  <g
     style="filter:url(#shadowFilter-p.4)"
     id="g1436"
     transform="translate(-15.649908,-16.536037)">
    <use
       height="100%"
       width="100%"
       y="0"
       x="0"
       id="use1434"
       transform="translate(21.012219,21.03555)"
       xlink:href="#p.4" />
  </g>
  <g
     id="p.4"
     transform="translate(-15.649908,-16.536037)">
    <path
       style="fill:#ff6f00;fill-rule:evenodd"
       inkscape:connector-curvature="0"
       id="path1453"
       d="M 21.112858,288.2047 H 443.25458 v 45.85828 H 21.112858 Z" />
    <path
       style="fill-rule:evenodd;stroke:#666666;stroke-width:1;stroke-linecap:butt;stroke-linejoin:round"
       inkscape:connector-curvature="0"
       id="path1455"
       d="M 21.112858,288.2047 H 443.25458 v 45.85828 H 21.112858 Z" />
    <path
       style="fill:#ffffff;fill-rule:nonzero"
       inkscape:connector-curvature="0"
       id="path1457"
       d="m 184.55212,305.54074 h 4.48437 q 0.95313,0 1.76563,0.40625 0.8125,0.39063 1.26562,1.07813 0.46875,0.6875 0.46875,1.5 0,0.875 -0.42187,1.5 -0.42188,0.625 -1.10938,0.96875 v 0.125 q 0.89063,0.32812 1.42188,1.03125 0.53125,0.6875 0.53125,1.65625 0,0.95312 -0.51563,1.6875 -0.5,0.71875 -1.35937,1.10937 -0.85938,0.39063 -1.89063,0.39063 h -4.64062 z m 4.3125,4.67188 q 0.71875,0 1.14062,-0.39063 0.42188,-0.39062 0.42188,-0.98437 0,-0.57813 -0.40625,-0.96875 -0.40625,-0.39063 -1.07813,-0.39063 h -2.23437 v 2.73438 z m 0.25,4.8125 q 0.78125,0 1.21875,-0.40625 0.4375,-0.40625 0.4375,-1.0625 0,-0.65625 -0.45313,-1.0625 -0.4375,-0.42188 -1.26562,-0.42188 h -2.34375 v 2.95313 z m 5.78952,-9.48438 h 7.26563 v 2.04688 h -5.10938 v 2.65625 h 4.59375 v 2.04687 h -4.59375 v 2.65625 h 5.10938 v 2.04688 h -7.26563 z m 9.48802,0 h 7.26563 v 2.04688 h -5.10938 v 2.78125 h 4.59375 v 2.04687 h -4.59375 v 4.57813 h -2.15625 z m 9.16802,0 h 7.26562 v 2.04688 h -5.10937 v 2.65625 h 4.59375 v 2.04687 h -4.59375 v 2.65625 h 5.10937 v 2.04688 h -7.26562 z m 11.06239,7.3125 -2.82812,-4.01562 h 2.48437 l 1.54688,2.32812 h 0.10937 l 1.45313,-2.32812 h 2.5625 l -2.875,4.01562 2.875,4.14063 h -2.48438 l -1.57812,-2.39063 h -0.0937 l -1.53125,2.39063 h -2.48438 z m 10.13289,4.39063 q -1.21875,0 -2.1875,-0.54688 -0.96875,-0.5625 -1.53125,-1.54687 -0.54688,-0.98438 -0.54688,-2.21875 0,-1.17188 0.53125,-2.17188 0.54688,-1 1.5,-1.59375 0.96875,-0.59375 2.15625,-0.59375 1.26563,0 2.17188,0.54688 0.92187,0.54687 1.39062,1.5 0.46875,0.9375 0.46875,2.09375 0,0.35937 -0.0469,0.70312 h -6.125 q 0.15625,0.96875 0.76562,1.48438 0.625,0.5 1.48438,0.5 0.71875,0 1.23437,-0.3125 0.53125,-0.3125 0.82813,-0.84375 l 1.70312,0.82812 q -1.25,2.17188 -3.79687,2.17188 z m 1.9375,-5.32813 q -0.0312,-0.375 -0.28125,-0.75 -0.25,-0.375 -0.6875,-0.625 -0.4375,-0.25 -1.03125,-0.25 -0.75,0 -1.29688,0.4375 -0.53125,0.4375 -0.76562,1.1875 z m 7.55014,5.32813 q -1.23438,0 -2.20313,-0.54688 -0.96875,-0.54687 -1.53125,-1.53125 -0.54687,-1 -0.54687,-2.25 0,-1.25 0.54687,-2.23437 0.5625,-0.98438 1.53125,-1.54688 0.96875,-0.5625 2.20313,-0.5625 1.35937,0 2.32812,0.59375 0.98438,0.57813 1.42188,1.65625 l -1.92188,0.79688 q -0.51562,-1.09375 -1.82812,-1.09375 -0.95313,0 -1.57813,0.65625 -0.60937,0.65625 -0.60937,1.73437 0,1.09375 0.60937,1.75 0.625,0.64063 1.57813,0.64063 1.32812,0 1.92187,-1.14063 l 1.90625,0.82813 q -0.53125,1.07812 -1.51562,1.67187 -0.96875,0.57813 -2.3125,0.57813 z m 8.27739,0 q -1.46875,0 -2.25,-0.90625 -0.76563,-0.90625 -0.76563,-2.54688 v -4.95312 h 2.10938 v 4.70312 q 0,0.82813 0.39062,1.29688 0.40625,0.46875 1.0625,0.46875 0.89063,0 1.42188,-0.64063 0.53125,-0.65625 0.53125,-1.67187 v -4.15625 h 2.09377 v 8.15625 h -1.96877 v -1.03125 h -0.125 q -0.375,0.59375 -1.04688,0.9375 -0.65625,0.34375 -1.45312,0.34375 z m 10.27339,-0.125 q -0.60937,0 -1.125,-0.17188 -0.51562,-0.1875 -0.82812,-0.51562 -0.75,-0.71875 -0.75,-2.04688 v -3.76562 h -1.42188 v -1.78125 h 1.42188 v -2.3125 h 2.09375 v 2.3125 h 2 v 1.78125 h -2 v 3.39062 q 0,0.60938 0.26562,0.89063 0.23438,0.25 0.78125,0.25 0.29688,0 0.5,-0.0781 0.20313,-0.0781 0.51563,-0.26562 v 2.04687 q -0.6875,0.26563 -1.45313,0.26563 z m 6.74378,0.125 q -1.26563,0 -2.25,-0.5625 -0.98438,-0.5625 -1.54688,-1.54688 -0.54687,-0.98437 -0.54687,-2.21875 0,-1.21875 0.54687,-2.20312 0.5625,-1 1.54688,-1.5625 0.98437,-0.57813 2.25,-0.57813 1.25,0 2.23437,0.57813 1,0.5625 1.54688,1.5625 0.5625,0.98437 0.5625,2.20312 0,1.23438 -0.5625,2.21875 -0.54688,0.98438 -1.54688,1.54688 -0.98437,0.5625 -2.23437,0.5625 z m 0,-1.9375 q 0.60937,0 1.125,-0.28125 0.51562,-0.28125 0.8125,-0.82813 0.3125,-0.54687 0.3125,-1.28125 0,-0.71875 -0.3125,-1.26562 -0.29688,-0.54688 -0.8125,-0.82813 -0.51563,-0.29687 -1.125,-0.29687 -0.60938,0 -1.125,0.29687 -0.5,0.28125 -0.8125,0.82813 -0.3125,0.54687 -0.3125,1.26562 0,0.71875 0.3125,1.28125 0.3125,0.54688 0.8125,0.82813 0.51562,0.28125 1.125,0.28125 z m 5.78939,-6.46875 h 1.95313 v 1.07812 h 0.14062 q 0.29688,-0.5625 0.9375,-0.9375 0.64063,-0.39062 1.40625,-0.39062 0.5625,0 1.03125,0.1875 v 2.09375 q -0.4375,-0.15625 -0.73437,-0.23438 -0.29688,-0.0781 -0.625,-0.0781 -0.9375,0 -1.48438,0.67187 -0.53125,0.67188 -0.53125,1.70313 v 4.0625 h -2.09375 z" />
  </g>
</svg>
