<?xml version="1.0" encoding="UTF-8" standalone="no"?>
<svg
   xmlns:dc="http://purl.org/dc/elements/1.1/"
   xmlns:cc="http://creativecommons.org/ns#"
   xmlns:rdf="http://www.w3.org/1999/02/22-rdf-syntax-ns#"
   xmlns:svg="http://www.w3.org/2000/svg"
   xmlns="http://www.w3.org/2000/svg"
   xmlns:sodipodi="http://sodipodi.sourceforge.net/DTD/sodipodi-0.dtd"
   xmlns:inkscape="http://www.inkscape.org/namespaces/inkscape"
   version="1.1"
   viewBox="0 0 313.59335 155.96065"
   stroke-miterlimit="10"
   id="svg4309"
   sodipodi:docname="host-runtime.svg"
   width="313.59335"
   height="155.96065"
   style="fill:none;stroke:none;stroke-linecap:square;stroke-miterlimit:10"
   inkscape:version="0.92.4 (5da689c313, 2019-01-14)">
  <metadata
     id="metadata4315">
    <rdf:RDF>
      <cc:Work
         rdf:about="">
        <dc:format>image/svg+xml</dc:format>
        <dc:type
           rdf:resource="http://purl.org/dc/dcmitype/StillImage" />
      </cc:Work>
    </rdf:RDF>
  </metadata>
  <defs
     id="defs4313" />
  <sodipodi:namedview
     pagecolor="#ffffff"
     bordercolor="#666666"
     borderopacity="1"
     objecttolerance="10"
     gridtolerance="10"
     guidetolerance="10"
     inkscape:pageopacity="0"
     inkscape:pageshadow="2"
     inkscape:window-width="1920"
     inkscape:window-height="1002"
     id="namedview4311"
     showgrid="false"
     inkscape:zoom="1.5222222"
     inkscape:cx="106.00132"
     inkscape:cy="78.05905"
     inkscape:window-x="162"
     inkscape:window-y="0"
     inkscape:window-maximized="1"
     inkscape:current-layer="svg4309" />
  <clipPath
     id="g731531eed1_0_37.0">
    <path
       d="M 0,0 H 960 V 540 H 0 Z"
       id="path4244"
       inkscape:connector-curvature="0"
       style="clip-rule:nonzero" />
  </clipPath>
  <path
     style="fill:#b6d7a8;fill-rule:evenodd"
     inkscape:connector-curvature="0"
     id="path4249"
     d="m 4.86752,155.46064 v 0 C 2.45541,155.46064 0.5,153.50523 0.5,151.09312 V 4.86756 C 0.5,3.7092 0.96014,2.5983 1.7792,1.77924 2.59829,0.96016 3.70919,0.5 4.86752,0.5 h 17.46967 c 2.41211,0 4.36752,1.95542 4.36752,4.36756 v 146.22556 0 c 0,2.41211 -1.95541,4.36752 -4.36752,4.36752 z" />
  <path
     style="fill-rule:evenodd;stroke:#000000;stroke-width:1;stroke-linecap:butt;stroke-linejoin:round"
     inkscape:connector-curvature="0"
     id="path4251"
     d="m 4.86752,155.46064 v 0 C 2.45541,155.46064 0.5,153.50523 0.5,151.09312 V 4.86756 C 0.5,3.7092 0.96014,2.5983 1.7792,1.77924 2.59829,0.96016 3.70919,0.5 4.86752,0.5 h 17.46967 c 2.41211,0 4.36752,1.95542 4.36752,4.36756 v 146.22556 0 c 0,2.41211 -1.95541,4.36752 -4.36752,4.36752 z" />
  <path
     style="fill:#000000;fill-rule:nonzero"
     inkscape:connector-curvature="0"
     id="path4253"
     d="M 19.46235,109.27329 H 8.00922 v -1.51563 h 10.09375 v -5.64062 h 1.35938 z m -4.15625,-8.25781 q -2.29688,0 -3.40625,-1.28125 -0.92188,-1.07813 -0.92188,-2.60938 0,-1.71875 1.125,-2.79687 1.10938,-1.09375 3.09375,-1.09375 1.59375,0 2.51563,0.48437 0.92187,0.48438 1.4375,1.40625 0.5,0.90625 0.5,2 0,1.73438 -1.10938,2.8125 -1.125,1.07813 -3.23437,1.07813 z m 0,-1.45313 q 1.59375,0 2.39062,-0.6875 0.79688,-0.70312 0.79688,-1.75 0,-1.04687 -0.79688,-1.73437 -0.79687,-0.70313 -2.4375,-0.70313 -1.53125,0 -2.32812,0.70313 -0.79688,0.6875 -0.79688,1.73437 0,1.04688 0.79688,1.75 0.78125,0.6875 2.375,0.6875 z m 4.15625,-9.50781 -8.29688,2.54687 v -1.45312 l 4.78125,-1.32813 1.78125,-0.48437 q -0.125,-0.0312 -1.70312,-0.4375 l -4.85938,-1.3125 v -1.45313 l 4.8125,-1.23437 1.57813,-0.42188 -1.59375,-0.46875 -4.79688,-1.42187 v -1.375 l 8.29688,2.59375 v 1.46875 l -4.96875,1.3125 -1.42188,0.32812 6.39063,1.67188 z M 16.79047,74.35923 16.96235,72.9061 q 1.28125,0.34375 1.98437,1.28125 0.70313,0.92188 0.70313,2.35938 0,1.82812 -1.125,2.89062 -1.125,1.0625 -3.14063,1.0625 -2.09375,0 -3.25,-1.07812 -1.15625,-1.07813 -1.15625,-2.79688 0,-1.65625 1.14063,-2.70312 1.125,-1.0625 3.17187,-1.0625 0.125,0 0.375,0 v 6.1875 q 1.375,-0.0781 2.10938,-0.76563 0.71875,-0.70312 0.71875,-1.73437 0,-0.78125 -0.40625,-1.32813 -0.40625,-0.54687 -1.29688,-0.85937 z m -2.28125,4.60937 v -4.625 q -1.04687,0.0937 -1.5625,0.53125 -0.8125,0.67188 -0.8125,1.73438 0,0.96875 0.65625,1.64062 0.64063,0.65625 1.71875,0.71875 z m 4.95313,-7.82031 h -8.29688 v -1.26563 h 1.25 q -0.875,-0.48437 -1.15625,-0.89062 -0.28125,-0.40625 -0.28125,-0.90625 0,-0.70313 0.45313,-1.4375 l 1.29687,0.48437 q -0.29687,0.51563 -0.29687,1.03125 0,0.45313 0.28125,0.82813 0.26562,0.35937 0.76562,0.51562 0.75,0.23438 1.64063,0.23438 h 4.34375 z M 9.6186,65.80454 H 8.00922 V 64.39829 H 9.6186 Z m 9.84375,0 h -8.29688 v -1.40625 h 8.29688 z m 0,-3.55469 h -8.29688 v -1.26562 h 1.17188 q -1.35938,-0.90625 -1.35938,-2.64063 0,-0.75 0.26563,-1.375 0.26562,-0.625 0.70312,-0.9375 0.4375,-0.3125 1.04688,-0.4375 0.39062,-0.0781 1.35937,-0.0781 h 5.10938 v 1.40625 h -5.04688 q -0.85937,0 -1.28125,0.17187 -0.4375,0.15625 -0.6875,0.57813 -0.25,0.40625 -0.25,0.96875 0,0.90625 0.57813,1.5625 0.5625,0.64062 2.15625,0.64062 h 4.53125 z m 0.6875,-8.63281 0.20312,-1.375 q 0.64063,-0.0781 0.92188,-0.46875 0.39062,-0.53125 0.39062,-1.4375 0,-0.96875 -0.39062,-1.5 -0.39063,-0.53125 -1.09375,-0.71875 -0.42188,-0.10938 -1.8125,-0.10938 1.09375,0.92188 1.09375,2.29688 0,1.71875 -1.23438,2.65625 -1.23437,0.9375 -2.96875,0.9375 -1.1875,0 -2.1875,-0.42188 -1,-0.4375 -1.54687,-1.25 -0.54688,-0.82812 -0.54688,-1.92187 0,-1.46875 1.1875,-2.42188 h -1 v -1.29687 h 7.17188 q 1.9375,0 2.75,0.39062 0.8125,0.39063 1.28125,1.25 0.46875,0.85938 0.46875,2.10938 0,1.48437 -0.67188,2.40625 -0.67187,0.90625 -2.01562,0.875 z m -4.98438,-1.17188 q 1.625,0 2.375,-0.64062 0.75,-0.65625 0.75,-1.625 0,-0.96875 -0.73437,-1.625 -0.75,-0.65625 -2.34375,-0.65625 -1.53125,0 -2.29688,0.67187 -0.78125,0.67188 -0.78125,1.625 0,0.9375 0.76563,1.59375 0.76562,0.65625 2.26562,0.65625 z" />
  <path
     style="fill:#000000;fill-opacity:0;fill-rule:evenodd"
     inkscape:connector-curvature="0"
     id="path4255"
     d="m 166.94767,109.77589 h 146.64569 v 40.7244 H 166.94767 Z" />
  <path
     style="fill:#000000;fill-rule:nonzero"
     inkscape:connector-curvature="0"
     id="path4257"
     d="m 195.77832,134.13587 4.40625,-11.45313 h 1.64063 l 4.6875,11.45313 h -1.73438 l -1.32812,-3.46875 h -4.79688 l -1.25,3.46875 z m 3.3125,-4.70313 h 3.89063 l -1.20313,-3.17187 q -0.54687,-1.45313 -0.8125,-2.375 -0.21875,1.09375 -0.60937,2.1875 z m 13.85938,1.65625 1.39062,0.1875 q -0.23437,1.42188 -1.17187,2.23438 -0.92188,0.8125 -2.28125,0.8125 -1.70313,0 -2.75,-1.10938 -1.03125,-1.125 -1.03125,-3.20312 0,-1.34375 0.4375,-2.34375 0.45312,-1.01563 1.35937,-1.51563 0.92188,-0.5 1.98438,-0.5 1.35937,0 2.21875,0.6875 0.85937,0.67188 1.09375,1.9375 l -1.35938,0.20313 q -0.20312,-0.82813 -0.70312,-1.25 -0.48438,-0.42188 -1.1875,-0.42188 -1.0625,0 -1.73438,0.76563 -0.65625,0.75 -0.65625,2.40625 0,1.67187 0.64063,2.4375 0.64062,0.75 1.67187,0.75 0.82813,0 1.375,-0.5 0.5625,-0.51563 0.70313,-1.57813 z m 8,0 1.39062,0.1875 q -0.23437,1.42188 -1.17187,2.23438 -0.92188,0.8125 -2.28125,0.8125 -1.70313,0 -2.75,-1.10938 -1.03125,-1.125 -1.03125,-3.20312 0,-1.34375 0.4375,-2.34375 0.45312,-1.01563 1.35937,-1.51563 0.92188,-0.5 1.98438,-0.5 1.35937,0 2.21875,0.6875 0.85937,0.67188 1.09375,1.9375 l -1.35938,0.20313 q -0.20312,-0.82813 -0.70312,-1.25 -0.48438,-0.42188 -1.1875,-0.42188 -1.0625,0 -1.73438,0.76563 -0.65625,0.75 -0.65625,2.40625 0,1.67187 0.64063,2.4375 0.64062,0.75 1.67187,0.75 0.82813,0 1.375,-0.5 0.5625,-0.51563 0.70313,-1.57813 z m 8.26562,0.375 1.45313,0.17188 q -0.34375,1.28125 -1.28125,1.98437 -0.92188,0.70313 -2.35938,0.70313 -1.82812,0 -2.89062,-1.125 -1.0625,-1.125 -1.0625,-3.14063 0,-2.09375 1.07812,-3.25 1.07813,-1.15625 2.79688,-1.15625 1.65625,0 2.70312,1.14063 1.0625,1.125 1.0625,3.17187 0,0.125 0,0.375 h -6.1875 q 0.0781,1.375 0.76563,2.10938 0.70312,0.71875 1.73437,0.71875 0.78125,0 1.32813,-0.40625 0.54687,-0.40625 0.85937,-1.29688 z m -4.60937,-2.28125 h 4.625 q -0.0937,-1.04687 -0.53125,-1.5625 -0.67188,-0.8125 -1.73438,-0.8125 -0.96875,0 -1.64062,0.65625 -0.65625,0.64063 -0.71875,1.71875 z m 7.80468,4.95313 v -11.45313 h 1.40625 v 11.45313 z m 9.25782,-2.67188 1.45312,0.17188 q -0.34375,1.28125 -1.28125,1.98437 -0.92187,0.70313 -2.35937,0.70313 -1.82813,0 -2.89063,-1.125 -1.0625,-1.125 -1.0625,-3.14063 0,-2.09375 1.07813,-3.25 1.07812,-1.15625 2.79687,-1.15625 1.65625,0 2.70313,1.14063 1.0625,1.125 1.0625,3.17187 0,0.125 0,0.375 h -6.1875 q 0.0781,1.375 0.76562,2.10938 0.70313,0.71875 1.73438,0.71875 0.78125,0 1.32812,-0.40625 0.54688,-0.40625 0.85938,-1.29688 z m -4.60938,-2.28125 h 4.625 q -0.0937,-1.04687 -0.53125,-1.5625 -0.67187,-0.8125 -1.73437,-0.8125 -0.96875,0 -1.64063,0.65625 -0.65625,0.64063 -0.71875,1.71875 z m 7.82031,4.95313 v -8.29688 h 1.26563 v 1.25 q 0.48437,-0.875 0.89062,-1.15625 0.40625,-0.28125 0.90625,-0.28125 0.70313,0 1.4375,0.45313 l -0.48437,1.29687 q -0.51563,-0.29687 -1.03125,-0.29687 -0.45313,0 -0.82813,0.28125 -0.35937,0.26562 -0.51562,0.76562 -0.23438,0.75 -0.23438,1.64063 v 4.34375 z m 10.75,-1.03125 q -0.78125,0.67187 -1.5,0.95312 -0.71875,0.26563 -1.54687,0.26563 -1.375,0 -2.10938,-0.67188 -0.73437,-0.67187 -0.73437,-1.70312 0,-0.60938 0.28125,-1.10938 0.28125,-0.51562 0.71875,-0.8125 0.45312,-0.3125 1.01562,-0.46875 0.42188,-0.10937 1.25,-0.20312 1.70313,-0.20313 2.51563,-0.48438 0,-0.29687 0,-0.375 0,-0.85937 -0.39063,-1.20312 -0.54687,-0.48438 -1.60937,-0.48438 -0.98438,0 -1.46875,0.35938 -0.46875,0.34375 -0.6875,1.21875 l -1.375,-0.1875 q 0.1875,-0.875 0.60937,-1.42188 0.4375,-0.54687 1.25,-0.82812 0.8125,-0.29688 1.875,-0.29688 1.0625,0 1.71875,0.25 0.67188,0.25 0.98438,0.625 0.3125,0.375 0.4375,0.95313 0.0781,0.35937 0.0781,1.29687 v 1.875 q 0,1.96875 0.0781,2.48438 0.0937,0.51562 0.35937,1 h -1.46875 q -0.21875,-0.4375 -0.28125,-1.03125 z m -0.10937,-3.14063 q -0.76563,0.3125 -2.29688,0.53125 -0.875,0.125 -1.23437,0.28125 -0.35938,0.15625 -0.5625,0.46875 -0.1875,0.29688 -0.1875,0.65625 0,0.5625 0.42187,0.9375 0.4375,0.375 1.25,0.375 0.8125,0 1.4375,-0.34375 0.64063,-0.35937 0.9375,-0.98437 0.23438,-0.46875 0.23438,-1.40625 z m 6.66406,2.90625 0.20313,1.25 q -0.59375,0.125 -1.0625,0.125 -0.76563,0 -1.1875,-0.23437 -0.42188,-0.25 -0.59375,-0.64063 -0.17188,-0.40625 -0.17188,-1.67187 v -4.76563 h -1.03125 v -1.09375 h 1.03125 v -2.0625 l 1.40625,-0.84375 v 2.90625 h 1.40625 v 1.09375 h -1.40625 v 4.84375 q 0,0.60938 0.0625,0.78125 0.0781,0.17188 0.25,0.28125 0.17188,0.0937 0.48438,0.0937 0.23437,0 0.60937,-0.0625 z m 0.85156,-2.89062 q 0,-2.29688 1.28125,-3.40625 1.07813,-0.92188 2.60938,-0.92188 1.71875,0 2.79687,1.125 1.09375,1.10938 1.09375,3.09375 0,1.59375 -0.48437,2.51563 -0.48438,0.92187 -1.40625,1.4375 -0.90625,0.5 -2,0.5 -1.73438,0 -2.8125,-1.10938 -1.07813,-1.125 -1.07813,-3.23437 z m 1.45313,0 q 0,1.59375 0.6875,2.39062 0.70312,0.79688 1.75,0.79688 1.04687,0 1.73437,-0.79688 0.70313,-0.79687 0.70313,-2.4375 0,-1.53125 -0.70313,-2.32812 -0.6875,-0.79688 -1.73437,-0.79688 -1.04688,0 -1.75,0.79688 -0.6875,0.78125 -0.6875,2.375 z m 7.96094,4.15625 v -8.29688 h 1.26562 v 1.25 q 0.48438,-0.875 0.89063,-1.15625 0.40625,-0.28125 0.90625,-0.28125 0.70312,0 1.4375,0.45313 l -0.48438,1.29687 q -0.51562,-0.29687 -1.03125,-0.29687 -0.45312,0 -0.82812,0.28125 -0.35938,0.26562 -0.51563,0.76562 -0.23437,0.75 -0.23437,1.64063 v 4.34375 z m 4.78125,-2.48438 1.39062,-0.21875 q 0.10938,0.84375 0.64063,1.29688 0.54687,0.4375 1.5,0.4375 0.96875,0 1.4375,-0.39063 0.46875,-0.40625 0.46875,-0.9375 0,-0.46875 -0.40625,-0.75 -0.29688,-0.1875 -1.4375,-0.46875 -1.54688,-0.39062 -2.15625,-0.67187 -0.59375,-0.29688 -0.90625,-0.79688 -0.29688,-0.5 -0.29688,-1.10937 0,-0.5625 0.25,-1.03125 0.25,-0.46875 0.6875,-0.78125 0.32813,-0.25 0.89063,-0.40625 0.57812,-0.17188 1.21875,-0.17188 0.98437,0 1.71875,0.28125 0.73437,0.28125 1.07812,0.76563 0.35938,0.46875 0.5,1.28125 l -1.375,0.1875 q -0.0937,-0.64063 -0.54687,-1 -0.45313,-0.35938 -1.26563,-0.35938 -0.96875,0 -1.39062,0.32813 -0.40625,0.3125 -0.40625,0.73437 0,0.28125 0.17187,0.5 0.17188,0.21875 0.53125,0.375 0.21875,0.0781 1.25,0.35938 1.48438,0.39062 2.07813,0.65625 0.59375,0.25 0.92187,0.73437 0.34375,0.48438 0.34375,1.20313 0,0.70312 -0.42187,1.32812 -0.40625,0.60938 -1.1875,0.95313 -0.76563,0.34375 -1.73438,0.34375 -1.625,0 -2.46875,-0.67188 -0.84375,-0.67187 -1.07812,-2 z" />
  <path
     style="fill:#0000ff;fill-rule:evenodd"
     inkscape:connector-curvature="0"
     id="path4259"
     d="m 194.66182,38.65479 h 12.5354 v 10.23622 h -12.5354 z" />
  <path
     style="fill:#38761d;fill-rule:evenodd"
     inkscape:connector-curvature="0"
     id="path4261"
     d="m 220.01469,99.60252 h 12.53546 v 10.23624 h -12.53546 z" />
  <path
     style="fill:#38761d;fill-rule:evenodd"
     inkscape:connector-curvature="0"
     id="path4263"
     d="m 219.90696,69.92451 h 12.5354 v 10.23621 h -12.5354 z" />
  <path
     style="fill:#f4cccc;fill-rule:evenodd"
     inkscape:connector-curvature="0"
     id="path4265"
     d="m 26.59418,15.13442 v 0 c 0,-8.02612 6.50647,-14.53259 14.53259,-14.53259 h 117.58048 c 3.85431,0 7.55072,1.53111 10.27612,4.2565 2.7254,2.72538 4.25647,6.42181 4.25647,10.27609 v 125.70647 c 0,8.02612 -6.50647,14.53259 -14.53259,14.53259 H 41.12677 c -8.02612,0 -14.53259,-6.50647 -14.53259,-14.53259 z" />
  <path
     style="fill-rule:evenodd;stroke:#000000;stroke-width:1;stroke-linecap:butt;stroke-linejoin:round"
     inkscape:connector-curvature="0"
     id="path4267"
     d="m 26.59418,15.13442 v 0 c 0,-8.02612 6.50647,-14.53259 14.53259,-14.53259 h 117.58048 c 3.85431,0 7.55072,1.53111 10.27612,4.2565 2.7254,2.72538 4.25647,6.42181 4.25647,10.27609 v 125.70647 c 0,8.02612 -6.50647,14.53259 -14.53259,14.53259 H 41.12677 c -8.02612,0 -14.53259,-6.50647 -14.53259,-14.53259 z" />
  <path
     style="fill:#000000;fill-rule:nonzero"
     inkscape:connector-curvature="0"
     id="path4269"
     d="M 41.35065,23.77829 V 10.41891 h 1.76562 v 5.48438 h 6.9375 v -5.48438 h 1.76563 v 13.35938 h -1.76563 v -6.29688 h -6.9375 v 6.29688 z m 12.59793,-4.84375 q 0,-2.6875 1.48438,-3.96875 1.25,-1.07813 3.04687,-1.07813 2,0 3.26563,1.3125 1.26562,1.29688 1.26562,3.60938 0,1.85937 -0.5625,2.9375 -0.5625,1.0625 -1.64062,1.65625 -1.0625,0.59375 -2.32813,0.59375 -2.03125,0 -3.28125,-1.29688 -1.25,-1.3125 -1.25,-3.76562 z m 1.6875,0 q 0,1.85937 0.79688,2.79687 0.8125,0.92188 2.04687,0.92188 1.21875,0 2.03125,-0.92188 0.8125,-0.9375 0.8125,-2.84375 0,-1.79687 -0.8125,-2.71875 -0.8125,-0.92187 -2.03125,-0.92187 -1.23437,0 -2.04687,0.92187 -0.79688,0.90625 -0.79688,2.76563 z m 8.64136,1.95312 1.625,-0.25 q 0.125,0.96875 0.75,1.5 0.625,0.51563 1.75,0.51563 1.125,0 1.67187,-0.45313 0.54688,-0.46875 0.54688,-1.09375 0,-0.54687 -0.48438,-0.875 -0.32812,-0.21875 -1.67187,-0.54687 -1.8125,-0.46875 -2.51563,-0.79688 -0.6875,-0.32812 -1.04687,-0.90625 -0.35938,-0.59375 -0.35938,-1.3125 0,-0.64062 0.29688,-1.1875 0.29687,-0.5625 0.8125,-0.92187 0.375,-0.28125 1.03125,-0.46875 0.67187,-0.20313 1.42187,-0.20313 1.14063,0 2,0.32813 0.85938,0.32812 1.26563,0.89062 0.42187,0.5625 0.57812,1.5 l -1.60937,0.21875 q -0.10938,-0.75 -0.64063,-1.17187 -0.51562,-0.42188 -1.46875,-0.42188 -1.14062,0 -1.625,0.375 -0.46875,0.375 -0.46875,0.875 0,0.3125 0.1875,0.57813 0.20313,0.26562 0.64063,0.4375 0.23437,0.0937 1.4375,0.42187 1.75,0.45313 2.4375,0.75 0.6875,0.29688 1.07812,0.85938 0.39063,0.5625 0.39063,1.40625 0,0.82812 -0.48438,1.54687 -0.46875,0.71875 -1.375,1.125 -0.90625,0.39063 -2.04687,0.39063 -1.875,0 -2.875,-0.78125 -0.98438,-0.78125 -1.25,-2.32813 z m 13.5625,1.42188 0.23437,1.45312 q -0.6875,0.14063 -1.23437,0.14063 -0.89063,0 -1.39063,-0.28125 -0.48437,-0.28125 -0.6875,-0.73438 -0.20312,-0.46875 -0.20312,-1.9375 v -5.57812 h -1.20313 v -1.26563 h 1.20313 v -2.39062 l 1.625,-0.98438 v 3.375 h 1.65625 v 1.26563 h -1.65625 v 5.67187 q 0,0.6875 0.0781,0.89063 0.0937,0.20312 0.28125,0.32812 0.20313,0.10938 0.57813,0.10938 0.26562,0 0.71875,-0.0625 z m 7.02286,1.46875 V 10.41891 h 5.92187 q 1.78125,0 2.70313,0.35938 0.9375,0.35937 1.48437,1.28125 0.5625,0.90625 0.5625,2.01562 0,1.40625 -0.92187,2.39063 -0.92188,0.96875 -2.84375,1.23437 0.70312,0.34375 1.07812,0.67188 0.76563,0.70312 1.45313,1.76562 l 2.32812,3.64063 h -2.21875 l -1.76562,-2.78125 q -0.78125,-1.20313 -1.28125,-1.82813 -0.5,-0.64062 -0.90625,-0.89062 -0.39063,-0.26563 -0.79688,-0.35938 -0.29687,-0.0781 -0.98437,-0.0781 h -2.04688 v 5.9375 z m 1.76562,-7.45313 h 3.79688 q 1.21875,0 1.89062,-0.25 0.6875,-0.26562 1.04688,-0.8125 0.35937,-0.54687 0.35937,-1.1875 0,-0.95312 -0.6875,-1.5625 -0.6875,-0.60937 -2.1875,-0.60937 h -4.21875 z m 17.80106,7.45313 v -1.42188 q -1.125,1.64063 -3.0625,1.64063 -0.85938,0 -1.60938,-0.32813 -0.73437,-0.32812 -1.09375,-0.82812 -0.35937,-0.5 -0.5,-1.21875 -0.10937,-0.46875 -0.10937,-1.53125 v -5.98438 h 1.64062 v 5.35938 q 0,1.28125 0.10938,1.73437 0.15625,0.64063 0.65625,1.01563 0.5,0.375 1.23437,0.375 0.73438,0 1.375,-0.375 0.65625,-0.39063 0.92188,-1.03125 0.26562,-0.65625 0.26562,-1.89063 v -5.1875 h 1.64063 v 9.67188 z m 4.0476,0 v -9.67188 h 1.46875 v 1.375 q 1.0625,-1.59375 3.07813,-1.59375 0.875,0 1.60937,0.3125 0.73438,0.3125 1.09375,0.82813 0.375,0.5 0.51563,1.20312 0.0937,0.45313 0.0937,1.59375 v 5.95313 h -1.64063 v -5.89063 q 0,-1 -0.20312,-1.48437 -0.1875,-0.5 -0.67188,-0.79688 -0.48437,-0.29687 -1.14062,-0.29687 -1.04688,0 -1.8125,0.67187 -0.75,0.65625 -0.75,2.51563 v 5.28125 z m 13.95383,-1.46875 0.23438,1.45312 q -0.6875,0.14063 -1.23438,0.14063 -0.89062,0 -1.39062,-0.28125 -0.48438,-0.28125 -0.6875,-0.73438 -0.20313,-0.46875 -0.20313,-1.9375 v -5.57812 h -1.20312 v -1.26563 h 1.20312 v -2.39062 l 1.625,-0.98438 v 3.375 h 1.65625 v 1.26563 h -1.65625 v 5.67187 q 0,0.6875 0.0781,0.89063 0.0937,0.20312 0.28125,0.32812 0.20312,0.10938 0.57812,0.10938 0.26563,0 0.71875,-0.0625 z m 1.6052,-10 v -1.89063 h 1.64062 v 1.89063 z m 0,11.46875 v -9.67188 h 1.64062 v 9.67188 z m 4.1448,0 v -9.67188 h 1.46875 v 1.35938 q 0.45313,-0.71875 1.20313,-1.14063 0.76562,-0.4375 1.71875,-0.4375 1.07812,0 1.76562,0.45313 0.6875,0.4375 0.96875,1.23437 1.15625,-1.6875 2.98441,-1.6875 1.45312,0 2.21875,0.79688 0.78125,0.79687 0.78125,2.45312 v 6.64063 h -1.64063 v -6.09375 q 0,-0.98438 -0.15625,-1.40625 -0.15625,-0.4375 -0.57812,-0.70313 -0.42188,-0.26562 -0.98441,-0.26562 -1.01562,0 -1.6875,0.6875 -0.67187,0.67187 -0.67187,2.15625 v 5.625 h -1.64063 v -6.28125 q 0,-1.09375 -0.40625,-1.64063 -0.40625,-0.54687 -1.3125,-0.54687 -0.6875,0 -1.28125,0.35937 -0.59375,0.35938 -0.85937,1.0625 -0.25,0.70313 -0.25,2.03125 v 5.01563 z m 22.1658,-3.10938 1.6875,0.20313 q -0.40625,1.48437 -1.48437,2.3125 -1.07813,0.8125 -2.76563,0.8125 -2.125,0 -3.375,-1.29688 -1.23437,-1.3125 -1.23437,-3.67187 0,-2.45313 1.25,-3.79688 1.26562,-1.34375 3.26562,-1.34375 1.9375,0 3.15625,1.32813 1.23438,1.3125 1.23438,3.70312 0,0.15625 0,0.4375 h -7.21875 q 0.0937,1.59375 0.90625,2.45313 0.8125,0.84375 2.01562,0.84375 0.90625,0 1.54688,-0.46875 0.64062,-0.48438 1.01562,-1.51563 z m -5.39062,-2.65625 h 5.40625 q -0.10938,-1.21875 -0.625,-1.82812 -0.78125,-0.95313 -2.03125,-0.95313 -1.125,0 -1.90625,0.76563 -0.76563,0.75 -0.84375,2.01562 z" />
  <path
     style="fill:#ffd966;fill-rule:evenodd"
     inkscape:connector-curvature="0"
     id="path4271"
     d="m 56.22715,36.29397 v 0 c 0,-1.27908 1.0369,-2.31598 2.31598,-2.31598 h 105.60425 c 0.61426,0 1.20337,0.244 1.63769,0.67833 0.43433,0.43434 0.67829,1.02341 0.67829,1.63765 V 55.0321 c 0,1.27907 -1.03687,2.31598 -2.31598,2.31598 H 58.54313 c -1.27908,0 -2.31598,-1.03691 -2.31598,-2.31598 z" />
  <path
     style="fill-rule:evenodd;stroke:#000000;stroke-width:1;stroke-linecap:butt;stroke-linejoin:round"
     inkscape:connector-curvature="0"
     id="path4273"
     d="m 56.22715,36.29397 v 0 c 0,-1.27908 1.0369,-2.31598 2.31598,-2.31598 h 105.60425 c 0.61426,0 1.20337,0.244 1.63769,0.67833 0.43433,0.43434 0.67829,1.02341 0.67829,1.63765 V 55.0321 c 0,1.27907 -1.03687,2.31598 -2.31598,2.31598 H 58.54313 c -1.27908,0 -2.31598,-1.03691 -2.31598,-2.31598 z" />
  <path
     style="fill:#000000;fill-rule:nonzero"
     inkscape:connector-curvature="0"
     id="path4275"
     d="m 64.91462,50.18302 v -8.59375 h 2.96875 q 1,0 1.53125,0.125 0.73437,0.17187 1.25,0.60937 0.6875,0.57813 1.01562,1.48438 0.34375,0.89062 0.34375,2.03125 0,0.98437 -0.23437,1.73437 -0.21875,0.75 -0.57813,1.25 -0.35937,0.5 -0.79687,0.78125 -0.42188,0.28125 -1.01563,0.4375 -0.59375,0.14063 -1.375,0.14063 z m 1.14062,-1.01563 h 1.82813 q 0.85937,0 1.34375,-0.15625 0.48437,-0.15625 0.76562,-0.45312 0.40625,-0.39063 0.625,-1.07813 0.23438,-0.6875 0.23438,-1.65625 0,-1.34375 -0.45313,-2.0625 -0.4375,-0.73437 -1.0625,-0.98437 -0.46875,-0.17188 -1.46875,-0.17188 h -1.8125 z m 11.6504,-0.98437 1.09375,0.125 q -0.25,0.95312 -0.95313,1.48437 -0.70312,0.53125 -1.78125,0.53125 -1.35937,0 -2.17187,-0.84375 -0.79688,-0.84375 -0.79688,-2.35937 0,-1.5625 0.8125,-2.42188 0.8125,-0.875 2.09375,-0.875 1.25,0 2.03125,0.84375 0.79688,0.84375 0.79688,2.39063 0,0.0937 0,0.28125 h -4.64063 q 0.0625,1.03125 0.57813,1.57812 0.51562,0.53125 1.29687,0.53125 0.57813,0 0.98438,-0.29687 0.42187,-0.3125 0.65625,-0.96875 z m -3.45313,-1.70313 h 3.46875 q -0.0625,-0.79687 -0.39062,-1.1875 -0.51563,-0.60937 -1.3125,-0.60937 -0.73438,0 -1.23438,0.48437 -0.48437,0.48438 -0.53125,1.3125 z m 7.5957,3.70313 -2.35937,-6.21875 h 1.10937 l 1.34375,3.71875 q 0.20313,0.60937 0.39063,1.25 0.14062,-0.48438 0.39062,-1.17188 l 1.39063,-3.79687 h 1.07812 l -2.35937,6.21875 z m 4.28125,-7.375 v -1.21875 h 1.0625 v 1.21875 z m 0,7.375 v -6.21875 h 1.0625 v 6.21875 z m 6.72852,-2.28125 1.03125,0.14062 q -0.17188,1.0625 -0.875,1.67188 -0.70313,0.60937 -1.71875,0.60937 -1.28125,0 -2.0625,-0.82812 -0.76563,-0.84375 -0.76563,-2.40625 0,-1 0.32813,-1.75 0.34375,-0.76563 1.01562,-1.14063 0.6875,-0.375 1.5,-0.375 1,0 1.64063,0.51563 0.65625,0.5 0.84375,1.45312 l -1.03125,0.15625 q -0.14063,-0.625 -0.51563,-0.9375 -0.375,-0.32812 -0.90625,-0.32812 -0.79687,0 -1.29687,0.57812 -0.5,0.5625 -0.5,1.79688 0,1.26562 0.48437,1.82812 0.48438,0.5625 1.25,0.5625 0.625,0 1.03125,-0.375 0.42188,-0.375 0.54688,-1.17187 z m 6.1875,0.28125 1.09375,0.125 q -0.25,0.95312 -0.95313,1.48437 -0.70312,0.53125 -1.78125,0.53125 -1.35937,0 -2.17187,-0.84375 -0.79688,-0.84375 -0.79688,-2.35937 0,-1.5625 0.8125,-2.42188 0.8125,-0.875 2.09375,-0.875 1.25,0 2.03125,0.84375 0.79688,0.84375 0.79688,2.39063 0,0.0937 0,0.28125 h -4.64063 q 0.0625,1.03125 0.57813,1.57812 0.51562,0.53125 1.29687,0.53125 0.57813,0 0.98438,-0.29687 0.42187,-0.3125 0.65625,-0.96875 z m -3.45313,-1.70313 h 3.46875 q -0.0625,-0.79687 -0.39062,-1.1875 -0.51563,-0.60937 -1.3125,-0.60937 -0.73438,0 -1.23438,0.48437 -0.48437,0.48438 -0.53125,1.3125 z m 9.35157,3.70313 v -8.59375 h 3.8125 q 1.15625,0 1.75,0.23437 0.59375,0.23438 0.95312,0.82813 0.35938,0.57812 0.35938,1.28125 0,0.92187 -0.59375,1.54687 -0.59375,0.625 -1.82813,0.79688 0.45313,0.21875 0.6875,0.42187 0.5,0.45313 0.9375,1.14063 l 1.5,2.34375 h -1.4375 l -1.125,-1.78125 q -0.5,-0.78125 -0.82812,-1.1875 -0.3125,-0.40625 -0.57813,-0.5625 -0.25,-0.17188 -0.51562,-0.25 -0.1875,-0.0312 -0.625,-0.0312 h -1.32813 v 3.8125 z m 1.14062,-4.79688 h 2.45313 q 0.76562,0 1.20312,-0.15625 0.45313,-0.17187 0.67188,-0.51562 0.23437,-0.35938 0.23437,-0.78125 0,-0.60938 -0.45312,-1 -0.4375,-0.39063 -1.39063,-0.39063 h -2.71875 z m 11.46289,4.79688 v -0.92188 q -0.73437,1.0625 -1.98437,1.0625 -0.54688,0 -1.03125,-0.20312 -0.46875,-0.21875 -0.70313,-0.53125 -0.23437,-0.32813 -0.32812,-0.79688 -0.0625,-0.29687 -0.0625,-0.98437 v -3.84375 h 1.0625 v 3.45312 q 0,0.8125 0.0625,1.10938 0.0937,0.40625 0.40625,0.65625 0.32812,0.23437 0.8125,0.23437 0.46875,0 0.875,-0.23437 0.42187,-0.25 0.59375,-0.67188 0.1875,-0.42187 0.1875,-1.21875 v -3.32812 h 1.04687 v 6.21875 z m 2.59571,0 v -6.21875 h 0.9375 v 0.875 q 0.6875,-1.01563 1.98437,-1.01563 0.5625,0 1.03125,0.20313 0.48438,0.20312 0.71875,0.53125 0.23438,0.32812 0.32813,0.76562 0.0469,0.29688 0.0469,1.03125 v 3.82813 h -1.04687 v -3.78125 q 0,-0.65625 -0.125,-0.96875 -0.125,-0.3125 -0.4375,-0.5 -0.3125,-0.20313 -0.73438,-0.20313 -0.67187,0 -1.17187,0.4375 -0.48438,0.42188 -0.48438,1.60938 v 3.40625 z m 8.9707,-0.9375 0.15625,0.92187 q -0.45313,0.0937 -0.79688,0.0937 -0.57812,0 -0.89062,-0.17187 -0.3125,-0.1875 -0.45313,-0.48438 -0.125,-0.29687 -0.125,-1.25 v -3.57812 h -0.76562 v -0.8125 h 0.76562 v -1.54688 l 1.04688,-0.625 v 2.17188 h 1.0625 v 0.8125 h -1.0625 v 3.64062 q 0,0.45313 0.0469,0.57813 0.0625,0.125 0.1875,0.20312 0.125,0.0781 0.35938,0.0781 0.1875,0 0.46875,-0.0312 z m 1.03711,-6.4375 v -1.21875 h 1.0625 v 1.21875 z m 0,7.375 v -6.21875 h 1.0625 v 6.21875 z m 2.66601,0 v -6.21875 h 0.9375 v 0.875 q 0.29688,-0.46875 0.78125,-0.73438 0.48438,-0.28125 1.10938,-0.28125 0.6875,0 1.125,0.28125 0.45312,0.28125 0.625,0.79688 0.74997,-1.07813 1.92184,-1.07813 0.9375,0 1.42188,0.51563 0.5,0.5 0.5,1.57812 v 4.26563 h -1.04688 v -3.92188 q 0,-0.625 -0.10937,-0.90625 -0.0937,-0.28125 -0.35938,-0.45312 -0.26562,-0.17188 -0.64062,-0.17188 -0.65625,0 -1.09372,0.4375 -0.42188,0.4375 -0.42188,1.40625 v 3.60938 h -1.0625 v -4.04688 q 0,-0.70312 -0.26562,-1.04687 -0.25,-0.35938 -0.82813,-0.35938 -0.45312,0 -0.82812,0.23438 -0.375,0.23437 -0.54688,0.6875 -0.17187,0.45312 -0.17187,1.29687 v 3.23438 z m 14.24607,-2 1.09375,0.125 q -0.25,0.95312 -0.95313,1.48437 -0.70312,0.53125 -1.78125,0.53125 -1.35937,0 -2.17187,-0.84375 -0.79688,-0.84375 -0.79688,-2.35937 0,-1.5625 0.8125,-2.42188 0.8125,-0.875 2.09375,-0.875 1.25,0 2.03125,0.84375 0.79688,0.84375 0.79688,2.39063 0,0.0937 0,0.28125 h -4.64063 q 0.0625,1.03125 0.57813,1.57812 0.51562,0.53125 1.29687,0.53125 0.57813,0 0.98438,-0.29687 0.42187,-0.3125 0.65625,-0.96875 z m -3.45313,-1.70313 h 3.46875 q -0.0625,-0.79687 -0.39062,-1.1875 -0.51563,-0.60937 -1.3125,-0.60937 -0.73438,0 -1.23438,0.48437 -0.48437,0.48438 -0.53125,1.3125 z m 12.88281,3.70313 h -1.04687 v -6.71875 q -0.39063,0.35937 -1.01563,0.73437 -0.60937,0.35938 -1.09375,0.53125 v -1.01562 q 0.875,-0.42188 1.53125,-1 0.67188,-0.59375 0.95313,-1.15625 h 0.67187 z" />
  <path
     style="fill:#ffd966;fill-rule:evenodd"
     inkscape:connector-curvature="0"
     id="path4277"
     d="m 69.64448,127.03257 v 0 c 0,-1.27908 1.0369,-2.31598 2.31598,-2.31598 h 78.76962 c 0.61426,0 1.20331,0.24399 1.63763,0.67835 0.43433,0.43432 0.67835,1.0234 0.67835,1.63763 v 18.73813 c 0,1.27908 -1.03693,2.31598 -2.31598,2.31598 H 71.96046 c -1.27908,0 -2.31598,-1.0369 -2.31598,-2.31598 z" />
  <path
     style="fill-rule:evenodd;stroke:#000000;stroke-width:1;stroke-linecap:butt;stroke-linejoin:round"
     inkscape:connector-curvature="0"
     id="path4279"
     d="m 69.64448,127.03257 v 0 c 0,-1.27908 1.0369,-2.31598 2.31598,-2.31598 h 78.76962 c 0.61426,0 1.20331,0.24399 1.63763,0.67835 0.43433,0.43432 0.67835,1.0234 0.67835,1.63763 v 18.73813 c 0,1.27908 -1.03693,2.31598 -2.31598,2.31598 H 71.96046 c -1.27908,0 -2.31598,-1.0369 -2.31598,-2.31598 z" />
  <path
     style="fill:#000000;fill-rule:nonzero"
     inkscape:connector-curvature="0"
     id="path4281"
     d="m 77.96638,140.92164 v -8.59375 h 1.125 v 3.53125 h 4.46875 v -3.53125 h 1.14062 v 8.59375 h -1.14062 v -4.04687 h -4.46875 v 4.04687 z m 8.10352,-3.10937 q 0,-1.73438 0.95312,-2.5625 0.79688,-0.6875 1.95313,-0.6875 1.28125,0 2.09375,0.84375 0.82812,0.82812 0.82812,2.3125 0,1.20312 -0.35937,1.89062 -0.35938,0.6875 -1.0625,1.07813 -0.6875,0.375 -1.5,0.375 -1.29688,0 -2.10938,-0.82813 -0.79687,-0.84375 -0.79687,-2.42187 z m 1.07812,0 q 0,1.1875 0.51563,1.78125 0.53125,0.59375 1.3125,0.59375 0.79687,0 1.3125,-0.59375 0.51562,-0.59375 0.51562,-1.8125 0,-1.15625 -0.53125,-1.75 -0.51562,-0.59375 -1.29687,-0.59375 -0.78125,0 -1.3125,0.59375 -0.51563,0.57812 -0.51563,1.78125 z m 5.56445,1.25 1.03125,-0.15625 q 0.0937,0.625 0.48438,0.95312 0.40625,0.32813 1.14062,0.32813 0.71875,0 1.0625,-0.28125 0.35938,-0.29688 0.35938,-0.70313 0,-0.35937 -0.3125,-0.5625 -0.21875,-0.14062 -1.07813,-0.35937 -1.15625,-0.29688 -1.60937,-0.5 -0.4375,-0.21875 -0.67188,-0.59375 -0.23437,-0.375 -0.23437,-0.84375 0,-0.40625 0.1875,-0.76563 0.1875,-0.35937 0.51562,-0.59375 0.25,-0.17187 0.67188,-0.29687 0.42187,-0.125 0.92187,-0.125 0.71875,0 1.26563,0.21875 0.5625,0.20312 0.82812,0.5625 0.26563,0.35937 0.35938,0.95312 l -1.03125,0.14063 q -0.0625,-0.46875 -0.40625,-0.73438 -0.32813,-0.28125 -0.95313,-0.28125 -0.71875,0 -1.03125,0.25 -0.3125,0.23438 -0.3125,0.5625 0,0.20313 0.125,0.35938 0.14063,0.17187 0.40625,0.28125 0.15625,0.0625 0.9375,0.26562 1.125,0.3125 1.5625,0.5 0.4375,0.1875 0.6875,0.54688 0.25,0.35937 0.25,0.90625 0,0.53125 -0.3125,1 -0.29687,0.45312 -0.875,0.71875 -0.57812,0.25 -1.3125,0.25 -1.21875,0 -1.85937,-0.5 -0.625,-0.51563 -0.79688,-1.5 z m 8.71875,0.92187 0.15625,0.92188 q -0.45312,0.0937 -0.79687,0.0937 -0.57813,0 -0.89063,-0.17188 -0.3125,-0.1875 -0.45312,-0.48437 -0.125,-0.29688 -0.125,-1.25 v -3.57813 h -0.76563 v -0.8125 h 0.76563 v -1.54687 l 1.04687,-0.625 v 2.17187 h 1.0625 v 0.8125 h -1.0625 v 3.64063 q 0,0.45312 0.0469,0.57812 0.0625,0.125 0.1875,0.20313 0.125,0.0781 0.35937,0.0781 0.1875,0 0.46875,-0.0312 z m 4.44922,0.9375 v -8.59375 h 1.14063 v 4.26563 l 4.26562,-4.26563 h 1.54688 l -3.60938,3.48438 3.76563,5.10937 h -1.5 l -3.0625,-4.34375 -1.40625,1.35938 v 2.98437 z m 12.17578,-2 1.09375,0.125 q -0.25,0.95313 -0.95312,1.48438 -0.70313,0.53125 -1.78125,0.53125 -1.35938,0 -2.17188,-0.84375 -0.79687,-0.84375 -0.79687,-2.35938 0,-1.5625 0.8125,-2.42187 0.8125,-0.875 2.09375,-0.875 1.25,0 2.03125,0.84375 0.79687,0.84375 0.79687,2.39062 0,0.0937 0,0.28125 h -4.64062 q 0.0625,1.03125 0.57812,1.57813 0.51563,0.53125 1.29688,0.53125 0.57812,0 0.98437,-0.29688 0.42188,-0.3125 0.65625,-0.96875 z m -3.45312,-1.70312 h 3.46875 q -0.0625,-0.79688 -0.39063,-1.1875 -0.51562,-0.60938 -1.3125,-0.60938 -0.73437,0 -1.23437,0.48438 -0.48438,0.48437 -0.53125,1.3125 z m 5.86133,3.70312 v -6.21875 h 0.95312 v 0.9375 q 0.35938,-0.65625 0.65625,-0.85937 0.3125,-0.21875 0.6875,-0.21875 0.53125,0 1.07813,0.32812 l -0.35938,0.98438 q -0.39062,-0.23438 -0.76562,-0.23438 -0.35938,0 -0.64063,0.21875 -0.26562,0.20313 -0.375,0.57813 -0.1875,0.5625 -0.1875,1.21875 v 3.26562 z m 4.01172,0 v -6.21875 h 0.9375 v 0.875 q 0.6875,-1.01562 1.98437,-1.01562 0.5625,0 1.03125,0.20312 0.48438,0.20313 0.71875,0.53125 0.23438,0.32813 0.32813,0.76563 0.0469,0.29687 0.0469,1.03125 v 3.82812 h -1.04687 v -3.78125 q 0,-0.65625 -0.125,-0.96875 -0.125,-0.3125 -0.4375,-0.5 -0.3125,-0.20312 -0.73438,-0.20312 -0.67187,0 -1.17187,0.4375 -0.48438,0.42187 -0.48438,1.60937 v 3.40625 z m 10.92382,-2 1.09375,0.125 q -0.25,0.95313 -0.95312,1.48438 -0.70313,0.53125 -1.78125,0.53125 -1.35938,0 -2.17188,-0.84375 -0.79687,-0.84375 -0.79687,-2.35938 0,-1.5625 0.8125,-2.42187 0.8125,-0.875 2.09375,-0.875 1.25,0 2.03125,0.84375 0.79687,0.84375 0.79687,2.39062 0,0.0937 0,0.28125 h -4.64062 q 0.0625,1.03125 0.57812,1.57813 0.51563,0.53125 1.29688,0.53125 0.57812,0 0.98437,-0.29688 0.42188,-0.3125 0.65625,-0.96875 z m -3.45312,-1.70312 h 3.46875 q -0.0625,-0.79688 -0.39063,-1.1875 -0.51562,-0.60938 -1.3125,-0.60938 -0.73437,0 -1.23437,0.48438 -0.48438,0.48437 -0.53125,1.3125 z m 5.8457,3.70312 v -8.59375 h 1.06247 v 8.59375 z m 2.27536,-1.85937 1.03125,-0.15625 q 0.0937,0.625 0.48438,0.95312 0.40625,0.32813 1.14062,0.32813 0.71875,0 1.0625,-0.28125 0.35938,-0.29688 0.35938,-0.70313 0,-0.35937 -0.3125,-0.5625 -0.21875,-0.14062 -1.07813,-0.35937 -1.15625,-0.29688 -1.60937,-0.5 -0.4375,-0.21875 -0.67188,-0.59375 -0.23437,-0.375 -0.23437,-0.84375 0,-0.40625 0.1875,-0.76563 0.1875,-0.35937 0.51562,-0.59375 0.25,-0.17187 0.67188,-0.29687 0.42187,-0.125 0.92187,-0.125 0.71875,0 1.26563,0.21875 0.5625,0.20312 0.82812,0.5625 0.26563,0.35937 0.35938,0.95312 l -1.03125,0.14063 q -0.0625,-0.46875 -0.40625,-0.73438 -0.32813,-0.28125 -0.95313,-0.28125 -0.71875,0 -1.03125,0.25 -0.3125,0.23438 -0.3125,0.5625 0,0.20313 0.125,0.35938 0.14063,0.17187 0.40625,0.28125 0.15625,0.0625 0.9375,0.26562 1.125,0.3125 1.5625,0.5 0.4375,0.1875 0.6875,0.54688 0.25,0.35937 0.25,0.90625 0,0.53125 -0.3125,1 -0.29687,0.45312 -0.875,0.71875 -0.57812,0.25 -1.3125,0.25 -1.21875,0 -1.85937,-0.5 -0.625,-0.51563 -0.79688,-1.5 z" />
  <path
     style="fill:#000000;fill-opacity:0;fill-rule:evenodd"
     inkscape:connector-curvature="0"
     id="path4283"
     d="m 168.92747,44.25251 h 24.18897" />
  <path
     style="fill-rule:evenodd;stroke:#000000;stroke-width:1;stroke-linecap:butt;stroke-linejoin:round"
     inkscape:connector-curvature="0"
     id="path4285"
     d="m 168.92747,44.25251 h 24.18897" />
  <path
     style="fill:#000000;fill-opacity:0;fill-rule:evenodd"
     inkscape:connector-curvature="0"
     id="path4287"
     d="m 169.82517,75.00916 h 47.30707" />
  <path
     style="fill-rule:evenodd;stroke:#000000;stroke-width:1;stroke-linecap:butt;stroke-linejoin:round"
     inkscape:connector-curvature="0"
     id="path4289"
     d="m 169.82517,75.00916 h 47.30707" />
  <path
     style="fill:#000000;fill-opacity:0;fill-rule:evenodd"
     inkscape:connector-curvature="0"
     id="path4291"
     d="m 169.82517,104.68979 h 47.30707" />
  <path
     style="fill-rule:evenodd;stroke:#000000;stroke-width:1;stroke-linecap:butt;stroke-linejoin:round"
     inkscape:connector-curvature="0"
     id="path4293"
     d="m 169.82517,104.68979 h 47.30707" />
  <path
     style="fill:#ffd966;fill-rule:evenodd"
     inkscape:connector-curvature="0"
     id="path4295"
     d="m 56.22715,66.54017 v 0 c 0,-1.27908 1.0369,-2.31598 2.31598,-2.31598 h 105.60425 c 0.61426,0 1.20337,0.24402 1.63769,0.67835 0.43433,0.43432 0.67829,1.0234 0.67829,1.63763 V 85.2783 c 0,1.27908 -1.03687,2.31598 -2.31598,2.31598 H 58.54313 c -1.27908,0 -2.31598,-1.0369 -2.31598,-2.31598 z" />
  <path
     style="fill-rule:evenodd;stroke:#000000;stroke-width:1;stroke-linecap:butt;stroke-linejoin:round"
     inkscape:connector-curvature="0"
     id="path4297"
     d="m 56.22715,66.54017 v 0 c 0,-1.27908 1.0369,-2.31598 2.31598,-2.31598 h 105.60425 c 0.61426,0 1.20337,0.24402 1.63769,0.67835 0.43433,0.43432 0.67829,1.0234 0.67829,1.63763 V 85.2783 c 0,1.27908 -1.03687,2.31598 -2.31598,2.31598 H 58.54313 c -1.27908,0 -2.31598,-1.0369 -2.31598,-2.31598 z" />
  <path
     style="fill:#000000;fill-rule:nonzero"
     inkscape:connector-curvature="0"
     id="path4299"
     d="m 64.91462,80.42924 v -8.59375 h 2.96875 q 1,0 1.53125,0.125 0.73437,0.17187 1.25,0.60937 0.6875,0.57813 1.01562,1.48438 0.34375,0.89062 0.34375,2.03125 0,0.98437 -0.23437,1.73437 -0.21875,0.75 -0.57813,1.25 -0.35937,0.5 -0.79687,0.78125 -0.42188,0.28125 -1.01563,0.4375 -0.59375,0.14063 -1.375,0.14063 z m 1.14062,-1.01563 h 1.82813 q 0.85937,0 1.34375,-0.15625 0.48437,-0.15625 0.76562,-0.45312 0.40625,-0.39063 0.625,-1.07813 0.23438,-0.6875 0.23438,-1.65625 0,-1.34375 -0.45313,-2.0625 -0.4375,-0.73437 -1.0625,-0.98437 -0.46875,-0.17188 -1.46875,-0.17188 h -1.8125 z m 11.6504,-0.98437 1.09375,0.125 q -0.25,0.95312 -0.95313,1.48437 -0.70312,0.53125 -1.78125,0.53125 -1.35937,0 -2.17187,-0.84375 -0.79688,-0.84375 -0.79688,-2.35937 0,-1.5625 0.8125,-2.42188 0.8125,-0.875 2.09375,-0.875 1.25,0 2.03125,0.84375 0.79688,0.84375 0.79688,2.39063 0,0.0937 0,0.28125 h -4.64063 q 0.0625,1.03125 0.57813,1.57812 0.51562,0.53125 1.29687,0.53125 0.57813,0 0.98438,-0.29687 0.42187,-0.3125 0.65625,-0.96875 z m -3.45313,-1.70313 h 3.46875 q -0.0625,-0.79687 -0.39062,-1.1875 -0.51563,-0.60937 -1.3125,-0.60937 -0.73438,0 -1.23438,0.48437 -0.48437,0.48438 -0.53125,1.3125 z m 7.5957,3.70313 -2.35937,-6.21875 h 1.10937 l 1.34375,3.71875 q 0.20313,0.60937 0.39063,1.25 0.14062,-0.48438 0.39062,-1.17188 l 1.39063,-3.79687 h 1.07812 l -2.35937,6.21875 z m 4.28125,-7.375 v -1.21875 h 1.0625 v 1.21875 z m 0,7.375 v -6.21875 h 1.0625 v 6.21875 z m 6.72852,-2.28125 1.03125,0.14062 q -0.17188,1.0625 -0.875,1.67188 -0.70313,0.60937 -1.71875,0.60937 -1.28125,0 -2.0625,-0.82812 -0.76563,-0.84375 -0.76563,-2.40625 0,-1 0.32813,-1.75 0.34375,-0.76563 1.01562,-1.14063 0.6875,-0.375 1.5,-0.375 1,0 1.64063,0.51563 0.65625,0.5 0.84375,1.45312 l -1.03125,0.15625 q -0.14063,-0.625 -0.51563,-0.9375 -0.375,-0.32812 -0.90625,-0.32812 -0.79687,0 -1.29687,0.57812 -0.5,0.5625 -0.5,1.79688 0,1.26562 0.48437,1.82812 0.48438,0.5625 1.25,0.5625 0.625,0 1.03125,-0.375 0.42188,-0.375 0.54688,-1.17187 z m 6.1875,0.28125 1.09375,0.125 q -0.25,0.95312 -0.95313,1.48437 -0.70312,0.53125 -1.78125,0.53125 -1.35937,0 -2.17187,-0.84375 -0.79688,-0.84375 -0.79688,-2.35937 0,-1.5625 0.8125,-2.42188 0.8125,-0.875 2.09375,-0.875 1.25,0 2.03125,0.84375 0.79688,0.84375 0.79688,2.39063 0,0.0937 0,0.28125 h -4.64063 q 0.0625,1.03125 0.57813,1.57812 0.51562,0.53125 1.29687,0.53125 0.57813,0 0.98438,-0.29687 0.42187,-0.3125 0.65625,-0.96875 z m -3.45313,-1.70313 h 3.46875 q -0.0625,-0.79687 -0.39062,-1.1875 -0.51563,-0.60937 -1.3125,-0.60937 -0.73438,0 -1.23438,0.48437 -0.48437,0.48438 -0.53125,1.3125 z m 9.35157,3.70313 v -8.59375 h 3.8125 q 1.15625,0 1.75,0.23437 0.59375,0.23438 0.95312,0.82813 0.35938,0.57812 0.35938,1.28125 0,0.92187 -0.59375,1.54687 -0.59375,0.625 -1.82813,0.79688 0.45313,0.21875 0.6875,0.42187 0.5,0.45313 0.9375,1.14063 l 1.5,2.34375 h -1.4375 l -1.125,-1.78125 q -0.5,-0.78125 -0.82812,-1.1875 -0.3125,-0.40625 -0.57813,-0.5625 -0.25,-0.17188 -0.51562,-0.25 -0.1875,-0.0312 -0.625,-0.0312 h -1.32813 v 3.8125 z m 1.14062,-4.79688 h 2.45313 q 0.76562,0 1.20312,-0.15625 0.45313,-0.17187 0.67188,-0.51562 0.23437,-0.35938 0.23437,-0.78125 0,-0.60938 -0.45312,-1 -0.4375,-0.39063 -1.39063,-0.39063 h -2.71875 z m 11.46289,4.79688 v -0.92188 q -0.73437,1.0625 -1.98437,1.0625 -0.54688,0 -1.03125,-0.20312 -0.46875,-0.21875 -0.70313,-0.53125 -0.23437,-0.32813 -0.32812,-0.79688 -0.0625,-0.29687 -0.0625,-0.98437 v -3.84375 h 1.0625 v 3.45312 q 0,0.8125 0.0625,1.10938 0.0937,0.40625 0.40625,0.65625 0.32812,0.23437 0.8125,0.23437 0.46875,0 0.875,-0.23437 0.42187,-0.25 0.59375,-0.67188 0.1875,-0.42187 0.1875,-1.21875 v -3.32812 h 1.04687 v 6.21875 z m 2.59571,0 v -6.21875 h 0.9375 v 0.875 q 0.6875,-1.01563 1.98437,-1.01563 0.5625,0 1.03125,0.20313 0.48438,0.20312 0.71875,0.53125 0.23438,0.32812 0.32813,0.76562 0.0469,0.29688 0.0469,1.03125 v 3.82813 h -1.04687 v -3.78125 q 0,-0.65625 -0.125,-0.96875 -0.125,-0.3125 -0.4375,-0.5 -0.3125,-0.20313 -0.73438,-0.20313 -0.67187,0 -1.17187,0.4375 -0.48438,0.42188 -0.48438,1.60938 v 3.40625 z m 8.9707,-0.9375 0.15625,0.92187 q -0.45313,0.0937 -0.79688,0.0937 -0.57812,0 -0.89062,-0.17187 -0.3125,-0.1875 -0.45313,-0.48438 -0.125,-0.29687 -0.125,-1.25 v -3.57812 h -0.76562 v -0.8125 h 0.76562 v -1.54688 l 1.04688,-0.625 v 2.17188 h 1.0625 v 0.8125 h -1.0625 v 3.64062 q 0,0.45313 0.0469,0.57813 0.0625,0.125 0.1875,0.20312 0.125,0.0781 0.35938,0.0781 0.1875,0 0.46875,-0.0312 z m 1.03711,-6.4375 v -1.21875 h 1.0625 v 1.21875 z m 0,7.375 v -6.21875 h 1.0625 v 6.21875 z m 2.66601,0 v -6.21875 h 0.9375 v 0.875 q 0.29688,-0.46875 0.78125,-0.73438 0.48438,-0.28125 1.10938,-0.28125 0.6875,0 1.125,0.28125 0.45312,0.28125 0.625,0.79688 0.74997,-1.07813 1.92184,-1.07813 0.9375,0 1.42188,0.51563 0.5,0.5 0.5,1.57812 v 4.26563 h -1.04688 v -3.92188 q 0,-0.625 -0.10937,-0.90625 -0.0937,-0.28125 -0.35938,-0.45312 -0.26562,-0.17188 -0.64062,-0.17188 -0.65625,0 -1.09372,0.4375 -0.42188,0.4375 -0.42188,1.40625 v 3.60938 h -1.0625 v -4.04688 q 0,-0.70312 -0.26562,-1.04687 -0.25,-0.35938 -0.82813,-0.35938 -0.45312,0 -0.82812,0.23438 -0.375,0.23437 -0.54688,0.6875 -0.17187,0.45312 -0.17187,1.29687 v 3.23438 z m 14.24607,-2 1.09375,0.125 q -0.25,0.95312 -0.95313,1.48437 -0.70312,0.53125 -1.78125,0.53125 -1.35937,0 -2.17187,-0.84375 -0.79688,-0.84375 -0.79688,-2.35937 0,-1.5625 0.8125,-2.42188 0.8125,-0.875 2.09375,-0.875 1.25,0 2.03125,0.84375 0.79688,0.84375 0.79688,2.39063 0,0.0937 0,0.28125 h -4.64063 q 0.0625,1.03125 0.57813,1.57812 0.51562,0.53125 1.29687,0.53125 0.57813,0 0.98438,-0.29687 0.42187,-0.3125 0.65625,-0.96875 z m -3.45313,-1.70313 h 3.46875 q -0.0625,-0.79687 -0.39062,-1.1875 -0.51563,-0.60937 -1.3125,-0.60937 -0.73438,0 -1.23438,0.48437 -0.48437,0.48438 -0.53125,1.3125 z m 14.46094,2.6875 v 1.01563 h -5.6875 q 0,-0.375 0.125,-0.73438 0.21875,-0.57812 0.6875,-1.14062 0.48437,-0.5625 1.39062,-1.29688 1.40625,-1.15625 1.89063,-1.82812 0.5,-0.67188 0.5,-1.26563 0,-0.625 -0.45313,-1.04687 -0.45312,-0.4375 -1.17187,-0.4375 -0.76563,0 -1.21875,0.45312 -0.45313,0.45313 -0.46875,1.26563 l -1.07813,-0.10938 q 0.10938,-1.21875 0.82813,-1.84375 0.73437,-0.64062 1.96875,-0.64062 1.23437,0 1.95312,0.6875 0.71875,0.6875 0.71875,1.70312 0,0.51563 -0.21875,1.01563 -0.20312,0.48437 -0.70312,1.04687 -0.48438,0.54688 -1.60938,1.5 -0.95312,0.79688 -1.23437,1.09375 -0.26563,0.28125 -0.4375,0.5625 z" />
  <path
     style="fill:#ffd966;fill-rule:evenodd"
     inkscape:connector-curvature="0"
     id="path4301"
     d="m 56.22715,96.78636 v 0 c 0,-1.27905 1.0369,-2.31598 2.31598,-2.31598 h 105.60425 c 0.61426,0 1.20337,0.24402 1.63769,0.67835 0.43433,0.43432 0.67829,1.0234 0.67829,1.63763 v 18.73813 c 0,1.27908 -1.03687,2.31598 -2.31598,2.31598 H 58.54313 c -1.27908,0 -2.31598,-1.0369 -2.31598,-2.31598 z" />
  <path
     style="fill-rule:evenodd;stroke:#000000;stroke-width:1;stroke-linecap:butt;stroke-linejoin:round"
     inkscape:connector-curvature="0"
     id="path4303"
     d="m 56.22715,96.78636 v 0 c 0,-1.27905 1.0369,-2.31598 2.31598,-2.31598 h 105.60425 c 0.61426,0 1.20337,0.24402 1.63769,0.67835 0.43433,0.43432 0.67829,1.0234 0.67829,1.63763 v 18.73813 c 0,1.27908 -1.03687,2.31598 -2.31598,2.31598 H 58.54313 c -1.27908,0 -2.31598,-1.0369 -2.31598,-2.31598 z" />
  <path
     style="fill:#000000;fill-rule:nonzero"
     inkscape:connector-curvature="0"
     id="path4305"
     d="m 64.91462,110.67542 v -8.59375 h 2.96875 q 1,0 1.53125,0.125 0.73437,0.17187 1.25,0.60937 0.6875,0.57813 1.01562,1.48438 0.34375,0.89062 0.34375,2.03125 0,0.98437 -0.23437,1.73437 -0.21875,0.75 -0.57813,1.25 -0.35937,0.5 -0.79687,0.78125 -0.42188,0.28125 -1.01563,0.4375 -0.59375,0.14063 -1.375,0.14063 z m 1.14062,-1.01563 h 1.82813 q 0.85937,0 1.34375,-0.15625 0.48437,-0.15625 0.76562,-0.45312 0.40625,-0.39063 0.625,-1.07813 0.23438,-0.6875 0.23438,-1.65625 0,-1.34375 -0.45313,-2.0625 -0.4375,-0.73437 -1.0625,-0.98437 -0.46875,-0.17188 -1.46875,-0.17188 h -1.8125 z m 11.6504,-0.98437 1.09375,0.125 q -0.25,0.95312 -0.95313,1.48437 -0.70312,0.53125 -1.78125,0.53125 -1.35937,0 -2.17187,-0.84375 -0.79688,-0.84375 -0.79688,-2.35937 0,-1.5625 0.8125,-2.42188 0.8125,-0.875 2.09375,-0.875 1.25,0 2.03125,0.84375 0.79688,0.84375 0.79688,2.39063 0,0.0937 0,0.28125 h -4.64063 q 0.0625,1.03125 0.57813,1.57812 0.51562,0.53125 1.29687,0.53125 0.57813,0 0.98438,-0.29687 0.42187,-0.3125 0.65625,-0.96875 z m -3.45313,-1.70313 h 3.46875 q -0.0625,-0.79687 -0.39062,-1.1875 -0.51563,-0.60937 -1.3125,-0.60937 -0.73438,0 -1.23438,0.48437 -0.48437,0.48438 -0.53125,1.3125 z m 7.5957,3.70313 -2.35937,-6.21875 h 1.10937 l 1.34375,3.71875 q 0.20313,0.60937 0.39063,1.25 0.14062,-0.48438 0.39062,-1.17188 l 1.39063,-3.79687 h 1.07812 l -2.35937,6.21875 z m 4.28125,-7.375 v -1.21875 h 1.0625 v 1.21875 z m 0,7.375 v -6.21875 h 1.0625 v 6.21875 z m 6.72852,-2.28125 1.03125,0.14062 q -0.17188,1.0625 -0.875,1.67188 -0.70313,0.60937 -1.71875,0.60937 -1.28125,0 -2.0625,-0.82812 -0.76563,-0.84375 -0.76563,-2.40625 0,-1 0.32813,-1.75 0.34375,-0.76563 1.01562,-1.14063 0.6875,-0.375 1.5,-0.375 1,0 1.64063,0.51563 0.65625,0.5 0.84375,1.45312 l -1.03125,0.15625 q -0.14063,-0.625 -0.51563,-0.9375 -0.375,-0.32812 -0.90625,-0.32812 -0.79687,0 -1.29687,0.57812 -0.5,0.5625 -0.5,1.79688 0,1.26562 0.48437,1.82812 0.48438,0.5625 1.25,0.5625 0.625,0 1.03125,-0.375 0.42188,-0.375 0.54688,-1.17187 z m 6.1875,0.28125 1.09375,0.125 q -0.25,0.95312 -0.95313,1.48437 -0.70312,0.53125 -1.78125,0.53125 -1.35937,0 -2.17187,-0.84375 -0.79688,-0.84375 -0.79688,-2.35937 0,-1.5625 0.8125,-2.42188 0.8125,-0.875 2.09375,-0.875 1.25,0 2.03125,0.84375 0.79688,0.84375 0.79688,2.39063 0,0.0937 0,0.28125 h -4.64063 q 0.0625,1.03125 0.57813,1.57812 0.51562,0.53125 1.29687,0.53125 0.57813,0 0.98438,-0.29687 0.42187,-0.3125 0.65625,-0.96875 z m -3.45313,-1.70313 h 3.46875 q -0.0625,-0.79687 -0.39062,-1.1875 -0.51563,-0.60937 -1.3125,-0.60937 -0.73438,0 -1.23438,0.48437 -0.48437,0.48438 -0.53125,1.3125 z m 9.35157,3.70313 v -8.59375 h 3.8125 q 1.15625,0 1.75,0.23437 0.59375,0.23438 0.95312,0.82813 0.35938,0.57812 0.35938,1.28125 0,0.92187 -0.59375,1.54687 -0.59375,0.625 -1.82813,0.79688 0.45313,0.21875 0.6875,0.42187 0.5,0.45313 0.9375,1.14063 l 1.5,2.34375 h -1.4375 l -1.125,-1.78125 q -0.5,-0.78125 -0.82812,-1.1875 -0.3125,-0.40625 -0.57813,-0.5625 -0.25,-0.17188 -0.51562,-0.25 -0.1875,-0.0312 -0.625,-0.0312 h -1.32813 v 3.8125 z m 1.14062,-4.79688 h 2.45313 q 0.76562,0 1.20312,-0.15625 0.45313,-0.17187 0.67188,-0.51562 0.23437,-0.35938 0.23437,-0.78125 0,-0.60938 -0.45312,-1 -0.4375,-0.39063 -1.39063,-0.39063 h -2.71875 z m 11.46289,4.79688 v -0.92188 q -0.73437,1.0625 -1.98437,1.0625 -0.54688,0 -1.03125,-0.20312 -0.46875,-0.21875 -0.70313,-0.53125 -0.23437,-0.32813 -0.32812,-0.79688 -0.0625,-0.29687 -0.0625,-0.98437 v -3.84375 h 1.0625 v 3.45312 q 0,0.8125 0.0625,1.10938 0.0937,0.40625 0.40625,0.65625 0.32812,0.23437 0.8125,0.23437 0.46875,0 0.875,-0.23437 0.42187,-0.25 0.59375,-0.67188 0.1875,-0.42187 0.1875,-1.21875 v -3.32812 h 1.04687 v 6.21875 z m 2.59571,0 v -6.21875 h 0.9375 v 0.875 q 0.6875,-1.01563 1.98437,-1.01563 0.5625,0 1.03125,0.20313 0.48438,0.20312 0.71875,0.53125 0.23438,0.32812 0.32813,0.76562 0.0469,0.29688 0.0469,1.03125 v 3.82813 h -1.04687 v -3.78125 q 0,-0.65625 -0.125,-0.96875 -0.125,-0.3125 -0.4375,-0.5 -0.3125,-0.20313 -0.73438,-0.20313 -0.67187,0 -1.17187,0.4375 -0.48438,0.42188 -0.48438,1.60938 v 3.40625 z m 8.9707,-0.9375 0.15625,0.92187 q -0.45313,0.0937 -0.79688,0.0937 -0.57812,0 -0.89062,-0.17187 -0.3125,-0.1875 -0.45313,-0.48438 -0.125,-0.29687 -0.125,-1.25 v -3.57812 h -0.76562 v -0.8125 h 0.76562 v -1.54688 l 1.04688,-0.625 v 2.17188 h 1.0625 v 0.8125 h -1.0625 v 3.64062 q 0,0.45313 0.0469,0.57813 0.0625,0.125 0.1875,0.20312 0.125,0.0781 0.35938,0.0781 0.1875,0 0.46875,-0.0312 z m 1.03711,-6.4375 v -1.21875 h 1.0625 v 1.21875 z m 0,7.375 v -6.21875 h 1.0625 v 6.21875 z m 2.66601,0 v -6.21875 h 0.9375 v 0.875 q 0.29688,-0.46875 0.78125,-0.73438 0.48438,-0.28125 1.10938,-0.28125 0.6875,0 1.125,0.28125 0.45312,0.28125 0.625,0.79688 0.74997,-1.07813 1.92184,-1.07813 0.9375,0 1.42188,0.51563 0.5,0.5 0.5,1.57812 v 4.26563 h -1.04688 v -3.92188 q 0,-0.625 -0.10937,-0.90625 -0.0937,-0.28125 -0.35938,-0.45312 -0.26562,-0.17188 -0.64062,-0.17188 -0.65625,0 -1.09372,0.4375 -0.42188,0.4375 -0.42188,1.40625 v 3.60938 h -1.0625 v -4.04688 q 0,-0.70312 -0.26562,-1.04687 -0.25,-0.35938 -0.82813,-0.35938 -0.45312,0 -0.82812,0.23438 -0.375,0.23437 -0.54688,0.6875 -0.17187,0.45312 -0.17187,1.29687 v 3.23438 z m 14.24607,-2 1.09375,0.125 q -0.25,0.95312 -0.95313,1.48437 -0.70312,0.53125 -1.78125,0.53125 -1.35937,0 -2.17187,-0.84375 -0.79688,-0.84375 -0.79688,-2.35937 0,-1.5625 0.8125,-2.42188 0.8125,-0.875 2.09375,-0.875 1.25,0 2.03125,0.84375 0.79688,0.84375 0.79688,2.39063 0,0.0937 0,0.28125 h -4.64063 q 0.0625,1.03125 0.57813,1.57812 0.51562,0.53125 1.29687,0.53125 0.57813,0 0.98438,-0.29687 0.42187,-0.3125 0.65625,-0.96875 z m -3.45313,-1.70313 h 3.46875 q -0.0625,-0.79687 -0.39062,-1.1875 -0.51563,-0.60937 -1.3125,-0.60937 -0.73438,0 -1.23438,0.48437 -0.48437,0.48438 -0.53125,1.3125 z m 8.91406,1.4375 1.0625,-0.14062 q 0.17188,0.89062 0.60938,1.29687 0.4375,0.39063 1.0625,0.39063 0.75,0 1.26562,-0.51563 0.51563,-0.51562 0.51563,-1.28125 0,-0.71875 -0.48438,-1.1875 -0.46875,-0.48437 -1.20312,-0.48437 -0.29688,0 -0.75,0.125 l 0.125,-0.9375 q 0.10937,0.0156 0.17187,0.0156 0.67188,0 1.20313,-0.34375 0.54687,-0.35937 0.54687,-1.09375 0,-0.57812 -0.39062,-0.95312 -0.39063,-0.39063 -1.01563,-0.39063 -0.60937,0 -1.03125,0.39063 -0.40625,0.39062 -0.51562,1.15625 l -1.0625,-0.1875 q 0.1875,-1.04688 0.875,-1.625 0.6875,-0.59375 1.70312,-0.59375 0.70313,0 1.29688,0.3125 0.59375,0.29687 0.90625,0.8125 0.3125,0.51562 0.3125,1.10937 0,0.54688 -0.29688,1.01563 -0.29687,0.45312 -0.875,0.71875 0.75,0.17187 1.17188,0.73437 0.42187,0.54688 0.42187,1.39063 0,1.125 -0.82812,1.90625 -0.8125,0.78125 -2.0625,0.78125 -1.125,0 -1.875,-0.67188 -0.75,-0.6875 -0.85938,-1.75 z" />
</svg>
