<?xml version="1.0" encoding="UTF-8" standalone="no"?>
<svg
   xmlns:dc="http://purl.org/dc/elements/1.1/"
   xmlns:cc="http://creativecommons.org/ns#"
   xmlns:rdf="http://www.w3.org/1999/02/22-rdf-syntax-ns#"
   xmlns:svg="http://www.w3.org/2000/svg"
   xmlns="http://www.w3.org/2000/svg"
   xmlns:sodipodi="http://sodipodi.sourceforge.net/DTD/sodipodi-0.dtd"
   xmlns:inkscape="http://www.inkscape.org/namespaces/inkscape"
   version="1.1"
   viewBox="0 0 637.62988 304.25641"
   stroke-miterlimit="10"
   id="svg879"
   sodipodi:docname="go_tfrt-diagrams.svg"
   width="637.62988"
   height="304.25641"
   style="fill:none;stroke:none;stroke-linecap:square;stroke-miterlimit:10"
   inkscape:version="0.92.4 (5da689c313, 2019-01-14)">
  <metadata
     id="metadata885">
    <rdf:RDF>
      <cc:Work
         rdf:about="">
        <dc:format>image/svg+xml</dc:format>
        <dc:type
           rdf:resource="http://purl.org/dc/dcmitype/StillImage" />
      </cc:Work>
    </rdf:RDF>
  </metadata>
  <defs
     id="defs883">
    <defs
       id="defs488">
      <filter
         filterUnits="userSpaceOnUse"
         id="shadowFilter-g81aefc8613_0_0.1">
        <feGaussianBlur
           id="feGaussianBlur475"
           result="blur"
           stdDeviation="2.0"
           in="SourceAlpha" />
        <feComponentTransfer
           id="feComponentTransfer485"
           in="blur"
           style="color-interpolation-filters:sRGB">
          <feFuncR
             id="feFuncR477"
             intercept="0.8"
             slope="0"
             type="linear" />
          <feFuncG
             id="feFuncG479"
             intercept="0.8"
             slope="0"
             type="linear" />
          <feFuncB
             id="feFuncB481"
             intercept="0.8"
             slope="0"
             type="linear" />
          <feFuncA
             id="feFuncA483"
             intercept="0"
             slope="0.36"
             type="linear" />
        </feComponentTransfer>
      </filter>
    </defs>
    <defs
       id="defs514">
      <filter
         filterUnits="userSpaceOnUse"
         id="shadowFilter-g81aefc8613_0_0.2">
        <feGaussianBlur
           id="feGaussianBlur501"
           result="blur"
           stdDeviation="2.0"
           in="SourceAlpha" />
        <feComponentTransfer
           id="feComponentTransfer511"
           in="blur"
           style="color-interpolation-filters:sRGB">
          <feFuncR
             id="feFuncR503"
             intercept="0.8"
             slope="0"
             type="linear" />
          <feFuncG
             id="feFuncG505"
             intercept="0.8"
             slope="0"
             type="linear" />
          <feFuncB
             id="feFuncB507"
             intercept="0.8"
             slope="0"
             type="linear" />
          <feFuncA
             id="feFuncA509"
             intercept="0"
             slope="0.36"
             type="linear" />
        </feComponentTransfer>
      </filter>
    </defs>
    <defs
       id="defs538">
      <filter
         filterUnits="userSpaceOnUse"
         id="shadowFilter-g81aefc8613_0_0.3">
        <feGaussianBlur
           id="feGaussianBlur525"
           result="blur"
           stdDeviation="2.0"
           in="SourceAlpha" />
        <feComponentTransfer
           id="feComponentTransfer535"
           in="blur"
           style="color-interpolation-filters:sRGB">
          <feFuncR
             id="feFuncR527"
             intercept="0.8"
             slope="0"
             type="linear" />
          <feFuncG
             id="feFuncG529"
             intercept="0.8"
             slope="0"
             type="linear" />
          <feFuncB
             id="feFuncB531"
             intercept="0.8"
             slope="0"
             type="linear" />
          <feFuncA
             id="feFuncA533"
             intercept="0"
             slope="0.36"
             type="linear" />
        </feComponentTransfer>
      </filter>
    </defs>
    <defs
       id="defs564">
      <filter
         filterUnits="userSpaceOnUse"
         id="shadowFilter-g81aefc8613_0_0.4">
        <feGaussianBlur
           id="feGaussianBlur551"
           result="blur"
           stdDeviation="2.0"
           in="SourceAlpha" />
        <feComponentTransfer
           id="feComponentTransfer561"
           in="blur"
           style="color-interpolation-filters:sRGB">
          <feFuncR
             id="feFuncR553"
             intercept="0.8"
             slope="0"
             type="linear" />
          <feFuncG
             id="feFuncG555"
             intercept="0.8"
             slope="0"
             type="linear" />
          <feFuncB
             id="feFuncB557"
             intercept="0.8"
             slope="0"
             type="linear" />
          <feFuncA
             id="feFuncA559"
             intercept="0"
             slope="0.36"
             type="linear" />
        </feComponentTransfer>
      </filter>
    </defs>
    <defs
       id="defs590">
      <filter
         filterUnits="userSpaceOnUse"
         id="shadowFilter-g81aefc8613_0_0.5">
        <feGaussianBlur
           id="feGaussianBlur577"
           result="blur"
           stdDeviation="2.0"
           in="SourceAlpha" />
        <feComponentTransfer
           id="feComponentTransfer587"
           in="blur"
           style="color-interpolation-filters:sRGB">
          <feFuncR
             id="feFuncR579"
             intercept="0.8"
             slope="0"
             type="linear" />
          <feFuncG
             id="feFuncG581"
             intercept="0.8"
             slope="0"
             type="linear" />
          <feFuncB
             id="feFuncB583"
             intercept="0.8"
             slope="0"
             type="linear" />
          <feFuncA
             id="feFuncA585"
             intercept="0"
             slope="0.36"
             type="linear" />
        </feComponentTransfer>
      </filter>
    </defs>
    <defs
       id="defs630">
      <filter
         filterUnits="userSpaceOnUse"
         id="shadowFilter-g81aefc8613_0_0.6">
        <feGaussianBlur
           id="feGaussianBlur617"
           result="blur"
           stdDeviation="2.0"
           in="SourceAlpha" />
        <feComponentTransfer
           id="feComponentTransfer627"
           in="blur"
           style="color-interpolation-filters:sRGB">
          <feFuncR
             id="feFuncR619"
             intercept="0.8"
             slope="0"
             type="linear" />
          <feFuncG
             id="feFuncG621"
             intercept="0.8"
             slope="0"
             type="linear" />
          <feFuncB
             id="feFuncB623"
             intercept="0.8"
             slope="0"
             type="linear" />
          <feFuncA
             id="feFuncA625"
             intercept="0"
             slope="0.36"
             type="linear" />
        </feComponentTransfer>
      </filter>
    </defs>
    <defs
       id="defs658">
      <filter
         filterUnits="userSpaceOnUse"
         id="shadowFilter-g81aefc8613_0_0.7">
        <feGaussianBlur
           id="feGaussianBlur645"
           result="blur"
           stdDeviation="2.0"
           in="SourceAlpha" />
        <feComponentTransfer
           id="feComponentTransfer655"
           in="blur"
           style="color-interpolation-filters:sRGB">
          <feFuncR
             id="feFuncR647"
             intercept="0.8"
             slope="0"
             type="linear" />
          <feFuncG
             id="feFuncG649"
             intercept="0.8"
             slope="0"
             type="linear" />
          <feFuncB
             id="feFuncB651"
             intercept="0.8"
             slope="0"
             type="linear" />
          <feFuncA
             id="feFuncA653"
             intercept="0"
             slope="0.36"
             type="linear" />
        </feComponentTransfer>
      </filter>
    </defs>
    <defs
       id="defs688">
      <filter
         filterUnits="userSpaceOnUse"
         id="shadowFilter-g81aefc8613_0_0.8">
        <feGaussianBlur
           id="feGaussianBlur675"
           result="blur"
           stdDeviation="2.0"
           in="SourceAlpha" />
        <feComponentTransfer
           id="feComponentTransfer685"
           in="blur"
           style="color-interpolation-filters:sRGB">
          <feFuncR
             id="feFuncR677"
             intercept="0.8"
             slope="0"
             type="linear" />
          <feFuncG
             id="feFuncG679"
             intercept="0.8"
             slope="0"
             type="linear" />
          <feFuncB
             id="feFuncB681"
             intercept="0.8"
             slope="0"
             type="linear" />
          <feFuncA
             id="feFuncA683"
             intercept="0"
             slope="0.36"
             type="linear" />
        </feComponentTransfer>
      </filter>
    </defs>
    <defs
       id="defs718">
      <filter
         filterUnits="userSpaceOnUse"
         id="shadowFilter-g81aefc8613_0_0.9">
        <feGaussianBlur
           id="feGaussianBlur705"
           result="blur"
           stdDeviation="2.0"
           in="SourceAlpha" />
        <feComponentTransfer
           id="feComponentTransfer715"
           in="blur"
           style="color-interpolation-filters:sRGB">
          <feFuncR
             id="feFuncR707"
             intercept="0.8"
             slope="0"
             type="linear" />
          <feFuncG
             id="feFuncG709"
             intercept="0.8"
             slope="0"
             type="linear" />
          <feFuncB
             id="feFuncB711"
             intercept="0.8"
             slope="0"
             type="linear" />
          <feFuncA
             id="feFuncA713"
             intercept="0"
             slope="0.36"
             type="linear" />
        </feComponentTransfer>
      </filter>
    </defs>
    <defs
       id="defs744">
      <filter
         filterUnits="userSpaceOnUse"
         id="shadowFilter-g81aefc8613_0_0.10">
        <feGaussianBlur
           id="feGaussianBlur731"
           result="blur"
           stdDeviation="2.0"
           in="SourceAlpha" />
        <feComponentTransfer
           id="feComponentTransfer741"
           in="blur"
           style="color-interpolation-filters:sRGB">
          <feFuncR
             id="feFuncR733"
             intercept="0.8"
             slope="0"
             type="linear" />
          <feFuncG
             id="feFuncG735"
             intercept="0.8"
             slope="0"
             type="linear" />
          <feFuncB
             id="feFuncB737"
             intercept="0.8"
             slope="0"
             type="linear" />
          <feFuncA
             id="feFuncA739"
             intercept="0"
             slope="0.36"
             type="linear" />
        </feComponentTransfer>
      </filter>
    </defs>
    <defs
       id="defs770">
      <filter
         filterUnits="userSpaceOnUse"
         id="shadowFilter-g81aefc8613_0_0.11">
        <feGaussianBlur
           id="feGaussianBlur757"
           result="blur"
           stdDeviation="2.0"
           in="SourceAlpha" />
        <feComponentTransfer
           id="feComponentTransfer767"
           in="blur"
           style="color-interpolation-filters:sRGB">
          <feFuncR
             id="feFuncR759"
             intercept="0.8"
             slope="0"
             type="linear" />
          <feFuncG
             id="feFuncG761"
             intercept="0.8"
             slope="0"
             type="linear" />
          <feFuncB
             id="feFuncB763"
             intercept="0.8"
             slope="0"
             type="linear" />
          <feFuncA
             id="feFuncA765"
             intercept="0"
             slope="0.36"
             type="linear" />
        </feComponentTransfer>
      </filter>
    </defs>
    <defs
       id="defs796">
      <filter
         filterUnits="userSpaceOnUse"
         id="shadowFilter-g81aefc8613_0_0.12">
        <feGaussianBlur
           id="feGaussianBlur783"
           result="blur"
           stdDeviation="2.0"
           in="SourceAlpha" />
        <feComponentTransfer
           id="feComponentTransfer793"
           in="blur"
           style="color-interpolation-filters:sRGB">
          <feFuncR
             id="feFuncR785"
             intercept="0.8"
             slope="0"
             type="linear" />
          <feFuncG
             id="feFuncG787"
             intercept="0.8"
             slope="0"
             type="linear" />
          <feFuncB
             id="feFuncB789"
             intercept="0.8"
             slope="0"
             type="linear" />
          <feFuncA
             id="feFuncA791"
             intercept="0"
             slope="0.36"
             type="linear" />
        </feComponentTransfer>
      </filter>
    </defs>
  </defs>
  <sodipodi:namedview
     pagecolor="#ffffff"
     bordercolor="#666666"
     borderopacity="1"
     objecttolerance="10"
     gridtolerance="10"
     guidetolerance="10"
     inkscape:pageopacity="0"
     inkscape:pageshadow="2"
     inkscape:window-width="3440"
     inkscape:window-height="1362"
     id="namedview881"
     showgrid="false"
     inkscape:zoom="2.1888889"
     inkscape:cx="386.78346"
     inkscape:cy="215.18952"
     inkscape:window-x="162"
     inkscape:window-y="0"
     inkscape:window-maximized="1"
     inkscape:current-layer="svg879" />
  <clipPath
     id="g81aefc8613_0_0.0">
    <path
       d="M 0,0 H 960 V 540 H 0 Z"
       id="path458"
       inkscape:connector-curvature="0"
       style="clip-rule:nonzero" />
  </clipPath>
  <path
     style="fill:#000000;fill-opacity:0;fill-rule:evenodd"
     inkscape:connector-curvature="0"
     id="path463"
     d="M 3.75984,50.61466 H 105.39763 V 76.12645 H 3.75984 Z" />
  <path
     style="fill:#4285f4;fill-rule:nonzero"
     inkscape:connector-curvature="0"
     id="path465"
     d="m 34.62676,69.98305 q -0.98437,-1.125 -1.6875,-2.71875 -0.6875,-1.59375 -0.6875,-3.39063 0,-1.79687 0.6875,-3.39062 0.70313,-1.59375 1.6875,-2.70313 l 0.81251,0.57813 q -0.90626,1.07812 -1.50001,2.54687 -0.57812,1.45313 -0.57812,2.96875 0,1.53125 0.57812,2.98438 0.59375,1.45312 1.50001,2.53125 z m 6.63309,-1.59375 q -1.34375,0 -2.48437,-0.65625 -1.125,-0.65625 -1.79688,-1.79688 -0.67187,-1.15625 -0.67187,-2.53125 0,-1.39062 0.67187,-2.53125 0.67188,-1.15625 1.79688,-1.79687 1.14062,-0.65625 2.48437,-0.65625 1.04688,0 1.96875,0.375 0.9375,0.35937 1.53125,1.04687 l -0.79687,0.8125 q -0.46875,-0.5625 -1.17188,-0.85937 -0.70312,-0.29688 -1.51562,-0.29688 -1,0 -1.89063,0.48438 -0.875,0.48437 -1.40625,1.375 -0.51562,0.875 -0.51562,2.04687 0,1.15625 0.51562,2.04688 0.53125,0.875 1.40625,1.375 0.89063,0.48437 1.89063,0.48437 0.95312,0 1.59375,-0.29687 0.65625,-0.3125 1.125,-0.79688 0.34375,-0.375 0.54687,-0.90625 0.21875,-0.53125 0.28125,-1.17187 H 41.2911 v -1.04688 h 4.57813 q 0.0625,0.375 0.0625,0.6875 0,0.89063 -0.28125,1.71875 -0.28125,0.82813 -0.89063,1.45313 -1.3125,1.4375 -3.5,1.4375 z m 5.86594,-7.01563 h 1.07813 v 1.09375 h 0.0469 q 0.20313,-0.5625 0.76563,-0.92187 0.57812,-0.375 1.20312,-0.375 0.46875,0 0.8125,0.14062 v 1.21875 q -0.4375,-0.20312 -0.96875,-0.20312 -0.48437,0 -0.90625,0.28125 -0.40625,0.26562 -0.65625,0.75 -0.25,0.46875 -0.25,1.01562 v 3.79688 h -1.125 z m 6.90325,7.01563 q -0.75,0 -1.34375,-0.29688 -0.57813,-0.29687 -0.90625,-0.8125 -0.3125,-0.51562 -0.3125,-1.15625 0,-1.07812 0.8125,-1.6875 0.8125,-0.60937 2.04687,-0.60937 0.625,0 1.14063,0.14062 0.53125,0.125 0.8125,0.29688 v -0.40625 q 0,-0.76563 -0.53125,-1.21875 -0.53125,-0.46875 -1.34375,-0.46875 -0.5625,0 -1.04688,0.25 -0.48437,0.25 -0.76562,0.6875 l -0.85938,-0.64063 q 0.40625,-0.60937 1.10938,-0.95312 0.70312,-0.35938 1.5625,-0.35938 1.375,0 2.15625,0.73438 0.79687,0.71875 0.79687,1.96875 v 4.3125 H 56.27904 V 67.2018 h -0.0469 q -0.29687,0.48437 -0.89062,0.84375 -0.57813,0.34375 -1.3125,0.34375 z m 0.10937,-1 q 0.5625,0 1.04688,-0.29688 0.5,-0.29687 0.79687,-0.78125 0.29688,-0.5 0.29688,-1.09375 -0.32813,-0.20312 -0.79688,-0.32812 -0.45312,-0.14063 -0.98437,-0.14063 -0.92188,0 -1.40625,0.39063 -0.46875,0.375 -0.46875,0.98437 0,0.5625 0.42187,0.92188 0.4375,0.34375 1.09375,0.34375 z m 4.73346,-6.01563 h 1.07812 v 1.01563 h 0.0625 q 0.29688,-0.51563 0.92188,-0.875 0.625,-0.35938 1.39062,-0.35938 0.92188,0 1.65625,0.46875 0.75,0.46875 1.17188,1.29688 0.42187,0.82812 0.42187,1.84375 0,1.04687 -0.42187,1.875 -0.42188,0.8125 -1.17188,1.28125 -0.73437,0.46875 -1.65625,0.46875 -0.76562,0 -1.39062,-0.35938 -0.625,-0.35937 -0.92188,-0.85937 h -0.0625 l 0.0625,0.9375 v 2.9375 h -1.14062 z m 3.34375,5.98438 q 0.57812,0 1.09375,-0.3125 0.53125,-0.32813 0.82812,-0.90625 0.3125,-0.59375 0.3125,-1.375 0,-0.76563 -0.3125,-1.34375 -0.29687,-0.59375 -0.82812,-0.90625 -0.51563,-0.32813 -1.09375,-0.32813 -0.60938,0 -1.125,0.32813 -0.5,0.3125 -0.82813,0.90625 -0.3125,0.57812 -0.3125,1.34375 0,0.78125 0.3125,1.375 0.32813,0.57812 0.82813,0.90625 0.51562,0.3125 1.125,0.3125 z m 4.5556,-8.73438 h 1.125 v 2.8125 l -0.0469,0.9375 h 0.0469 q 0.28125,-0.51562 0.89063,-0.85937 0.60937,-0.35938 1.32812,-0.35938 1.23438,0 1.89063,0.73438 0.65625,0.71875 0.65625,1.92187 v 4.35938 h -1.14063 v -4.1875 q 0,-0.92188 -0.46875,-1.35938 -0.45312,-0.4375 -1.20312,-0.4375 -0.53125,0 -0.98438,0.32813 -0.4375,0.3125 -0.70312,0.82812 -0.26563,0.5 -0.26563,1.04688 v 3.78125 h -1.125 z m 6.93891,10.76563 q 0.90625,-1.07813 1.48437,-2.53125 0.59375,-1.45313 0.59375,-2.98438 0,-1.51562 -0.59375,-2.96875 -0.57812,-1.46875 -1.48437,-2.54687 l 0.82812,-0.57813 q 0.96875,1.10938 1.67188,2.70313 0.70312,1.59375 0.70312,3.39062 0,1.79688 -0.70312,3.39063 -0.70313,1.59375 -1.67188,2.71875 z" />
  <path
     style="fill:#000000;fill-opacity:0;fill-rule:evenodd"
     inkscape:connector-curvature="0"
     id="path467"
     d="m 3.75984,82.40566 h 101.63779 v 25.51181 H 3.75984 Z" />
  <path
     style="fill:#ff6f00;fill-rule:nonzero"
     inkscape:connector-curvature="0"
     id="path469"
     d="m 21.34526,101.77406 q -0.98437,-1.125 -1.6875,-2.71875 -0.6875,-1.59375 -0.6875,-3.39063 0,-1.79687 0.6875,-3.39062 0.70313,-1.59375 1.6875,-2.70313 l 0.8125,0.57813 q -0.90625,1.07812 -1.5,2.54687 -0.57812,1.45313 -0.57812,2.96875 0,1.53125 0.57812,2.98438 0.59375,1.45312 1.5,2.53125 z m 6.57059,-1.59375 q -1.35938,0 -2.48438,-0.67188 -1.125,-0.67187 -1.76562,-1.8125 -0.64063,-1.14062 -0.64063,-2.5 0,-1.35937 0.64063,-2.5 0.64062,-1.15625 1.76562,-1.8125 1.125,-0.67187 2.48438,-0.67187 1.375,0 2.5,0.67187 1.125,0.65625 1.75,1.8125 0.64062,1.14063 0.64062,2.5 0,1.35938 -0.64062,2.5 -0.625,1.14063 -1.75,1.8125 -1.125,0.67188 -2.5,0.67188 z m 0,-1.07813 q 1.03125,0 1.89062,-0.5 0.85938,-0.5 1.35938,-1.39062 0.5,-0.89063 0.5,-2.01563 0,-1.14062 -0.5,-2.01562 -0.5,-0.89063 -1.35938,-1.39063 -0.85937,-0.5 -1.89062,-0.5 -1.01563,0 -1.875,0.5 -0.85938,0.5 -1.35938,1.39063 -0.5,0.875 -0.5,2.01562 0,1.125 0.5,2.01563 0.5,0.89062 1.35938,1.39062 0.85937,0.5 1.875,0.5 z m 6.2792,-5.9375 h 1.07813 v 1.01563 h 0.0625 q 0.29687,-0.51563 0.92187,-0.875 0.625,-0.35938 1.39063,-0.35938 0.92187,0 1.65625,0.46875 0.75,0.46875 1.17187,1.29688 0.42188,0.82812 0.42188,1.84375 0,1.04687 -0.42188,1.875 -0.42187,0.8125 -1.17187,1.28125 -0.73438,0.46875 -1.65625,0.46875 -0.76563,0 -1.39063,-0.35938 -0.625,-0.35937 -0.92187,-0.85937 h -0.0625 l 0.0625,0.9375 v 2.9375 h -1.14063 z m 3.34375,5.98438 q 0.57813,0 1.09375,-0.3125 0.53125,-0.32813 0.82813,-0.90625 0.3125,-0.59375 0.3125,-1.375 0,-0.76563 -0.3125,-1.34375 -0.29688,-0.59375 -0.82813,-0.90625 -0.51562,-0.32813 -1.09375,-0.32813 -0.60937,0 -1.125,0.32813 -0.5,0.3125 -0.82812,0.90625 -0.3125,0.57812 -0.3125,1.34375 0,0.78125 0.3125,1.375 0.32812,0.57812 0.82812,0.90625 0.51563,0.3125 1.125,0.3125 z m 4.67331,-3.78125 h 4.21875 v 0.92187 h -4.21875 z m 9.34644,4.8125 q -0.78125,0 -1.40625,-0.35938 -0.60938,-0.35937 -0.92188,-0.85937 h -0.0469 v 1 h -1.07813 v -9.54688 h 1.125 v 2.8125 l -0.0469,0.95313 h 0.0469 q 0.3125,-0.51563 0.92188,-0.875 0.625,-0.35938 1.40625,-0.35938 0.92187,0 1.65625,0.46875 0.73437,0.46875 1.15625,1.29688 0.4375,0.82812 0.4375,1.84375 0,1.04687 -0.4375,1.875 -0.42188,0.8125 -1.15625,1.28125 -0.73438,0.46875 -1.65625,0.46875 z m -0.125,-1.03125 q 0.59375,0 1.10937,-0.3125 0.51563,-0.32813 0.8125,-0.90625 0.3125,-0.59375 0.3125,-1.375 0,-0.76563 -0.3125,-1.34375 -0.29687,-0.59375 -0.8125,-0.90625 -0.51562,-0.32813 -1.10937,-0.32813 -0.59375,0 -1.10938,0.32813 -0.51562,0.3125 -0.82812,0.90625 -0.3125,0.57812 -0.3125,1.34375 0,0.78125 0.3125,1.375 0.3125,0.57812 0.82812,0.90625 0.51563,0.3125 1.10938,0.3125 z m 6.50683,0.39062 -2.8125,-6.375 h 1.21875 l 2.14063,5.04688 h 0.0156 l 2.0625,-5.04688 h 1.21875 l -4.1875,9.67188 h -1.17187 z m 4.78354,-4.17187 h 4.21875 v 0.92187 h -4.21875 z m 10.53394,4.8125 q -1.35938,0 -2.48438,-0.67188 -1.125,-0.67187 -1.76562,-1.8125 -0.64063,-1.14062 -0.64063,-2.5 0,-1.35937 0.64063,-2.5 0.64062,-1.15625 1.76562,-1.8125 1.125,-0.67187 2.48438,-0.67187 1.375,0 2.5,0.67187 1.125,0.65625 1.75,1.8125 0.64062,1.14063 0.64062,2.5 0,1.35938 -0.64062,2.5 -0.625,1.14063 -1.75,1.8125 -1.125,0.67188 -2.5,0.67188 z m 0,-1.07813 q 1.03125,0 1.89062,-0.5 0.85938,-0.5 1.35938,-1.39062 0.5,-0.89063 0.5,-2.01563 0,-1.14062 -0.5,-2.01562 -0.5,-0.89063 -1.35938,-1.39063 -0.85937,-0.5 -1.89062,-0.5 -1.01563,0 -1.875,0.5 -0.85938,0.5 -1.35938,1.39063 -0.5,0.875 -0.5,2.01562 0,1.125 0.5,2.01563 0.5,0.89062 1.35938,1.39062 0.85937,0.5 1.875,0.5 z m 6.2792,-5.9375 h 1.07813 v 1.01563 h 0.0625 q 0.29687,-0.51563 0.92187,-0.875 0.625,-0.35938 1.39063,-0.35938 0.92187,0 1.65625,0.46875 0.75,0.46875 1.17187,1.29688 0.42188,0.82812 0.42188,1.84375 0,1.04687 -0.42188,1.875 -0.42187,0.8125 -1.17187,1.28125 -0.73438,0.46875 -1.65625,0.46875 -0.76563,0 -1.39063,-0.35938 -0.625,-0.35937 -0.92187,-0.85937 h -0.0625 l 0.0625,0.9375 v 2.9375 h -1.14063 z m 3.34375,5.98438 q 0.57813,0 1.09375,-0.3125 0.53125,-0.32813 0.82813,-0.90625 0.3125,-0.59375 0.3125,-1.375 0,-0.76563 -0.3125,-1.34375 -0.29688,-0.59375 -0.82813,-0.90625 -0.51562,-0.32813 -1.09375,-0.32813 -0.60937,0 -1.125,0.32813 -0.5,0.3125 -0.82812,0.90625 -0.3125,0.57812 -0.3125,1.34375 0,0.78125 0.3125,1.375 0.32812,0.57812 0.82812,0.90625 0.51563,0.3125 1.125,0.3125 z m 4.11081,2.03125 q 0.90625,-1.07813 1.48438,-2.53125 0.59375,-1.45313 0.59375,-2.98438 0,-1.51562 -0.59375,-2.96875 -0.57813,-1.46875 -1.48438,-2.54687 l 0.82813,-0.57813 q 0.96875,1.10938 1.67187,2.70313 0.70313,1.59375 0.70313,3.39062 0,1.79688 -0.70313,3.39063 -0.70312,1.59375 -1.67187,2.71875 z" />
  <g
     id="g81aefc8613_0_0.1"
     transform="translate(-93.21654,-180.93312)">
    <path
       style="fill:#d9d9d9;fill-rule:evenodd"
       inkscape:connector-curvature="0"
       id="path490"
       d="m 94.77165,181.43312 h 106.04724 v 41.32283 H 94.77165 Z" />
    <path
       style="fill-rule:evenodd;stroke:#666666;stroke-width:1;stroke-linecap:butt;stroke-linejoin:round"
       inkscape:connector-curvature="0"
       id="path492"
       d="m 94.77165,181.43312 h 106.04724 v 41.32283 H 94.77165 Z" />
    <path
       style="fill:#434343;fill-rule:nonzero"
       inkscape:connector-curvature="0"
       id="path494"
       d="m 132.35623,198.54828 h -3.1875 v -2.04688 h 8.54687 v 2.04688 h -3.1875 v 9.40625 h -2.17187 z m 7.09552,-2.04688 h 7.26562 v 2.04688 H 141.608 v 2.78125 h 4.59375 v 2.04687 H 141.608 v 4.57813 h -2.15625 z m 9.16801,0 h 4.17188 q 1.125,0 2,0.46875 0.875,0.45313 1.34375,1.28125 0.48437,0.82813 0.48437,1.85938 0,1.10937 -0.70312,1.96875 -0.6875,0.84375 -1.75,1.23437 l -0.0156,0.10938 3.07813,4.40625 v 0.125 h -2.48438 l -2.95312,-4.29688 h -1.01563 v 4.29688 h -2.15625 z m 4.15625,5.17188 q 0.73438,0 1.20313,-0.45313 0.46875,-0.45312 0.46875,-1.14062 0,-0.65625 -0.45313,-1.10938 -0.4375,-0.46875 -1.1875,-0.46875 h -2.03125 v 3.17188 z m 8.30028,-3.125 h -3.1875 v -2.04688 h 8.54688 v 2.04688 h -3.1875 v 9.40625 h -2.17188 z" />
  </g>
  <g
     id="g81aefc8613_0_0.2"
     transform="translate(-93.21654,-180.93312)">
    <path
       style="fill:#d9d9d9;fill-rule:evenodd"
       inkscape:connector-curvature="0"
       id="path516"
       d="m 93.71654,358.70865 h 636.6299 v 67.08664 H 93.71654 Z" />
    <path
       style="fill-rule:evenodd;stroke:#666666;stroke-width:1;stroke-linecap:butt;stroke-linejoin:round"
       inkscape:connector-curvature="0"
       id="path518"
       d="m 93.71654,358.70865 h 636.6299 v 67.08664 H 93.71654 Z" />
  </g>
  <g
     id="g81aefc8613_0_0.3"
     transform="translate(-93.21654,-180.93312)">
    <path
       style="fill:#ffffff;fill-rule:evenodd"
       inkscape:connector-curvature="0"
       id="path540"
       d="m 313.7201,187.001 h 197.03937 v 45.85828 H 313.7201 Z" />
    <path
       style="fill-rule:evenodd;stroke:#666666;stroke-width:1;stroke-linecap:butt;stroke-linejoin:round"
       inkscape:connector-curvature="0"
       id="path542"
       d="m 313.7201,187.001 h 197.03937 v 45.85828 H 313.7201 Z" />
    <path
       style="fill:#000000;fill-rule:nonzero"
       inkscape:connector-curvature="0"
       id="path544"
       d="m 389.98474,205.6339 h -3.20313 v -1.29688 h 7.76563 v 1.29688 h -3.20313 v 10.15625 h -1.35937 z m 6.26425,-1.29688 h 6.625 v 1.29688 h -5.26562 v 3.92187 h 4.75 v 1.28125 h -4.75 v 4.95313 h -1.35938 z m 7.21478,11.45313 z m 7.82575,-11.45313 h 1.53125 l 4.35937,11.45313 h -1.5 l -1.14062,-3.15625 h -4.96875 l -1.14063,3.15625 h -1.5 z m 2.78125,7.01563 -1.53125,-4.125 -0.45313,-1.23438 h -0.0625 l -0.45312,1.23438 -1.53125,4.125 z m 4.62628,-7.01563 h 3.85938 q 0.95312,0 1.76562,0.4375 0.82813,0.42188 1.3125,1.20313 0.48438,0.76562 0.48438,1.75 0,0.96875 -0.48438,1.75 -0.48437,0.78125 -1.3125,1.21875 -0.8125,0.42187 -1.76562,0.42187 h -2.5 v 4.67188 h -1.35938 z m 3.89063,5.48438 q 0.64062,0 1.125,-0.29688 0.48437,-0.3125 0.75,-0.78125 0.28125,-0.48437 0.28125,-1.01562 0,-0.53125 -0.28125,-1 -0.26563,-0.48438 -0.75,-0.78125 -0.48438,-0.3125 -1.125,-0.3125 h -2.53125 v 4.1875 z m 5.32537,-5.48438 h 1.35938 v 11.45313 h -1.35938 z m 6.49814,11.70313 q -1.3125,0 -2.20312,-0.60938 -0.875,-0.60937 -1.23438,-1.57812 l 1.20313,-0.54688 q 0.3125,0.73438 0.90625,1.14063 0.60937,0.40625 1.32812,0.40625 0.76563,0 1.3125,-0.3125 0.54688,-0.3125 0.54688,-0.89063 0,-0.51562 -0.4375,-0.82812 -0.4375,-0.3125 -1.35938,-0.53125 l -1,-0.26563 q -0.96875,-0.23437 -1.59375,-0.8125 -0.625,-0.57812 -0.625,-1.48437 0,-0.70313 0.42188,-1.23438 0.42187,-0.54687 1.125,-0.82812 0.70312,-0.29688 1.53125,-0.29688 1.0625,0 1.90625,0.46875 0.84375,0.46875 1.1875,1.29688 l -1.17188,0.54687 q -0.54687,-1.09375 -1.9375,-1.09375 -0.67187,0 -1.1875,0.3125 -0.5,0.3125 -0.5,0.79688 0,0.45312 0.34375,0.73437 0.35938,0.26563 1.0625,0.45313 l 1.1875,0.29687 q 1.20313,0.3125 1.8125,0.90625 0.60938,0.59375 0.60938,1.46875 0,0.75 -0.4375,1.3125 -0.4375,0.5625 -1.17188,0.875 -0.73437,0.29688 -1.625,0.29688 z" />
  </g>
  <g
     id="g81aefc8613_0_0.4"
     transform="translate(-93.21654,-180.93312)">
    <path
       style="fill:#ffffff;fill-rule:evenodd"
       inkscape:connector-curvature="0"
       id="path566"
       d="m 385.4139,272.85577 h 343.3386 v 45.85828 H 385.4139 Z" />
    <path
       style="fill-rule:evenodd;stroke:#666666;stroke-width:1;stroke-linecap:butt;stroke-linejoin:round"
       inkscape:connector-curvature="0"
       id="path568"
       d="m 385.4139,272.85577 h 343.3386 v 45.85828 H 385.4139 Z" />
    <path
       style="fill:#000000;fill-rule:nonzero"
       inkscape:connector-curvature="0"
       id="path570"
       d="m 410.1002,290.19177 h 1.35937 v 10.15625 h 5 v 1.29688 h -6.35937 z m 11.43637,11.70313 q -1.20312,0 -2.17187,-0.5625 -0.95313,-0.57813 -1.48438,-1.5625 -0.53125,-1 -0.53125,-2.20313 0,-1.20312 0.53125,-2.1875 0.53125,-1 1.48438,-1.57812 0.96875,-0.57813 2.17187,-0.57813 1.20313,0 2.15625,0.57813 0.96875,0.57812 1.5,1.57812 0.53125,0.98438 0.53125,2.1875 0,1.20313 -0.53125,2.20313 -0.53125,0.98437 -1.5,1.5625 -0.95312,0.5625 -2.15625,0.5625 z m 0,-1.21875 q 0.75,0 1.39063,-0.375 0.65625,-0.39063 1.04687,-1.09375 0.39063,-0.70313 0.39063,-1.64063 0,-0.95312 -0.39063,-1.65625 -0.39062,-0.70312 -1.04687,-1.07812 -0.64063,-0.375 -1.39063,-0.375 -0.75,0 -1.40625,0.375 -0.65625,0.375 -1.04687,1.07812 -0.39063,0.70313 -0.39063,1.65625 0,0.9375 0.39063,1.64063 0.39062,0.70312 1.04687,1.09375 0.65625,0.375 1.40625,0.375 z m 4.71979,-7.1875 h 1.40625 l 1.9375,6.4375 h 0.0156 l 2.0625,-6.4375 h 1.39063 l 2.0625,6.42187 h 0.0312 l 1.92187,-6.42187 h 1.375 l -2.625,8.15625 h -1.39062 l -2.10938,-6.51563 -2.09375,6.51563 h -1.35937 z m 16.80325,8.40625 q -1.17187,0 -2.10937,-0.54688 -0.92188,-0.5625 -1.4375,-1.54687 -0.51563,-0.98438 -0.51563,-2.21875 0,-1.17188 0.48438,-2.17188 0.48437,-1 1.39062,-1.59375 0.90625,-0.59375 2.07813,-0.59375 1.20312,0 2.07812,0.54688 0.875,0.53125 1.34375,1.48437 0.48438,0.9375 0.48438,2.15625 0,0.1875 -0.0312,0.40625 h -6.46875 q 0.0469,0.9375 0.4375,1.57813 0.40625,0.64062 1.01562,0.96875 0.625,0.3125 1.29688,0.3125 1.59375,0 2.42187,-1.48438 l 1.14063,0.5625 q -0.5,0.98438 -1.42188,1.5625 -0.90625,0.57813 -2.1875,0.57813 z m 2.34375,-5.1875 q -0.0312,-0.51563 -0.28125,-1.03125 -0.25,-0.51563 -0.79687,-0.85938 -0.54688,-0.35937 -1.375,-0.35937 -0.96875,0 -1.64063,0.625 -0.67187,0.60937 -0.875,1.625 z m 3.03928,-3.21875 h 1.28125 v 1.3125 h 0.0781 q 0.23438,-0.67188 0.92188,-1.10938 0.6875,-0.45312 1.4375,-0.45312 0.5625,0 0.96875,0.17187 v 1.46875 q -0.51563,-0.26562 -1.15625,-0.26562 -0.59375,0 -1.09375,0.34375 -0.5,0.32812 -0.79688,0.90625 -0.28125,0.5625 -0.28125,1.21875 v 4.5625 h -1.35937 z m 6.79687,-1.5 q -0.40625,0 -0.70312,-0.28125 -0.28125,-0.29688 -0.28125,-0.70313 0,-0.42187 0.28125,-0.6875 0.29687,-0.28125 0.70312,-0.28125 0.40625,0 0.6875,0.28125 0.28125,0.26563 0.28125,0.6875 0,0.40625 -0.28125,0.70313 -0.28125,0.28125 -0.6875,0.28125 z m -0.67187,1.5 h 1.35937 v 8.15625 h -1.35937 z m 3.49103,0 h 1.28125 v 1.20312 h 0.0781 q 0.32813,-0.60937 1.0625,-1.03125 0.73438,-0.4375 1.57813,-0.4375 1.46875,0 2.23437,0.85938 0.78125,0.85937 0.78125,2.32812 v 5.23438 h -1.35937 v -5.03125 q 0,-1.125 -0.54688,-1.64063 -0.54687,-0.51562 -1.48437,-0.51562 -0.65625,0 -1.1875,0.375 -0.51563,0.35937 -0.79688,0.96875 -0.28125,0.59375 -0.28125,1.25 v 4.59375 h -1.35937 z m 12.47412,11.875 q -1.4375,0 -2.375,-0.67188 -0.9375,-0.67187 -1.26563,-1.625 l 1.25,-0.53125 q 0.26563,0.70313 0.89063,1.14063 0.64062,0.45312 1.5,0.45312 1.26562,0 1.95312,-0.73437 0.70313,-0.73438 0.70313,-2.09375 v -0.90625 h -0.0625 q -0.40625,0.625 -1.14063,1.01562 -0.71875,0.39063 -1.64062,0.39063 -1.0625,0 -1.9375,-0.53125 -0.875,-0.54688 -1.39063,-1.51563 -0.5,-0.98437 -0.5,-2.23437 0,-1.23438 0.5,-2.21875 0.51563,-0.98438 1.39063,-1.53125 0.875,-0.54688 1.9375,-0.54688 0.92187,0 1.64062,0.40625 0.73438,0.39063 1.14063,1.03125 h 0.0625 v -1.17187 h 1.29687 v 7.84375 q 0,1.95312 -1.09375,2.98437 -1.07812,1.04688 -2.85937,1.04688 z m 0,-4.79688 q 0.73437,0 1.32812,-0.35937 0.60938,-0.375 0.96875,-1.0625 0.35938,-0.6875 0.35938,-1.625 0,-0.96875 -0.35938,-1.65625 -0.35937,-0.6875 -0.96875,-1.04688 -0.59375,-0.35937 -1.32812,-0.35937 -0.73438,0 -1.34375,0.375 -0.60938,0.35937 -0.96875,1.04687 -0.35938,0.6875 -0.35938,1.64063 0,0.9375 0.35938,1.64062 0.35937,0.6875 0.96875,1.04688 0.60937,0.35937 1.34375,0.35937 z m 4.95828,1.07813 z m 7.32138,0.25 q -0.89063,0 -1.59375,-0.34375 -0.70313,-0.35938 -1.09375,-0.96875 -0.375,-0.625 -0.375,-1.40625 0,-1.29688 0.96875,-2.01563 0.98437,-0.73437 2.46875,-0.73437 0.73437,0 1.35937,0.17187 0.64063,0.15625 0.96875,0.35938 v -0.5 q 0,-0.90625 -0.64062,-1.45313 -0.625,-0.5625 -1.60938,-0.5625 -0.67187,0 -1.26562,0.29688 -0.57813,0.29687 -0.90625,0.82812 l -1.03125,-0.76562 q 0.48437,-0.73438 1.32812,-1.15625 0.85938,-0.42188 1.875,-0.42188 1.67188,0 2.60938,0.875 0.9375,0.875 0.9375,2.375 v 5.17188 h -1.29688 v -1.17188 h -0.0625 q -0.34375,0.59375 -1.04687,1.01563 -0.70313,0.40625 -1.59375,0.40625 z m 0.14062,-1.1875 q 0.6875,0 1.26563,-0.34375 0.59375,-0.35938 0.9375,-0.95313 0.35937,-0.59375 0.35937,-1.29687 -0.375,-0.26563 -0.9375,-0.42188 -0.5625,-0.15625 -1.1875,-0.15625 -1.10937,0 -1.6875,0.46875 -0.5625,0.45313 -0.5625,1.1875 0,0.67188 0.5,1.09375 0.51563,0.42188 1.3125,0.42188 z m 5.76163,-7.21875 h 1.28125 v 1.20312 h 0.0781 q 0.32812,-0.60937 1.0625,-1.03125 0.73437,-0.4375 1.57812,-0.4375 1.46875,0 2.23438,0.85938 0.78125,0.85937 0.78125,2.32812 v 5.23438 h -1.35938 v -5.03125 q 0,-1.125 -0.54687,-1.64063 -0.54688,-0.51562 -1.48438,-0.51562 -0.65625,0 -1.1875,0.375 -0.51562,0.35937 -0.79687,0.96875 -0.28125,0.59375 -0.28125,1.25 v 4.59375 h -1.35938 z m 12.44476,8.40625 q -1.10937,0 -2,-0.54688 -0.89062,-0.5625 -1.40625,-1.54687 -0.5,-0.98438 -0.5,-2.23438 0,-1.23437 0.5,-2.21875 0.51563,-1 1.40625,-1.5625 0.89063,-0.5625 2,-0.5625 0.92188,0 1.65625,0.4375 0.73438,0.42188 1.125,1.04688 h 0.0625 l -0.0625,-1.14063 v -3.375 h 1.35938 v 11.45313 h -1.29688 v -1.20313 h -0.0625 q -0.39062,0.60938 -1.125,1.03125 -0.73437,0.42188 -1.65625,0.42188 z m 0.14063,-1.21875 q 0.71875,0 1.32812,-0.39063 0.625,-0.39062 1,-1.09375 0.375,-0.70312 0.375,-1.625 0,-0.9375 -0.375,-1.64062 -0.375,-0.70313 -1,-1.07813 -0.60937,-0.39062 -1.32812,-0.39062 -0.70313,0 -1.32813,0.39062 -0.625,0.375 -1,1.09375 -0.375,0.71875 -0.375,1.625 0,0.90625 0.375,1.625 0.375,0.70313 1,1.09375 0.625,0.39063 1.32813,0.39063 z m 5.00702,0.96875 z m 9.98575,0.25 q -1.65625,0 -3,-0.79688 -1.34375,-0.79687 -2.10938,-2.17187 -0.76562,-1.375 -0.76562,-3.01563 0,-1.625 0.76562,-3 0.76563,-1.375 2.10938,-2.17187 1.34375,-0.8125 3,-0.8125 1.64062,0 2.98437,0.8125 1.34375,0.79687 2.10938,2.17187 0.78125,1.375 0.78125,3 0,1.64063 -0.78125,3.01563 -0.76563,1.375 -2.10938,2.17187 -1.34375,0.79688 -2.98437,0.79688 z m 0,-1.29688 q 1.23437,0 2.26562,-0.59375 1.03125,-0.59375 1.625,-1.65625 0.60938,-1.07812 0.60938,-2.4375 0,-1.35937 -0.60938,-2.42187 -0.59375,-1.0625 -1.625,-1.65625 -1.03125,-0.60938 -2.26562,-0.60938 -1.23438,0 -2.26563,0.60938 -1.03125,0.59375 -1.64062,1.65625 -0.59375,1.0625 -0.59375,2.42187 0,1.35938 0.59375,2.4375 0.60937,1.0625 1.64062,1.65625 1.03125,0.59375 2.26563,0.59375 z m 7.52777,-7.10937 h 1.29687 v 1.21875 h 0.0625 q 0.375,-0.625 1.10938,-1.04688 0.75,-0.4375 1.6875,-0.4375 1.09375,0 1.98437,0.5625 0.89063,0.5625 1.39063,1.5625 0.51562,0.98438 0.51562,2.21875 0,1.25 -0.51562,2.23438 -0.5,0.98437 -1.39063,1.54687 -0.89062,0.54688 -1.98437,0.54688 -0.9375,0 -1.6875,-0.42188 -0.73438,-0.42187 -1.10938,-1.03125 h -0.0625 l 0.0625,1.125 v 3.53125 h -1.35937 z m 4,7.1875 q 0.70312,0 1.32812,-0.39063 0.625,-0.39062 0.98438,-1.09375 0.375,-0.70312 0.375,-1.625 0,-0.9375 -0.375,-1.64062 -0.35938,-0.70313 -0.98438,-1.07813 -0.625,-0.39062 -1.32812,-0.39062 -0.71875,0 -1.34375,0.39062 -0.60938,0.375 -0.98438,1.07813 -0.375,0.70312 -0.375,1.64062 0,0.92188 0.375,1.625 0.375,0.70313 0.98438,1.09375 0.625,0.39063 1.34375,0.39063 z m 8.45117,1.09375 q -0.5,0 -0.92188,-0.15625 -0.42187,-0.15625 -0.70312,-0.4375 -0.64063,-0.60938 -0.64063,-1.67188 v -4.78125 h -1.42187 v -1.23437 h 1.42187 v -2.3125 h 1.35938 v 2.3125 h 2 v 1.23437 h -2 v 4.4375 q 0,0.67188 0.25,1 0.3125,0.34375 0.89062,0.34375 0.48438,0 0.89063,-0.26562 v 1.32812 q -0.23438,0.10938 -0.48438,0.15625 -0.25,0.0469 -0.64062,0.0469 z m 3.60785,-9.78125 q -0.40625,0 -0.70313,-0.28125 -0.28125,-0.29688 -0.28125,-0.70313 0,-0.42187 0.28125,-0.6875 0.29688,-0.28125 0.70313,-0.28125 0.40625,0 0.6875,0.28125 0.28125,0.26563 0.28125,0.6875 0,0.40625 -0.28125,0.70313 -0.28125,0.28125 -0.6875,0.28125 z m -0.67188,1.5 h 1.35938 v 8.15625 h -1.35938 z m 3.49103,0 h 1.28125 v 1.20312 h 0.0781 q 0.34375,-0.625 1.04687,-1.04687 0.70313,-0.42188 1.48438,-0.42188 0.90625,0 1.5625,0.4375 0.67187,0.4375 0.95312,1.15625 0.4375,-0.71875 1.14063,-1.15625 0.71875,-0.4375 1.65625,-0.4375 1.40625,0 2.125,0.85938 0.71875,0.85937 0.71875,2.32812 v 5.23438 h -1.34375 v -5.03125 q 0,-1.125 -0.46875,-1.64063 -0.46875,-0.51562 -1.375,-0.51562 -0.60938,0 -1.10938,0.35937 -0.5,0.34375 -0.78125,0.9375 -0.26562,0.59375 -0.26562,1.28125 v 4.60938 h -1.35938 v -5.01563 q 0,-1.14062 -0.46875,-1.65625 -0.46875,-0.51562 -1.35937,-0.51562 -0.60938,0 -1.10938,0.35937 -0.5,0.35938 -0.78125,0.96875 -0.26562,0.59375 -0.26562,1.28125 v 4.57813 h -1.35938 z m 14.81293,-1.5 q -0.40625,0 -0.70313,-0.28125 -0.28125,-0.29688 -0.28125,-0.70313 0,-0.42187 0.28125,-0.6875 0.29688,-0.28125 0.70313,-0.28125 0.40625,0 0.6875,0.28125 0.28125,0.26563 0.28125,0.6875 0,0.40625 -0.28125,0.70313 -0.28125,0.28125 -0.6875,0.28125 z m -0.67188,1.5 h 1.35938 v 8.15625 h -1.35938 z m 3.0691,6.98437 4.8125,-5.75 h -4.67188 v -1.23437 h 6.34375 v 1.17187 l -4.82812,5.75 h 4.95312 v 1.23438 h -6.60937 z m 10.64764,1.42188 q -0.89063,0 -1.59375,-0.34375 -0.70313,-0.35938 -1.09375,-0.96875 -0.375,-0.625 -0.375,-1.40625 0,-1.29688 0.96875,-2.01563 0.98437,-0.73437 2.46875,-0.73437 0.73437,0 1.35937,0.17187 0.64063,0.15625 0.96875,0.35938 v -0.5 q 0,-0.90625 -0.64062,-1.45313 -0.625,-0.5625 -1.60938,-0.5625 -0.67187,0 -1.26562,0.29688 -0.57813,0.29687 -0.90625,0.82812 l -1.03125,-0.76562 q 0.48437,-0.73438 1.32812,-1.15625 0.85938,-0.42188 1.875,-0.42188 1.67188,0 2.60938,0.875 0.9375,0.875 0.9375,2.375 v 5.17188 h -1.29688 v -1.17188 h -0.0625 q -0.34375,0.59375 -1.04687,1.01563 -0.70313,0.40625 -1.59375,0.40625 z m 0.14062,-1.1875 q 0.6875,0 1.26563,-0.34375 0.59375,-0.35938 0.9375,-0.95313 0.35937,-0.59375 0.35937,-1.29687 -0.375,-0.26563 -0.9375,-0.42188 -0.5625,-0.15625 -1.1875,-0.15625 -1.10937,0 -1.6875,0.46875 -0.5625,0.45313 -0.5625,1.1875 0,0.67188 0.5,1.09375 0.51563,0.42188 1.3125,0.42188 z m 8.72669,1.0625 q -0.5,0 -0.92188,-0.15625 -0.42187,-0.15625 -0.70312,-0.4375 -0.64063,-0.60938 -0.64063,-1.67188 v -4.78125 h -1.42187 v -1.23437 h 1.42187 v -2.3125 h 1.35938 v 2.3125 h 2 v 1.23437 h -2 v 4.4375 q 0,0.67188 0.25,1 0.3125,0.34375 0.89062,0.34375 0.48438,0 0.89063,-0.26562 v 1.32812 q -0.23438,0.10938 -0.48438,0.15625 -0.25,0.0469 -0.64062,0.0469 z m 3.60785,-9.78125 q -0.40625,0 -0.70313,-0.28125 -0.28125,-0.29688 -0.28125,-0.70313 0,-0.42187 0.28125,-0.6875 0.29688,-0.28125 0.70313,-0.28125 0.40625,0 0.6875,0.28125 0.28125,0.26563 0.28125,0.6875 0,0.40625 -0.28125,0.70313 -0.28125,0.28125 -0.6875,0.28125 z m -0.67188,1.5 h 1.35938 v 8.15625 h -1.35938 z m 7.16101,8.40625 q -1.20312,0 -2.17187,-0.5625 -0.95313,-0.57813 -1.48438,-1.5625 -0.53125,-1 -0.53125,-2.20313 0,-1.20312 0.53125,-2.1875 0.53125,-1 1.48438,-1.57812 0.96875,-0.57813 2.17187,-0.57813 1.20313,0 2.15625,0.57813 0.96875,0.57812 1.5,1.57812 0.53125,0.98438 0.53125,2.1875 0,1.20313 -0.53125,2.20313 -0.53125,0.98437 -1.5,1.5625 -0.95312,0.5625 -2.15625,0.5625 z m 0,-1.21875 q 0.75,0 1.39063,-0.375 0.65625,-0.39063 1.04687,-1.09375 0.39063,-0.70313 0.39063,-1.64063 0,-0.95312 -0.39063,-1.65625 -0.39062,-0.70312 -1.04687,-1.07812 -0.64063,-0.375 -1.39063,-0.375 -0.75,0 -1.40625,0.375 -0.65625,0.375 -1.04687,1.07812 -0.39063,0.70313 -0.39063,1.65625 0,0.9375 0.39063,1.64063 0.39062,0.70312 1.04687,1.09375 0.65625,0.375 1.40625,0.375 z m 5.62604,-7.1875 h 1.28125 v 1.20312 h 0.0781 q 0.32812,-0.60937 1.0625,-1.03125 0.73437,-0.4375 1.57812,-0.4375 1.46875,0 2.23438,0.85938 0.78125,0.85937 0.78125,2.32812 v 5.23438 h -1.35938 v -5.03125 q 0,-1.125 -0.54687,-1.64063 -0.54688,-0.51562 -1.48438,-0.51562 -0.65625,0 -1.1875,0.375 -0.51562,0.35937 -0.79687,0.96875 -0.28125,0.59375 -0.28125,1.25 v 4.59375 h -1.35938 z m 7.96039,8.15625 z m 4.99329,-11.45313 h 3.85937 q 0.95313,0 1.76563,0.4375 0.82812,0.42188 1.3125,1.20313 0.48437,0.76562 0.48437,1.75 0,0.96875 -0.48437,1.75 -0.48438,0.78125 -1.3125,1.21875 -0.8125,0.42187 -1.76563,0.42187 h -2.5 v 4.67188 h -1.35937 z m 3.89062,5.48438 q 0.64063,0 1.125,-0.29688 0.48438,-0.3125 0.75,-0.78125 0.28125,-0.48437 0.28125,-1.01562 0,-0.53125 -0.28125,-1 -0.26562,-0.48438 -0.75,-0.78125 -0.48437,-0.3125 -1.125,-0.3125 h -2.53125 v 4.1875 z m 7.3335,6.21875 q -0.89063,0 -1.59375,-0.34375 -0.70313,-0.35938 -1.09375,-0.96875 -0.375,-0.625 -0.375,-1.40625 0,-1.29688 0.96875,-2.01563 0.98437,-0.73437 2.46875,-0.73437 0.73437,0 1.35937,0.17187 0.64063,0.15625 0.96875,0.35938 v -0.5 q 0,-0.90625 -0.64062,-1.45313 -0.625,-0.5625 -1.60938,-0.5625 -0.67187,0 -1.26562,0.29688 -0.57813,0.29687 -0.90625,0.82812 l -1.03125,-0.76562 q 0.48437,-0.73438 1.32812,-1.15625 0.85938,-0.42188 1.875,-0.42188 1.67188,0 2.60938,0.875 0.9375,0.875 0.9375,2.375 v 5.17188 h -1.29688 v -1.17188 h -0.0625 q -0.34375,0.59375 -1.04687,1.01563 -0.70313,0.40625 -1.59375,0.40625 z m 0.14062,-1.1875 q 0.6875,0 1.26563,-0.34375 0.59375,-0.35938 0.9375,-0.95313 0.35937,-0.59375 0.35937,-1.29687 -0.375,-0.26563 -0.9375,-0.42188 -0.5625,-0.15625 -1.1875,-0.15625 -1.10937,0 -1.6875,0.46875 -0.5625,0.45313 -0.5625,1.1875 0,0.67188 0.5,1.09375 0.51563,0.42188 1.3125,0.42188 z m 8.52539,1.1875 q -1.3125,0 -2.20312,-0.60938 -0.875,-0.60937 -1.23438,-1.57812 l 1.20313,-0.54688 q 0.3125,0.73438 0.90625,1.14063 0.60937,0.40625 1.32812,0.40625 0.76563,0 1.3125,-0.3125 0.54688,-0.3125 0.54688,-0.89063 0,-0.51562 -0.4375,-0.82812 -0.4375,-0.3125 -1.35938,-0.53125 l -1,-0.26563 q -0.96875,-0.23437 -1.59375,-0.8125 -0.625,-0.57812 -0.625,-1.48437 0,-0.70313 0.42188,-1.23438 0.42187,-0.54687 1.125,-0.82812 0.70312,-0.29688 1.53125,-0.29688 1.0625,0 1.90625,0.46875 0.84375,0.46875 1.1875,1.29688 l -1.17188,0.54687 q -0.54687,-1.09375 -1.9375,-1.09375 -0.67187,0 -1.1875,0.3125 -0.5,0.3125 -0.5,0.79688 0,0.45312 0.34375,0.73437 0.35938,0.26563 1.0625,0.45313 l 1.1875,0.29687 q 1.20313,0.3125 1.8125,0.90625 0.60938,0.59375 0.60938,1.46875 0,0.75 -0.4375,1.3125 -0.4375,0.5625 -1.17188,0.875 -0.73437,0.29688 -1.625,0.29688 z m 7.568,0 q -1.3125,0 -2.20313,-0.60938 -0.875,-0.60937 -1.23437,-1.57812 l 1.20312,-0.54688 q 0.3125,0.73438 0.90625,1.14063 0.60938,0.40625 1.32813,0.40625 0.76562,0 1.3125,-0.3125 0.54687,-0.3125 0.54687,-0.89063 0,-0.51562 -0.4375,-0.82812 -0.4375,-0.3125 -1.35937,-0.53125 l -1,-0.26563 q -0.96875,-0.23437 -1.59375,-0.8125 -0.625,-0.57812 -0.625,-1.48437 0,-0.70313 0.42187,-1.23438 0.42188,-0.54687 1.125,-0.82812 0.70313,-0.29688 1.53125,-0.29688 1.0625,0 1.90625,0.46875 0.84375,0.46875 1.1875,1.29688 l -1.17187,0.54687 q -0.54688,-1.09375 -1.9375,-1.09375 -0.67188,0 -1.1875,0.3125 -0.5,0.3125 -0.5,0.79688 0,0.45312 0.34375,0.73437 0.35937,0.26563 1.0625,0.45313 l 1.1875,0.29687 q 1.20312,0.3125 1.8125,0.90625 0.60937,0.59375 0.60937,1.46875 0,0.75 -0.4375,1.3125 -0.4375,0.5625 -1.17187,0.875 -0.73438,0.29688 -1.625,0.29688 z m 8.42926,0 q -1.17188,0 -2.10938,-0.54688 -0.92187,-0.5625 -1.4375,-1.54687 -0.51562,-0.98438 -0.51562,-2.21875 0,-1.17188 0.48437,-2.17188 0.48438,-1 1.39063,-1.59375 0.90625,-0.59375 2.07812,-0.59375 1.20313,0 2.07813,0.54688 0.875,0.53125 1.34375,1.48437 0.48437,0.9375 0.48437,2.15625 0,0.1875 -0.0312,0.40625 h -6.46875 q 0.0469,0.9375 0.4375,1.57813 0.40625,0.64062 1.01563,0.96875 0.625,0.3125 1.29687,0.3125 1.59375,0 2.42188,-1.48438 l 1.14062,0.5625 q -0.5,0.98438 -1.42187,1.5625 -0.90625,0.57813 -2.1875,0.57813 z m 2.34375,-5.1875 q -0.0312,-0.51563 -0.28125,-1.03125 -0.25,-0.51563 -0.79688,-0.85938 -0.54687,-0.35937 -1.375,-0.35937 -0.96875,0 -1.64062,0.625 -0.67188,0.60937 -0.875,1.625 z m 5.96301,5.1875 q -1.3125,0 -2.20313,-0.60938 -0.875,-0.60937 -1.23437,-1.57812 l 1.20312,-0.54688 q 0.3125,0.73438 0.90625,1.14063 0.60938,0.40625 1.32813,0.40625 0.76562,0 1.3125,-0.3125 0.54687,-0.3125 0.54687,-0.89063 0,-0.51562 -0.4375,-0.82812 -0.4375,-0.3125 -1.35937,-0.53125 l -1,-0.26563 q -0.96875,-0.23437 -1.59375,-0.8125 -0.625,-0.57812 -0.625,-1.48437 0,-0.70313 0.42187,-1.23438 0.42188,-0.54687 1.125,-0.82812 0.70313,-0.29688 1.53125,-0.29688 1.0625,0 1.90625,0.46875 0.84375,0.46875 1.1875,1.29688 l -1.17187,0.54687 q -0.54688,-1.09375 -1.9375,-1.09375 -0.67188,0 -1.1875,0.3125 -0.5,0.3125 -0.5,0.79688 0,0.45312 0.34375,0.73437 0.35937,0.26563 1.0625,0.45313 l 1.1875,0.29687 q 1.20312,0.3125 1.8125,0.90625 0.60937,0.59375 0.60937,1.46875 0,0.75 -0.4375,1.3125 -0.4375,0.5625 -1.17187,0.875 -0.73438,0.29688 -1.625,0.29688 z m 3.70868,-0.25 z m 7.57135,2.17187 q -1.17188,-1.34375 -2.01563,-3.25 -0.82812,-1.90625 -0.82812,-4.07812 0,-2.15625 0.82812,-4.0625 0.84375,-1.92188 2.01563,-3.26563 l 0.98437,0.70313 q -1.07812,1.29687 -1.78125,3.0625 -0.70312,1.75 -0.70312,3.5625 0,1.82812 0.70312,3.57812 0.70313,1.75 1.78125,3.04688 z m 2.5899,-13.625 h 1.96875 l 3.64063,9.39063 h 0.0625 l 3.65625,-9.39063 h 1.96875 v 11.45313 h -1.34375 v -7.28125 l 0.0625,-2.17188 h -0.0625 l -3.75,9.45313 h -1.10938 l -3.75,-9.45313 h -0.0625 l 0.0625,2.17188 v 7.28125 h -1.34375 z m 13.85602,0 h 1.35938 v 10.15625 h 5 v 1.29688 h -6.35938 z m 8.14398,0 h 1.35938 v 11.45313 h -1.35938 z m 3.92005,0 h 3.875 q 0.9375,0 1.75,0.4375 0.82812,0.42188 1.3125,1.20313 0.48437,0.76562 0.48437,1.75 0,0.79687 -0.35937,1.48437 -0.35938,0.6875 -1,1.15625 -0.625,0.46875 -1.39063,0.625 l -0.0312,0.0469 3.23438,4.6875 v 0.0625 h -1.60938 l -3.10937,-4.67188 h -1.79688 v 4.67188 h -1.35937 z m 3.79687,5.51563 q 0.57813,0 1.09375,-0.26563 0.53125,-0.28125 0.84375,-0.76562 0.3125,-0.48438 0.3125,-1.09375 0,-0.53125 -0.28125,-1 -0.26562,-0.48438 -0.75,-0.78125 -0.48437,-0.3125 -1.125,-0.3125 h -2.53125 v 4.21875 z m 4.61041,7.40625 q 1.09375,-1.29688 1.79688,-3.04688 0.70312,-1.75 0.70312,-3.57812 0,-1.8125 -0.70312,-3.5625 -0.70313,-1.76563 -1.79688,-3.0625 l 1,-0.70313 q 1.17188,1.34375 2,3.26563 0.84375,1.90625 0.84375,4.0625 0,2.17187 -0.84375,4.07812 -0.82812,1.90625 -2,3.25 z" />
  </g>
  <g
     id="g81aefc8613_0_0.5"
     transform="translate(-93.21654,-180.93312)">
    <path
       style="fill:#ffffff;fill-rule:evenodd"
       inkscape:connector-curvature="0"
       id="path592"
       d="m 101.63254,370.18033 h 145.13385 v 45.85825 H 101.63254 Z" />
    <path
       style="fill-rule:evenodd;stroke:#666666;stroke-width:1;stroke-linecap:butt;stroke-linejoin:round"
       inkscape:connector-curvature="0"
       id="path594"
       d="m 101.63254,370.18033 h 145.13385 v 45.85825 H 101.63254 Z" />
    <path
       style="fill:#000000;fill-rule:nonzero"
       inkscape:connector-curvature="0"
       id="path596"
       d="m 142.8244,379.3132 h -3.20313 v -1.29688 h 7.76563 v 1.29688 h -3.20313 v 10.15625 h -1.35937 z m 6.26427,-1.29688 h 6.625 v 1.29688 h -5.26563 v 3.92187 h 4.75 v 1.28125 h -4.75 v 4.95313 h -1.35937 z m 8.49601,0 h 3.875 q 0.9375,0 1.75,0.4375 0.82813,0.42188 1.3125,1.20313 0.48438,0.76562 0.48438,1.75 0,0.79687 -0.35938,1.48437 -0.35937,0.6875 -1,1.15625 -0.625,0.46875 -1.39062,0.625 l -0.0312,0.0469 3.23437,4.6875 v 0.0625 h -1.60937 l -3.10938,-4.67188 h -1.79687 v 4.67188 h -1.35938 z m 3.79688,5.51563 q 0.57812,0 1.09375,-0.26563 0.53125,-0.28125 0.84375,-0.76562 0.3125,-0.48438 0.3125,-1.09375 0,-0.53125 -0.28125,-1 -0.26563,-0.48438 -0.75,-0.78125 -0.48438,-0.3125 -1.125,-0.3125 h -2.53125 v 4.21875 z m 7.9229,-4.21875 h -3.20313 v -1.29688 h 7.76563 v 1.29688 h -3.20313 v 10.15625 h -1.35937 z m 4.98301,10.15625 z m 10.04825,0.25 q -1.67187,0 -3.03125,-0.78125 -1.35937,-0.78125 -2.14062,-2.14063 -0.76563,-1.375 -0.76563,-3.0625 0,-1.67187 0.76563,-3.03125 0.78125,-1.375 2.14062,-2.15625 1.35938,-0.79687 3.03125,-0.79687 1.28125,0 2.34375,0.48437 1.0625,0.48438 1.84375,1.39063 l -0.96875,0.95312 q -0.65625,-0.79687 -1.4375,-1.15625 -0.78125,-0.375 -1.78125,-0.375 -1.25,0 -2.29687,0.59375 -1.03125,0.57813 -1.65625,1.64063 -0.60938,1.0625 -0.60938,2.45312 0,1.39063 0.60938,2.46875 0.625,1.0625 1.65625,1.64063 1.04687,0.57812 2.29687,0.57812 2.07813,0 3.53125,-1.70312 l 1,0.95312 q -0.78125,0.95313 -1.96875,1.5 -1.17187,0.54688 -2.5625,0.54688 z m 6.48102,-11.70313 h 3.85937 q 0.95313,0 1.76563,0.4375 0.82812,0.42188 1.3125,1.20313 0.48437,0.76562 0.48437,1.75 0,0.96875 -0.48437,1.75 -0.48438,0.78125 -1.3125,1.21875 -0.8125,0.42187 -1.76563,0.42187 h -2.5 v 4.67188 h -1.35937 z m 3.89062,5.48438 q 0.64063,0 1.125,-0.29688 0.48438,-0.3125 0.75,-0.78125 0.28125,-0.48437 0.28125,-1.01562 0,-0.53125 -0.28125,-1 -0.26562,-0.48438 -0.75,-0.78125 -0.48437,-0.3125 -1.125,-0.3125 h -2.53125 v 4.1875 z m 9.2629,6.21875 q -1.23438,0 -2.20313,-0.5625 -0.95312,-0.5625 -1.48437,-1.57813 -0.51563,-1.01562 -0.51563,-2.34375 v -7.21875 h 1.35938 v 7.28125 q 0,1.39063 0.73437,2.26563 0.73438,0.85937 2.10938,0.85937 1.375,0 2.10937,-0.85937 0.75,-0.875 0.75,-2.26563 v -7.28125 h 1.35938 v 7.21875 q 0,1.32813 -0.5,2.35938 -0.5,1.01562 -1.46875,1.57812 -0.95313,0.54688 -2.25,0.54688 z m 5.22928,-0.25 z" />
    <path
       style="fill:#000000;fill-rule:nonzero"
       inkscape:connector-curvature="0"
       id="path598"
       d="m 148.70468,397.01633 h 1.35937 v 6.03125 h 0.0625 l 5.15625,-6.03125 h 1.73438 v 0.0625 l -4.23438,4.89062 4.54688,6.4375 v 0.0625 h -1.65625 l -3.79688,-5.45312 -1.8125,2.09375 v 3.35937 h -1.35937 z m 13.05539,11.70312 q -1.17188,0 -2.10938,-0.54687 -0.92187,-0.5625 -1.4375,-1.54688 -0.51562,-0.98437 -0.51562,-2.21875 0,-1.17187 0.48437,-2.17187 0.48438,-1 1.39063,-1.59375 0.90625,-0.59375 2.07812,-0.59375 1.20313,0 2.07813,0.54687 0.875,0.53125 1.34375,1.48438 0.48437,0.9375 0.48437,2.15625 0,0.1875 -0.0312,0.40625 h -6.46875 q 0.0469,0.9375 0.4375,1.57812 0.40625,0.64063 1.01563,0.96875 0.625,0.3125 1.29687,0.3125 1.59375,0 2.42188,-1.48437 l 1.14062,0.5625 q -0.5,0.98437 -1.42187,1.5625 -0.90625,0.57812 -2.1875,0.57812 z m 2.34375,-5.1875 q -0.0312,-0.51562 -0.28125,-1.03125 -0.25,-0.51562 -0.79688,-0.85937 -0.54687,-0.35938 -1.375,-0.35938 -0.96875,0 -1.64062,0.625 -0.67188,0.60938 -0.875,1.625 z m 3.03926,-3.21875 h 1.28125 v 1.3125 h 0.0781 q 0.23438,-0.67187 0.92188,-1.10937 0.6875,-0.45313 1.4375,-0.45313 0.5625,0 0.96875,0.17188 v 1.46875 q -0.51563,-0.26563 -1.15625,-0.26563 -0.59375,0 -1.09375,0.34375 -0.5,0.32813 -0.79688,0.90625 -0.28125,0.5625 -0.28125,1.21875 v 4.5625 h -1.35937 z m 6.00002,0 h 1.28125 v 1.20313 h 0.0781 q 0.32813,-0.60938 1.0625,-1.03125 0.73438,-0.4375 1.57813,-0.4375 1.46875,0 2.23437,0.85937 0.78125,0.85938 0.78125,2.32813 v 5.23437 h -1.35937 v -5.03125 q 0,-1.125 -0.54688,-1.64062 -0.54687,-0.51563 -1.48437,-0.51563 -0.65625,0 -1.1875,0.375 -0.51563,0.35938 -0.79688,0.96875 -0.28125,0.59375 -0.28125,1.25 v 4.59375 h -1.35937 z m 12.60101,8.40625 q -1.17188,0 -2.10938,-0.54687 -0.92187,-0.5625 -1.4375,-1.54688 -0.51562,-0.98437 -0.51562,-2.21875 0,-1.17187 0.48437,-2.17187 0.48438,-1 1.39063,-1.59375 0.90625,-0.59375 2.07812,-0.59375 1.20313,0 2.07813,0.54687 0.875,0.53125 1.34375,1.48438 0.48437,0.9375 0.48437,2.15625 0,0.1875 -0.0312,0.40625 h -6.46875 q 0.0469,0.9375 0.4375,1.57812 0.40625,0.64063 1.01563,0.96875 0.625,0.3125 1.29687,0.3125 1.59375,0 2.42188,-1.48437 l 1.14062,0.5625 q -0.5,0.98437 -1.42187,1.5625 -0.90625,0.57812 -2.1875,0.57812 z m 2.34375,-5.1875 q -0.0312,-0.51562 -0.28125,-1.03125 -0.25,-0.51562 -0.79688,-0.85937 -0.54687,-0.35938 -1.375,-0.35938 -0.96875,0 -1.64062,0.625 -0.67188,0.60938 -0.875,1.625 z m 3.03926,-6.51562 h 1.35937 v 11.45312 h -1.35937 z m 6.13975,11.70312 q -1.3125,0 -2.20312,-0.60937 -0.875,-0.60938 -1.23438,-1.57813 l 1.20313,-0.54687 q 0.3125,0.73437 0.90625,1.14062 0.60937,0.40625 1.32812,0.40625 0.76563,0 1.3125,-0.3125 0.54688,-0.3125 0.54688,-0.89062 0,-0.51563 -0.4375,-0.82813 -0.4375,-0.3125 -1.35938,-0.53125 l -1,-0.26562 q -0.96875,-0.23438 -1.59375,-0.8125 -0.625,-0.57813 -0.625,-1.48438 0,-0.70312 0.42188,-1.23437 0.42187,-0.54688 1.125,-0.82813 0.70312,-0.29687 1.53125,-0.29687 1.0625,0 1.90625,0.46875 0.84375,0.46875 1.1875,1.29687 l -1.17188,0.54688 q -0.54687,-1.09375 -1.9375,-1.09375 -0.67187,0 -1.1875,0.3125 -0.5,0.3125 -0.5,0.79687 0,0.45313 0.34375,0.73438 0.35938,0.26562 1.0625,0.45312 l 1.1875,0.29688 q 1.20313,0.3125 1.8125,0.90625 0.60938,0.59375 0.60938,1.46875 0,0.75 -0.4375,1.3125 -0.4375,0.5625 -1.17188,0.875 -0.73437,0.29687 -1.625,0.29687 z" />
  </g>
  <path
     style="fill:#000000;fill-opacity:0;fill-rule:evenodd"
     inkscape:connector-curvature="0"
     id="path601"
     d="m 356.32326,51.92616 -0.50394,40.12598" />
  <path
     style="fill-rule:evenodd;stroke:#4285f4;stroke-width:2;stroke-linecap:butt;stroke-linejoin:round"
     inkscape:connector-curvature="0"
     id="path603"
     d="m 356.32326,51.92615 -0.35324,28.12694" />
  <path
     style="fill:#4285f4;fill-rule:evenodd;stroke:#4285f4;stroke-width:2;stroke-linecap:butt"
     inkscape:connector-curvature="0"
     id="path605"
     d="m 352.66679,80.01161 3.18924,9.11694 3.41717,-9.03399 z" />
  <path
     style="fill:#ffd966;fill-rule:evenodd"
     inkscape:connector-curvature="0"
     id="path607"
     d="m 307.13048,55.1321 v 0 c 0,-6.29691 5.10468,-11.40157 11.40158,-11.40157 h 78.83466 c 3.02386,0 5.92392,1.20124 8.0621,3.33945 2.13821,2.1382 3.33945,5.03824 3.33945,8.06212 v 0 0 c 0,6.29692 -5.10465,11.40158 -11.40155,11.40158 h -78.83466 c -6.2969,0 -11.40158,-5.10466 -11.40158,-11.40158 z" />
  <path
     style="fill-rule:evenodd;stroke:#595959;stroke-width:1;stroke-linecap:butt;stroke-linejoin:round"
     inkscape:connector-curvature="0"
     id="path609"
     d="m 307.13048,55.1321 v 0 c 0,-6.29691 5.10468,-11.40157 11.40158,-11.40157 h 78.83466 c 3.02386,0 5.92392,1.20124 8.0621,3.33945 2.13821,2.1382 3.33945,5.03824 3.33945,8.06212 v 0 0 c 0,6.29692 -5.10465,11.40158 -11.40155,11.40158 h -78.83466 c -6.2969,0 -11.40158,-5.10466 -11.40158,-11.40158 z" />
  <path
     style="fill:#000000;fill-rule:nonzero"
     inkscape:connector-curvature="0"
     id="path611"
     d="M 327.87516,60.9921 V 50.88272 h -3.78125 v -1.34375 h 9.07812 v 1.34375 h -3.78125 V 60.9921 Z m 6.92969,0 V 49.53897 h 7.73437 v 1.34375 h -6.21875 v 3.54688 h 5.375 v 1.35937 h -5.375 v 5.20313 z m 19.5,-4.5 v -1.34375 h 4.85937 v 4.25 q -1.125,0.89062 -2.3125,1.34375 -1.1875,0.45312 -2.4375,0.45312 -1.6875,0 -3.0625,-0.71875 -1.375,-0.73437 -2.07812,-2.09375 -0.70313,-1.375 -0.70313,-3.0625 0,-1.67187 0.6875,-3.125 0.70313,-1.45312 2.01563,-2.15625 1.3125,-0.70312 3.03125,-0.70312 1.23437,0 2.23437,0.40625 1.01563,0.40625 1.57813,1.125 0.57812,0.71875 0.875,1.875 l -1.375,0.375 q -0.25,-0.875 -0.64063,-1.375 -0.375,-0.5 -1.09375,-0.79688 -0.70312,-0.3125 -1.57812,-0.3125 -1.03125,0 -1.79688,0.32813 -0.75,0.3125 -1.21875,0.82812 -0.46875,0.51563 -0.71875,1.125 -0.4375,1.0625 -0.4375,2.3125 0,1.53125 0.51563,2.5625 0.53125,1.03125 1.53125,1.53125 1.01562,0.5 2.15625,0.5 0.98437,0 1.92187,-0.375 0.9375,-0.39062 1.42188,-0.8125 V 56.4921 Z m 6.89843,4.5 v -8.29688 h 1.26563 v 1.25 q 0.48437,-0.875 0.89062,-1.15625 0.40625,-0.28125 0.90625,-0.28125 0.70313,0 1.4375,0.45313 l -0.48437,1.29687 q -0.51563,-0.29687 -1.03125,-0.29687 -0.45313,0 -0.82813,0.28125 -0.35937,0.26562 -0.51562,0.76562 -0.23438,0.75 -0.23438,1.64063 v 4.34375 z m 10.75,-1.03125 q -0.78125,0.67187 -1.5,0.95312 -0.71875,0.26563 -1.54687,0.26563 -1.375,0 -2.10938,-0.67188 -0.73437,-0.67187 -0.73437,-1.70312 0,-0.60938 0.28125,-1.10938 0.28125,-0.51562 0.71875,-0.8125 0.45312,-0.3125 1.01562,-0.46875 0.42188,-0.10937 1.25,-0.20312 1.70313,-0.20313 2.51563,-0.48438 0,-0.29687 0,-0.375 0,-0.85937 -0.39063,-1.20312 -0.54687,-0.48438 -1.60937,-0.48438 -0.98438,0 -1.46875,0.35938 -0.46875,0.34375 -0.6875,1.21875 l -1.375,-0.1875 q 0.1875,-0.875 0.60937,-1.42188 0.4375,-0.54687 1.25,-0.82812 0.8125,-0.29688 1.875,-0.29688 1.0625,0 1.71875,0.25 0.67188,0.25 0.98438,0.625 0.3125,0.375 0.4375,0.95313 0.0781,0.35937 0.0781,1.29687 v 1.875 q 0,1.96875 0.0781,2.48438 0.0937,0.51562 0.35937,1 h -1.46875 q -0.21875,-0.4375 -0.28125,-1.03125 z m -0.10937,-3.14063 q -0.76563,0.3125 -2.29688,0.53125 -0.875,0.125 -1.23437,0.28125 -0.35938,0.15625 -0.5625,0.46875 -0.1875,0.29688 -0.1875,0.65625 0,0.5625 0.42187,0.9375 0.4375,0.375 1.25,0.375 0.8125,0 1.4375,-0.34375 0.64063,-0.35937 0.9375,-0.98437 0.23438,-0.46875 0.23438,-1.40625 z m 3.60156,7.35938 V 52.69522 h 1.28125 v 1.07813 q 0.45313,-0.64063 1.01563,-0.95313 0.57812,-0.3125 1.39062,-0.3125 1.0625,0 1.875,0.54688 0.8125,0.54687 1.21875,1.54687 0.42188,0.98438 0.42188,2.17188 0,1.28125 -0.46875,2.29687 -0.45313,1.01563 -1.32813,1.5625 -0.85937,0.54688 -1.82812,0.54688 -0.70313,0 -1.26563,-0.29688 -0.54687,-0.29687 -0.90625,-0.75 v 4.04688 z m 1.26563,-7.29688 q 0,1.60938 0.64062,2.375 0.65625,0.76563 1.57813,0.76563 0.9375,0 1.60937,-0.79688 0.67188,-0.79687 0.67188,-2.45312 0,-1.59375 -0.65625,-2.375 -0.65625,-0.79688 -1.5625,-0.79688 -0.89063,0 -1.59375,0.84375 -0.6875,0.84375 -0.6875,2.4375 z m 7.63281,4.10938 V 49.53897 h 1.40625 v 4.10938 q 0.98437,-1.14063 2.48437,-1.14063 0.92188,0 1.59375,0.35938 0.6875,0.35937 0.96875,1 0.29688,0.64062 0.29688,1.85937 v 5.26563 h -1.40625 v -5.26563 q 0,-1.04687 -0.45313,-1.53125 -0.45312,-0.48437 -1.29687,-0.48437 -0.625,0 -1.17188,0.32812 -0.54687,0.32813 -0.78125,0.89063 -0.23437,0.54687 -0.23437,1.51562 v 4.54688 z" />
  <g
     id="g81aefc8613_0_0.6"
     transform="translate(-93.21654,-180.93312)">
    <path
       style="fill:#ffffff;fill-rule:evenodd"
       inkscape:connector-curvature="0"
       id="path632"
       d="m 259.97903,370.18033 h 145.13385 v 45.85825 H 259.97903 Z" />
    <path
       style="fill-rule:evenodd;stroke:#666666;stroke-width:1;stroke-linecap:butt;stroke-linejoin:round"
       inkscape:connector-curvature="0"
       id="path634"
       d="m 259.97903,370.18033 h 145.13385 v 45.85825 H 259.97903 Z" />
    <path
       style="fill:#000000;fill-rule:nonzero"
       inkscape:connector-curvature="0"
       id="path636"
       d="m 300.59488,379.3132 h -3.20313 v -1.29688 h 7.76563 v 1.29688 h -3.20313 v 10.15625 h -1.35937 z m 6.26425,-1.29688 h 6.625 v 1.29688 h -5.26562 v 3.92187 h 4.75 v 1.28125 h -4.75 v 4.95313 h -1.35938 z m 8.49603,0 h 3.875 q 0.9375,0 1.75,0.4375 0.82813,0.42188 1.3125,1.20313 0.48438,0.76562 0.48438,1.75 0,0.79687 -0.35938,1.48437 -0.35937,0.6875 -1,1.15625 -0.625,0.46875 -1.39062,0.625 l -0.0312,0.0469 3.23437,4.6875 v 0.0625 h -1.60937 l -3.10938,-4.67188 h -1.79687 v 4.67188 h -1.35938 z m 3.79688,5.51563 q 0.57812,0 1.09375,-0.26563 0.53125,-0.28125 0.84375,-0.76562 0.3125,-0.48438 0.3125,-1.09375 0,-0.53125 -0.28125,-1 -0.26563,-0.48438 -0.75,-0.78125 -0.48438,-0.3125 -1.125,-0.3125 h -2.53125 v 4.21875 z m 7.92291,-4.21875 h -3.20315 v -1.29688 h 7.76565 v 1.29688 h -3.20312 v 10.15625 h -1.35938 z m 4.983,10.15625 z m 10.04825,0.25 q -1.60937,0 -2.98437,-0.78125 -1.35938,-0.78125 -2.15625,-2.15625 -0.79688,-1.375 -0.79688,-3.04688 0,-1.65625 0.79688,-3.03125 0.79687,-1.375 2.15625,-2.15625 1.375,-0.79687 2.98437,-0.79687 1.26563,0 2.375,0.45312 1.10938,0.45313 1.82813,1.26563 l -0.95313,0.96875 q -0.5625,-0.67188 -1.42187,-1.03125 -0.84375,-0.35938 -1.8125,-0.35938 -1.20313,0 -2.26563,0.59375 -1.04687,0.57813 -1.6875,1.64063 -0.625,1.0625 -0.625,2.45312 0,1.39063 0.625,2.46875 0.64063,1.0625 1.6875,1.64063 1.0625,0.57812 2.26563,0.57812 1.15625,0 1.92187,-0.35937 0.78125,-0.35938 1.34375,-0.95313 0.42188,-0.4375 0.67188,-1.0625 0.25,-0.64062 0.3125,-1.40625 h -4.23438 v -1.26562 h 5.5 q 0.0781,0.45312 0.0781,0.82812 0,1.0625 -0.34375,2.0625 -0.32813,1 -1.0625,1.75 -1.57813,1.70313 -4.20313,1.70313 z m 7.63303,-11.70313 h 3.85937 q 0.95313,0 1.76563,0.4375 0.82812,0.42188 1.3125,1.20313 0.48437,0.76562 0.48437,1.75 0,0.96875 -0.48437,1.75 -0.48438,0.78125 -1.3125,1.21875 -0.8125,0.42187 -1.76563,0.42187 h -2.5 v 4.67188 h -1.35937 z m 3.89062,5.48438 q 0.64063,0 1.125,-0.29688 0.48438,-0.3125 0.75,-0.78125 0.28125,-0.48437 0.28125,-1.01562 0,-0.53125 -0.28125,-1 -0.26562,-0.48438 -0.75,-0.78125 -0.48437,-0.3125 -1.125,-0.3125 h -2.53125 v 4.1875 z m 9.26291,6.21875 q -1.23437,0 -2.20312,-0.5625 -0.95313,-0.5625 -1.48438,-1.57813 -0.51562,-1.01562 -0.51562,-2.34375 v -7.21875 h 1.35937 v 7.28125 q 0,1.39063 0.73438,2.26563 0.73437,0.85937 2.10937,0.85937 1.375,0 2.10938,-0.85937 0.75,-0.875 0.75,-2.26563 v -7.28125 h 1.35937 v 7.21875 q 0,1.32813 -0.5,2.35938 -0.5,1.01562 -1.46875,1.57812 -0.95312,0.54688 -2.25,0.54688 z m 5.22928,-0.25 z" />
    <path
       style="fill:#000000;fill-rule:nonzero"
       inkscape:connector-curvature="0"
       id="path638"
       d="m 307.05115,397.01633 h 1.35937 v 6.03125 h 0.0625 l 5.15625,-6.03125 h 1.73438 v 0.0625 l -4.23438,4.89062 4.54688,6.4375 v 0.0625 h -1.65625 l -3.79688,-5.45312 -1.8125,2.09375 v 3.35937 h -1.35937 z m 13.05539,11.70312 q -1.17188,0 -2.10938,-0.54687 -0.92187,-0.5625 -1.4375,-1.54688 -0.51562,-0.98437 -0.51562,-2.21875 0,-1.17187 0.48437,-2.17187 0.48438,-1 1.39063,-1.59375 0.90625,-0.59375 2.07812,-0.59375 1.20313,0 2.07813,0.54687 0.875,0.53125 1.34375,1.48438 0.48437,0.9375 0.48437,2.15625 0,0.1875 -0.0312,0.40625 h -6.46875 q 0.0469,0.9375 0.4375,1.57812 0.40625,0.64063 1.01563,0.96875 0.625,0.3125 1.29687,0.3125 1.59375,0 2.42188,-1.48437 l 1.14062,0.5625 q -0.5,0.98437 -1.42187,1.5625 -0.90625,0.57812 -2.1875,0.57812 z m 2.34375,-5.1875 q -0.0312,-0.51562 -0.28125,-1.03125 -0.25,-0.51562 -0.79688,-0.85937 -0.54687,-0.35938 -1.375,-0.35938 -0.96875,0 -1.64062,0.625 -0.67188,0.60938 -0.875,1.625 z m 3.03928,-3.21875 h 1.28125 v 1.3125 h 0.0781 q 0.23438,-0.67187 0.92188,-1.10937 0.6875,-0.45313 1.4375,-0.45313 0.5625,0 0.96875,0.17188 v 1.46875 q -0.51563,-0.26563 -1.15625,-0.26563 -0.59375,0 -1.09375,0.34375 -0.5,0.32813 -0.79688,0.90625 -0.28125,0.5625 -0.28125,1.21875 v 4.5625 h -1.35937 z m 6.00003,0 h 1.28125 v 1.20313 h 0.0781 q 0.32813,-0.60938 1.0625,-1.03125 0.73438,-0.4375 1.57813,-0.4375 1.46875,0 2.23437,0.85937 0.78125,0.85938 0.78125,2.32813 v 5.23437 h -1.35937 v -5.03125 q 0,-1.125 -0.54688,-1.64062 -0.54687,-0.51563 -1.48437,-0.51563 -0.65625,0 -1.1875,0.375 -0.51563,0.35938 -0.79688,0.96875 -0.28125,0.59375 -0.28125,1.25 v 4.59375 h -1.35937 z m 12.60101,8.40625 q -1.17188,0 -2.10938,-0.54687 -0.92187,-0.5625 -1.4375,-1.54688 -0.51562,-0.98437 -0.51562,-2.21875 0,-1.17187 0.48437,-2.17187 0.48438,-1 1.39063,-1.59375 0.90625,-0.59375 2.07812,-0.59375 1.20313,0 2.07813,0.54687 0.875,0.53125 1.34375,1.48438 0.48437,0.9375 0.48437,2.15625 0,0.1875 -0.0312,0.40625 h -6.46875 q 0.0469,0.9375 0.4375,1.57812 0.40625,0.64063 1.01563,0.96875 0.625,0.3125 1.29687,0.3125 1.59375,0 2.42188,-1.48437 l 1.14062,0.5625 q -0.5,0.98437 -1.42187,1.5625 -0.90625,0.57812 -2.1875,0.57812 z m 2.34375,-5.1875 q -0.0312,-0.51562 -0.28125,-1.03125 -0.25,-0.51562 -0.79688,-0.85937 -0.54687,-0.35938 -1.375,-0.35938 -0.96875,0 -1.64062,0.625 -0.67188,0.60938 -0.875,1.625 z m 3.03924,-6.51562 h 1.35938 v 11.45312 h -1.35938 z m 6.13977,11.70312 q -1.3125,0 -2.20312,-0.60937 -0.875,-0.60938 -1.23438,-1.57813 l 1.20313,-0.54687 q 0.3125,0.73437 0.90625,1.14062 0.60937,0.40625 1.32812,0.40625 0.76563,0 1.3125,-0.3125 0.54688,-0.3125 0.54688,-0.89062 0,-0.51563 -0.4375,-0.82813 -0.4375,-0.3125 -1.35938,-0.53125 l -1,-0.26562 q -0.96875,-0.23438 -1.59375,-0.8125 -0.625,-0.57813 -0.625,-1.48438 0,-0.70312 0.42188,-1.23437 0.42187,-0.54688 1.125,-0.82813 0.70312,-0.29687 1.53125,-0.29687 1.0625,0 1.90625,0.46875 0.84375,0.46875 1.1875,1.29687 l -1.17188,0.54688 q -0.54687,-1.09375 -1.9375,-1.09375 -0.67187,0 -1.1875,0.3125 -0.5,0.3125 -0.5,0.79687 0,0.45313 0.34375,0.73438 0.35938,0.26562 1.0625,0.45312 l 1.1875,0.29688 q 1.20313,0.3125 1.8125,0.90625 0.60938,0.59375 0.60938,1.46875 0,0.75 -0.4375,1.3125 -0.4375,0.5625 -1.17188,0.875 -0.73437,0.29687 -1.625,0.29687 z" />
  </g>
  <g
     id="g81aefc8613_0_0.7"
     transform="translate(-93.21654,-180.93312)">
    <path
       style="fill:#ffffff;fill-rule:evenodd"
       inkscape:connector-curvature="0"
       id="path660"
       d="m 418.3255,370.18033 h 145.13385 v 45.85825 H 418.3255 Z" />
    <path
       style="fill-rule:evenodd;stroke:#666666;stroke-width:1;stroke-linecap:butt;stroke-linejoin:round"
       inkscape:connector-curvature="0"
       id="path662"
       d="m 418.3255,370.18033 h 145.13385 v 45.85825 H 418.3255 Z" />
    <path
       style="fill:#000000;fill-rule:nonzero"
       inkscape:connector-curvature="0"
       id="path664"
       d="m 461.30136,379.3132 h -3.20313 v -1.29688 h 7.76563 v 1.29688 h -3.20313 v 10.15625 h -1.35937 z m 6.26425,-1.29688 h 6.625 v 1.29688 h -5.26562 v 3.92187 h 4.75 v 1.28125 h -4.75 v 4.95313 h -1.35938 z m 8.49603,0 h 3.875 q 0.9375,0 1.75,0.4375 0.82813,0.42188 1.3125,1.20313 0.48438,0.76562 0.48438,1.75 0,0.79687 -0.35938,1.48437 -0.35937,0.6875 -1,1.15625 -0.625,0.46875 -1.39062,0.625 l -0.0312,0.0469 3.23437,4.6875 v 0.0625 h -1.60937 l -3.10938,-4.67188 h -1.79687 v 4.67188 h -1.35938 z m 3.79688,5.51563 q 0.57812,0 1.09375,-0.26563 0.53125,-0.28125 0.84375,-0.76562 0.3125,-0.48438 0.3125,-1.09375 0,-0.53125 -0.28125,-1 -0.26563,-0.48438 -0.75,-0.78125 -0.48438,-0.3125 -1.125,-0.3125 h -2.53125 v 4.21875 z m 7.92288,-4.21875 h -3.20312 v -1.29688 h 7.76562 v 1.29688 h -3.20312 v 10.15625 h -1.35938 z m 4.98303,10.15625 z m 6.69699,-10.15625 h -3.20312 v -1.29688 h 7.76562 v 1.29688 h -3.20312 v 10.15625 h -1.35938 z m 6.26429,-1.29688 h 3.85937 q 0.95313,0 1.76563,0.4375 0.82812,0.42188 1.3125,1.20313 0.48437,0.76562 0.48437,1.75 0,0.96875 -0.48437,1.75 -0.48438,0.78125 -1.3125,1.21875 -0.8125,0.42187 -1.76563,0.42187 h -2.5 v 4.67188 h -1.35937 z m 3.89062,5.48438 q 0.64063,0 1.125,-0.29688 0.48438,-0.3125 0.75,-0.78125 0.28125,-0.48437 0.28125,-1.01562 0,-0.53125 -0.28125,-1 -0.26562,-0.48438 -0.75,-0.78125 -0.48437,-0.3125 -1.125,-0.3125 h -2.53125 v 4.1875 z m 9.26288,6.21875 q -1.23438,0 -2.20313,-0.5625 -0.95312,-0.5625 -1.48437,-1.57813 -0.51563,-1.01562 -0.51563,-2.34375 v -7.21875 h 1.35938 v 7.28125 q 0,1.39063 0.73437,2.26563 0.73438,0.85937 2.10938,0.85937 1.375,0 2.10937,-0.85937 0.75,-0.875 0.75,-2.26563 v -7.28125 h 1.35938 v 7.21875 q 0,1.32813 -0.5,2.35938 -0.5,1.01562 -1.46875,1.57812 -0.95313,0.54688 -2.25,0.54688 z m 5.22931,-0.25 z" />
    <path
       style="fill:#000000;fill-rule:nonzero"
       inkscape:connector-curvature="0"
       id="path666"
       d="M 527.8205,389.46945 Z" />
    <path
       style="fill:#000000;fill-rule:nonzero"
       inkscape:connector-curvature="0"
       id="path668"
       d="m 465.39764,397.01633 h 1.35938 v 6.03125 h 0.0625 l 5.15625,-6.03125 h 1.73437 v 0.0625 l -4.23437,4.89062 4.54687,6.4375 v 0.0625 h -1.65625 l -3.79687,-5.45312 -1.8125,2.09375 v 3.35937 h -1.35938 z m 13.05539,11.70312 q -1.17188,0 -2.10938,-0.54687 -0.92187,-0.5625 -1.4375,-1.54688 -0.51562,-0.98437 -0.51562,-2.21875 0,-1.17187 0.48437,-2.17187 0.48438,-1 1.39063,-1.59375 0.90625,-0.59375 2.07812,-0.59375 1.20313,0 2.07813,0.54687 0.875,0.53125 1.34375,1.48438 0.48437,0.9375 0.48437,2.15625 0,0.1875 -0.0312,0.40625 h -6.46875 q 0.0469,0.9375 0.4375,1.57812 0.40625,0.64063 1.01563,0.96875 0.625,0.3125 1.29687,0.3125 1.59375,0 2.42188,-1.48437 l 1.14062,0.5625 q -0.5,0.98437 -1.42187,1.5625 -0.90625,0.57812 -2.1875,0.57812 z m 2.34375,-5.1875 q -0.0312,-0.51562 -0.28125,-1.03125 -0.25,-0.51562 -0.79688,-0.85937 -0.54687,-0.35938 -1.375,-0.35938 -0.96875,0 -1.64062,0.625 -0.67188,0.60938 -0.875,1.625 z m 3.03924,-3.21875 h 1.28125 v 1.3125 h 0.0781 q 0.23437,-0.67187 0.92187,-1.10937 0.6875,-0.45313 1.4375,-0.45313 0.5625,0 0.96875,0.17188 v 1.46875 q -0.51562,-0.26563 -1.15625,-0.26563 -0.59375,0 -1.09375,0.34375 -0.5,0.32813 -0.79687,0.90625 -0.28125,0.5625 -0.28125,1.21875 v 4.5625 h -1.35938 z m 6.00004,0 h 1.28125 v 1.20313 h 0.0781 q 0.32813,-0.60938 1.0625,-1.03125 0.73438,-0.4375 1.57813,-0.4375 1.46875,0 2.23437,0.85937 0.78125,0.85938 0.78125,2.32813 v 5.23437 h -1.35937 v -5.03125 q 0,-1.125 -0.54688,-1.64062 -0.54687,-0.51563 -1.48437,-0.51563 -0.65625,0 -1.1875,0.375 -0.51563,0.35938 -0.79688,0.96875 -0.28125,0.59375 -0.28125,1.25 v 4.59375 h -1.35937 z m 12.60101,8.40625 q -1.17188,0 -2.10938,-0.54687 -0.92187,-0.5625 -1.4375,-1.54688 -0.51562,-0.98437 -0.51562,-2.21875 0,-1.17187 0.48437,-2.17187 0.48438,-1 1.39063,-1.59375 0.90625,-0.59375 2.07812,-0.59375 1.20313,0 2.07813,0.54687 0.875,0.53125 1.34375,1.48438 0.48437,0.9375 0.48437,2.15625 0,0.1875 -0.0312,0.40625 h -6.46875 q 0.0469,0.9375 0.4375,1.57812 0.40625,0.64063 1.01563,0.96875 0.625,0.3125 1.29687,0.3125 1.59375,0 2.42188,-1.48437 l 1.14062,0.5625 q -0.5,0.98437 -1.42187,1.5625 -0.90625,0.57812 -2.1875,0.57812 z m 2.34375,-5.1875 q -0.0312,-0.51562 -0.28125,-1.03125 -0.25,-0.51562 -0.79688,-0.85937 -0.54687,-0.35938 -1.375,-0.35938 -0.96875,0 -1.64062,0.625 -0.67188,0.60938 -0.875,1.625 z m 3.03924,-6.51562 h 1.35938 v 11.45312 h -1.35938 z m 6.13977,11.70312 q -1.3125,0 -2.20312,-0.60937 -0.875,-0.60938 -1.23438,-1.57813 l 1.20313,-0.54687 q 0.3125,0.73437 0.90625,1.14062 0.60937,0.40625 1.32812,0.40625 0.76563,0 1.3125,-0.3125 0.54688,-0.3125 0.54688,-0.89062 0,-0.51563 -0.4375,-0.82813 -0.4375,-0.3125 -1.35938,-0.53125 l -1,-0.26562 q -0.96875,-0.23438 -1.59375,-0.8125 -0.625,-0.57813 -0.625,-1.48438 0,-0.70312 0.42188,-1.23437 0.42187,-0.54688 1.125,-0.82813 0.70312,-0.29687 1.53125,-0.29687 1.0625,0 1.90625,0.46875 0.84375,0.46875 1.1875,1.29687 l -1.17188,0.54688 q -0.54687,-1.09375 -1.9375,-1.09375 -0.67187,0 -1.1875,0.3125 -0.5,0.3125 -0.5,0.79687 0,0.45313 0.34375,0.73438 0.35938,0.26562 1.0625,0.45312 l 1.1875,0.29688 q 1.20313,0.3125 1.8125,0.90625 0.60938,0.59375 0.60938,1.46875 0,0.75 -0.4375,1.3125 -0.4375,0.5625 -1.17188,0.875 -0.73437,0.29687 -1.625,0.29687 z" />
  </g>
  <g
     id="g81aefc8613_0_0.8"
     transform="translate(-93.21654,-180.93312)">
    <path
       style="fill:#ffffff;fill-rule:evenodd"
       inkscape:connector-curvature="0"
       id="path690"
       d="m 576.672,370.18033 h 145.13385 v 45.85825 H 576.672 Z" />
    <path
       style="fill-rule:evenodd;stroke:#666666;stroke-width:1;stroke-linecap:butt;stroke-linejoin:round"
       inkscape:connector-curvature="0"
       id="path692"
       d="m 576.672,370.18033 h 145.13385 v 45.85825 H 576.672 Z" />
    <path
       style="fill:#000000;fill-rule:nonzero"
       inkscape:connector-curvature="0"
       id="path694"
       d="m 609.1518,379.3132 h -3.20313 v -1.29688 h 7.76563 v 1.29688 h -3.20313 v 10.15625 h -1.35937 z m 6.26428,-1.29688 h 6.625 v 1.29688 h -5.26562 v 3.92187 h 4.75 v 1.28125 h -4.75 v 4.95313 h -1.35938 z m 8.49603,0 h 3.875 q 0.9375,0 1.75,0.4375 0.82813,0.42188 1.3125,1.20313 0.48438,0.76562 0.48438,1.75 0,0.79687 -0.35938,1.48437 -0.35937,0.6875 -1,1.15625 -0.625,0.46875 -1.39062,0.625 l -0.0312,0.0469 3.23437,4.6875 v 0.0625 h -1.60937 l -3.10938,-4.67188 h -1.79687 v 4.67188 h -1.35938 z m 3.79688,5.51563 q 0.57812,0 1.09375,-0.26563 0.53125,-0.28125 0.84375,-0.76562 0.3125,-0.48438 0.3125,-1.09375 0,-0.53125 -0.28125,-1 -0.26563,-0.48438 -0.75,-0.78125 -0.48438,-0.3125 -1.125,-0.3125 h -2.53125 v 4.21875 z m 7.92291,-4.21875 h -3.20312 v -1.29688 h 7.76562 v 1.29688 h -3.20312 v 10.15625 h -1.35938 z m 4.98297,10.15625 z m 4.99329,-11.45313 h 1.96875 l 3.64062,9.39063 h 0.0625 l 3.65625,-9.39063 h 1.96875 v 11.45313 h -1.34375 v -7.28125 l 0.0625,-2.17188 h -0.0625 l -3.75,9.45313 h -1.10937 l -3.75,-9.45313 h -0.0625 l 0.0625,2.17188 v 7.28125 h -1.34375 z m 17.18042,11.70313 q -1.20313,0 -2.17188,-0.5625 -0.95312,-0.57813 -1.48437,-1.5625 -0.53125,-1 -0.53125,-2.20313 0,-1.20312 0.53125,-2.1875 0.53125,-1 1.48437,-1.57812 0.96875,-0.57813 2.17188,-0.57813 1.20312,0 2.15625,0.57813 0.96875,0.57812 1.5,1.57812 0.53125,0.98438 0.53125,2.1875 0,1.20313 -0.53125,2.20313 -0.53125,0.98437 -1.5,1.5625 -0.95313,0.5625 -2.15625,0.5625 z m 0,-1.21875 q 0.75,0 1.39062,-0.375 0.65625,-0.39063 1.04688,-1.09375 0.39062,-0.70313 0.39062,-1.64063 0,-0.95312 -0.39062,-1.65625 -0.39063,-0.70312 -1.04688,-1.07812 -0.64062,-0.375 -1.39062,-0.375 -0.75,0 -1.40625,0.375 -0.65625,0.375 -1.04688,1.07812 -0.39062,0.70313 -0.39062,1.65625 0,0.9375 0.39062,1.64063 0.39063,0.70312 1.04688,1.09375 0.65625,0.375 1.40625,0.375 z m 9.84662,1.21875 q -0.9375,0 -1.6875,-0.42188 -0.73438,-0.42187 -1.09375,-1.03125 h -0.0781 v 1.20313 h -1.28125 v -11.45313 h 1.35938 v 3.375 l -0.0781,1.14063 h 0.0781 q 0.35937,-0.625 1.09375,-1.04688 0.75,-0.4375 1.6875,-0.4375 1.09375,0 1.98437,0.5625 0.89063,0.5625 1.40625,1.5625 0.51563,0.98438 0.51563,2.21875 0,1.25 -0.51563,2.23438 -0.51562,0.98437 -1.40625,1.54687 -0.89062,0.54688 -1.98437,0.54688 z m -0.14063,-1.21875 q 0.70313,0 1.3125,-0.39063 0.625,-0.39062 1,-1.09375 0.375,-0.70312 0.375,-1.625 0,-0.9375 -0.375,-1.64062 -0.375,-0.70313 -1,-1.07813 -0.60937,-0.39062 -1.3125,-0.39062 -0.73437,0 -1.34375,0.39062 -0.60937,0.375 -1,1.07813 -0.375,0.70312 -0.375,1.64062 0,0.92188 0.375,1.625 0.39063,0.70313 1,1.09375 0.60938,0.39063 1.34375,0.39063 z m 6.34888,-8.6875 q -0.40625,0 -0.70312,-0.28125 -0.28125,-0.29688 -0.28125,-0.70313 0,-0.42187 0.28125,-0.6875 0.29687,-0.28125 0.70312,-0.28125 0.40625,0 0.6875,0.28125 0.28125,0.26563 0.28125,0.6875 0,0.40625 -0.28125,0.70313 -0.28125,0.28125 -0.6875,0.28125 z m -0.67187,1.5 h 1.35937 v 8.15625 h -1.35937 z m 3.49102,-3.29688 h 1.35938 v 11.45313 h -1.35938 z m 6.92102,11.70313 q -1.17187,0 -2.10937,-0.54688 -0.92188,-0.5625 -1.4375,-1.54687 -0.51563,-0.98438 -0.51563,-2.21875 0,-1.17188 0.48438,-2.17188 0.48437,-1 1.39062,-1.59375 0.90625,-0.59375 2.07813,-0.59375 1.20312,0 2.07812,0.54688 0.875,0.53125 1.34375,1.48437 0.48438,0.9375 0.48438,2.15625 0,0.1875 -0.0312,0.40625 h -6.46875 q 0.0469,0.9375 0.4375,1.57813 0.40625,0.64062 1.01562,0.96875 0.625,0.3125 1.29688,0.3125 1.59375,0 2.42187,-1.48438 l 1.14063,0.5625 q -0.5,0.98438 -1.42188,1.5625 -0.90625,0.57813 -2.1875,0.57813 z m 2.34375,-5.1875 q -0.0312,-0.51563 -0.28125,-1.03125 -0.25,-0.51563 -0.79687,-0.85938 -0.54688,-0.35937 -1.375,-0.35937 -0.96875,0 -1.64063,0.625 -0.67187,0.60937 -0.875,1.625 z m 2.02362,4.9375 z" />
    <path
       style="fill:#000000;fill-rule:nonzero"
       inkscape:connector-curvature="0"
       id="path696"
       d="M 696.663,389.46945 Z" />
    <path
       style="fill:#000000;fill-rule:nonzero"
       inkscape:connector-curvature="0"
       id="path698"
       d="m 623.74414,397.01633 h 1.35938 v 6.03125 h 0.0625 l 5.15625,-6.03125 h 1.73437 v 0.0625 l -4.23437,4.89062 4.54687,6.4375 v 0.0625 h -1.65625 l -3.79687,-5.45312 -1.8125,2.09375 v 3.35937 h -1.35938 z m 13.05536,11.70312 q -1.17188,0 -2.10938,-0.54687 -0.92187,-0.5625 -1.4375,-1.54688 -0.51562,-0.98437 -0.51562,-2.21875 0,-1.17187 0.48437,-2.17187 0.48438,-1 1.39063,-1.59375 0.90625,-0.59375 2.07812,-0.59375 1.20313,0 2.07813,0.54687 0.875,0.53125 1.34375,1.48438 0.48437,0.9375 0.48437,2.15625 0,0.1875 -0.0312,0.40625 h -6.46875 q 0.0469,0.9375 0.4375,1.57812 0.40625,0.64063 1.01563,0.96875 0.625,0.3125 1.29687,0.3125 1.59375,0 2.42188,-1.48437 l 1.14062,0.5625 q -0.5,0.98437 -1.42187,1.5625 -0.90625,0.57812 -2.1875,0.57812 z m 2.34375,-5.1875 q -0.0312,-0.51562 -0.28125,-1.03125 -0.25,-0.51562 -0.79688,-0.85937 -0.54687,-0.35938 -1.375,-0.35938 -0.96875,0 -1.64062,0.625 -0.67188,0.60938 -0.875,1.625 z m 3.03924,-3.21875 h 1.28125 v 1.3125 h 0.0781 q 0.23437,-0.67187 0.92187,-1.10937 0.6875,-0.45313 1.4375,-0.45313 0.5625,0 0.96875,0.17188 v 1.46875 q -0.51562,-0.26563 -1.15625,-0.26563 -0.59375,0 -1.09375,0.34375 -0.5,0.32813 -0.79687,0.90625 -0.28125,0.5625 -0.28125,1.21875 v 4.5625 h -1.35938 z m 6.00007,0 h 1.28125 v 1.20313 h 0.0781 q 0.32813,-0.60938 1.0625,-1.03125 0.73438,-0.4375 1.57813,-0.4375 1.46875,0 2.23437,0.85937 0.78125,0.85938 0.78125,2.32813 v 5.23437 h -1.35937 v -5.03125 q 0,-1.125 -0.54688,-1.64062 -0.54687,-0.51563 -1.48437,-0.51563 -0.65625,0 -1.1875,0.375 -0.51563,0.35938 -0.79688,0.96875 -0.28125,0.59375 -0.28125,1.25 v 4.59375 h -1.35937 z m 12.60101,8.40625 q -1.17188,0 -2.10938,-0.54687 -0.92187,-0.5625 -1.4375,-1.54688 -0.51562,-0.98437 -0.51562,-2.21875 0,-1.17187 0.48437,-2.17187 0.48438,-1 1.39063,-1.59375 0.90625,-0.59375 2.07812,-0.59375 1.20313,0 2.07813,0.54687 0.875,0.53125 1.34375,1.48438 0.48437,0.9375 0.48437,2.15625 0,0.1875 -0.0312,0.40625 h -6.46875 q 0.0469,0.9375 0.4375,1.57812 0.40625,0.64063 1.01563,0.96875 0.625,0.3125 1.29687,0.3125 1.59375,0 2.42188,-1.48437 l 1.14062,0.5625 q -0.5,0.98437 -1.42187,1.5625 -0.90625,0.57812 -2.1875,0.57812 z m 2.34375,-5.1875 q -0.0312,-0.51562 -0.28125,-1.03125 -0.25,-0.51562 -0.79688,-0.85937 -0.54687,-0.35938 -1.375,-0.35938 -0.96875,0 -1.64062,0.625 -0.67188,0.60938 -0.875,1.625 z m 3.03924,-6.51562 h 1.35938 v 11.45312 h -1.35938 z m 6.13977,11.70312 q -1.3125,0 -2.20312,-0.60937 -0.875,-0.60938 -1.23438,-1.57813 l 1.20313,-0.54687 q 0.3125,0.73437 0.90625,1.14062 0.60937,0.40625 1.32812,0.40625 0.76563,0 1.3125,-0.3125 0.54688,-0.3125 0.54688,-0.89062 0,-0.51563 -0.4375,-0.82813 -0.4375,-0.3125 -1.35938,-0.53125 l -1,-0.26562 q -0.96875,-0.23438 -1.59375,-0.8125 -0.625,-0.57813 -0.625,-1.48438 0,-0.70312 0.42188,-1.23437 0.42187,-0.54688 1.125,-0.82813 0.70312,-0.29687 1.53125,-0.29687 1.0625,0 1.90625,0.46875 0.84375,0.46875 1.1875,1.29687 l -1.17188,0.54688 q -0.54687,-1.09375 -1.9375,-1.09375 -0.67187,0 -1.1875,0.3125 -0.5,0.3125 -0.5,0.79687 0,0.45313 0.34375,0.73438 0.35938,0.26562 1.0625,0.45312 l 1.1875,0.29688 q 1.20313,0.3125 1.8125,0.90625 0.60938,0.59375 0.60938,1.46875 0,0.75 -0.4375,1.3125 -0.4375,0.5625 -1.17188,0.875 -0.73437,0.29687 -1.625,0.29687 z" />
  </g>
  <g
     id="g81aefc8613_0_0.9"
     transform="translate(-93.21654,-180.93312)">
    <path
       style="fill:#ffffff;fill-rule:evenodd"
       inkscape:connector-curvature="0"
       id="path720"
       d="m 101.63254,438.83124 h 145.13385 v 45.85828 H 101.63254 Z" />
    <path
       style="fill-rule:evenodd;stroke:#666666;stroke-width:1;stroke-linecap:butt;stroke-linejoin:round"
       inkscape:connector-curvature="0"
       id="path722"
       d="m 101.63254,438.83124 h 145.13385 v 45.85828 H 101.63254 Z" />
    <path
       style="fill:#000000;fill-rule:nonzero"
       inkscape:connector-curvature="0"
       id="path724"
       d="m 165.09569,467.87036 q -1.67188,0 -3.03125,-0.78125 -1.35938,-0.78125 -2.14063,-2.14063 -0.76562,-1.375 -0.76562,-3.0625 0,-1.67187 0.76562,-3.03125 0.78125,-1.375 2.14063,-2.15625 1.35937,-0.79687 3.03125,-0.79687 1.28125,0 2.34375,0.48437 1.0625,0.48438 1.84375,1.39063 l -0.96875,0.95312 q -0.65625,-0.79687 -1.4375,-1.15625 -0.78125,-0.375 -1.78125,-0.375 -1.25,0 -2.29688,0.59375 -1.03125,0.57813 -1.65625,1.64063 -0.60937,1.0625 -0.60937,2.45312 0,1.39063 0.60937,2.46875 0.625,1.0625 1.65625,1.64063 1.04688,0.57812 2.29688,0.57812 2.07812,0 3.53125,-1.70312 l 1,0.95312 q -0.78125,0.95313 -1.96875,1.5 -1.17188,0.54688 -2.5625,0.54688 z m 6.48102,-11.70313 h 3.85937 q 0.95313,0 1.76563,0.4375 0.82812,0.42188 1.3125,1.20313 0.48437,0.76562 0.48437,1.75 0,0.96875 -0.48437,1.75 -0.48438,0.78125 -1.3125,1.21875 -0.8125,0.42187 -1.76563,0.42187 h -2.5 v 4.67188 h -1.35937 z m 3.89062,5.48438 q 0.64063,0 1.125,-0.29688 0.48438,-0.3125 0.75,-0.78125 0.28125,-0.48437 0.28125,-1.01562 0,-0.53125 -0.28125,-1 -0.26562,-0.48438 -0.75,-0.78125 -0.48437,-0.3125 -1.125,-0.3125 h -2.53125 v 4.1875 z m 9.2629,6.21875 q -1.23438,0 -2.20313,-0.5625 -0.95312,-0.5625 -1.48437,-1.57813 -0.51563,-1.01562 -0.51563,-2.34375 v -7.21875 h 1.35938 v 7.28125 q 0,1.39063 0.73437,2.26563 0.73438,0.85937 2.10938,0.85937 1.375,0 2.10937,-0.85937 0.75,-0.875 0.75,-2.26563 v -7.28125 h 1.35938 v 7.21875 q 0,1.32813 -0.5,2.35938 -0.5,1.01562 -1.46875,1.57812 -0.95313,0.54688 -2.25,0.54688 z" />
  </g>
  <g
     id="g81aefc8613_0_0.10"
     transform="translate(-93.21654,-180.93312)">
    <path
       style="fill:#ffffff;fill-rule:evenodd"
       inkscape:connector-curvature="0"
       id="path746"
       d="m 260.59982,438.83124 h 145.13385 v 45.85828 H 260.59982 Z" />
    <path
       style="fill-rule:evenodd;stroke:#666666;stroke-width:1;stroke-linecap:butt;stroke-linejoin:round"
       inkscape:connector-curvature="0"
       id="path748"
       d="m 260.59982,438.83124 h 145.13385 v 45.85828 H 260.59982 Z" />
    <path
       style="fill:#000000;fill-rule:nonzero"
       inkscape:connector-curvature="0"
       id="path750"
       d="m 323.48694,467.87036 q -1.60938,0 -2.98438,-0.78125 -1.35937,-0.78125 -2.15625,-2.15625 -0.79687,-1.375 -0.79687,-3.04688 0,-1.65625 0.79687,-3.03125 0.79688,-1.375 2.15625,-2.15625 1.375,-0.79687 2.98438,-0.79687 1.26566,0 2.37503,0.45312 1.10938,0.45313 1.82813,1.26563 l -0.95313,0.96875 q -0.5625,-0.67188 -1.42187,-1.03125 -0.84379,-0.35938 -1.81254,-0.35938 -1.20312,0 -2.26562,0.59375 -1.04688,0.57813 -1.6875,1.64063 -0.625,1.0625 -0.625,2.45312 0,1.39063 0.625,2.46875 0.64062,1.0625 1.6875,1.64063 1.0625,0.57812 2.26562,0.57812 1.15629,0 1.92191,-0.35937 0.78125,-0.35938 1.34375,-0.95313 0.42188,-0.4375 0.67188,-1.0625 0.25,-0.64062 0.3125,-1.40625 h -4.23441 v -1.26562 h 5.50003 q 0.0781,0.45312 0.0781,0.82812 0,1.0625 -0.34375,2.0625 -0.32813,1 -1.0625,1.75 -1.57813,1.70313 -4.20316,1.70313 z M 331.12,456.16723 h 3.85937 q 0.95313,0 1.76563,0.4375 0.82812,0.42188 1.3125,1.20313 0.48437,0.76562 0.48437,1.75 0,0.96875 -0.48437,1.75 -0.48438,0.78125 -1.3125,1.21875 -0.8125,0.42187 -1.76563,0.42187 h -2.5 v 4.67188 H 331.12 Z m 3.89062,5.48438 q 0.64063,0 1.125,-0.29688 0.48438,-0.3125 0.75,-0.78125 0.28125,-0.48437 0.28125,-1.01562 0,-0.53125 -0.28125,-1 -0.26562,-0.48438 -0.75,-0.78125 -0.48437,-0.3125 -1.125,-0.3125 h -2.53125 v 4.1875 z m 9.26288,6.21875 q -1.23438,0 -2.20313,-0.5625 -0.95312,-0.5625 -1.48437,-1.57813 -0.51563,-1.01562 -0.51563,-2.34375 v -7.21875 h 1.35938 v 7.28125 q 0,1.39063 0.73437,2.26563 0.73438,0.85937 2.10938,0.85937 1.375,0 2.10937,-0.85937 0.75,-0.875 0.75,-2.26563 v -7.28125 h 1.35938 v 7.21875 q 0,1.32813 -0.5,2.35938 -0.5,1.01562 -1.46875,1.57812 -0.95313,0.54688 -2.25,0.54688 z" />
  </g>
  <g
     id="g81aefc8613_0_0.11"
     transform="translate(-93.21654,-180.93312)">
    <path
       style="fill:#ffffff;fill-rule:evenodd"
       inkscape:connector-curvature="0"
       id="path772"
       d="m 418.48596,438.83124 h 145.13385 v 45.85828 H 418.48596 Z" />
    <path
       style="fill-rule:evenodd;stroke:#666666;stroke-width:1;stroke-linecap:butt;stroke-linejoin:round"
       inkscape:connector-curvature="0"
       id="path774"
       d="m 418.48596,438.83124 h 145.13385 v 45.85828 H 418.48596 Z" />
    <path
       style="fill:#000000;fill-rule:nonzero"
       inkscape:connector-curvature="0"
       id="path776"
       d="m 480.54187,457.4641 h -3.20312 v -1.29688 h 7.76562 v 1.29688 h -3.20312 v 10.15625 h -1.35938 z m 6.26425,-1.29688 h 3.85938 q 0.95312,0 1.76562,0.4375 0.82813,0.42188 1.3125,1.20313 0.48438,0.76562 0.48438,1.75 0,0.96875 -0.48438,1.75 -0.48437,0.78125 -1.3125,1.21875 -0.8125,0.42187 -1.76562,0.42187 h -2.5 v 4.67188 h -1.35938 z m 3.89063,5.48438 q 0.64062,0 1.125,-0.29688 0.48437,-0.3125 0.75,-0.78125 0.28125,-0.48437 0.28125,-1.01562 0,-0.53125 -0.28125,-1 -0.26563,-0.48438 -0.75,-0.78125 -0.48438,-0.3125 -1.125,-0.3125 h -2.53125 v 4.1875 z m 9.26291,6.21875 q -1.23438,0 -2.20313,-0.5625 -0.95312,-0.5625 -1.48437,-1.57813 -0.51563,-1.01562 -0.51563,-2.34375 v -7.21875 h 1.35938 v 7.28125 q 0,1.39063 0.73437,2.26563 0.73438,0.85937 2.10938,0.85937 1.375,0 2.10937,-0.85937 0.75,-0.875 0.75,-2.26563 v -7.28125 h 1.35938 v 7.21875 q 0,1.32813 -0.5,2.35938 -0.5,1.01562 -1.46875,1.57812 -0.95313,0.54688 -2.25,0.54688 z" />
  </g>
  <g
     id="g81aefc8613_0_0.12"
     transform="translate(-93.21654,-180.93312)">
    <path
       style="fill:#ffffff;fill-rule:evenodd"
       inkscape:connector-curvature="0"
       id="path798"
       d="m 577.4153,438.83124 h 145.13385 v 45.85828 H 577.4153 Z" />
    <path
       style="fill-rule:evenodd;stroke:#666666;stroke-width:1;stroke-linecap:butt;stroke-linejoin:round"
       inkscape:connector-curvature="0"
       id="path800"
       d="m 577.4153,438.83124 h 145.13385 v 45.85828 H 577.4153 Z" />
    <path
       style="fill:#000000;fill-rule:nonzero"
       inkscape:connector-curvature="0"
       id="path802"
       d="m 626.9514,456.16724 h 1.96875 l 3.64063,9.39062 h 0.0625 l 3.65625,-9.39062 h 1.96875 v 11.45312 h -1.34375 v -7.28125 l 0.0625,-2.17187 h -0.0625 l -3.75,9.45312 h -1.10938 l -3.75,-9.45312 h -0.0625 l 0.0625,2.17187 v 7.28125 h -1.34375 z m 17.18042,11.70312 q -1.20312,0 -2.17187,-0.5625 -0.95313,-0.57812 -1.48438,-1.5625 -0.53125,-1 -0.53125,-2.20312 0,-1.20313 0.53125,-2.1875 0.53125,-1 1.48438,-1.57813 0.96875,-0.57812 2.17187,-0.57812 1.20313,0 2.15625,0.57812 0.96875,0.57813 1.5,1.57813 0.53125,0.98437 0.53125,2.1875 0,1.20312 -0.53125,2.20312 -0.53125,0.98438 -1.5,1.5625 -0.95312,0.5625 -2.15625,0.5625 z m 0,-1.21875 q 0.75,0 1.39063,-0.375 0.65625,-0.39062 1.04687,-1.09375 0.39063,-0.70312 0.39063,-1.64062 0,-0.95313 -0.39063,-1.65625 -0.39062,-0.70313 -1.04687,-1.07813 -0.64063,-0.375 -1.39063,-0.375 -0.75,0 -1.40625,0.375 -0.65625,0.375 -1.04687,1.07813 -0.39063,0.70312 -0.39063,1.65625 0,0.9375 0.39063,1.64062 0.39062,0.70313 1.04687,1.09375 0.65625,0.375 1.40625,0.375 z m 9.84662,1.21875 q -0.9375,0 -1.6875,-0.42187 -0.73438,-0.42188 -1.09375,-1.03125 h -0.0781 v 1.20312 h -1.28125 v -11.45312 h 1.35938 v 3.375 l -0.0781,1.14062 h 0.0781 q 0.35937,-0.625 1.09375,-1.04687 0.75,-0.4375 1.6875,-0.4375 1.09375,0 1.98437,0.5625 0.89063,0.5625 1.40625,1.5625 0.51563,0.98437 0.51563,2.21875 0,1.25 -0.51563,2.23437 -0.51562,0.98438 -1.40625,1.54688 -0.89062,0.54687 -1.98437,0.54687 z m -0.14063,-1.21875 q 0.70313,0 1.3125,-0.39062 0.625,-0.39063 1,-1.09375 0.375,-0.70313 0.375,-1.625 0,-0.9375 -0.375,-1.64063 -0.375,-0.70312 -1,-1.07812 -0.60937,-0.39063 -1.3125,-0.39063 -0.73437,0 -1.34375,0.39063 -0.60937,0.375 -1,1.07812 -0.375,0.70313 -0.375,1.64063 0,0.92187 0.375,1.625 0.39063,0.70312 1,1.09375 0.60938,0.39062 1.34375,0.39062 z m 6.34888,-8.6875 q -0.40625,0 -0.70312,-0.28125 -0.28125,-0.29687 -0.28125,-0.70312 0,-0.42188 0.28125,-0.6875 0.29687,-0.28125 0.70312,-0.28125 0.40625,0 0.6875,0.28125 0.28125,0.26562 0.28125,0.6875 0,0.40625 -0.28125,0.70312 -0.28125,0.28125 -0.6875,0.28125 z m -0.67187,1.5 h 1.35937 v 8.15625 h -1.35937 z m 3.49102,-3.29687 h 1.35938 v 11.45312 h -1.35938 z m 6.92102,11.70312 q -1.17187,0 -2.10937,-0.54687 -0.92188,-0.5625 -1.4375,-1.54688 -0.51563,-0.98437 -0.51563,-2.21875 0,-1.17187 0.48438,-2.17187 0.48437,-1 1.39062,-1.59375 0.90625,-0.59375 2.07813,-0.59375 1.20312,0 2.07812,0.54687 0.875,0.53125 1.34375,1.48438 0.48438,0.9375 0.48438,2.15625 0,0.1875 -0.0312,0.40625 h -6.46875 q 0.0469,0.9375 0.4375,1.57812 0.40625,0.64063 1.01562,0.96875 0.625,0.3125 1.29688,0.3125 1.59375,0 2.42187,-1.48437 l 1.14063,0.5625 q -0.5,0.98437 -1.42188,1.5625 -0.90625,0.57812 -2.1875,0.57812 z m 2.34375,-5.1875 q -0.0312,-0.51562 -0.28125,-1.03125 -0.25,-0.51562 -0.79687,-0.85937 -0.54688,-0.35938 -1.375,-0.35938 -0.96875,0 -1.64063,0.625 -0.67187,0.60938 -0.875,1.625 z" />
  </g>
  <path
     style="fill:#000000;fill-opacity:0;fill-rule:evenodd"
     inkscape:connector-curvature="0"
     id="path805"
     d="m 80.98294,235.10545 v 22.80316" />
  <path
     style="fill-rule:evenodd;stroke:#595959;stroke-width:2;stroke-linecap:butt;stroke-linejoin:round"
     inkscape:connector-curvature="0"
     id="path807"
     d="m 80.98294,235.10548 v 10.80313" />
  <path
     style="fill:#595959;fill-rule:evenodd;stroke:#595959;stroke-width:2;stroke-linecap:butt"
     inkscape:connector-curvature="0"
     id="path809"
     d="m 77.67947,245.90862 3.30347,9.0762 3.30346,-9.0762 z" />
  <path
     style="fill:#000000;fill-opacity:0;fill-rule:evenodd"
     inkscape:connector-curvature="0"
     id="path811"
     d="m 239.32942,235.10545 0.62991,22.80316" />
  <path
     style="fill-rule:evenodd;stroke:#595959;stroke-width:2;stroke-linecap:butt;stroke-linejoin:round"
     inkscape:connector-curvature="0"
     id="path813"
     d="m 239.32942,235.10548 0.29855,10.80774" />
  <path
     style="fill:#595959;fill-rule:evenodd;stroke:#595959;stroke-width:2;stroke-linecap:butt"
     inkscape:connector-curvature="0"
     id="path815"
     d="m 236.32576,246.00441 3.55283,8.98151 3.0516,-9.16394 z" />
  <path
     style="fill:#000000;fill-opacity:0;fill-rule:evenodd"
     inkscape:connector-curvature="0"
     id="path817"
     d="m 397.67589,235.10545 0.15747,22.80316" />
  <path
     style="fill-rule:evenodd;stroke:#595959;stroke-width:2;stroke-linecap:butt;stroke-linejoin:round"
     inkscape:connector-curvature="0"
     id="path819"
     d="m 397.67589,235.10548 0.0746,10.80344" />
  <path
     style="fill:#595959;fill-rule:evenodd;stroke:#595959;stroke-width:2;stroke-linecap:butt"
     inkscape:connector-curvature="0"
     id="path821"
     d="m 394.44713,245.93172 3.36606,9.05316 3.24069,-9.09878 z" />
  <path
     style="fill:#000000;fill-opacity:0;fill-rule:evenodd"
     inkscape:connector-curvature="0"
     id="path823"
     d="m 556.02236,235.10545 0.75592,22.80316" />
  <path
     style="fill-rule:evenodd;stroke:#595959;stroke-width:2;stroke-linecap:butt;stroke-linejoin:round"
     inkscape:connector-curvature="0"
     id="path825"
     d="m 556.02236,235.10548 0.35834,10.80975" />
  <path
     style="fill:#595959;fill-rule:evenodd;stroke:#595959;stroke-width:2;stroke-linecap:butt"
     inkscape:connector-curvature="0"
     id="path827"
     d="m 553.07906,246.02464 3.60236,8.96179 3.00091,-9.18066 z" />
  <path
     style="fill:#000000;fill-opacity:0;fill-rule:evenodd"
     inkscape:connector-curvature="0"
     id="path829"
     d="M 17.50354,73.69496 H 94.35393" />
  <path
     style="fill-rule:evenodd;stroke:#4285f4;stroke-width:2;stroke-linecap:butt;stroke-linejoin:round"
     inkscape:connector-curvature="0"
     id="path831"
     d="m 17.50354,73.69496 h 64.8504" />
  <path
     style="fill:#4285f4;fill-rule:evenodd;stroke:#4285f4;stroke-width:2;stroke-linecap:butt"
     inkscape:connector-curvature="0"
     id="path833"
     d="M 82.35394,76.99843 91.43013,73.69496 82.35394,70.3915 Z" />
  <path
     style="fill:#000000;fill-opacity:0;fill-rule:evenodd"
     inkscape:connector-curvature="0"
     id="path835"
     d="m 16.15354,107.17973 h 76.8504" />
  <path
     style="fill-rule:evenodd;stroke:#ff6f00;stroke-width:2;stroke-linecap:butt;stroke-linejoin:round"
     inkscape:connector-curvature="0"
     id="path837"
     d="m 16.15354,107.17973 h 64.8504" />
  <path
     style="fill:#ff6f00;fill-rule:evenodd;stroke:#ff6f00;stroke-width:2;stroke-linecap:butt"
     inkscape:connector-curvature="0"
     id="path839"
     d="m 81.00393,110.4832 9.07619,-3.30347 -9.07619,-3.30346 z" />
  <path
     style="fill:#000000;fill-opacity:0;fill-rule:evenodd"
     inkscape:connector-curvature="0"
     id="path841"
     d="m 357.16666,137.78093 -0.8819,40.6929" />
  <path
     style="fill-rule:evenodd;stroke:#4285f4;stroke-width:2;stroke-linecap:butt;stroke-linejoin:round"
     inkscape:connector-curvature="0"
     id="path843"
     d="m 357.16666,137.7809 -0.62189,28.69577" />
  <path
     style="fill:#4285f4;fill-rule:evenodd;stroke:#4285f4;stroke-width:2;stroke-linecap:butt"
     inkscape:connector-curvature="0"
     id="path845"
     d="m 353.24208,166.40508 3.10605,9.14563 3.49933,-9.00247 z" />
  <path
     style="fill:#d9d9d9;fill-rule:evenodd"
     inkscape:connector-curvature="0"
     id="path847"
     d="m 303.50844,141.41335 v 0 c 0,-6.29694 5.10465,-11.40158 11.40158,-11.40158 h 86.07874 c 3.02386,0 5.92392,1.20123 8.06213,3.33945 2.13821,2.13821 3.33945,5.03823 3.33945,8.06213 v 0 0 c 0,6.29691 -5.10468,11.40155 -11.40158,11.40155 h -86.07874 c -6.29693,0 -11.40158,-5.10465 -11.40158,-11.40155 z" />
  <path
     style="fill-rule:evenodd;stroke:#595959;stroke-width:1;stroke-linecap:butt;stroke-linejoin:round"
     inkscape:connector-curvature="0"
     id="path849"
     d="m 303.50844,141.41335 v 0 c 0,-6.29694 5.10465,-11.40158 11.40158,-11.40158 h 86.07874 c 3.02386,0 5.92392,1.20123 8.06213,3.33945 2.13821,2.13821 3.33945,5.03823 3.33945,8.06213 v 0 0 c 0,6.29691 -5.10468,11.40155 -11.40158,11.40155 h -86.07874 c -6.29693,0 -11.40158,-5.10465 -11.40158,-11.40155 z" />
  <path
     style="fill:#000000;fill-rule:nonzero"
     inkscape:connector-curvature="0"
     id="path851"
     d="m 324.17596,147.27333 v -10.10937 h -3.78125 v -1.34375 h 9.07812 v 1.34375 h -3.78125 v 10.10937 z m 6.92969,0 v -11.45312 h 7.73437 v 1.34375 h -6.21875 v 3.54687 h 5.375 v 1.35938 h -5.375 v 5.20312 z m 9.72656,0 v -11.45312 h 5.07812 q 1.53125,0 2.32813,0.3125 0.79687,0.29687 1.26562,1.07812 0.48438,0.78125 0.48438,1.73438 0,1.21875 -0.79688,2.0625 -0.78125,0.82812 -2.4375,1.04687 0.60938,0.29688 0.92188,0.57813 0.65625,0.60937 1.25,1.51562 l 2,3.125 h -1.90625 l -1.51563,-2.39062 q -0.67187,-1.03125 -1.10937,-1.57813 -0.42188,-0.54687 -0.76563,-0.76562 -0.32812,-0.21875 -0.6875,-0.29688 -0.25,-0.0625 -0.84375,-0.0625 h -1.75 v 5.09375 z m 1.51562,-6.40625 h 3.25 q 1.04688,0 1.625,-0.20312 0.59375,-0.21875 0.89063,-0.6875 0.3125,-0.48438 0.3125,-1.03125 0,-0.8125 -0.59375,-1.32813 -0.59375,-0.53125 -1.85938,-0.53125 h -3.625 z m 12.64063,6.40625 v -10.10937 h -3.78125 v -1.34375 h 9.07812 v 1.34375 h -3.78125 v 10.10937 z m 10.94531,0 v -11.45312 h 4.29688 q 1.3125,0 2.10937,0.34375 0.79688,0.34375 1.23438,1.07812 0.45312,0.71875 0.45312,1.5 0,0.73438 -0.40625,1.39063 -0.39062,0.64062 -1.1875,1.04687 1.03125,0.29688 1.59375,1.03125 0.5625,0.73438 0.5625,1.73438 0,0.8125 -0.34375,1.5 -0.34375,0.6875 -0.84375,1.0625 -0.5,0.375 -1.25,0.57812 -0.75,0.1875 -1.84375,0.1875 z m 1.51563,-6.64062 h 2.48437 q 1,0 1.4375,-0.14063 0.57813,-0.17187 0.875,-0.5625 0.29688,-0.40625 0.29688,-1 0,-0.57812 -0.28125,-1 -0.26563,-0.4375 -0.78125,-0.59375 -0.5,-0.17187 -1.73438,-0.17187 h -2.29687 z m 0,5.28125 h 2.85937 q 0.73438,0 1.03125,-0.0469 0.51563,-0.0937 0.85938,-0.3125 0.35937,-0.21875 0.57812,-0.64062 0.23438,-0.42188 0.23438,-0.96875 0,-0.64063 -0.32813,-1.10938 -0.32812,-0.46875 -0.90625,-0.65625 -0.57812,-0.20312 -1.67187,-0.20312 h -2.65625 z m 9.25,1.35937 v -11.45312 h 8.28125 v 1.34375 h -6.76563 v 3.51562 h 6.34375 v 1.34375 h -6.34375 v 3.89063 h 7.03125 v 1.35937 z m 10.71875,0 v -11.45312 h 7.73437 v 1.34375 h -6.21875 v 3.54687 h 5.375 v 1.35938 h -5.375 v 5.20312 z" />
  <path
     style="fill:#000000;fill-opacity:0;fill-rule:evenodd"
     inkscape:connector-curvature="0"
     id="path853"
     d="m 3.75984,114.19668 h 101.63779 v 25.51181 H 3.75984 Z" />
  <path
     style="fill:#434343;fill-rule:nonzero"
     inkscape:connector-curvature="0"
     id="path855"
     d="m 39.35147,133.56508 q -0.98438,-1.125 -1.6875,-2.71875 -0.6875,-1.59375 -0.6875,-3.39063 0,-1.79687 0.6875,-3.39062 0.70312,-1.59375 1.6875,-2.70313 l 0.8125,0.57813 q -0.90625,1.07812 -1.5,2.54687 -0.57813,1.45313 -0.57813,2.96875 0,1.53125 0.57813,2.98438 0.59375,1.45312 1.5,2.53125 z" />
  <path
     style="fill:#000000;fill-rule:nonzero"
     inkscape:connector-curvature="0"
     id="path857"
     d="m 41.50018,122.2057 h 3.42187 q 0.73438,0 1.35938,0.34375 0.64062,0.32812 1,0.92187 0.375,0.57813 0.375,1.3125 0,0.6875 -0.35938,1.21875 -0.34375,0.51563 -0.9375,0.79688 v 0.0469 q 0.71875,0.23438 1.17188,0.82813 0.45312,0.59375 0.45312,1.375 0,0.76562 -0.40625,1.39062 -0.39062,0.625 -1.04687,0.96875 -0.65625,0.34375 -1.42188,0.34375 h -3.60937 z m 3.42187,4.125 q 0.48438,0 0.84375,-0.21875 0.375,-0.21875 0.57813,-0.57813 0.20312,-0.35937 0.20312,-0.71875 0,-0.35937 -0.20312,-0.71875 -0.1875,-0.35937 -0.54688,-0.57812 -0.34375,-0.23438 -0.8125,-0.23438 H 42.6408 v 3.04688 z m 0.26563,4.34375 q 0.46875,0 0.84375,-0.23438 0.39062,-0.25 0.59375,-0.625 0.20312,-0.375 0.20312,-0.78125 0,-0.40625 -0.21875,-0.78125 -0.20312,-0.375 -0.59375,-0.60937 -0.375,-0.23438 -0.89062,-0.23438 H 42.6408 v 3.26563 z m 7.29556,1.29687 q -1,0 -1.79687,-0.48437 -0.79688,-0.48438 -1.25,-1.3125 -0.4375,-0.82813 -0.4375,-1.82813 0,-0.98437 0.4375,-1.8125 0.45312,-0.82812 1.25,-1.3125 0.79687,-0.48437 1.79687,-0.48437 1,0 1.79688,0.48437 0.8125,0.48438 1.25,1.3125 0.45312,0.82813 0.45312,1.8125 0,1 -0.45312,1.82813 -0.4375,0.82812 -1.25,1.3125 -0.79688,0.48437 -1.79688,0.48437 z m 0,-1.03125 q 0.625,0 1.15625,-0.3125 0.54688,-0.3125 0.875,-0.89062 0.32813,-0.59375 0.32813,-1.39063 0,-0.78125 -0.32813,-1.35937 -0.32812,-0.59375 -0.875,-0.90625 -0.53125,-0.3125 -1.15625,-0.3125 -0.625,0 -1.17187,0.3125 -0.54688,0.3125 -0.875,0.90625 -0.32813,0.57812 -0.32813,1.35937 0,0.79688 0.32813,1.39063 0.32812,0.57812 0.875,0.89062 0.54687,0.3125 1.17187,0.3125 z m 7.22791,0.92188 q -0.42188,0 -0.78125,-0.125 -0.34375,-0.14063 -0.57813,-0.375 -0.53125,-0.5 -0.53125,-1.39063 v -3.98437 h -1.1875 v -1.03125 h 1.1875 v -1.92188 h 1.125 v 1.92188 h 1.67188 v 1.03125 h -1.67188 v 3.70312 q 0,0.5625 0.21875,0.82813 0.25,0.28125 0.73438,0.28125 0.40625,0 0.75,-0.21875 v 1.10937 q -0.20313,0.0937 -0.42188,0.125 -0.20312,0.0469 -0.51562,0.0469 z m 2.33537,-9.65625 h 1.125 v 2.8125 l -0.0469,0.9375 h 0.0469 q 0.28125,-0.51563 0.89063,-0.85938 0.60937,-0.35937 1.32812,-0.35937 1.23438,0 1.89063,0.73437 0.65625,0.71875 0.65625,1.92188 v 4.35937 h -1.14063 v -4.1875 q 0,-0.92187 -0.46875,-1.35937 -0.45312,-0.4375 -1.20312,-0.4375 -0.53125,0 -0.98438,0.32812 -0.4375,0.3125 -0.70312,0.82813 -0.26563,0.5 -0.26563,1.04687 v 3.78125 h -1.125 z" />
  <path
     style="fill:#434343;fill-rule:nonzero"
     inkscape:connector-curvature="0"
     id="path859"
     d="m 68.98543,132.97133 q 0.90625,-1.07813 1.48437,-2.53125 0.59375,-1.45313 0.59375,-2.98438 0,-1.51562 -0.59375,-2.96875 -0.57812,-1.46875 -1.48437,-2.54687 l 0.82812,-0.57813 q 0.96875,1.10938 1.67188,2.70313 0.70312,1.59375 0.70312,3.39062 0,1.79688 -0.70312,3.39063 -0.70313,1.59375 -1.67188,2.71875 z" />
  <path
     style="fill:#000000;fill-opacity:0;fill-rule:evenodd"
     inkscape:connector-curvature="0"
     id="path861"
     d="M 18.10971,137.63905 H 94.9601" />
  <path
     style="fill-rule:evenodd;stroke:#000000;stroke-width:2;stroke-linecap:butt;stroke-linejoin:round"
     inkscape:connector-curvature="0"
     id="path863"
     d="M 18.10971,137.63905 H 82.9601" />
  <path
     style="fill:#000000;fill-rule:evenodd;stroke:#000000;stroke-width:2;stroke-linecap:butt"
     inkscape:connector-curvature="0"
     id="path865"
     d="m 82.9601,140.94252 9.07619,-3.30347 -9.07619,-3.30346 z" />
  <path
     style="fill:#000000;fill-opacity:0;fill-rule:evenodd"
     inkscape:connector-curvature="0"
     id="path867"
     d="m 240.33293,51.56819 -0.6929,122.83466" />
  <path
     style="fill-rule:evenodd;stroke:#ff6f00;stroke-width:2;stroke-linecap:butt;stroke-linejoin:round"
     inkscape:connector-curvature="0"
     id="path869"
     d="m 240.33293,51.56819 -0.62521,110.83484" />
  <path
     style="fill:#ff6f00;fill-rule:evenodd;stroke:#ff6f00;stroke-width:2;stroke-linecap:butt"
     inkscape:connector-curvature="0"
     id="path871"
     d="m 236.40431,162.38438 3.2522,9.0947 3.35461,-9.05741 z" />
</svg>
