<?xml version="1.0" encoding="UTF-8" standalone="no"?>
<svg
   xmlns:dc="http://purl.org/dc/elements/1.1/"
   xmlns:cc="http://creativecommons.org/ns#"
   xmlns:rdf="http://www.w3.org/1999/02/22-rdf-syntax-ns#"
   xmlns:svg="http://www.w3.org/2000/svg"
   xmlns="http://www.w3.org/2000/svg"
   xmlns:sodipodi="http://sodipodi.sourceforge.net/DTD/sodipodi-0.dtd"
   xmlns:inkscape="http://www.inkscape.org/namespaces/inkscape"
   version="1.1"
   viewBox="0 0 502.08499 189.34914"
   stroke-miterlimit="10"
   id="svg4069"
   sodipodi:docname="tfrt-arch.svg"
   width="502.08499"
   height="189.34914"
   style="fill:none;stroke:none;stroke-linecap:square;stroke-miterlimit:10"
   inkscape:version="0.92.4 (5da689c313, 2019-01-14)">
  <metadata
     id="metadata4075">
    <rdf:RDF>
      <cc:Work
         rdf:about="">
        <dc:format>image/svg+xml</dc:format>
        <dc:type
           rdf:resource="http://purl.org/dc/dcmitype/StillImage" />
      </cc:Work>
    </rdf:RDF>
  </metadata>
  <defs
     id="defs4073" />
  <sodipodi:namedview
     pagecolor="#ffffff"
     bordercolor="#666666"
     borderopacity="1"
     objecttolerance="10"
     gridtolerance="10"
     guidetolerance="10"
     inkscape:pageopacity="0"
     inkscape:pageshadow="2"
     inkscape:window-width="1920"
     inkscape:window-height="1002"
     id="namedview4071"
     showgrid="false"
     inkscape:zoom="1.0763737"
     inkscape:cx="172.47812"
     inkscape:cy="95.193529"
     inkscape:window-x="162"
     inkscape:window-y="0"
     inkscape:window-maximized="1"
     inkscape:current-layer="svg4069" />
  <clipPath
     id="p.0">
    <path
       d="M 0,0 H 960 V 540 H 0 Z"
       id="path3914"
       inkscape:connector-curvature="0"
       style="clip-rule:nonzero" />
  </clipPath>
  <path
     style="fill:#d9d9d9;fill-rule:evenodd"
     inkscape:connector-curvature="0"
     id="path3919"
     d="m 0.5,26.50707 v 0 C 0.5,16.90537 8.28369,9.12166 17.88541,9.12166 h 152.06381 c 4.6109,0 9.03295,1.83167 12.29333,5.09208 3.26041,3.26039 5.09207,7.68243 5.09207,12.29333 v 140.66225 c 0,9.60169 -7.78372,17.38541 -17.3854,17.38541 H 17.88541 v 0 C 8.28369,184.55473 0.5,176.771 0.5,167.16932 Z" />
  <path
     style="fill-rule:evenodd;stroke:#000000;stroke-width:1;stroke-linecap:butt;stroke-linejoin:round"
     inkscape:connector-curvature="0"
     id="path3921"
     d="m 0.5,26.50707 v 0 C 0.5,16.90537 8.28369,9.12166 17.88541,9.12166 h 152.06381 c 4.6109,0 9.03295,1.83167 12.29333,5.09208 3.26041,3.26039 5.09207,7.68243 5.09207,12.29333 v 140.66225 c 0,9.60169 -7.78372,17.38541 -17.3854,17.38541 H 17.88541 v 0 C 8.28369,184.55473 0.5,176.771 0.5,167.16932 Z" />
  <path
     style="fill:#000000;fill-rule:nonzero"
     inkscape:connector-curvature="0"
     id="path3923"
     d="m 21.87326,26.4668 h 1.26563 v 5.51562 q 0,1.4375 -0.32813,2.29688 -0.3125,0.84375 -1.17187,1.375 -0.84375,0.51562 -2.21875,0.51562 -1.34375,0 -2.20313,-0.45312 -0.84375,-0.46875 -1.21875,-1.34375 -0.35937,-0.875 -0.35937,-2.39063 V 26.4668 h 1.26562 v 5.51562 q 0,1.23438 0.21875,1.82813 0.23438,0.59375 0.79688,0.92187 0.5625,0.3125 1.39062,0.3125 1.39063,0 1.96875,-0.625 0.59375,-0.64062 0.59375,-2.4375 z m 2.75015,7.48437 1.15625,-0.1875 q 0.10938,0.70313 0.54688,1.07813 0.45312,0.35937 1.25,0.35937 0.8125,0 1.20312,-0.32812 0.39063,-0.32813 0.39063,-0.76563 0,-0.39062 -0.35938,-0.625 -0.23437,-0.15625 -1.1875,-0.39062 -1.29687,-0.32813 -1.79687,-0.5625 -0.48438,-0.25 -0.75,-0.65625 -0.25,-0.42188 -0.25,-0.9375 0,-0.45313 0.20312,-0.84375 0.21875,-0.40625 0.57813,-0.67188 0.28125,-0.1875 0.75,-0.32812 0.46875,-0.14063 1.01562,-0.14063 0.8125,0 1.42188,0.23438 0.60937,0.23437 0.90625,0.64062 0.29687,0.39063 0.40625,1.0625 l -1.14063,0.15625 q -0.0781,-0.53125 -0.45312,-0.82812 -0.375,-0.3125 -1.0625,-0.3125 -0.8125,0 -1.15625,0.26562 -0.34375,0.26563 -0.34375,0.625 0,0.23438 0.14062,0.42188 0.15625,0.1875 0.45313,0.3125 0.17187,0.0625 1.03125,0.29687 1.25,0.32813 1.73437,0.54688 0.5,0.20312 0.78125,0.60937 0.28125,0.40625 0.28125,1 0,0.59375 -0.34375,1.10938 -0.34375,0.51562 -1,0.79687 -0.64062,0.28125 -1.45312,0.28125 -1.34375,0 -2.04688,-0.5625 -0.70312,-0.5625 -0.90625,-1.65625 z m 11.86719,-0.15625 1.20313,0.14063 q -0.28125,1.0625 -1.0625,1.65625 -0.76563,0.57812 -1.96875,0.57812 -1.51563,0 -2.40625,-0.9375 -0.89063,-0.9375 -0.89063,-2.60937 0,-1.75 0.89063,-2.70313 0.90625,-0.96875 2.34375,-0.96875 1.39062,0 2.26562,0.9375 0.875,0.9375 0.875,2.65625 0,0.10938 0,0.3125 h -5.15625 q 0.0625,1.14063 0.64063,1.75 0.57812,0.59375 1.4375,0.59375 0.65625,0 1.10937,-0.32812 0.45313,-0.34375 0.71875,-1.07813 z m -3.84375,-1.90625 h 3.85938 q -0.0781,-0.85937 -0.4375,-1.29687 -0.5625,-0.6875 -1.45313,-0.6875 -0.8125,0 -1.35937,0.54687 -0.54688,0.53125 -0.60938,1.4375 z m 6.50623,4.125 v -6.90625 h 1.0625 v 1.04688 q 0.40625,-0.73438 0.73437,-0.96875 0.34375,-0.23438 0.76563,-0.23438 0.59375,0 1.20312,0.375 l -0.40625,1.07813 q -0.4375,-0.25 -0.85937,-0.25 -0.39063,0 -0.70313,0.23437 -0.29687,0.23438 -0.42187,0.64063 -0.20313,0.625 -0.20313,1.35937 v 3.625 z m 7.87573,-3.0625 1.20312,-0.10937 q 0.0781,0.71875 0.39063,1.1875 0.3125,0.45312 0.95312,0.73437 0.65625,0.28125 1.46875,0.28125 0.71875,0 1.26563,-0.21875 0.5625,-0.21875 0.82812,-0.57812 0.26563,-0.375 0.26563,-0.82813 0,-0.45312 -0.26563,-0.78125 -0.25,-0.32812 -0.84375,-0.5625 -0.39062,-0.15625 -1.70312,-0.46875 -1.3125,-0.3125 -1.84375,-0.59375 -0.67188,-0.35937 -1.01563,-0.89062 -0.32812,-0.53125 -0.32812,-1.1875 0,-0.71875 0.40625,-1.34375 0.40625,-0.625 1.1875,-0.95313 0.79687,-0.32812 1.76562,-0.32812 1.04688,0 1.85938,0.34375 0.8125,0.34375 1.25,1.01562 0.4375,0.65625 0.46875,1.48438 l -1.20313,0.0937 q -0.10937,-0.90625 -0.67187,-1.35938 -0.5625,-0.46875 -1.65625,-0.46875 -1.14063,0 -1.67188,0.42188 -0.51562,0.42187 -0.51562,1.01562 0,0.51563 0.35937,0.84375 0.375,0.32813 1.90625,0.6875 1.54688,0.34375 2.10938,0.59375 0.84375,0.39063 1.23437,0.98438 0.39063,0.57812 0.39063,1.35937 0,0.75 -0.4375,1.4375 -0.42188,0.67188 -1.25,1.04688 -0.8125,0.35937 -1.82813,0.35937 -1.29687,0 -2.17187,-0.375 -0.875,-0.375 -1.375,-1.125 -0.5,-0.76562 -0.53125,-1.71875 z m 13.68661,0.53125 1.15625,0.15625 q -0.1875,1.1875 -0.96875,1.85938 -0.78125,0.67187 -1.92187,0.67187 -1.40625,0 -2.28125,-0.92187 -0.85938,-0.9375 -0.85938,-2.65625 0,-1.125 0.375,-1.96875 0.375,-0.84375 1.125,-1.25 0.76563,-0.42188 1.65625,-0.42188 1.125,0 1.84375,0.57813 0.71875,0.5625 0.92188,1.60937 l -1.14063,0.17188 Q 60.4498,30.60742 60.02792,30.26367 59.62167,29.9043 59.04355,29.9043 q -0.89063,0 -1.45313,0.64062 -0.54687,0.64063 -0.54687,2 0,1.40625 0.53125,2.03125 0.54687,0.625 1.40625,0.625 0.6875,0 1.14062,-0.42187 0.46875,-0.42188 0.59375,-1.29688 z m 2.13282,2.53125 v -6.90625 h 1.0625 v 1.04688 q 0.40625,-0.73438 0.73437,-0.96875 0.34375,-0.23438 0.76563,-0.23438 0.59375,0 1.20312,0.375 l -0.40625,1.07813 q -0.4375,-0.25 -0.85937,-0.25 -0.39063,0 -0.70313,0.23437 -0.29687,0.23438 -0.42187,0.64063 -0.20313,0.625 -0.20313,1.35937 v 3.625 z m 4.46963,-8.1875 V 26.4668 h 1.17188 v 1.35937 z m 0,8.1875 v -6.90625 h 1.17188 v 6.90625 z m 2.94547,2.65625 v -9.5625 h 1.07812 v 0.89063 q 0.375,-0.53125 0.84375,-0.78125 0.48438,-0.26563 1.15625,-0.26563 0.875,0 1.54688,0.45313 0.6875,0.45312 1.03125,1.28125 0.34375,0.82812 0.34375,1.82812 0,1.04688 -0.375,1.90625 -0.375,0.84375 -1.10938,1.29688 -0.71875,0.45312 -1.53125,0.45312 -0.57812,0 -1.04687,-0.25 -0.46875,-0.25 -0.76563,-0.625 v 3.375 z m 1.0625,-6.07812 q 0,1.34375 0.53125,1.98437 0.54687,0.625 1.3125,0.625 0.78125,0 1.34375,-0.65625 0.5625,-0.65625 0.5625,-2.04687 0,-1.3125 -0.54688,-1.96875 -0.54687,-0.67188 -1.29687,-0.67188 -0.75,0 -1.32813,0.70313 -0.57812,0.70312 -0.57812,2.03125 z m 8.91247,2.375 0.17188,1.03125 q -0.5,0.10937 -0.89063,0.10937 -0.64062,0 -1,-0.20312 -0.34375,-0.20313 -0.48437,-0.53125 -0.14063,-0.32813 -0.14063,-1.39063 v -3.96875 h -0.85937 v -0.90625 h 0.85937 v -1.71875 l 1.17188,-0.70312 v 2.42187 h 1.17187 v 0.90625 h -1.17187 v 4.04688 q 0,0.5 0.0469,0.64062 0.0625,0.14063 0.20313,0.23438 0.14062,0.0781 0.40625,0.0781 0.20312,0 0.51562,-0.0469 z" />
  <path
     style="fill:#f9cb9c;fill-rule:evenodd"
     inkscape:connector-curvature="0"
     id="path3925"
     d="m 19.85565,55.93488 v 0 c 0,-7.41933 6.01456,-13.4339 13.4339,-13.4339 H 165.2879 c 3.5629,0 6.97986,1.41536 9.49921,3.93471 2.51931,2.51933 3.93469,5.93631 3.93469,9.49919 v 108.69125 c 0,7.41934 -6.01456,13.4339 -13.4339,13.4339 H 33.28955 c -7.41934,0 -13.4339,-6.01456 -13.4339,-13.4339 z" />
  <path
     style="fill-rule:evenodd;stroke:#000000;stroke-width:1;stroke-linecap:butt;stroke-linejoin:round"
     inkscape:connector-curvature="0"
     id="path3927"
     d="m 19.85565,55.93488 v 0 c 0,-7.41933 6.01456,-13.4339 13.4339,-13.4339 H 165.2879 c 3.5629,0 6.97986,1.41536 9.49921,3.93471 2.51931,2.51933 3.93469,5.93631 3.93469,9.49919 v 108.69125 c 0,7.41934 -6.01456,13.4339 -13.4339,13.4339 H 33.28955 c -7.41934,0 -13.4339,-6.01456 -13.4339,-13.4339 z" />
  <path
     style="fill:#000000;fill-rule:nonzero"
     inkscape:connector-curvature="0"
     id="path3929"
     d="m 45.33585,61.23563 v -8.42188 h -3.14063 v -1.125 h 7.5625 v 1.125 h -3.15625 v 8.42188 z m 5.78198,0 v -9.54688 h 6.4375 v 1.125 h -5.17187 v 2.96875 h 4.46875 v 1.125 h -4.46875 v 4.32813 z m 11.78183,0 v -9.54688 h 3.59375 q 0.95313,0 1.45313,0.0937 0.70312,0.125 1.17187,0.45313 0.48438,0.32812 0.76563,0.92187 0.29687,0.59375 0.29687,1.29688 0,1.21875 -0.78125,2.0625 -0.76562,0.84375 -2.79687,0.84375 h -2.4375 v 3.875 z m 1.26563,-5 h 2.45312 q 1.23438,0 1.75,-0.45313 0.51563,-0.46875 0.51563,-1.28125 0,-0.60937 -0.3125,-1.03125 -0.29688,-0.42187 -0.79688,-0.5625 -0.3125,-0.0937 -1.17187,-0.0937 h -2.4375 z m 7.42102,7.65625 -0.125,-1.09375 q 0.375,0.10937 0.65625,0.10937 0.39062,0 0.625,-0.14062 0.23437,-0.125 0.39062,-0.35938 0.10938,-0.17187 0.35938,-0.875 0.0312,-0.0937 0.10937,-0.28125 l -2.625,-6.92187 h 1.26563 l 1.4375,4 q 0.28125,0.76562 0.5,1.59375 0.20312,-0.79688 0.46875,-1.57813 l 1.48437,-4.01562 h 1.17188 l -2.625,7.01562 q -0.42188,1.14063 -0.65625,1.57813 -0.3125,0.57812 -0.71875,0.84375 -0.40625,0.28125 -0.96875,0.28125 -0.32813,0 -0.75,-0.15625 z m 9.27344,-3.70313 0.17187,1.03125 q -0.5,0.10938 -0.89062,0.10938 -0.64063,0 -1,-0.20313 Q 78.79725,60.92313 78.65662,60.595 78.516,60.26688 78.516,59.20438 V 55.23563 H 77.65662 V 54.32938 H 78.516 v -1.71875 l 1.17187,-0.70313 v 2.42188 h 1.17188 v 0.90625 h -1.17188 v 4.04687 q 0,0.5 0.0469,0.64063 0.0625,0.14062 0.20312,0.23437 0.14063,0.0781 0.40625,0.0781 0.20313,0 0.51563,-0.0469 z m 1.14047,1.04688 v -9.54688 h 1.17187 v 3.42188 q 0.82813,-0.9375 2.07813,-0.9375 0.76562,0 1.32812,0.29687 0.5625,0.29688 0.8125,0.84375 0.25,0.53125 0.25,1.54688 v 4.375 h -1.17187 v -4.375 q 0,-0.89063 -0.39063,-1.28125 -0.375,-0.40625 -1.07812,-0.40625 -0.51563,0 -0.98438,0.28125 -0.45312,0.26562 -0.65625,0.73437 -0.1875,0.45313 -0.1875,1.26563 v 3.78125 z m 6.97497,-3.45313 q 0,-1.92187 1.07813,-2.84375 0.89062,-0.76562 2.17187,-0.76562 1.42188,0 2.32813,0.9375 0.90625,0.92187 0.90625,2.57812 0,1.32813 -0.40625,2.09375 -0.39063,0.76563 -1.15625,1.1875 -0.76563,0.42188 -1.67188,0.42188 -1.45312,0 -2.35937,-0.92188 -0.89063,-0.9375 -0.89063,-2.6875 z m 1.20313,0 q 0,1.32813 0.57812,1.98438 0.59375,0.65625 1.46875,0.65625 0.875,0 1.45313,-0.65625 0.57812,-0.67188 0.57812,-2.03125 0,-1.28125 -0.59375,-1.9375 -0.57812,-0.65625 -1.4375,-0.65625 -0.875,0 -1.46875,0.65625 -0.57812,0.65625 -0.57812,1.98437 z m 6.64685,3.45313 v -6.90625 h 1.0625 v 0.98437 q 0.75,-1.14062 2.1875,-1.14062 0.625,0 1.15625,0.21875 0.53125,0.21875 0.78125,0.59375 0.26562,0.35937 0.375,0.85937 0.0625,0.32813 0.0625,1.14063 v 4.25 h -1.17188 V 57.0325 q 0,-0.71875 -0.14062,-1.0625 -0.14063,-0.35937 -0.48438,-0.5625 -0.34375,-0.21875 -0.8125,-0.21875 -0.75,0 -1.29687,0.46875 -0.54688,0.46875 -0.54688,1.79688 v 3.78125 z m 11.28735,0 v -9.54688 h 4.23438 q 1.26562,0 1.92187,0.26563 0.67188,0.25 1.0625,0.90625 0.40625,0.65625 0.40625,1.4375 0,1.01562 -0.65625,1.71875 -0.65625,0.6875 -2.03125,0.875 0.5,0.25 0.76563,0.48437 0.54687,0.5 1.04687,1.26563 l 1.65625,2.59375 h -1.57812 l -1.26563,-1.98438 q -0.5625,-0.85937 -0.92187,-1.3125 -0.34375,-0.45312 -0.64063,-0.64062 -0.28125,-0.1875 -0.5625,-0.25 -0.21875,-0.0469 -0.70312,-0.0469 h -1.46875 v 4.23438 z m 1.26563,-5.32813 h 2.71875 q 0.85937,0 1.34375,-0.17187 0.48437,-0.1875 0.73437,-0.57813 0.26563,-0.39062 0.26563,-0.85937 0,-0.67188 -0.5,-1.10938 -0.48438,-0.4375 -1.54688,-0.4375 h -3.01562 z m 12.7189,5.32813 V 60.22 q -0.8125,1.17188 -2.1875,1.17188 -0.60937,0 -1.14062,-0.23438 -0.53125,-0.23437 -0.79688,-0.57812 -0.25,-0.35938 -0.35937,-0.875 -0.0625,-0.34375 -0.0625,-1.09375 v -4.28125 h 1.17187 v 3.82812 q 0,0.92188 0.0625,1.23438 0.10938,0.46875 0.46875,0.73437 0.35938,0.25 0.89063,0.25 0.51562,0 0.98437,-0.26562 0.46875,-0.26563 0.65625,-0.73438 0.1875,-0.46875 0.1875,-1.34375 v -3.70312 h 1.17188 v 6.90625 z m 2.88123,0 v -6.90625 h 1.0625 v 0.98437 q 0.75,-1.14062 2.1875,-1.14062 0.625,0 1.15625,0.21875 0.53125,0.21875 0.78125,0.59375 0.26562,0.35937 0.375,0.85937 0.0625,0.32813 0.0625,1.14063 v 4.25 H 129.4314 V 57.0325 q 0,-0.71875 -0.14062,-1.0625 -0.14063,-0.35937 -0.48438,-0.5625 -0.34375,-0.21875 -0.8125,-0.21875 -0.75,0 -1.29687,0.46875 -0.54688,0.46875 -0.54688,1.79688 v 3.78125 z m 9.97497,-1.04688 0.17188,1.03125 q -0.5,0.10938 -0.89063,0.10938 -0.64062,0 -1,-0.20313 -0.34375,-0.20312 -0.48437,-0.53125 -0.14063,-0.32812 -0.14063,-1.39062 v -3.96875 h -0.85937 v -0.90625 h 0.85937 v -1.71875 l 1.17188,-0.70313 v 2.42188 h 1.17187 v 0.90625 h -1.17187 v 4.04687 q 0,0.5 0.0469,0.64063 0.0625,0.14062 0.20313,0.23437 0.14062,0.0781 0.40625,0.0781 0.20312,0 0.51562,-0.0469 z m 1.1561,-7.14062 v -1.35938 h 1.17187 v 1.35938 z m 0,8.1875 v -6.90625 h 1.17187 v 6.90625 z m 2.94546,0 v -6.90625 h 1.04688 v 0.96875 q 0.32812,-0.51563 0.85937,-0.8125 0.54688,-0.3125 1.23438,-0.3125 0.78125,0 1.26562,0.3125 0.48438,0.3125 0.6875,0.89062 0.82813,-1.20312 2.14063,-1.20312 1.03125,0 1.57812,0.57812 0.5625,0.5625 0.5625,1.73438 v 4.75 h -1.17187 v -4.35938 q 0,-0.70312 -0.125,-1 -0.10938,-0.3125 -0.40625,-0.5 -0.29688,-0.1875 -0.70313,-0.1875 -0.71875,0 -1.20312,0.48438 -0.48438,0.48437 -0.48438,1.54687 v 4.01563 h -1.17187 v -4.48438 q 0,-0.78125 -0.29688,-1.17187 -0.28125,-0.39063 -0.92187,-0.39063 -0.5,0 -0.92188,0.26563 -0.42187,0.25 -0.60937,0.75 -0.1875,0.5 -0.1875,1.45312 v 3.57813 z m 15.83683,-2.21875 1.20312,0.14062 q -0.28125,1.0625 -1.0625,1.65625 -0.76562,0.57813 -1.96875,0.57813 -1.51562,0 -2.40625,-0.9375 -0.89062,-0.9375 -0.89062,-2.60938 0,-1.75 0.89062,-2.70312 0.90625,-0.96875 2.34375,-0.96875 1.39063,0 2.26563,0.9375 0.875,0.9375 0.875,2.65625 0,0.10937 0,0.3125 h -5.15625 q 0.0625,1.14062 0.64062,1.75 0.57813,0.59375 1.4375,0.59375 0.65625,0 1.10938,-0.32813 0.45312,-0.34375 0.71875,-1.07812 z m -3.84375,-1.90625 h 3.85937 q -0.0781,-0.85938 -0.4375,-1.29688 -0.5625,-0.6875 -1.45312,-0.6875 -0.8125,0 -1.35938,0.54688 -0.54687,0.53125 -0.60937,1.4375 z" />
  <path
     style="fill:#000000;fill-opacity:0;fill-rule:evenodd"
     inkscape:connector-curvature="0"
     id="path3931"
     d="m 170.81282,127.91221 128.6614,41.03937" />
  <path
     style="fill-rule:evenodd;stroke:#000000;stroke-width:3;stroke-linecap:butt;stroke-linejoin:round"
     inkscape:connector-curvature="0"
     id="path3933"
     d="m 180.60785,131.03653 109.07132,34.79071" />
  <path
     style="fill:#000000;fill-rule:evenodd;stroke:#000000;stroke-width:3;stroke-linecap:butt"
     inkscape:connector-curvature="0"
     id="path3935"
     d="m 180.60785,131.03653 4.23944,-2.18896 -9.8562,0.3974 7.80572,6.031 z" />
  <path
     style="fill:#000000;fill-rule:evenodd;stroke:#000000;stroke-width:3;stroke-linecap:butt"
     inkscape:connector-curvature="0"
     id="path3937"
     d="m 289.67917,165.82724 -4.23944,2.18896 9.8562,-0.39736 -7.80573,-6.03104 z" />
  <path
     style="fill:#000000;fill-opacity:0;fill-rule:evenodd"
     inkscape:connector-curvature="0"
     id="path3939"
     d="m 170.81282,151.52738 128.6614,36.28345" />
  <path
     style="fill-rule:evenodd;stroke:#000000;stroke-width:3;stroke-linecap:butt;stroke-linejoin:round"
     inkscape:connector-curvature="0"
     id="path3941"
     d="m 180.7081,154.31793 108.87085,30.70233" />
  <path
     style="fill:#000000;fill-rule:evenodd;stroke:#000000;stroke-width:3;stroke-linecap:butt"
     inkscape:connector-curvature="0"
     id="path3943"
     d="m 180.7081,154.31793 4.16281,-2.33142 -9.83703,0.73123 8.00564,5.763 z" />
  <path
     style="fill:#000000;fill-rule:evenodd;stroke:#000000;stroke-width:3;stroke-linecap:butt"
     inkscape:connector-curvature="0"
     id="path3945"
     d="m 289.57889,185.02031 -4.16278,2.33139 9.83704,-0.73123 -8.00562,-5.76297 z" />
  <path
     style="fill:#000000;fill-opacity:0;fill-rule:evenodd"
     inkscape:connector-curvature="0"
     id="path3947"
     d="m 300.80747,159.31854 h 68.09448 v 20.69293 h -68.09448 z" />
  <path
     style="fill:#000000;fill-rule:nonzero"
     inkscape:connector-curvature="0"
     id="path3949"
     d="m 311.49497,186.23856 v -1.875 h 1.875 v 1.875 z m 5.18329,0 v -1.875 h 1.875 v 1.875 z m 5.18335,0 v -1.875 h 1.875 v 1.875 z" />
  <path
     style="fill:#000000;fill-opacity:0;fill-rule:evenodd"
     inkscape:connector-curvature="0"
     id="path3951"
     d="m 406.27396,132.21713 h 95.81103 v 26.01575 h -95.81103 z" />
  <path
     style="fill:#000000;fill-rule:nonzero"
     inkscape:connector-curvature="0"
     id="path3953"
     d="m 417.12752,154.01715 3.65625,-9.54688 h 1.35938 l 3.90625,9.54688 h -1.4375 l -1.10938,-2.89063 h -3.98437 l -1.04688,2.89063 z m 2.75,-3.92188 h 3.23438 l -1,-2.64062 q -0.45313,-1.20313 -0.67188,-1.96875 -0.1875,0.90625 -0.51562,1.8125 z m 11.54602,1.39063 1.15625,0.15625 q -0.1875,1.1875 -0.96875,1.85937 -0.78125,0.67188 -1.92187,0.67188 -1.40625,0 -2.28125,-0.92188 -0.85938,-0.9375 -0.85938,-2.65625 0,-1.125 0.375,-1.96875 0.375,-0.84375 1.125,-1.25 0.76563,-0.42187 1.65625,-0.42187 1.125,0 1.84375,0.57812 0.71875,0.5625 0.92188,1.60938 l -1.14063,0.17187 q -0.17187,-0.70312 -0.59375,-1.04687 -0.40625,-0.35938 -0.98437,-0.35938 -0.89063,0 -1.45313,0.64063 -0.54687,0.64062 -0.54687,2 0,1.40625 0.53125,2.03125 0.54687,0.625 1.40625,0.625 0.6875,0 1.14062,-0.42188 0.46875,-0.42187 0.59375,-1.29687 z m 6.66406,0 1.15625,0.15625 q -0.1875,1.1875 -0.96875,1.85937 -0.78125,0.67188 -1.92187,0.67188 -1.40625,0 -2.28125,-0.92188 -0.85938,-0.9375 -0.85938,-2.65625 0,-1.125 0.375,-1.96875 0.375,-0.84375 1.125,-1.25 0.76563,-0.42187 1.65625,-0.42187 1.125,0 1.84375,0.57812 0.71875,0.5625 0.92188,1.60938 l -1.14063,0.17187 q -0.17187,-0.70312 -0.59375,-1.04687 -0.40625,-0.35938 -0.98437,-0.35938 -0.89063,0 -1.45313,0.64063 -0.54687,0.64062 -0.54687,2 0,1.40625 0.53125,2.03125 0.54687,0.625 1.40625,0.625 0.6875,0 1.14062,-0.42188 0.46875,-0.42187 0.59375,-1.29687 z m 6.88282,0.3125 1.20312,0.14062 q -0.28125,1.0625 -1.0625,1.65625 -0.76562,0.57813 -1.96875,0.57813 -1.51562,0 -2.40625,-0.9375 -0.89062,-0.9375 -0.89062,-2.60938 0,-1.75 0.89062,-2.70312 0.90625,-0.96875 2.34375,-0.96875 1.39063,0 2.26563,0.9375 0.875,0.9375 0.875,2.65625 0,0.10937 0,0.3125 h -5.15625 q 0.0625,1.14062 0.64062,1.75 0.57813,0.59375 1.4375,0.59375 0.65625,0 1.10938,-0.32813 0.45312,-0.34375 0.71875,-1.07812 z m -3.84375,-1.90625 h 3.85937 q -0.0781,-0.85938 -0.4375,-1.29688 -0.5625,-0.6875 -1.45312,-0.6875 -0.8125,0 -1.35938,0.54688 -0.54687,0.53125 -0.60937,1.4375 z m 6.50622,4.125 v -9.54688 h 1.17188 v 9.54688 z m 7.71106,-2.21875 1.20313,0.14062 q -0.28125,1.0625 -1.0625,1.65625 -0.76563,0.57813 -1.96875,0.57813 -1.51563,0 -2.40625,-0.9375 -0.89063,-0.9375 -0.89063,-2.60938 0,-1.75 0.89063,-2.70312 0.90625,-0.96875 2.34375,-0.96875 1.39062,0 2.26562,0.9375 0.875,0.9375 0.875,2.65625 0,0.10937 0,0.3125 h -5.15625 q 0.0625,1.14062 0.64063,1.75 0.57812,0.59375 1.4375,0.59375 0.65625,0 1.10937,-0.32813 0.45313,-0.34375 0.71875,-1.07812 z m -3.84375,-1.90625 h 3.85938 q -0.0781,-0.85938 -0.4375,-1.29688 -0.5625,-0.6875 -1.45313,-0.6875 -0.8125,0 -1.35937,0.54688 -0.54688,0.53125 -0.60938,1.4375 z m 6.50623,4.125 v -6.90625 h 1.0625 v 1.04687 q 0.40625,-0.73437 0.73437,-0.96875 0.34375,-0.23437 0.76563,-0.23437 0.59375,0 1.20312,0.375 l -0.40625,1.07812 q -0.4375,-0.25 -0.85937,-0.25 -0.39063,0 -0.70313,0.23438 -0.29687,0.23437 -0.42187,0.64062 -0.20313,0.625 -0.20313,1.35938 v 3.625 z m 8.9696,-0.85938 q -0.65625,0.5625 -1.26562,0.79688 -0.59375,0.21875 -1.28125,0.21875 -1.14063,0 -1.75,-0.54688 -0.60938,-0.5625 -0.60938,-1.4375 0,-0.5 0.21875,-0.92187 0.23438,-0.42188 0.60938,-0.67188 0.375,-0.25 0.84375,-0.39062 0.34375,-0.0781 1.04687,-0.17188 1.42188,-0.17187 2.09375,-0.40625 0,-0.23437 0,-0.29687 0,-0.71875 -0.32812,-1.01563 -0.45313,-0.39062 -1.34375,-0.39062 -0.8125,0 -1.21875,0.29687 -0.39063,0.28125 -0.57813,1.01563 l -1.14062,-0.15625 q 0.15625,-0.73438 0.51562,-1.1875 0.35938,-0.45313 1.03125,-0.6875 0.67188,-0.25 1.5625,-0.25 0.89063,0 1.4375,0.20312 0.5625,0.20313 0.8125,0.53125 0.26563,0.3125 0.375,0.79688 0.0469,0.29687 0.0469,1.07812 v 1.5625 q 0,1.625 0.0781,2.0625 0.0781,0.4375 0.29688,0.82813 h -1.21875 q -0.1875,-0.35938 -0.23438,-0.85938 z m -0.0937,-2.60937 q -0.64062,0.26562 -1.92187,0.4375 -0.71875,0.10937 -1.01563,0.25 -0.29687,0.125 -0.46875,0.375 -0.15625,0.25 -0.15625,0.54687 0,0.46875 0.34375,0.78125 0.35938,0.3125 1.04688,0.3125 0.67187,0 1.20312,-0.29687 0.53125,-0.29688 0.78125,-0.8125 0.1875,-0.39063 0.1875,-1.17188 z m 5.5531,2.42187 0.17188,1.03125 q -0.5,0.10938 -0.89063,0.10938 -0.64062,0 -1,-0.20313 -0.34375,-0.20312 -0.48437,-0.53125 -0.14063,-0.32812 -0.14063,-1.39062 v -3.96875 h -0.85937 v -0.90625 h 0.85937 v -1.71875 l 1.17188,-0.70313 v 2.42188 h 1.17187 v 0.90625 h -1.17187 v 4.04687 q 0,0.5 0.0469,0.64063 0.0625,0.14062 0.20313,0.23437 0.14062,0.0781 0.40625,0.0781 0.20312,0 0.51562,-0.0469 z m 0.703,-2.40625 q 0,-1.92187 1.07813,-2.84375 0.89062,-0.76562 2.17187,-0.76562 1.42188,0 2.32813,0.9375 0.90625,0.92187 0.90625,2.57812 0,1.32813 -0.40625,2.09375 -0.39063,0.76563 -1.15625,1.1875 -0.76563,0.42188 -1.67188,0.42188 -1.45312,0 -2.35937,-0.92188 -0.89063,-0.9375 -0.89063,-2.6875 z m 1.20313,0 q 0,1.32813 0.57812,1.98438 0.59375,0.65625 1.46875,0.65625 0.875,0 1.45313,-0.65625 0.57812,-0.67188 0.57812,-2.03125 0,-1.28125 -0.59375,-1.9375 -0.57812,-0.65625 -1.4375,-0.65625 -0.875,0 -1.46875,0.65625 -0.57812,0.65625 -0.57812,1.98437 z m 6.63122,3.45313 v -6.90625 h 1.0625 v 1.04687 q 0.40625,-0.73437 0.73438,-0.96875 0.34375,-0.23437 0.76562,-0.23437 0.59375,0 1.20313,0.375 l -0.40625,1.07812 q -0.4375,-0.25 -0.85938,-0.25 -0.39062,0 -0.70312,0.23438 -0.29688,0.23437 -0.42188,0.64062 -0.20312,0.625 -0.20312,1.35938 v 3.625 z m 3.98523,-2.0625 1.15625,-0.1875 q 0.10938,0.70312 0.54688,1.07812 0.45312,0.35938 1.25,0.35938 0.8125,0 1.20312,-0.32813 0.39063,-0.32812 0.39063,-0.76562 0,-0.39063 -0.35938,-0.625 -0.23437,-0.15625 -1.1875,-0.39063 -1.29687,-0.32812 -1.79687,-0.5625 -0.48438,-0.25 -0.75,-0.65625 -0.25,-0.42187 -0.25,-0.9375 0,-0.45312 0.20312,-0.84375 0.21875,-0.40625 0.57813,-0.67187 0.28125,-0.1875 0.75,-0.32813 0.46875,-0.14062 1.01562,-0.14062 0.8125,0 1.42188,0.23437 0.60937,0.23438 0.90625,0.64063 0.29687,0.39062 0.40625,1.0625 l -1.14063,0.15625 q -0.0781,-0.53125 -0.45312,-0.82813 -0.375,-0.3125 -1.0625,-0.3125 -0.8125,0 -1.15625,0.26563 -0.34375,0.26562 -0.34375,0.625 0,0.23437 0.14062,0.42187 0.15625,0.1875 0.45313,0.3125 0.17187,0.0625 1.03125,0.29688 1.25,0.32812 1.73437,0.54687 0.5,0.20313 0.78125,0.60938 0.28125,0.40625 0.28125,1 0,0.59375 -0.34375,1.10937 -0.34375,0.51563 -1,0.79688 -0.64062,0.28125 -1.45312,0.28125 -1.34375,0 -2.04688,-0.5625 -0.70312,-0.5625 -0.90625,-1.65625 z" />
  <path
     style="fill:#d9d9d9;fill-rule:evenodd"
     inkscape:connector-curvature="0"
     id="path3955"
     d="m 290.69232,7.63832 v 0 c 0,-3.94238 3.19592,-7.13832 7.13831,-7.13832 h 110.79419 c 1.89325,0 3.70886,0.75207 5.04754,2.09077 1.33875,1.33869 2.09082,3.15435 2.09082,5.04755 v 57.75485 c 0,3.94238 -3.19598,7.13832 -7.13836,7.13832 H 297.83063 c -3.94239,0 -7.13831,-3.19594 -7.13831,-7.13832 z" />
  <path
     style="fill-rule:evenodd;stroke:#000000;stroke-width:1;stroke-linecap:butt;stroke-linejoin:round"
     inkscape:connector-curvature="0"
     id="path3957"
     d="m 290.69232,7.63832 v 0 c 0,-3.94238 3.19592,-7.13832 7.13831,-7.13832 h 110.79419 c 1.89325,0 3.70886,0.75207 5.04754,2.09077 1.33875,1.33869 2.09082,3.15435 2.09082,5.04755 v 57.75485 c 0,3.94238 -3.19598,7.13832 -7.13836,7.13832 H 297.83063 c -3.94239,0 -7.13831,-3.19594 -7.13831,-7.13832 z" />
  <path
     style="fill:#000000;fill-rule:nonzero"
     inkscape:connector-curvature="0"
     id="path3959"
     d="m 295.20487,67.96076 -2.28125,-8.59375 h 1.17188 l 1.3125,5.64062 q 0.20312,0.875 0.35937,1.75 0.32813,-1.375 0.39063,-1.59375 l 1.625,-5.79687 h 1.375 l 1.23437,4.34375 q 0.45313,1.625 0.67188,3.04687 0.15625,-0.8125 0.42187,-1.875 l 1.34375,-5.51562 h 1.14063 l -2.34375,8.59375 h -1.10938 l -1.79687,-6.54688 q -0.23438,-0.8125 -0.28125,-1 -0.125,0.57813 -0.25,1 l -1.8125,6.54688 z m 9.09375,-3.10938 q 0,-1.73437 0.95313,-2.5625 0.79687,-0.6875 1.95312,-0.6875 1.28125,0 2.09375,0.84375 0.82813,0.82813 0.82813,2.3125 0,1.20313 -0.35938,1.89063 -0.35937,0.6875 -1.0625,1.07812 -0.6875,0.375 -1.5,0.375 -1.29687,0 -2.10937,-0.82812 -0.79688,-0.84375 -0.79688,-2.42188 z m 1.07813,0 q 0,1.1875 0.51562,1.78125 0.53125,0.59375 1.3125,0.59375 0.79688,0 1.3125,-0.59375 0.51563,-0.59375 0.51563,-1.8125 0,-1.15625 -0.53125,-1.75 -0.51563,-0.59375 -1.29688,-0.59375 -0.78125,0 -1.3125,0.59375 -0.51562,0.57813 -0.51562,1.78125 z m 5.9707,3.10938 v -6.21875 h 0.95312 v 0.9375 q 0.35938,-0.65625 0.65625,-0.85938 0.3125,-0.21875 0.6875,-0.21875 0.53125,0 1.07813,0.32813 l -0.35938,0.98437 q -0.39062,-0.23437 -0.76562,-0.23437 -0.35938,0 -0.64063,0.21875 -0.26562,0.20312 -0.375,0.57812 -0.1875,0.5625 -0.1875,1.21875 v 3.26563 z m 4.01172,0 v -8.59375 h 1.0625 v 4.90625 l 2.48437,-2.53125 h 1.375 l -2.39062,2.29687 2.625,3.92188 h -1.29688 l -2.0625,-3.1875 -0.73437,0.71875 v 2.46875 z m 10.25,-2 1.09375,0.125 q -0.25,0.95312 -0.95313,1.48437 -0.70312,0.53125 -1.78125,0.53125 -1.35937,0 -2.17187,-0.84375 -0.79688,-0.84375 -0.79688,-2.35937 0,-1.5625 0.8125,-2.42188 0.8125,-0.875 2.09375,-0.875 1.25,0 2.03125,0.84375 0.79688,0.84375 0.79688,2.39063 0,0.0937 0,0.28125 h -4.64063 q 0.0625,1.03125 0.57813,1.57812 0.51562,0.53125 1.29687,0.53125 0.57813,0 0.98438,-0.29687 0.42187,-0.3125 0.65625,-0.96875 z m -3.45313,-1.70313 h 3.46875 q -0.0625,-0.79687 -0.39062,-1.1875 -0.51563,-0.60937 -1.3125,-0.60937 -0.73438,0 -1.23438,0.48437 -0.48437,0.48438 -0.53125,1.3125 z m 5.86133,3.70313 v -6.21875 h 0.95312 v 0.9375 q 0.35938,-0.65625 0.65625,-0.85938 0.3125,-0.21875 0.6875,-0.21875 0.53125,0 1.07813,0.32813 l -0.35938,0.98437 q -0.39062,-0.23437 -0.76562,-0.23437 -0.35938,0 -0.64063,0.21875 -0.26562,0.20312 -0.375,0.57812 -0.1875,0.5625 -0.1875,1.21875 v 3.26563 z m 7.04883,-4.23438 q 0,-1.53125 0.3125,-2.45312 0.3125,-0.9375 0.92187,-1.4375 0.625,-0.5 1.5625,-0.5 0.6875,0 1.20313,0.28125 0.53125,0.28125 0.875,0.8125 0.34375,0.51562 0.53125,1.26562 0.1875,0.75 0.1875,2.03125 0,1.51563 -0.3125,2.4375 -0.29688,0.92188 -0.92188,1.4375 -0.60937,0.5 -1.5625,0.5 -1.23437,0 -1.95312,-0.89062 -0.84375,-1.0625 -0.84375,-3.48438 z m 1.07812,0 q 0,2.10938 0.5,2.8125 0.5,0.70313 1.21875,0.70313 0.73438,0 1.21875,-0.70313 0.5,-0.70312 0.5,-2.8125 0,-2.125 -0.5,-2.8125 -0.48437,-0.70312 -1.23437,-0.70312 -0.71875,0 -1.15625,0.60937 -0.54688,0.78125 -0.54688,2.90625 z" />
  <path
     style="fill:#f4cccc;fill-rule:evenodd"
     inkscape:connector-curvature="0"
     id="path3961"
     d="m 316.57152,13.47717 v 0 c 0,-2.3082 1.87115,-4.17937 4.17932,-4.17937 h 82.94837 c 1.10845,0 2.1715,0.44033 2.95526,1.22411 0.78381,0.78378 1.22412,1.84683 1.22412,2.95526 v 33.8145 c 0,2.3082 -1.87116,4.17937 -4.17938,4.17937 h -82.94837 c -2.30817,0 -4.17932,-1.87117 -4.17932,-4.17937 z" />
  <path
     style="fill-rule:evenodd;stroke:#000000;stroke-width:1;stroke-linecap:butt;stroke-linejoin:round"
     inkscape:connector-curvature="0"
     id="path3963"
     d="m 316.57152,13.47717 v 0 c 0,-2.3082 1.87115,-4.17937 4.17932,-4.17937 h 82.94837 c 1.10845,0 2.1715,0.44033 2.95526,1.22411 0.78381,0.78378 1.22412,1.84683 1.22412,2.95526 v 33.8145 c 0,2.3082 -1.87116,4.17937 -4.17938,4.17937 h -82.94837 c -2.30817,0 -4.17932,-1.87117 -4.17932,-4.17937 z" />
  <path
     style="fill:#000000;fill-rule:nonzero"
     inkscape:connector-curvature="0"
     id="path3965"
     d="m 349.58518,27.18442 v -9.54688 h 1.26563 v 3.92188 h 4.95312 v -3.92188 h 1.26563 v 9.54688 h -1.26563 v -4.5 h -4.95312 v 4.5 z m 9.00018,-3.45313 q 0,-1.92187 1.07813,-2.84375 0.89062,-0.76562 2.17187,-0.76562 1.42188,0 2.32813,0.9375 0.90625,0.92187 0.90625,2.57812 0,1.32813 -0.40625,2.09375 -0.39063,0.76563 -1.15625,1.1875 -0.76563,0.42188 -1.67188,0.42188 -1.45312,0 -2.35937,-0.92188 -0.89063,-0.9375 -0.89063,-2.6875 z m 1.20313,0 q 0,1.32813 0.57812,1.98438 0.59375,0.65625 1.46875,0.65625 0.875,0 1.45313,-0.65625 0.57812,-0.67188 0.57812,-2.03125 0,-1.28125 -0.59375,-1.9375 -0.57812,-0.65625 -1.4375,-0.65625 -0.875,0 -1.46875,0.65625 -0.57812,0.65625 -0.57812,1.98437 z m 6.1781,1.39063 1.15625,-0.1875 q 0.10937,0.70312 0.54687,1.07812 0.45313,0.35938 1.25,0.35938 0.8125,0 1.20313,-0.32813 0.39062,-0.32812 0.39062,-0.76562 0,-0.39063 -0.35937,-0.625 -0.23438,-0.15625 -1.1875,-0.39063 -1.29688,-0.32812 -1.79688,-0.5625 -0.48437,-0.25 -0.75,-0.65625 -0.25,-0.42187 -0.25,-0.9375 0,-0.45312 0.20313,-0.84375 0.21875,-0.40625 0.57812,-0.67187 0.28125,-0.1875 0.75,-0.32813 0.46875,-0.14062 1.01563,-0.14062 0.8125,0 1.42187,0.23437 0.60938,0.23438 0.90625,0.64063 0.29688,0.39062 0.40625,1.0625 l -1.14062,0.15625 q -0.0781,-0.53125 -0.45313,-0.82813 -0.375,-0.3125 -1.0625,-0.3125 -0.8125,0 -1.15625,0.26563 -0.34375,0.26562 -0.34375,0.625 0,0.23437 0.14063,0.42187 0.15625,0.1875 0.45312,0.3125 0.17188,0.0625 1.03125,0.29688 1.25,0.32812 1.73438,0.54687 0.5,0.20313 0.78125,0.60938 0.28125,0.40625 0.28125,1 0,0.59375 -0.34375,1.10937 -0.34375,0.51563 -1,0.79688 -0.64063,0.28125 -1.45313,0.28125 -1.34375,0 -2.04687,-0.5625 -0.70313,-0.5625 -0.90625,-1.65625 z m 9.69531,1.01562 0.17188,1.03125 q -0.5,0.10938 -0.89063,0.10938 -0.64062,0 -1,-0.20313 -0.34375,-0.20312 -0.48437,-0.53125 -0.14063,-0.32812 -0.14063,-1.39062 v -3.96875 h -0.85937 v -0.90625 h 0.85937 v -1.71875 l 1.17188,-0.70313 v 2.42188 h 1.17187 v 0.90625 h -1.17187 v 4.04687 q 0,0.5 0.0469,0.64063 0.0625,0.14062 0.20313,0.23437 0.14062,0.0781 0.40625,0.0781 0.20312,0 0.51562,-0.0469 z" />
  <path
     style="fill:#000000;fill-rule:nonzero"
     inkscape:connector-curvature="0"
     id="path3967"
     d="m 338.45737,43.18443 v -9.54688 h 4.23437 q 1.26563,0 1.92188,0.26563 0.67187,0.25 1.0625,0.90625 0.40625,0.65625 0.40625,1.4375 0,1.01562 -0.65625,1.71875 -0.65625,0.6875 -2.03125,0.875 0.5,0.25 0.76562,0.48437 0.54688,0.5 1.04688,1.26563 l 1.65625,2.59375 h -1.57813 l -1.26562,-1.98438 q -0.5625,-0.85937 -0.92188,-1.3125 -0.34375,-0.45312 -0.64062,-0.64062 -0.28125,-0.1875 -0.5625,-0.25 -0.21875,-0.0469 -0.70313,-0.0469 h -1.46875 v 4.23438 z m 1.26562,-5.32813 h 2.71875 q 0.85938,0 1.34375,-0.17187 0.48438,-0.1875 0.73438,-0.57813 0.26562,-0.39062 0.26562,-0.85937 0,-0.67188 -0.5,-1.10938 -0.48437,-0.4375 -1.54687,-0.4375 h -3.01563 z m 12.71888,5.32813 V 42.1688 q -0.8125,1.17188 -2.1875,1.17188 -0.60938,0 -1.14063,-0.23438 -0.53125,-0.23437 -0.79687,-0.57812 -0.25,-0.35938 -0.35938,-0.875 -0.0625,-0.34375 -0.0625,-1.09375 v -4.28125 h 1.17188 v 3.82812 q 0,0.92188 0.0625,1.23438 0.10937,0.46875 0.46875,0.73437 0.35937,0.25 0.89062,0.25 0.51563,0 0.98438,-0.26562 0.46875,-0.26563 0.65625,-0.73438 0.1875,-0.46875 0.1875,-1.34375 v -3.70312 h 1.17187 v 6.90625 z m 2.88122,0 v -6.90625 h 1.0625 v 0.98437 q 0.75,-1.14062 2.1875,-1.14062 0.625,0 1.15625,0.21875 0.53125,0.21875 0.78125,0.59375 0.26563,0.35937 0.375,0.85937 0.0625,0.32813 0.0625,1.14063 v 4.25 h -1.17187 V 38.9813 q 0,-0.71875 -0.14063,-1.0625 -0.14062,-0.35937 -0.48437,-0.5625 -0.34375,-0.21875 -0.8125,-0.21875 -0.75,0 -1.29688,0.46875 -0.54687,0.46875 -0.54687,1.79688 v 3.78125 z m 9.97498,-1.04688 0.17187,1.03125 q -0.5,0.10938 -0.89062,0.10938 -0.64063,0 -1,-0.20313 -0.34375,-0.20312 -0.48438,-0.53125 -0.14062,-0.32812 -0.14062,-1.39062 v -3.96875 h -0.85938 v -0.90625 h 0.85938 v -1.71875 l 1.17187,-0.70313 v 2.42188 h 1.17188 v 0.90625 h -1.17188 v 4.04687 q 0,0.5 0.0469,0.64063 0.0625,0.14062 0.20312,0.23437 0.14063,0.0781 0.40625,0.0781 0.20313,0 0.51563,-0.0469 z m 1.15613,-7.14062 v -1.35938 h 1.17187 v 1.35938 z m 0,8.1875 v -6.90625 h 1.17187 v 6.90625 z m 2.94543,0 v -6.90625 h 1.04688 v 0.96875 q 0.32812,-0.51563 0.85937,-0.8125 0.54688,-0.3125 1.23438,-0.3125 0.78125,0 1.26562,0.3125 0.48438,0.3125 0.6875,0.89062 0.82813,-1.20312 2.14063,-1.20312 1.03125,0 1.57812,0.57812 0.5625,0.5625 0.5625,1.73438 v 4.75 h -1.17187 v -4.35938 q 0,-0.70312 -0.125,-1 -0.10938,-0.3125 -0.40625,-0.5 -0.29688,-0.1875 -0.70313,-0.1875 -0.71875,0 -1.20312,0.48438 -0.48438,0.48437 -0.48438,1.54687 v 4.01563 h -1.17187 v -4.48438 q 0,-0.78125 -0.29688,-1.17187 -0.28125,-0.39063 -0.92187,-0.39063 -0.5,0 -0.92188,0.26563 -0.42187,0.25 -0.60937,0.75 -0.1875,0.5 -0.1875,1.45312 v 3.57813 z m 15.83685,-2.21875 1.20313,0.14062 q -0.28125,1.0625 -1.0625,1.65625 -0.76563,0.57813 -1.96875,0.57813 -1.51563,0 -2.40625,-0.9375 -0.89063,-0.9375 -0.89063,-2.60938 0,-1.75 0.89063,-2.70312 0.90625,-0.96875 2.34375,-0.96875 1.39062,0 2.26562,0.9375 0.875,0.9375 0.875,2.65625 0,0.10937 0,0.3125 h -5.15625 q 0.0625,1.14062 0.64063,1.75 0.57812,0.59375 1.4375,0.59375 0.65625,0 1.10937,-0.32813 0.45313,-0.34375 0.71875,-1.07812 z m -3.84375,-1.90625 h 3.85938 q -0.0781,-0.85938 -0.4375,-1.29688 -0.5625,-0.6875 -1.45313,-0.6875 -0.8125,0 -1.35937,0.54688 -0.54688,0.53125 -0.60938,1.4375 z" />
  <path
     style="fill:#000000;fill-opacity:0;fill-rule:evenodd"
     inkscape:connector-curvature="0"
     id="path3969"
     d="m 410.04172,16.49678 h 15.81097" />
  <path
     style="fill-rule:evenodd;stroke:#000000;stroke-width:1;stroke-linecap:butt;stroke-linejoin:round"
     inkscape:connector-curvature="0"
     id="path3971"
     d="m 410.04172,16.49678 h 15.81097" />
  <path
     style="fill:#000000;fill-opacity:0;fill-rule:evenodd"
     inkscape:connector-curvature="0"
     id="path3973"
     d="m 410.04172,29.38312 h 30.89764" />
  <path
     style="fill-rule:evenodd;stroke:#000000;stroke-width:1;stroke-linecap:butt;stroke-linejoin:round"
     inkscape:connector-curvature="0"
     id="path3975"
     d="m 410.04172,29.38312 h 30.89764" />
  <path
     style="fill:#000000;fill-opacity:0;fill-rule:evenodd"
     inkscape:connector-curvature="0"
     id="path3977"
     d="m 410.04172,44.27597 h 30.89764" />
  <path
     style="fill-rule:evenodd;stroke:#000000;stroke-width:1;stroke-linecap:butt;stroke-linejoin:round"
     inkscape:connector-curvature="0"
     id="path3979"
     d="m 410.04172,44.27597 h 30.89764" />
  <path
     style="fill:#0000ff;fill-rule:evenodd"
     inkscape:connector-curvature="0"
     id="path3981"
     d="m 428.29462,13.24548 h 8.18897 v 6.48819 h -8.18897 z" />
  <path
     style="fill:#38761d;fill-rule:evenodd"
     inkscape:connector-curvature="0"
     id="path3983"
     d="m 443.39517,26.13184 h 8.18897 v 6.48819 h -8.18897 z" />
  <path
     style="fill:#38761d;fill-rule:evenodd"
     inkscape:connector-curvature="0"
     id="path3985"
     d="m 443.39517,41.02469 h 8.18897 v 6.48819 h -8.18897 z" />
  <path
     style="fill:#b6d7a8;fill-rule:evenodd"
     inkscape:connector-curvature="0"
     id="path3987"
     d="m 303.36978,51.03204 v 0 c -1.41479,0 -2.56171,-1.14693 -2.56171,-2.56172 V 12.30244 c 0,-0.67941 0.2699,-1.33101 0.75031,-1.81142 0.48041,-0.48042 1.13202,-0.75032 1.8114,-0.75032 h 10.24664 c 1.4148,0 2.56171,1.14693 2.56171,2.56174 v 36.16788 0 c 0,1.41479 -1.14691,2.56172 -2.56171,2.56172 z" />
  <path
     style="fill-rule:evenodd;stroke:#000000;stroke-width:1;stroke-linecap:butt;stroke-linejoin:round"
     inkscape:connector-curvature="0"
     id="path3989"
     d="m 303.36978,51.03204 v 0 c -1.41479,0 -2.56171,-1.14693 -2.56171,-2.56172 V 12.30244 c 0,-0.67941 0.2699,-1.33101 0.75031,-1.81142 0.48041,-0.48042 1.13202,-0.75032 1.8114,-0.75032 h 10.24664 c 1.4148,0 2.56171,1.14693 2.56171,2.56174 v 36.16788 0 c 0,1.41479 -1.14691,2.56172 -2.56171,2.56172 z" />
  <path
     style="fill:#000000;fill-rule:nonzero"
     inkscape:connector-curvature="0"
     id="path3991"
     d="m 311.95312,48.62616 h -6.67187 v -0.875 h 5.89062 v -3.29688 h 0.78125 z m -2.42187,-4.81287 q -1.34375,0 -1.98438,-0.75 Q 307,42.43829 307,41.54767 q 0,-1 0.65625,-1.625 0.65625,-0.64063 1.8125,-0.64063 0.9375,0 1.46875,0.28125 0.53125,0.28125 0.82812,0.8125 0.29688,0.53125 0.29688,1.17188 0,1.01562 -0.64063,1.64062 -0.65625,0.625 -1.89062,0.625 z m 0,-0.84375 q 0.9375,0 1.40625,-0.40625 0.45312,-0.40625 0.45312,-1.01562 0,-0.60938 -0.46875,-1.01563 -0.46875,-0.40625 -1.42187,-0.40625 -0.89063,0 -1.34375,0.40625 -0.46875,0.40625 -0.46875,1.01563 0,0.60937 0.46875,1.01562 0.45312,0.40625 1.375,0.40625 z m 2.42187,-5.53161 -4.84375,1.46875 v -0.84375 l 2.79688,-0.76563 1.04687,-0.29687 q -0.0781,-0.0156 -1,-0.25 l -2.84375,-0.76563 v -0.84375 l 2.8125,-0.71875 0.92188,-0.25 -0.9375,-0.26562 -2.79688,-0.82813 v -0.79687 l 4.84375,1.5 v 0.85937 l -2.89062,0.76563 -0.82813,0.1875 3.71875,0.98437 z m -1.5625,-9.15836 0.10938,-0.84375 q 0.75,0.1875 1.15625,0.73438 0.40625,0.54687 0.40625,1.39062 0,1.0625 -0.65625,1.6875 -0.65625,0.60938 -1.82813,0.60938 -1.21875,0 -1.89062,-0.625 Q 307,30.6077 307,29.6077 q 0,-0.98438 0.67187,-1.59375 0.65625,-0.60938 1.85938,-0.60938 0.0625,0 0.21875,0 v 3.60938 q 0.79687,-0.0469 1.21875,-0.45313 0.42187,-0.40625 0.42187,-1.01562 0,-0.45313 -0.23437,-0.76563 -0.23438,-0.3125 -0.76563,-0.5 z m -1.32812,2.6875 v -2.70312 q -0.60938,0.0625 -0.90625,0.3125 -0.46875,0.39062 -0.46875,1.01562 0,0.5625 0.375,0.95313 0.375,0.375 1,0.42187 z m 2.89062,-4.56286 h -4.84375 v -0.73438 h 0.73438 Q 307.32812,25.38858 307.17187,25.15421 307,24.90421 307,24.62296 q 0,-0.42188 0.26562,-0.84375 l 0.76563,0.28125 q -0.17188,0.29687 -0.17188,0.60937 0,0.26563 0.15625,0.48438 0.15625,0.20312 0.45313,0.29687 0.4375,0.14063 0.95312,0.14063 h 2.53125 z m -5.73437,-3.12197 h -0.9375 v -0.8125 h 0.9375 z m 5.73437,0 h -4.84375 v -0.8125 h 4.84375 z m 0,-2.05679 h -4.84375 v -0.75 h 0.6875 Q 307,19.9442 307,18.9442 q 0,-0.4375 0.17187,-0.79688 0.15625,-0.375 0.40625,-0.54687 0.25,-0.1875 0.60938,-0.26563 0.21875,-0.0469 0.79687,-0.0469 h 2.96875 v 0.82812 h -2.9375 q -0.5,0 -0.75,0.0937 -0.25,0.0937 -0.39062,0.34375 -0.15625,0.23438 -0.15625,0.5625 0,0.51563 0.32812,0.90625 0.32813,0.375 1.26563,0.375 h 2.64062 z m 0.40625,-5.04724 0.10938,-0.79688 q 0.375,-0.0469 0.54687,-0.28125 0.21875,-0.29687 0.21875,-0.82812 0,-0.5625 -0.23437,-0.875 -0.21875,-0.3125 -0.625,-0.42188 -0.25,-0.0625 -1.0625,-0.0625 0.64062,0.54688 0.64062,1.34375 0,1 -0.71875,1.54688 -0.71875,0.54687 -1.73437,0.54687 -0.6875,0 -1.26563,-0.25 -0.59375,-0.25 -0.90625,-0.71875 Q 307,14.89696 307,14.25633 q 0,-0.85937 0.70312,-1.42187 h -0.59375 v -0.75 h 4.1875 q 1.125,0 1.59375,0.23437 0.48438,0.21875 0.75,0.71875 0.28125,0.5 0.28125,1.23438 0,0.85937 -0.39062,1.39062 -0.39063,0.53125 -1.17188,0.51563 z m -2.90625,-0.67188 q 0.95313,0 1.39063,-0.375 0.4375,-0.39062 0.4375,-0.95312 0,-0.5625 -0.4375,-0.9375 -0.4375,-0.39063 -1.375,-0.39063 -0.875,0 -1.32813,0.39063 -0.45312,0.39062 -0.45312,0.95312 0,0.54688 0.45312,0.9375 0.4375,0.375 1.3125,0.375 z" />
  <path
     style="fill:#d9d9d9;fill-rule:evenodd"
     inkscape:connector-curvature="0"
     id="path3993"
     d="m 289.89719,93.35321 v 0 c 0,-3.94238 3.19598,-7.13834 7.13837,-7.13834 h 110.79419 c 1.89319,0 3.70886,0.75208 5.04754,2.09076 1.33869,1.33872 2.09076,3.15436 2.09076,5.04758 v 57.75485 c 0,3.94239 -3.19592,7.13831 -7.1383,7.13831 H 297.03556 c -3.94239,0 -7.13837,-3.19592 -7.13837,-7.13831 z" />
  <path
     style="fill-rule:evenodd;stroke:#000000;stroke-width:1;stroke-linecap:butt;stroke-linejoin:round"
     inkscape:connector-curvature="0"
     id="path3995"
     d="m 289.89719,93.35321 v 0 c 0,-3.94238 3.19598,-7.13834 7.13837,-7.13834 h 110.79419 c 1.89319,0 3.70886,0.75208 5.04754,2.09076 1.33869,1.33872 2.09076,3.15436 2.09076,5.04758 v 57.75485 c 0,3.94239 -3.19592,7.13831 -7.1383,7.13831 H 297.03556 c -3.94239,0 -7.13837,-3.19592 -7.13837,-7.13831 z" />
  <path
     style="fill:#000000;fill-rule:nonzero"
     inkscape:connector-curvature="0"
     id="path3997"
     d="m 294.40982,153.67563 -2.28125,-8.59375 h 1.17187 l 1.3125,5.64062 q 0.20313,0.875 0.35938,1.75 0.32812,-1.375 0.39062,-1.59375 l 1.625,-5.79687 h 1.375 l 1.23438,4.34375 q 0.45312,1.625 0.67187,3.04687 0.15625,-0.8125 0.42188,-1.875 l 1.34375,-5.51562 h 1.14062 l -2.34375,8.59375 h -1.10937 l -1.79688,-6.54688 q -0.23437,-0.8125 -0.28125,-1 -0.125,0.57813 -0.25,1 l -1.8125,6.54688 z m 9.09375,-3.10938 q 0,-1.73437 0.95312,-2.5625 0.79688,-0.6875 1.95313,-0.6875 1.28125,0 2.09375,0.84375 0.82812,0.82813 0.82812,2.3125 0,1.20313 -0.35937,1.89063 -0.35938,0.6875 -1.0625,1.07812 -0.6875,0.375 -1.5,0.375 -1.29688,0 -2.10938,-0.82812 -0.79687,-0.84375 -0.79687,-2.42188 z m 1.07812,0 q 0,1.1875 0.51563,1.78125 0.53125,0.59375 1.3125,0.59375 0.79687,0 1.3125,-0.59375 0.51562,-0.59375 0.51562,-1.8125 0,-1.15625 -0.53125,-1.75 -0.51562,-0.59375 -1.29687,-0.59375 -0.78125,0 -1.3125,0.59375 -0.51563,0.57813 -0.51563,1.78125 z m 5.97071,3.10938 v -6.21875 h 0.95312 v 0.9375 q 0.35938,-0.65625 0.65625,-0.85938 0.3125,-0.21875 0.6875,-0.21875 0.53125,0 1.07813,0.32813 l -0.35938,0.98437 q -0.39062,-0.23437 -0.76562,-0.23437 -0.35938,0 -0.64063,0.21875 -0.26562,0.20312 -0.375,0.57812 -0.1875,0.5625 -0.1875,1.21875 v 3.26563 z m 4.01172,0 v -8.59375 h 1.0625 v 4.90625 l 2.48437,-2.53125 h 1.375 l -2.39062,2.29687 2.625,3.92188 h -1.29688 l -2.0625,-3.1875 -0.73437,0.71875 v 2.46875 z m 10.25,-2 1.09375,0.125 q -0.25,0.95312 -0.95313,1.48437 -0.70312,0.53125 -1.78125,0.53125 -1.35937,0 -2.17187,-0.84375 -0.79688,-0.84375 -0.79688,-2.35937 0,-1.5625 0.8125,-2.42188 0.8125,-0.875 2.09375,-0.875 1.25,0 2.03125,0.84375 0.79688,0.84375 0.79688,2.39063 0,0.0937 0,0.28125 h -4.64063 q 0.0625,1.03125 0.57813,1.57812 0.51562,0.53125 1.29687,0.53125 0.57813,0 0.98438,-0.29687 0.42187,-0.3125 0.65625,-0.96875 z m -3.45313,-1.70313 h 3.46875 q -0.0625,-0.79687 -0.39062,-1.1875 -0.51563,-0.60937 -1.3125,-0.60937 -0.73438,0 -1.23438,0.48437 -0.48437,0.48438 -0.53125,1.3125 z m 5.86133,3.70313 v -6.21875 h 0.95312 v 0.9375 q 0.35938,-0.65625 0.65625,-0.85938 0.3125,-0.21875 0.6875,-0.21875 0.53125,0 1.07813,0.32813 l -0.35938,0.98437 q -0.39062,-0.23437 -0.76562,-0.23437 -0.35938,0 -0.64063,0.21875 -0.26562,0.20312 -0.375,0.57812 -0.1875,0.5625 -0.1875,1.21875 v 3.26563 z m 11.01758,0 h -1.04688 v -6.71875 q -0.39062,0.35937 -1.01562,0.73437 -0.60938,0.35938 -1.09375,0.53125 v -1.01562 q 0.875,-0.42188 1.53125,-1 0.67187,-0.59375 0.95312,-1.15625 h 0.67188 z" />
  <path
     style="fill:#f4cccc;fill-rule:evenodd"
     inkscape:connector-curvature="0"
     id="path3999"
     d="m 315.77642,99.19205 v 0 c 0,-2.3082 1.87122,-4.17935 4.17938,-4.17935 h 82.94837 c 1.10846,0 2.17144,0.44031 2.95526,1.22409 0.78375,0.78378 1.22412,1.84683 1.22412,2.95526 v 33.81451 c 0,2.3082 -1.87122,4.17936 -4.17938,4.17936 H 319.9558 c -2.30816,0 -4.17938,-1.87116 -4.17938,-4.17936 z" />
  <path
     style="fill-rule:evenodd;stroke:#000000;stroke-width:1;stroke-linecap:butt;stroke-linejoin:round"
     inkscape:connector-curvature="0"
     id="path4001"
     d="m 315.77642,99.19205 v 0 c 0,-2.3082 1.87122,-4.17935 4.17938,-4.17935 h 82.94837 c 1.10846,0 2.17144,0.44031 2.95526,1.22409 0.78375,0.78378 1.22412,1.84683 1.22412,2.95526 v 33.81451 c 0,2.3082 -1.87122,4.17936 -4.17938,4.17936 H 319.9558 c -2.30816,0 -4.17938,-1.87116 -4.17938,-4.17936 z" />
  <path
     style="fill:#000000;fill-rule:nonzero"
     inkscape:connector-curvature="0"
     id="path4003"
     d="m 348.79012,112.89929 v -9.54688 h 1.26562 v 3.92188 h 4.95313 v -3.92188 h 1.26562 v 9.54688 h -1.26562 v -4.5 h -4.95313 v 4.5 z m 9.00012,-3.45313 q 0,-1.92187 1.07813,-2.84375 0.89062,-0.76562 2.17187,-0.76562 1.42188,0 2.32813,0.9375 0.90625,0.92187 0.90625,2.57812 0,1.32813 -0.40625,2.09375 -0.39063,0.76563 -1.15625,1.1875 -0.76563,0.42188 -1.67188,0.42188 -1.45312,0 -2.35937,-0.92188 -0.89063,-0.9375 -0.89063,-2.6875 z m 1.20313,0 q 0,1.32813 0.57812,1.98438 0.59375,0.65625 1.46875,0.65625 0.875,0 1.45313,-0.65625 0.57812,-0.67188 0.57812,-2.03125 0,-1.28125 -0.59375,-1.9375 -0.57812,-0.65625 -1.4375,-0.65625 -0.875,0 -1.46875,0.65625 -0.57812,0.65625 -0.57812,1.98437 z m 6.1781,1.39063 1.15625,-0.1875 q 0.10937,0.70312 0.54687,1.07812 0.45313,0.35938 1.25,0.35938 0.8125,0 1.20313,-0.32813 0.39062,-0.32812 0.39062,-0.76562 0,-0.39063 -0.35937,-0.625 -0.23438,-0.15625 -1.1875,-0.39063 -1.29688,-0.32812 -1.79688,-0.5625 -0.48437,-0.25 -0.75,-0.65625 -0.25,-0.42187 -0.25,-0.9375 0,-0.45312 0.20313,-0.84375 0.21875,-0.40625 0.57812,-0.67187 0.28125,-0.1875 0.75,-0.32813 0.46875,-0.14062 1.01563,-0.14062 0.8125,0 1.42187,0.23437 0.60938,0.23438 0.90625,0.64063 0.29688,0.39062 0.40625,1.0625 l -1.14062,0.15625 q -0.0781,-0.53125 -0.45313,-0.82813 -0.375,-0.3125 -1.0625,-0.3125 -0.8125,0 -1.15625,0.26563 -0.34375,0.26562 -0.34375,0.625 0,0.23437 0.14063,0.42187 0.15625,0.1875 0.45312,0.3125 0.17188,0.0625 1.03125,0.29688 1.25,0.32812 1.73438,0.54687 0.5,0.20313 0.78125,0.60938 0.28125,0.40625 0.28125,1 0,0.59375 -0.34375,1.10937 -0.34375,0.51563 -1,0.79688 -0.64063,0.28125 -1.45313,0.28125 -1.34375,0 -2.04687,-0.5625 -0.70313,-0.5625 -0.90625,-1.65625 z m 9.69531,1.01562 0.17188,1.03125 q -0.5,0.10938 -0.89063,0.10938 -0.64062,0 -1,-0.20313 -0.34375,-0.20312 -0.48437,-0.53125 -0.14063,-0.32812 -0.14063,-1.39062 v -3.96875 h -0.85937 v -0.90625 h 0.85937 v -1.71875 l 1.17188,-0.70313 v 2.42188 h 1.17187 v 0.90625 h -1.17187 v 4.04687 q 0,0.5 0.0469,0.64063 0.0625,0.14062 0.20313,0.23437 0.14062,0.0781 0.40625,0.0781 0.20312,0 0.51562,-0.0469 z" />
  <path
     style="fill:#000000;fill-rule:nonzero"
     inkscape:connector-curvature="0"
     id="path4005"
     d="m 337.66226,128.89929 v -9.54688 h 4.23437 q 1.26563,0 1.92188,0.26563 0.67187,0.25 1.0625,0.90625 0.40625,0.65625 0.40625,1.4375 0,1.01562 -0.65625,1.71875 -0.65625,0.6875 -2.03125,0.875 0.5,0.25 0.76562,0.48437 0.54688,0.5 1.04688,1.26563 l 1.65625,2.59375 h -1.57813 l -1.26562,-1.98438 q -0.5625,-0.85937 -0.92188,-1.3125 -0.34375,-0.45312 -0.64062,-0.64062 -0.28125,-0.1875 -0.5625,-0.25 -0.21875,-0.0469 -0.70313,-0.0469 h -1.46875 v 4.23438 z m 1.26562,-5.32813 h 2.71875 q 0.85938,0 1.34375,-0.17187 0.48438,-0.1875 0.73438,-0.57813 0.26562,-0.39062 0.26562,-0.85937 0,-0.67188 -0.5,-1.10938 -0.48437,-0.4375 -1.54687,-0.4375 h -3.01563 z m 12.71894,5.32813 v -1.01563 q -0.8125,1.17188 -2.1875,1.17188 -0.60938,0 -1.14063,-0.23438 -0.53125,-0.23437 -0.79687,-0.57812 -0.25,-0.35938 -0.35938,-0.875 -0.0625,-0.34375 -0.0625,-1.09375 v -4.28125 h 1.17188 v 3.82812 q 0,0.92188 0.0625,1.23438 0.10937,0.46875 0.46875,0.73437 0.35937,0.25 0.89062,0.25 0.51563,0 0.98438,-0.26562 0.46875,-0.26563 0.65625,-0.73438 0.1875,-0.46875 0.1875,-1.34375 v -3.70312 h 1.17187 v 6.90625 z m 2.88122,0 v -6.90625 h 1.0625 v 0.98437 q 0.75,-1.14062 2.1875,-1.14062 0.625,0 1.15625,0.21875 0.53125,0.21875 0.78125,0.59375 0.26563,0.35937 0.375,0.85937 0.0625,0.32813 0.0625,1.14063 v 4.25 h -1.17187 v -4.20313 q 0,-0.71875 -0.14063,-1.0625 -0.14062,-0.35937 -0.48437,-0.5625 -0.34375,-0.21875 -0.8125,-0.21875 -0.75,0 -1.29688,0.46875 -0.54687,0.46875 -0.54687,1.79688 v 3.78125 z m 9.97498,-1.04688 0.17187,1.03125 q -0.5,0.10938 -0.89062,0.10938 -0.64063,0 -1,-0.20313 -0.34375,-0.20312 -0.48438,-0.53125 -0.14062,-0.32812 -0.14062,-1.39062 v -3.96875 h -0.85938 v -0.90625 h 0.85938 v -1.71875 l 1.17187,-0.70313 v 2.42188 h 1.17188 v 0.90625 h -1.17188 v 4.04687 q 0,0.5 0.0469,0.64063 0.0625,0.14062 0.20312,0.23437 0.14063,0.0781 0.40625,0.0781 0.20313,0 0.51563,-0.0469 z m 1.15613,-7.14062 v -1.35938 h 1.17187 v 1.35938 z m 0,8.1875 v -6.90625 h 1.17187 v 6.90625 z m 2.94543,0 v -6.90625 h 1.04688 v 0.96875 q 0.32812,-0.51563 0.85937,-0.8125 0.54688,-0.3125 1.23438,-0.3125 0.78125,0 1.26562,0.3125 0.48438,0.3125 0.6875,0.89062 0.82813,-1.20312 2.14063,-1.20312 1.03125,0 1.57812,0.57812 0.5625,0.5625 0.5625,1.73438 v 4.75 h -1.17187 v -4.35938 q 0,-0.70312 -0.125,-1 -0.10938,-0.3125 -0.40625,-0.5 -0.29688,-0.1875 -0.70313,-0.1875 -0.71875,0 -1.20312,0.48438 -0.48438,0.48437 -0.48438,1.54687 v 4.01563 h -1.17187 v -4.48438 q 0,-0.78125 -0.29688,-1.17187 -0.28125,-0.39063 -0.92187,-0.39063 -0.5,0 -0.92188,0.26563 -0.42187,0.25 -0.60937,0.75 -0.1875,0.5 -0.1875,1.45312 v 3.57813 z m 15.83679,-2.21875 1.20313,0.14062 q -0.28125,1.0625 -1.0625,1.65625 -0.76563,0.57813 -1.96875,0.57813 -1.51563,0 -2.40625,-0.9375 -0.89063,-0.9375 -0.89063,-2.60938 0,-1.75 0.89063,-2.70312 0.90625,-0.96875 2.34375,-0.96875 1.39062,0 2.26562,0.9375 0.875,0.9375 0.875,2.65625 0,0.10937 0,0.3125 h -5.15625 q 0.0625,1.14062 0.64063,1.75 0.57812,0.59375 1.4375,0.59375 0.65625,0 1.10937,-0.32813 0.45313,-0.34375 0.71875,-1.07812 z m -3.84375,-1.90625 h 3.85938 q -0.0781,-0.85938 -0.4375,-1.29688 -0.5625,-0.6875 -1.45313,-0.6875 -0.8125,0 -1.35937,0.54688 -0.54688,0.53125 -0.60938,1.4375 z" />
  <path
     style="fill:#000000;fill-opacity:0;fill-rule:evenodd"
     inkscape:connector-curvature="0"
     id="path4007"
     d="m 409.24662,102.21164 h 15.81103" />
  <path
     style="fill-rule:evenodd;stroke:#000000;stroke-width:1;stroke-linecap:butt;stroke-linejoin:round"
     inkscape:connector-curvature="0"
     id="path4009"
     d="m 409.24662,102.21164 h 15.81103" />
  <path
     style="fill:#000000;fill-opacity:0;fill-rule:evenodd"
     inkscape:connector-curvature="0"
     id="path4011"
     d="m 409.24662,115.09799 h 30.89764" />
  <path
     style="fill-rule:evenodd;stroke:#000000;stroke-width:1;stroke-linecap:butt;stroke-linejoin:round"
     inkscape:connector-curvature="0"
     id="path4013"
     d="m 409.24662,115.09799 h 30.89764" />
  <path
     style="fill:#000000;fill-opacity:0;fill-rule:evenodd"
     inkscape:connector-curvature="0"
     id="path4015"
     d="m 409.24662,129.99085 h 30.89764" />
  <path
     style="fill-rule:evenodd;stroke:#000000;stroke-width:1;stroke-linecap:butt;stroke-linejoin:round"
     inkscape:connector-curvature="0"
     id="path4017"
     d="m 409.24662,129.99085 h 30.89764" />
  <path
     style="fill:#0000ff;fill-rule:evenodd"
     inkscape:connector-curvature="0"
     id="path4019"
     d="m 427.49962,98.96036 h 8.18896 v 6.48819 h -8.18896 z" />
  <path
     style="fill:#38761d;fill-rule:evenodd"
     inkscape:connector-curvature="0"
     id="path4021"
     d="m 442.60012,111.84671 h 8.18896 v 6.48819 h -8.18896 z" />
  <path
     style="fill:#38761d;fill-rule:evenodd"
     inkscape:connector-curvature="0"
     id="path4023"
     d="m 442.60012,126.73956 h 8.18896 v 6.48819 h -8.18896 z" />
  <path
     style="fill:#000000;fill-opacity:0;fill-rule:evenodd"
     inkscape:connector-curvature="0"
     id="path4025"
     d="M 170.80908,94.76101 298.05319,34.25709" />
  <path
     style="fill-rule:evenodd;stroke:#000000;stroke-width:3;stroke-linecap:butt;stroke-linejoin:round"
     inkscape:connector-curvature="0"
     id="path4027"
     d="M 180.09415,90.34604 288.7681,38.67207" />
  <path
     style="fill:#000000;fill-rule:evenodd;stroke:#000000;stroke-width:3;stroke-linecap:butt"
     inkscape:connector-curvature="0"
     id="path4029"
     d="m 180.09412,90.34604 1.59808,-4.49561 -6.92236,7.02729 9.81989,-0.9336 z" />
  <path
     style="fill:#000000;fill-rule:evenodd;stroke:#000000;stroke-width:3;stroke-linecap:butt"
     inkscape:connector-curvature="0"
     id="path4031"
     d="m 288.76812,38.67209 -1.59808,4.49561 6.92242,-7.02729 -9.81995,0.93358 z" />
  <path
     style="fill:#cfe2f3;fill-rule:evenodd"
     inkscape:connector-curvature="0"
     id="path4033"
     d="m 47.65857,102.40501 v 0 c 0,-4.22165 3.42233,-7.64398 7.64398,-7.64398 h 106.53882 c 2.02732,0 3.97159,0.80536 5.40512,2.23889 1.43351,1.4335 2.23886,3.37778 2.23886,5.40509 v 61.84592 c 0,4.22165 -3.42233,7.64398 -7.64398,7.64398 H 55.30255 v 0 c -4.22165,0 -7.64398,-3.42233 -7.64398,-7.64398 z" />
  <path
     style="fill-rule:evenodd;stroke:#000000;stroke-width:1;stroke-linecap:butt;stroke-linejoin:round"
     inkscape:connector-curvature="0"
     id="path4035"
     d="m 47.65857,102.40501 v 0 c 0,-4.22165 3.42233,-7.64398 7.64398,-7.64398 h 106.53882 c 2.02732,0 3.97159,0.80536 5.40512,2.23889 1.43351,1.4335 2.23886,3.37778 2.23886,5.40509 v 61.84592 c 0,4.22165 -3.42233,7.64398 -7.64398,7.64398 H 55.30255 v 0 c -4.22165,0 -7.64398,-3.42233 -7.64398,-7.64398 z" />
  <path
     style="fill:#000000;fill-rule:nonzero"
     inkscape:connector-curvature="0"
     id="path4037"
     d="m 60.92197,162.45606 v -8.42188 h -3.14063 v -1.125 h 7.5625 v 1.125 h -3.15625 v 8.42188 z m 5.78198,0 v -9.54688 h 6.4375 v 1.125 h -5.17187 v 2.96875 h 4.46875 v 1.125 h -4.46875 v 4.32813 z m 18.57871,-3.34375 1.26562,0.3125 q -0.39062,1.5625 -1.42187,2.375 -1.03125,0.8125 -2.53125,0.8125 -1.53125,0 -2.5,-0.625 -0.96875,-0.625 -1.48438,-1.8125 -0.5,-1.1875 -0.5,-2.5625 0,-1.48438 0.5625,-2.59375 0.57813,-1.10938 1.625,-1.6875 1.0625,-0.57813 2.32813,-0.57813 1.42187,0 2.39062,0.73438 0.98438,0.71875 1.375,2.04687 l -1.25,0.29688 q -0.32812,-1.04688 -0.96875,-1.51563 -0.625,-0.48437 -1.57812,-0.48437 -1.09375,0 -1.84375,0.53125 -0.73438,0.53125 -1.03125,1.42187 -0.29688,0.875 -0.29688,1.82813 0,1.21875 0.34375,2.125 0.35938,0.90625 1.10938,1.35937 0.75,0.4375 1.625,0.4375 1.0625,0 1.79687,-0.60937 0.73438,-0.60938 0.98438,-1.8125 z m 2.23452,-0.10938 q 0,-1.92187 1.07813,-2.84375 0.89062,-0.76562 2.17187,-0.76562 1.42188,0 2.32813,0.9375 0.90625,0.92187 0.90625,2.57812 0,1.32813 -0.40625,2.09375 -0.39063,0.76563 -1.15625,1.1875 -0.76563,0.42188 -1.67188,0.42188 -1.45312,0 -2.35937,-0.92188 -0.89063,-0.9375 -0.89063,-2.6875 z m 1.20313,0 q 0,1.32813 0.57812,1.98438 0.59375,0.65625 1.46875,0.65625 0.875,0 1.45313,-0.65625 0.57812,-0.67188 0.57812,-2.03125 0,-1.28125 -0.59375,-1.9375 -0.57812,-0.65625 -1.4375,-0.65625 -0.875,0 -1.46875,0.65625 -0.57812,0.65625 -0.57812,1.98437 z m 6.63123,3.45313 v -6.90625 h 1.0625 v 1.04687 q 0.40625,-0.73437 0.73437,-0.96875 0.34375,-0.23437 0.76563,-0.23437 0.59375,0 1.20312,0.375 l -0.40625,1.07812 q -0.4375,-0.25 -0.85937,-0.25 -0.39063,0 -0.70313,0.23438 -0.29687,0.23437 -0.42187,0.64062 -0.20313,0.625 -0.20313,1.35938 v 3.625 z m 9.18838,-2.21875 1.20313,0.14062 q -0.28125,1.0625 -1.0625,1.65625 -0.76563,0.57813 -1.96875,0.57813 -1.51563,0 -2.40625,-0.9375 -0.89063,-0.9375 -0.89063,-2.60938 0,-1.75 0.89063,-2.70312 0.90625,-0.96875 2.34375,-0.96875 1.39062,0 2.26562,0.9375 0.875,0.9375 0.875,2.65625 0,0.10937 0,0.3125 h -5.15625 q 0.0625,1.14062 0.64063,1.75 0.57812,0.59375 1.4375,0.59375 0.65625,0 1.10937,-0.32813 0.45313,-0.34375 0.71875,-1.07812 z m -3.84375,-1.90625 h 3.85938 q -0.0781,-0.85938 -0.4375,-1.29688 -0.5625,-0.6875 -1.45313,-0.6875 -0.8125,0 -1.35937,0.54688 -0.54688,0.53125 -0.60938,1.4375 z m 10.3967,4.125 v -9.54688 h 4.23437 q 1.26563,0 1.92188,0.26563 0.67187,0.25 1.0625,0.90625 0.40625,0.65625 0.40625,1.4375 0,1.01562 -0.65625,1.71875 -0.65625,0.6875 -2.03125,0.875 0.5,0.25 0.76562,0.48437 0.54688,0.5 1.04688,1.26563 l 1.65625,2.59375 h -1.57813 l -1.26562,-1.98438 q -0.5625,-0.85937 -0.92188,-1.3125 -0.34375,-0.45312 -0.64062,-0.64062 -0.28125,-0.1875 -0.5625,-0.25 -0.21875,-0.0469 -0.70313,-0.0469 h -1.46875 v 4.23438 z m 1.26562,-5.32813 h 2.71875 q 0.85938,0 1.34375,-0.17187 0.48438,-0.1875 0.73438,-0.57813 0.26562,-0.39062 0.26562,-0.85937 0,-0.67188 -0.5,-1.10938 -0.48437,-0.4375 -1.54687,-0.4375 h -3.01563 z m 12.71891,5.32813 v -1.01563 q -0.8125,1.17188 -2.1875,1.17188 -0.60938,0 -1.14063,-0.23438 -0.53125,-0.23437 -0.79687,-0.57812 -0.25,-0.35938 -0.35938,-0.875 -0.0625,-0.34375 -0.0625,-1.09375 v -4.28125 h 1.17188 v 3.82812 q 0,0.92188 0.0625,1.23438 0.10937,0.46875 0.46875,0.73437 0.35937,0.25 0.89062,0.25 0.51563,0 0.98438,-0.26562 0.46875,-0.26563 0.65625,-0.73438 0.1875,-0.46875 0.1875,-1.34375 v -3.70312 h 1.17187 v 6.90625 z m 2.88122,0 v -6.90625 h 1.0625 v 0.98437 q 0.75,-1.14062 2.1875,-1.14062 0.625,0 1.15625,0.21875 0.53125,0.21875 0.78125,0.59375 0.26563,0.35937 0.375,0.85937 0.0625,0.32813 0.0625,1.14063 v 4.25 h -1.17187 v -4.20313 q 0,-0.71875 -0.14063,-1.0625 -0.14062,-0.35937 -0.48437,-0.5625 -0.34375,-0.21875 -0.8125,-0.21875 -0.75,0 -1.29688,0.46875 -0.54687,0.46875 -0.54687,1.79688 v 3.78125 z m 9.97498,-1.04688 0.17187,1.03125 q -0.5,0.10938 -0.89062,0.10938 -0.64063,0 -1,-0.20313 -0.34375,-0.20312 -0.48438,-0.53125 -0.14062,-0.32812 -0.14062,-1.39062 v -3.96875 h -0.85938 v -0.90625 h 0.85938 v -1.71875 l 1.17187,-0.70313 v 2.42188 h 1.17188 v 0.90625 h -1.17188 v 4.04687 q 0,0.5 0.0469,0.64063 0.0625,0.14062 0.20312,0.23437 0.14063,0.0781 0.40625,0.0781 0.20313,0 0.51563,-0.0469 z m 1.15613,-7.14062 v -1.35938 h 1.17187 v 1.35938 z m 0,8.1875 v -6.90625 h 1.17187 v 6.90625 z m 2.94546,0 v -6.90625 h 1.04688 v 0.96875 q 0.32812,-0.51563 0.85937,-0.8125 0.54688,-0.3125 1.23438,-0.3125 0.78125,0 1.26562,0.3125 0.48438,0.3125 0.6875,0.89062 0.82813,-1.20312 2.14063,-1.20312 1.03125,0 1.57812,0.57812 0.5625,0.5625 0.5625,1.73438 v 4.75 h -1.17187 v -4.35938 q 0,-0.70312 -0.125,-1 -0.10938,-0.3125 -0.40625,-0.5 -0.29688,-0.1875 -0.70313,-0.1875 -0.71875,0 -1.20312,0.48438 -0.48438,0.48437 -0.48438,1.54687 v 4.01563 h -1.17187 v -4.48438 q 0,-0.78125 -0.29688,-1.17187 -0.28125,-0.39063 -0.92187,-0.39063 -0.5,0 -0.92188,0.26563 -0.42187,0.25 -0.60937,0.75 -0.1875,0.5 -0.1875,1.45312 v 3.57813 z m 15.83679,-2.21875 1.20313,0.14062 q -0.28125,1.0625 -1.0625,1.65625 -0.76563,0.57813 -1.96875,0.57813 -1.51563,0 -2.40625,-0.9375 -0.89063,-0.9375 -0.89063,-2.60938 0,-1.75 0.89063,-2.70312 0.90625,-0.96875 2.34375,-0.96875 1.39062,0 2.26562,0.9375 0.875,0.9375 0.875,2.65625 0,0.10937 0,0.3125 h -5.15625 q 0.0625,1.14062 0.64063,1.75 0.57812,0.59375 1.4375,0.59375 0.65625,0 1.10937,-0.32813 0.45313,-0.34375 0.71875,-1.07812 z m -3.84375,-1.90625 h 3.85938 q -0.0781,-0.85938 -0.4375,-1.29688 -0.5625,-0.6875 -1.45313,-0.6875 -0.8125,0 -1.35937,0.54688 -0.54688,0.53125 -0.60938,1.4375 z" />
  <path
     style="fill:#ffd966;fill-rule:evenodd"
     inkscape:connector-curvature="0"
     id="path4039"
     d="m 68.14102,122.14587 v 0 c 0,-9.21924 7.47369,-16.69293 16.69293,-16.69293 h 47.46457 v 0 c 4.42722,0 8.67313,1.75873 11.80365,4.88925 3.13056,3.13052 4.88925,7.37643 4.88925,11.80368 v 0 0 c 0,9.21924 -7.47366,16.6929 -16.6929,16.6929 H 84.83395 c -9.21924,0 -16.69293,-7.47366 -16.69293,-16.6929 z" />
  <path
     style="fill-rule:evenodd;stroke:#000000;stroke-width:1;stroke-linecap:butt;stroke-linejoin:round"
     inkscape:connector-curvature="0"
     id="path4041"
     d="m 68.14102,122.14587 v 0 c 0,-9.21924 7.47369,-16.69293 16.69293,-16.69293 h 47.46457 v 0 c 4.42722,0 8.67313,1.75873 11.80365,4.88925 3.13056,3.13052 4.88925,7.37643 4.88925,11.80368 v 0 0 c 0,9.21924 -7.47366,16.6929 -16.6929,16.6929 H 84.83395 c -9.21924,0 -16.69293,-7.47366 -16.69293,-16.6929 z" />
  <path
     style="fill:#000000;fill-rule:nonzero"
     inkscape:connector-curvature="0"
     id="path4043"
     d="m 92.01767,118.94586 v -8.42187 h -3.14062 v -1.125 h 7.5625 v 1.125 H 93.2833 v 8.42187 z m 8.81976,-2.21875 1.20313,0.14063 q -0.28125,1.0625 -1.0625,1.65625 -0.76563,0.57812 -1.96875,0.57812 -1.51563,0 -2.40625,-0.9375 -0.89063,-0.9375 -0.89063,-2.60937 0,-1.75 0.89063,-2.70313 0.90625,-0.96875 2.34375,-0.96875 1.39062,0 2.26562,0.9375 0.875,0.9375 0.875,2.65625 0,0.10938 0,0.3125 h -5.15625 q 0.0625,1.14063 0.64063,1.75 0.57812,0.59375 1.4375,0.59375 0.65625,0 1.10937,-0.32812 0.45313,-0.34375 0.71875,-1.07813 z m -3.84375,-1.90625 h 3.85938 q -0.0781,-0.85937 -0.4375,-1.29687 -0.5625,-0.6875 -1.45313,-0.6875 -0.8125,0 -1.35937,0.54687 -0.54688,0.53125 -0.60938,1.4375 z m 6.52185,4.125 v -6.90625 h 1.0625 v 0.98438 q 0.75,-1.14063 2.1875,-1.14063 0.625,0 1.15625,0.21875 0.53125,0.21875 0.78125,0.59375 0.26563,0.35938 0.375,0.85938 0.0625,0.32812 0.0625,1.14062 v 4.25 h -1.17187 v -4.20312 q 0,-0.71875 -0.14063,-1.0625 -0.14062,-0.35938 -0.48437,-0.5625 -0.34375,-0.21875 -0.8125,-0.21875 -0.75,0 -1.29688,0.46875 -0.54687,0.46875 -0.54687,1.79687 v 3.78125 z m 6.94373,-2.0625 1.15625,-0.1875 q 0.10937,0.70313 0.54687,1.07813 0.45313,0.35937 1.25,0.35937 0.8125,0 1.20313,-0.32812 0.39062,-0.32813 0.39062,-0.76563 0,-0.39062 -0.35937,-0.625 -0.23438,-0.15625 -1.1875,-0.39062 -1.29688,-0.32813 -1.79688,-0.5625 -0.48437,-0.25 -0.75,-0.65625 -0.25,-0.42188 -0.25,-0.9375 0,-0.45313 0.20313,-0.84375 0.21875,-0.40625 0.57812,-0.67188 0.28125,-0.1875 0.75,-0.32812 0.46875,-0.14063 1.01563,-0.14063 0.8125,0 1.42187,0.23438 0.60938,0.23437 0.90625,0.64062 0.29688,0.39063 0.40625,1.0625 l -1.14062,0.15625 q -0.0781,-0.53125 -0.45313,-0.82812 -0.375,-0.3125 -1.0625,-0.3125 -0.8125,0 -1.15625,0.26562 -0.34375,0.26563 -0.34375,0.625 0,0.23438 0.14063,0.42188 0.15625,0.1875 0.45312,0.3125 0.17188,0.0625 1.03125,0.29687 1.25,0.32813 1.73438,0.54688 0.5,0.20312 0.78125,0.60937 0.28125,0.40625 0.28125,1 0,0.59375 -0.34375,1.10938 -0.34375,0.51562 -1,0.79687 -0.64063,0.28125 -1.45313,0.28125 -1.34375,0 -2.04687,-0.5625 -0.70313,-0.5625 -0.90625,-1.65625 z m 6.69531,-1.39062 q 0,-1.92188 1.07813,-2.84375 0.89062,-0.76563 2.17187,-0.76563 1.42188,0 2.32813,0.9375 0.90625,0.92188 0.90625,2.57813 0,1.32812 -0.40625,2.09375 -0.39063,0.76562 -1.15625,1.1875 -0.76563,0.42187 -1.67188,0.42187 -1.45312,0 -2.35937,-0.92187 -0.89063,-0.9375 -0.89063,-2.6875 z m 1.20313,0 q 0,1.32812 0.57812,1.98437 0.59375,0.65625 1.46875,0.65625 0.875,0 1.45313,-0.65625 0.57812,-0.67187 0.57812,-2.03125 0,-1.28125 -0.59375,-1.9375 -0.57812,-0.65625 -1.4375,-0.65625 -0.875,0 -1.46875,0.65625 -0.57812,0.65625 -0.57812,1.98438 z m 6.63122,3.45312 v -6.90625 h 1.0625 v 1.04688 q 0.40625,-0.73438 0.73438,-0.96875 0.34375,-0.23438 0.76562,-0.23438 0.59375,0 1.20313,0.375 l -0.40625,1.07813 q -0.4375,-0.25 -0.85938,-0.25 -0.39062,0 -0.70312,0.23437 -0.29688,0.23438 -0.42188,0.64063 -0.20312,0.625 -0.20312,1.35937 v 3.625 z" />
  <path
     style="fill:#000000;fill-rule:nonzero"
     inkscape:connector-curvature="0"
     id="path4045"
     d="m 84.04432,134.94586 v -9.54687 h 3.59375 q 0.95312,0 1.45312,0.0937 0.70313,0.125 1.17188,0.45312 0.48437,0.32813 0.76562,0.92188 0.29688,0.59375 0.29688,1.29687 0,1.21875 -0.78125,2.0625 -0.76563,0.84375 -2.79688,0.84375 h -2.4375 v 3.875 z m 1.26562,-5 h 2.45313 q 1.23437,0 1.75,-0.45312 0.51562,-0.46875 0.51562,-1.28125 0,-0.60938 -0.3125,-1.03125 -0.29687,-0.42188 -0.79687,-0.5625 -0.3125,-0.0937 -1.17188,-0.0937 h -2.4375 z m 7.45224,5 v -6.90625 h 1.0625 v 1.04688 q 0.40625,-0.73438 0.73438,-0.96875 0.34375,-0.23438 0.76562,-0.23438 0.59375,0 1.20313,0.375 l -0.40625,1.07813 q -0.4375,-0.25 -0.85938,-0.25 -0.39062,0 -0.70312,0.23437 -0.29688,0.23438 -0.42188,0.64063 -0.20312,0.625 -0.20312,1.35937 v 3.625 z m 4.01651,-3.45312 q 0,-1.92188 1.07813,-2.84375 0.89062,-0.76563 2.17187,-0.76563 1.42188,0 2.32813,0.9375 0.90625,0.92188 0.90625,2.57813 0,1.32812 -0.40625,2.09375 -0.39063,0.76562 -1.15625,1.1875 -0.76563,0.42187 -1.67188,0.42187 -1.45312,0 -2.35937,-0.92187 -0.89063,-0.9375 -0.89063,-2.6875 z m 1.20313,0 q 0,1.32812 0.57812,1.98437 0.59375,0.65625 1.46875,0.65625 0.875,0 1.45313,-0.65625 0.57812,-0.67187 0.57812,-2.03125 0,-1.28125 -0.59375,-1.9375 -0.57812,-0.65625 -1.4375,-0.65625 -0.875,0 -1.46875,0.65625 -0.57812,0.65625 -0.57812,1.98438 z m 6.4281,4.03125 1.14063,0.15625 q 0.0781,0.53125 0.40625,0.78125 0.4375,0.3125 1.1875,0.3125 0.8125,0 1.25,-0.32813 0.45312,-0.3125 0.60937,-0.90625 0.0937,-0.35937 0.0781,-1.5 -0.76563,0.90625 -1.90625,0.90625 -1.4375,0 -2.21875,-1.03125 -0.78125,-1.03125 -0.78125,-2.46875 0,-0.98437 0.35937,-1.8125 0.35938,-0.84375 1.03125,-1.29687 0.6875,-0.45313 1.60938,-0.45313 1.21875,0 2.01562,0.98438 v -0.82813 h 1.07813 v 5.96875 q 0,1.60938 -0.32813,2.28125 -0.32812,0.6875 -1.04687,1.07813 -0.70313,0.39062 -1.75,0.39062 -1.23438,0 -2,-0.5625 -0.75,-0.5625 -0.73438,-1.67187 z m 0.98438,-4.15625 q 0,1.35937 0.53125,1.98437 0.54687,0.625 1.35937,0.625 0.79688,0 1.34375,-0.625 0.54688,-0.625 0.54688,-1.95312 0,-1.26563 -0.5625,-1.90625 -0.5625,-0.64063 -1.35938,-0.64063 -0.76562,0 -1.3125,0.64063 -0.54687,0.625 -0.54687,1.875 z m 6.63122,3.57812 v -6.90625 h 1.0625 v 1.04688 q 0.40625,-0.73438 0.73438,-0.96875 0.34375,-0.23438 0.76562,-0.23438 0.59375,0 1.20313,0.375 l -0.40625,1.07813 q -0.4375,-0.25 -0.85938,-0.25 -0.39062,0 -0.70312,0.23437 -0.29688,0.23438 -0.42188,0.64063 -0.20312,0.625 -0.20312,1.35937 v 3.625 z m 8.96961,-0.85937 q -0.65625,0.5625 -1.26563,0.79687 -0.59375,0.21875 -1.28125,0.21875 -1.14062,0 -1.75,-0.54687 -0.60937,-0.5625 -0.60937,-1.4375 0,-0.5 0.21875,-0.92188 0.23437,-0.42187 0.60937,-0.67187 0.375,-0.25 0.84375,-0.39063 0.34375,-0.0781 1.04688,-0.17187 1.42187,-0.17188 2.09375,-0.40625 0,-0.23438 0,-0.29688 0,-0.71875 -0.32813,-1.01562 -0.45312,-0.39063 -1.34375,-0.39063 -0.8125,0 -1.21875,0.29688 -0.39062,0.28125 -0.57812,1.01562 l -1.14063,-0.15625 q 0.15625,-0.73437 0.51563,-1.1875 0.35937,-0.45312 1.03125,-0.6875 0.67187,-0.25 1.5625,-0.25 0.89062,0 1.4375,0.20313 0.5625,0.20312 0.8125,0.53125 0.26562,0.3125 0.375,0.79687 0.0469,0.29688 0.0469,1.07813 v 1.5625 q 0,1.625 0.0781,2.0625 0.0781,0.4375 0.29687,0.82812 h -1.21875 q -0.1875,-0.35937 -0.23437,-0.85937 z m -0.0937,-2.60938 q -0.64063,0.26563 -1.92188,0.4375 -0.71875,0.10938 -1.01562,0.25 -0.29688,0.125 -0.46875,0.375 -0.15625,0.25 -0.15625,0.54688 0,0.46875 0.34375,0.78125 0.35937,0.3125 1.04687,0.3125 0.67188,0 1.20313,-0.29688 0.53125,-0.29687 0.78125,-0.8125 0.1875,-0.39062 0.1875,-1.17187 z m 2.9906,3.46875 v -6.90625 h 1.04687 v 0.96875 q 0.32813,-0.51562 0.85938,-0.8125 0.54687,-0.3125 1.23437,-0.3125 0.78125,0 1.26563,0.3125 0.48437,0.3125 0.6875,0.89063 0.82812,-1.20313 2.14062,-1.20313 1.03125,0 1.57813,0.57813 0.5625,0.5625 0.5625,1.73437 v 4.75 h -1.17188 v -4.35937 q 0,-0.70313 -0.125,-1 -0.10937,-0.3125 -0.40625,-0.5 -0.29687,-0.1875 -0.70312,-0.1875 -0.71875,0 -1.20313,0.48437 -0.48437,0.48438 -0.48437,1.54688 v 4.01562 h -1.17188 v -4.48437 q 0,-0.78125 -0.29687,-1.17188 -0.28125,-0.39062 -0.92188,-0.39062 -0.5,0 -0.92187,0.26562 -0.42188,0.25 -0.60938,0.75 -0.1875,0.5 -0.1875,1.45313 v 3.57812 z" />
  <path
     style="fill:#000000;fill-opacity:0;fill-rule:evenodd"
     inkscape:connector-curvature="0"
     id="path4047"
     d="m 170.81282,109.79311 125.79526,7.74805" />
  <path
     style="fill-rule:evenodd;stroke:#000000;stroke-width:3;stroke-linecap:butt;stroke-linejoin:round"
     inkscape:connector-curvature="0"
     id="path4049"
     d="m 181.07462,110.42521 105.27167,6.48392" />
  <path
     style="fill:#000000;fill-rule:evenodd;stroke:#000000;stroke-width:3;stroke-linecap:butt"
     inkscape:connector-curvature="0"
     id="path4051"
     d="m 181.07462,110.42521 3.57477,-3.15997 -9.45917,2.79751 9.04437,3.93723 z" />
  <path
     style="fill:#000000;fill-rule:evenodd;stroke:#000000;stroke-width:3;stroke-linecap:butt"
     inkscape:connector-curvature="0"
     id="path4053"
     d="m 286.34628,116.90911 -3.57477,3.15997 9.45917,-2.79754 -9.04437,-3.9372 z" />
  <path
     style="fill:#ffd966;fill-rule:evenodd"
     inkscape:connector-curvature="0"
     id="path4055"
     d="m 54.40452,78.87848 v 0 c 0,-5.71419 4.63226,-10.34645 10.34647,-10.34645 h 69.07086 c 2.74405,0 5.3757,1.09006 7.31604,3.03039 1.94033,1.94034 3.03042,4.57201 3.03042,7.31606 v 0 0 c 0,5.7142 -4.63226,10.34647 -10.34646,10.34647 H 64.75099 c -5.71421,0 -10.34647,-4.63227 -10.34647,-10.34647 z" />
  <path
     style="fill-rule:evenodd;stroke:#000000;stroke-width:1;stroke-linecap:butt;stroke-linejoin:round"
     inkscape:connector-curvature="0"
     id="path4057"
     d="m 54.40452,78.87848 v 0 c 0,-5.71419 4.63226,-10.34645 10.34647,-10.34645 h 69.07086 c 2.74405,0 5.3757,1.09006 7.31604,3.03039 1.94033,1.94034 3.03042,4.57201 3.03042,7.31606 v 0 0 c 0,5.7142 -4.63226,10.34647 -10.34646,10.34647 H 64.75099 c -5.71421,0 -10.34647,-4.63227 -10.34647,-10.34647 z" />
  <path
     style="fill:#000000;fill-rule:nonzero"
     inkscape:connector-curvature="0"
     id="path4059"
     d="m 70.89322,83.67847 v -8.42186 h -3.14063 v -1.125 h 7.5625 v 1.125 h -3.15625 v 8.42186 z m 5.78198,0 v -9.54686 h 6.4375 v 1.125 h -5.17187 v 2.96875 h 4.46875 v 1.125 h -4.46875 v 4.32811 z m 16.25061,-3.73436 v -1.125 l 4.03125,-0.0156 v 3.54685 q -0.92187,0.75 -1.92187,1.125 -0.98438,0.35938 -2.03125,0.35938 -1.40625,0 -2.5625,-0.59375 -1.14063,-0.60938 -1.73438,-1.73438 -0.57812,-1.14062 -0.57812,-2.54685 0,-1.40625 0.57812,-2.60938 0.59375,-1.20312 1.6875,-1.78125 1.09375,-0.59375 2.51563,-0.59375 1.03125,0 1.85937,0.34375 0.84375,0.32813 1.3125,0.9375 0.48438,0.59375 0.73438,1.54688 l -1.14063,0.3125 q -0.21875,-0.71875 -0.53125,-1.14063 -0.3125,-0.42187 -0.90625,-0.67187 -0.59375,-0.25 -1.3125,-0.25 -0.875,0 -1.51562,0.26562 -0.625,0.26563 -1.01563,0.70313 -0.375,0.42187 -0.59375,0.9375 -0.35937,0.875 -0.35937,1.92187 0,1.26563 0.4375,2.12498 0.4375,0.85938 1.26562,1.28125 0.84375,0.42188 1.79688,0.42188 0.8125,0 1.59375,-0.3125 0.78125,-0.32813 1.1875,-0.6875 v -1.76561 z m 5.72641,3.73436 v -6.90623 h 1.0625 v 1.04687 q 0.40625,-0.73437 0.73438,-0.96875 0.34375,-0.23437 0.76562,-0.23437 0.59375,0 1.20313,0.375 l -0.40625,1.07812 q -0.4375,-0.25 -0.85938,-0.25 -0.39062,0 -0.70312,0.23438 -0.29688,0.23437 -0.42188,0.64062 -0.20312,0.625 -0.20312,1.35938 v 3.62498 z m 8.96964,-0.85938 q -0.65625,0.5625 -1.26563,0.79688 -0.59375,0.21875 -1.28125,0.21875 -1.14062,0 -1.75,-0.54688 -0.60937,-0.5625 -0.60937,-1.4375 0,-0.5 0.21875,-0.92187 0.23437,-0.42188 0.60937,-0.67188 0.375,-0.24998 0.84375,-0.3906 0.34375,-0.0781 1.04688,-0.17188 1.42187,-0.17187 2.09375,-0.40625 0,-0.23437 0,-0.29687 0,-0.71875 -0.32813,-1.01563 -0.45312,-0.39062 -1.34375,-0.39062 -0.8125,0 -1.21875,0.29687 -0.39062,0.28125 -0.57812,1.01563 l -1.14063,-0.15625 q 0.15625,-0.73438 0.51563,-1.1875 0.35937,-0.45313 1.03125,-0.6875 0.67187,-0.25 1.5625,-0.25 0.89062,0 1.4375,0.20312 0.5625,0.20313 0.8125,0.53125 0.26562,0.3125 0.375,0.79688 0.0469,0.29687 0.0469,1.07812 v 1.56248 q 0,1.625 0.0781,2.0625 0.0781,0.4375 0.29687,0.82813 h -1.21875 q -0.1875,-0.35938 -0.23437,-0.85938 z m -0.0937,-2.60937 q -0.64063,0.26562 -1.92188,0.4375 -0.71875,0.10937 -1.01562,0.25 -0.29688,0.125 -0.46875,0.375 -0.15625,0.25 -0.15625,0.54687 0,0.46875 0.34375,0.78125 0.35937,0.3125 1.04687,0.3125 0.67188,0 1.20313,-0.29687 0.53125,-0.29688 0.78125,-0.8125 0.1875,-0.39063 0.1875,-1.17188 z m 2.9906,6.125 v -9.56249 h 1.07812 v 0.89063 q 0.375,-0.53125 0.84375,-0.78125 0.48438,-0.26563 1.15625,-0.26563 0.875,0 1.54688,0.45313 0.6875,0.45312 1.03125,1.28125 0.34375,0.82812 0.34375,1.82811 0,1.04687 -0.375,1.90625 -0.375,0.84375 -1.10938,1.29687 -0.71875,0.45313 -1.53125,0.45313 -0.57812,0 -1.04687,-0.25 -0.46875,-0.25 -0.76563,-0.625 v 3.375 z m 1.0625,-6.07813 q 0,1.34375 0.53125,1.98438 0.54687,0.625 1.3125,0.625 0.78125,0 1.34375,-0.65625 0.5625,-0.65625 0.5625,-2.04688 0,-1.31248 -0.54688,-1.96873 -0.54687,-0.67187 -1.29687,-0.67187 -0.75,0 -1.32813,0.70312 -0.57812,0.70313 -0.57812,2.03123 z m 6.34997,3.42188 v -9.54686 h 1.17188 v 3.42187 q 0.82812,-0.9375 2.07812,-0.9375 0.76563,0 1.32813,0.29688 0.5625,0.29687 0.8125,0.84375 0.25,0.53125 0.25,1.54687 v 4.37499 h -1.17188 v -4.37499 q 0,-0.89062 -0.39062,-1.28125 -0.375,-0.40625 -1.07813,-0.40625 -0.51562,0 -0.98437,0.28125 -0.45313,0.26563 -0.65625,0.73438 -0.1875,0.45312 -0.1875,1.26562 v 3.78124 z m 6.94373,-2.0625 1.15625,-0.1875 q 0.10937,0.70312 0.54687,1.07812 0.45313,0.35938 1.25,0.35938 0.8125,0 1.20313,-0.32813 0.39062,-0.32812 0.39062,-0.76562 0,-0.39063 -0.35937,-0.625 -0.23438,-0.15625 -1.1875,-0.39063 -1.29688,-0.32812 -1.79688,-0.5625 -0.48437,-0.24998 -0.75,-0.65623 -0.25,-0.42187 -0.25,-0.9375 0,-0.45312 0.20313,-0.84375 0.21875,-0.40625 0.57812,-0.67187 0.28125,-0.1875 0.75,-0.32813 0.46875,-0.14062 1.01563,-0.14062 0.8125,0 1.42187,0.23437 0.60938,0.23438 0.90625,0.64063 0.29688,0.39062 0.40625,1.0625 l -1.14062,0.15625 q -0.0781,-0.53125 -0.45313,-0.82813 -0.375,-0.3125 -1.0625,-0.3125 -0.8125,0 -1.15625,0.26563 -0.34375,0.26562 -0.34375,0.625 0,0.23437 0.14063,0.42187 0.15625,0.1875 0.45312,0.3125 0.17188,0.0625 1.03125,0.29688 1.25,0.32812 1.73438,0.54687 0.5,0.20311 0.78125,0.60936 0.28125,0.40625 0.28125,1 0,0.59375 -0.34375,1.10937 -0.34375,0.51563 -1,0.79688 -0.64063,0.28125 -1.45313,0.28125 -1.34375,0 -2.04687,-0.5625 -0.70313,-0.5625 -0.90625,-1.65625 z" />
  <path
     style="fill:#b6d7a8;fill-rule:evenodd"
     inkscape:connector-curvature="0"
     id="path4061"
     d="m 303.36978,136.74691 v 0 c -1.41479,0 -2.56171,-1.14691 -2.56171,-2.56174 V 98.0173 c 0,-0.67942 0.2699,-1.331 0.75031,-1.81141 0.48041,-0.48043 1.13202,-0.7503 1.8114,-0.7503 h 10.24664 c 1.4148,0 2.56171,1.14691 2.56171,2.56171 v 36.16787 0 c 0,1.41483 -1.14691,2.56174 -2.56171,2.56174 z" />
  <path
     style="fill-rule:evenodd;stroke:#000000;stroke-width:1;stroke-linecap:butt;stroke-linejoin:round"
     inkscape:connector-curvature="0"
     id="path4063"
     d="m 303.36978,136.74691 v 0 c -1.41479,0 -2.56171,-1.14691 -2.56171,-2.56174 V 98.0173 c 0,-0.67942 0.2699,-1.331 0.75031,-1.81141 0.48041,-0.48043 1.13202,-0.7503 1.8114,-0.7503 h 10.24664 c 1.4148,0 2.56171,1.14691 2.56171,2.56171 v 36.16787 0 c 0,1.41483 -1.14691,2.56174 -2.56171,2.56174 z" />
  <path
     style="fill:#000000;fill-rule:nonzero"
     inkscape:connector-curvature="0"
     id="path4065"
     d="m 311.95312,134.34103 h -6.67187 v -0.875 h 5.89062 v -3.29687 h 0.78125 z m -2.42187,-4.81287 q -1.34375,0 -1.98438,-0.75 Q 307,128.15316 307,127.26254 q 0,-1 0.65625,-1.625 0.65625,-0.64063 1.8125,-0.64063 0.9375,0 1.46875,0.28125 0.53125,0.28125 0.82812,0.8125 0.29688,0.53125 0.29688,1.17188 0,1.01562 -0.64063,1.64062 -0.65625,0.625 -1.89062,0.625 z m 0,-0.84375 q 0.9375,0 1.40625,-0.40625 0.45312,-0.40625 0.45312,-1.01562 0,-0.60938 -0.46875,-1.01563 -0.46875,-0.40625 -1.42187,-0.40625 -0.89063,0 -1.34375,0.40625 -0.46875,0.40625 -0.46875,1.01563 0,0.60937 0.46875,1.01562 0.45312,0.40625 1.375,0.40625 z m 2.42187,-5.53161 -4.84375,1.46875 v -0.84375 l 2.79688,-0.76563 1.04687,-0.29687 q -0.0781,-0.0156 -1,-0.25 l -2.84375,-0.76563 v -0.84375 l 2.8125,-0.71875 0.92188,-0.25 -0.9375,-0.26562 -2.79688,-0.82813 v -0.79687 l 4.84375,1.5 v 0.85937 l -2.89062,0.76563 -0.82813,0.1875 3.71875,0.98437 z m -1.5625,-9.15836 0.10938,-0.84375 q 0.75,0.1875 1.15625,0.73438 0.40625,0.54687 0.40625,1.39062 0,1.0625 -0.65625,1.6875 -0.65625,0.60938 -1.82813,0.60938 -1.21875,0 -1.89062,-0.625 -0.6875,-0.625 -0.6875,-1.625 0,-0.98438 0.67187,-1.59375 0.65625,-0.60938 1.85938,-0.60938 0.0625,0 0.21875,0 v 3.60938 q 0.79687,-0.0469 1.21875,-0.45313 0.42187,-0.40625 0.42187,-1.01562 0,-0.45313 -0.23437,-0.76563 -0.23438,-0.3125 -0.76563,-0.5 z m -1.32812,2.6875 v -2.70312 q -0.60938,0.0625 -0.90625,0.3125 -0.46875,0.39062 -0.46875,1.01562 0,0.5625 0.375,0.95313 0.375,0.375 1,0.42187 z m 2.89062,-4.56286 h -4.84375 v -0.73438 h 0.73438 q -0.51563,-0.28125 -0.67188,-0.51562 Q 307,110.61908 307,110.33783 q 0,-0.42188 0.26562,-0.84375 l 0.76563,0.28125 q -0.17188,0.29687 -0.17188,0.60937 0,0.26563 0.15625,0.48438 0.15625,0.20312 0.45313,0.29687 0.4375,0.14063 0.95312,0.14063 h 2.53125 z m -5.73437,-3.12195 h -0.9375 v -0.8125 h 0.9375 z m 5.73437,0 h -4.84375 v -0.8125 h 4.84375 z m 0,-2.0568 h -4.84375 v -0.75 h 0.6875 Q 307,105.65908 307,104.65908 q 0,-0.4375 0.17187,-0.79687 0.15625,-0.375 0.40625,-0.54688 0.25,-0.1875 0.60938,-0.26562 0.21875,-0.0469 0.79687,-0.0469 h 2.96875 v 0.82813 h -2.9375 q -0.5,0 -0.75,0.0937 -0.25,0.0937 -0.39062,0.34375 -0.15625,0.23437 -0.15625,0.5625 0,0.51562 0.32812,0.90625 0.32813,0.375 1.26563,0.375 h 2.64062 z m 0.40625,-5.04724 0.10938,-0.79687 q 0.375,-0.0469 0.54687,-0.28125 0.21875,-0.29688 0.21875,-0.82813 0,-0.5625 -0.23437,-0.875 -0.21875,-0.3125 -0.625,-0.42187 -0.25,-0.0625 -1.0625,-0.0625 0.64062,0.54687 0.64062,1.34375 0,1 -0.71875,1.54687 -0.71875,0.54688 -1.73437,0.54688 -0.6875,0 -1.26563,-0.25 -0.59375,-0.25 -0.90625,-0.71875 Q 307,100.61184 307,99.97122 q 0,-0.85938 0.70312,-1.42188 h -0.59375 v -0.75 h 4.1875 q 1.125,0 1.59375,0.23438 0.48438,0.21875 0.75,0.71875 0.28125,0.5 0.28125,1.23437 0,0.85938 -0.39062,1.39063 -0.39063,0.53125 -1.17188,0.51562 z m -2.90625,-0.67187 q 0.95313,0 1.39063,-0.375 0.4375,-0.39063 0.4375,-0.95313 0,-0.5625 -0.4375,-0.9375 -0.4375,-0.39062 -1.375,-0.39062 -0.875,0 -1.32813,0.39062 -0.45312,0.39063 -0.45312,0.95313 0,0.54687 0.45312,0.9375 0.4375,0.375 1.3125,0.375 z" />
</svg>
