<svg version="1.1" viewBox="0.0 0.0 466.71128608923885 350.0577427821522" fill="none" stroke="none" stroke-linecap="square" stroke-miterlimit="10" xmlns:xlink="http://www.w3.org/1999/xlink" xmlns="http://www.w3.org/2000/svg"><clipPath id="p.0"><path d="m0 0l466.71127 0l0 350.05774l-466.71127 0l0 -350.05774z" clip-rule="nonzero"/></clipPath><g clip-path="url(#p.0)"><path fill="#000000" fill-opacity="0.0" d="m0 0l466.71127 0l0 350.05774l-466.71127 0z" fill-rule="evenodd"/><path fill="#000000" fill-opacity="0.0" d="m170.95479 63.156773l-0.06298828 40.440945" fill-rule="evenodd"/><path stroke="#4285f4" stroke-width="2.0" stroke-linejoin="round" stroke-linecap="butt" d="m170.95479 63.156773l-0.044296265 28.440952" fill-rule="evenodd"/><path fill="#4285f4" stroke="#4285f4" stroke-width="2.0" stroke-linecap="butt" d="m167.60703 91.59259l3.289322 9.081329l3.3175964 -9.071045z" fill-rule="evenodd"/><path fill="#000000" fill-opacity="0.0" d="m170.95479 234.30244l-0.06298828 40.440933" fill-rule="evenodd"/><path stroke="#4285f4" stroke-width="2.0" stroke-linejoin="round" stroke-linecap="butt" d="m170.95479 234.30243l-0.044296265 28.440979" fill-rule="evenodd"/><path fill="#4285f4" stroke="#4285f4" stroke-width="2.0" stroke-linecap="butt" d="m167.60703 262.73825l3.289322 9.081329l3.3175964 -9.071045z" fill-rule="evenodd"/><g filter="url(#shadowFilter-p.1)"><use xlink:href="#p.1" transform="matrix(1.0 0.0 0.0 1.0 5.36231109539042 4.499513320722605)"/></g><defs><filter id="shadowFilter-p.1" filterUnits="userSpaceOnUse"><feGaussianBlur in="SourceAlpha" stdDeviation="2.0" result="blur"/><feComponentTransfer in="blur" color-interpolation-filters="sRGB"><feFuncR type="linear" slope="0" intercept="0.8"/><feFuncG type="linear" slope="0" intercept="0.8"/><feFuncB type="linear" slope="0" intercept="0.8"/><feFuncA type="linear" slope="0.36" intercept="0"/></feComponentTransfer></filter></defs><g id="p.1"><path fill="#d9d9d9" d="m16.149908 276.68857l436.28348 0l0 70.55118l-436.28348 0z" fill-rule="evenodd"/><path stroke="#666666" stroke-width="1.0" stroke-linejoin="round" stroke-linecap="butt" d="m16.149908 276.68857l436.28348 0l0 70.55118l-436.28348 0z" fill-rule="evenodd"/></g><g filter="url(#shadowFilter-p.2)"><use xlink:href="#p.2" transform="matrix(1.0 0.0 0.0 1.0 5.36231109539042 4.499513320722605)"/></g><defs><filter id="shadowFilter-p.2" filterUnits="userSpaceOnUse"><feGaussianBlur in="SourceAlpha" stdDeviation="2.0" result="blur"/><feComponentTransfer in="blur" color-interpolation-filters="sRGB"><feFuncR type="linear" slope="0" intercept="0.8"/><feFuncG type="linear" slope="0" intercept="0.8"/><feFuncB type="linear" slope="0" intercept="0.8"/><feFuncA type="linear" slope="0.36" intercept="0"/></feComponentTransfer></filter></defs><g id="p.2"><path fill="#ffffff" d="m35.799145 17.036037l197.03937 0l0 45.85827l-197.03937 0z" fill-rule="evenodd"/><path stroke="#666666" stroke-width="1.0" stroke-linejoin="round" stroke-linecap="butt" d="m35.799145 17.036037l197.03937 0l0 45.85827l-197.03937 0z" fill-rule="evenodd"/><path fill="#ff6f00" d="m109.94377 36.41892l-3.1875 0l0 -2.046875l8.546875 0l0 2.046875l-3.1875 0l0 9.40625l-2.171875 0l0 -9.40625zm7.09552 -2.046875l7.265625 0l0 2.046875l-5.109375 0l0 2.78125l4.59375 0l0 2.046875l-4.59375 0l0 4.578125l-2.15625 0l0 -11.453125zm7.8555145 11.453125l0 0zm7.7952576 -11.453125l2.484375 0l4.296875 11.453125l-2.390625 0l-0.953125 -2.734375l-4.390625 0l-0.953125 2.734375l-2.390625 0l4.296875 -11.453125zm2.734375 6.734375l-1.015625 -2.875l-0.40625 -1.375l-0.125 0l-0.421875 1.375l-1.03125 2.875l3.0 0zm5.598892 -6.734375l4.03125 0q1.09375 0 1.984375 0.453125q0.890625 0.453125 1.40625 1.28125q0.515625 0.828125 0.515625 1.875q0 1.0625 -0.515625 1.890625q-0.515625 0.828125 -1.40625 1.296875q-0.890625 0.453125 -1.984375 0.453125l-1.875 0l0 4.203125l-2.15625 0l0 -11.453125zm4.09375 5.203125q0.796875 0 1.25 -0.46875q0.46875 -0.46875 0.46875 -1.125q0 -0.65625 -0.46875 -1.109375q-0.453125 -0.453125 -1.25 -0.453125l-1.9375 0l0 3.15625l1.9375 0zm5.666275 -5.203125l2.15625 0l0 11.453125l-2.15625 0l0 -11.453125zm7.5805054 11.703125q-1.484375 0 -2.40625 -0.59375q-0.921875 -0.609375 -1.28125 -1.59375l1.859375 -0.8125q0.265625 0.578125 0.734375 0.875q0.46875 0.296875 1.09375 0.296875q0.578125 0 0.953125 -0.1875q0.390625 -0.1875 0.390625 -0.609375q0 -0.390625 -0.359375 -0.59375q-0.34375 -0.203125 -1.046875 -0.359375l-0.953125 -0.203125q-1.0 -0.25 -1.65625 -0.875q-0.65625 -0.640625 -0.65625 -1.578125q0 -0.703125 0.421875 -1.265625q0.421875 -0.5625 1.15625 -0.859375q0.734375 -0.3125 1.609375 -0.3125q2.53125 0 3.375 1.78125l-1.796875 0.78125q-0.46875 -0.859375 -1.53125 -0.859375q-0.546875 0 -0.875 0.203125q-0.3125 0.203125 -0.3125 0.5q0 0.578125 1.09375 0.859375l1.203125 0.296875q1.21875 0.296875 1.828125 0.921875q0.609375 0.625 0.609375 1.53125q0 0.796875 -0.453125 1.390625q-0.453125 0.59375 -1.25 0.9375q-0.78125 0.328125 -1.75 0.328125z" fill-rule="nonzero"/></g><g filter="url(#shadowFilter-p.3)"><use xlink:href="#p.3" transform="matrix(1.0 0.0 0.0 1.0 5.36231109539042 4.499513320722605)"/></g><defs><filter id="shadowFilter-p.3" filterUnits="userSpaceOnUse"><feGaussianBlur in="SourceAlpha" stdDeviation="2.0" result="blur"/><feComponentTransfer in="blur" color-interpolation-filters="sRGB"><feFuncR type="linear" slope="0" intercept="0.8"/><feFuncG type="linear" slope="0" intercept="0.8"/><feFuncB type="linear" slope="0" intercept="0.8"/><feFuncA type="linear" slope="0.36" intercept="0"/></feComponentTransfer></filter></defs><g id="p.3"><path fill="#ffffff" d="m107.49374 102.89067l343.3386 0l0 135.1496l-343.3386 0z" fill-rule="evenodd"/><path stroke="#666666" stroke-width="1.0" stroke-linejoin="round" stroke-linecap="butt" d="m107.49374 102.89067l343.3386 0l0 135.1496l-343.3386 0z" fill-rule="evenodd"/><path fill="#ff6f00" d="m121.89121 115.79755l2.15625 0l0 9.40625l4.8437576 0l0 2.046875l-7.0000076 0l0 -11.453125zm12.28141 11.703125q-1.265625 0 -2.25 -0.5625q-0.984375 -0.5625 -1.546875 -1.546875q-0.546875 -0.984375 -0.546875 -2.21875q0 -1.21875 0.546875 -2.203125q0.5625 -1.0 1.546875 -1.5625q0.984375 -0.578125 2.25 -0.578125q1.25 0 2.234375 0.578125q1.0 0.5625 1.546875 1.5625q0.5625 0.984375 0.5625 2.203125q0 1.234375 -0.5625 2.21875q-0.546875 0.984375 -1.546875 1.546875q-0.984375 0.5625 -2.234375 0.5625zm0 -1.9375q0.609375 0 1.125 -0.28125q0.515625 -0.28125 0.8125 -0.828125q0.3125 -0.546875 0.3125 -1.28125q0 -0.71875 -0.3125 -1.265625q-0.296875 -0.546875 -0.8125 -0.828125q-0.515625 -0.296875 -1.125 -0.296875q-0.609375 0 -1.125 0.296875q-0.5 0.28125 -0.8125 0.828125q-0.3125 0.546875 -0.3125 1.265625q0 0.71875 0.3125 1.28125q0.3125 0.546875 0.8125 0.828125q0.515625 0.28125 1.125 0.28125zm4.867523 -6.46875l2.359375 0l1.40625 5.296875l0.109375 0l1.625 -5.296875l2.15625 0l1.625 5.296875l0.109375 0l1.40625 -5.296875l2.328125 0l-2.609375 8.15625l-2.25 0l-1.671875 -5.28125l-0.109375 0l-1.65625 5.28125l-2.234375 0l-2.59375 -8.15625zm17.902405 8.40625q-1.21875 0 -2.1875 -0.546875q-0.96875 -0.5625 -1.53125 -1.546875q-0.546875 -0.984375 -0.546875 -2.21875q0 -1.171875 0.53125 -2.171875q0.546875 -1.0 1.5 -1.59375q0.96875 -0.59375 2.15625 -0.59375q1.265625 0 2.171875 0.546875q0.921875 0.546875 1.390625 1.5q0.46875 0.9375 0.46875 2.09375q0 0.359375 -0.046875 0.703125l-6.125 0q0.15625 0.96875 0.765625 1.484375q0.625 0.5 1.484375 0.5q0.71875 0 1.234375 -0.3125q0.53125 -0.3125 0.828125 -0.84375l1.703125 0.828125q-1.25 2.171875 -3.796875 2.171875zm1.9375 -5.328125q-0.03125 -0.375 -0.28125 -0.75q-0.25 -0.375 -0.6875 -0.625q-0.4375 -0.25 -1.03125 -0.25q-0.75 0 -1.296875 0.4375q-0.53125 0.4375 -0.765625 1.1875l4.0625 0zm3.6420135 -3.078125l1.953125 0l0 1.078125l0.140625 0q0.296875 -0.5625 0.9375 -0.9375q0.640625 -0.390625 1.40625 -0.390625q0.5625 0 1.03125 0.1875l0 2.09375q-0.4375 -0.15625 -0.734375 -0.234375q-0.296875 -0.078125 -0.625 -0.078125q-0.9375 0 -1.484375 0.671875q-0.53125 0.671875 -0.53125 1.703125l0 4.0625l-2.09375 0l0 -8.15625zm8.003891 -0.90625q-0.5625 0 -0.96875 -0.390625q-0.390625 -0.40625 -0.390625 -0.96875q0 -0.546875 0.390625 -0.9375q0.40625 -0.40625 0.96875 -0.40625q0.5625 0 0.953125 0.40625q0.390625 0.390625 0.390625 0.9375q0 0.5625 -0.390625 0.96875q-0.390625 0.390625 -0.953125 0.390625zm-1.046875 0.90625l2.09375 0l0 8.15625l-2.09375 0l0 -8.15625zm4.275009 0l1.953125 0l0 1.015625l0.140625 0q0.359375 -0.59375 1.03125 -0.9375q0.671875 -0.34375 1.453125 -0.34375q1.484375 0 2.25 0.90625q0.765625 0.890625 0.765625 2.4375l0 5.078125l-2.09375 0l0 -4.8125q0 -0.78125 -0.40625 -1.21875q-0.390625 -0.4375 -1.109375 -0.4375q-0.859375 0 -1.375 0.65625q-0.515625 0.65625 -0.515625 1.65625l0 4.15625l-2.09375 0l0 -8.15625zm13.254013 11.875q-1.546875 0 -2.578125 -0.703125q-1.015625 -0.703125 -1.375 -1.671875l1.96875 -0.796875q0.265625 0.609375 0.78125 0.953125q0.53125 0.359375 1.203125 0.359375q1.0 0 1.578125 -0.609375q0.578125 -0.609375 0.578125 -1.734375l0 -0.640625l-0.125 0q-0.375 0.546875 -1.0 0.84375q-0.625 0.28125 -1.421875 0.28125q-1.015625 0 -1.890625 -0.515625q-0.875 -0.53125 -1.40625 -1.46875q-0.515625 -0.953125 -0.515625 -2.21875q0 -1.265625 0.515625 -2.21875q0.53125 -0.953125 1.40625 -1.46875q0.875 -0.53125 1.890625 -0.53125q0.796875 0 1.421875 0.296875q0.625 0.28125 1.0 0.828125l0.125 0l0 -0.859375l2.015625 0l0 7.59375q0 1.3125 -0.515625 2.265625q-0.5 0.96875 -1.453125 1.484375q-0.9375 0.53125 -2.203125 0.53125zm0.03125 -5.625q0.890625 0 1.5 -0.609375q0.625 -0.625 0.625 -1.6875q0 -1.109375 -0.609375 -1.703125q-0.609375 -0.609375 -1.515625 -0.609375q-0.890625 0 -1.515625 0.609375q-0.625 0.609375 -0.625 1.703125q0 1.078125 0.625 1.6875q0.625 0.609375 1.515625 0.609375zm5.171524 1.90625l0 0zm7.2596283 0.25q-1.296875 0 -2.125 -0.75q-0.828125 -0.765625 -0.828125 -2.0q0 -0.8125 0.421875 -1.4375q0.4375 -0.625 1.1875 -0.953125q0.75 -0.34375 1.671875 -0.34375q1.265625 0 2.15625 0.375l0 -0.359375q0 -0.671875 -0.515625 -1.078125q-0.5 -0.421875 -1.34375 -0.421875q-0.578125 0 -1.109375 0.265625q-0.53125 0.265625 -0.890625 0.6875l-1.34375 -1.046875q0.59375 -0.765625 1.484375 -1.1875q0.90625 -0.421875 1.953125 -0.421875q1.875 0 2.84375 0.875q0.984375 0.859375 0.984375 2.515625l0 5.03125l-2.0625 0l0 -0.828125l-0.125 0q-0.375 0.46875 -0.984375 0.78125q-0.59375 0.296875 -1.375 0.296875zm0.5 -1.625q0.90625 0 1.4375 -0.578125q0.546875 -0.59375 0.546875 -1.375q-0.8125 -0.390625 -1.71875 -0.390625q-1.625 0 -1.625 1.21875q0 0.5 0.34375 0.8125q0.359375 0.3125 1.015625 0.3125zm5.991638 -6.78125l1.953125 0l0 1.015625l0.140625 0q0.359375 -0.59375 1.03125 -0.9375q0.671875 -0.34375 1.453125 -0.34375q1.484375 0 2.25 0.90625q0.765625 0.890625 0.765625 2.4375l0 5.078125l-2.09375 0l0 -4.8125q0 -0.78125 -0.40625 -1.21875q-0.390625 -0.4375 -1.109375 -0.4375q-0.859375 0 -1.375 0.65625q-0.515625 0.65625 -0.515625 1.65625l0 4.15625l-2.09375 0l0 -8.15625zm13.084015 8.40625q-1.109375 0 -2.015625 -0.546875q-0.90625 -0.546875 -1.421875 -1.53125q-0.515625 -0.984375 -0.515625 -2.25q0 -1.25 0.515625 -2.234375q0.515625 -1.0 1.421875 -1.546875q0.90625 -0.5625 2.015625 -0.5625q0.828125 0 1.46875 0.359375q0.640625 0.359375 0.96875 0.890625l0.140625 0l-0.140625 -1.140625l0 -3.140625l2.09375 0l0 11.453125l-1.953125 0l0 -0.96875l-0.140625 0q-0.3125 0.515625 -0.96875 0.875q-0.640625 0.34375 -1.46875 0.34375zm0.34375 -1.9375q0.59375 0 1.109375 -0.296875q0.515625 -0.296875 0.8125 -0.84375q0.3125 -0.546875 0.3125 -1.25q0 -0.703125 -0.3125 -1.25q-0.296875 -0.546875 -0.8125 -0.84375q-0.515625 -0.296875 -1.109375 -0.296875q-0.578125 0 -1.09375 0.296875q-0.5 0.296875 -0.8125 0.84375q-0.296875 0.546875 -0.296875 1.25q0 0.703125 0.296875 1.25q0.3125 0.546875 0.8125 0.84375q0.515625 0.296875 1.09375 0.296875zm5.2210236 1.6875l0 0zm10.142746 0.25q-1.671875 0 -3.046875 -0.78125q-1.375 -0.796875 -2.15625 -2.171875q-0.78125 -1.375 -0.78125 -3.03125q0 -1.640625 0.78125 -3.015625q0.78125 -1.375 2.15625 -2.171875q1.375 -0.796875 3.046875 -0.796875q1.6875 0 3.046875 0.796875q1.375 0.796875 2.15625 2.171875q0.78125 1.375 0.78125 3.015625q0 1.65625 -0.78125 3.03125q-0.78125 1.375 -2.15625 2.171875q-1.359375 0.78125 -3.046875 0.78125zm0 -2.046875q1.0625 0 1.9375 -0.484375q0.875 -0.5 1.375 -1.390625q0.515625 -0.90625 0.515625 -2.0625q0 -1.140625 -0.515625 -2.03125q-0.5 -0.90625 -1.375 -1.390625q-0.875 -0.5 -1.9375 -0.5q-1.0625 0 -1.9375 0.5q-0.859375 0.484375 -1.375 1.390625q-0.5 0.890625 -0.5 2.03125q0 1.15625 0.5 2.0625q0.515625 0.890625 1.375 1.390625q0.875 0.484375 1.9375 0.484375zm7.674408 -6.359375l1.96875 0l0 0.984375l0.140625 0q0.328125 -0.53125 0.96875 -0.890625q0.640625 -0.359375 1.46875 -0.359375q1.109375 0 2.015625 0.5625q0.90625 0.546875 1.40625 1.546875q0.515625 0.984375 0.515625 2.234375q0 1.265625 -0.515625 2.25q-0.5 0.984375 -1.40625 1.53125q-0.90625 0.546875 -2.015625 0.546875q-0.828125 0 -1.484375 -0.34375q-0.640625 -0.359375 -0.953125 -0.875l-0.140625 0l0.140625 1.140625l0 3.28125l-2.109375 0l0 -11.609375zm4.1875 6.46875q0.59375 0 1.09375 -0.296875q0.515625 -0.296875 0.8125 -0.84375q0.3125 -0.546875 0.3125 -1.25q0 -0.703125 -0.3125 -1.25q-0.296875 -0.546875 -0.8125 -0.84375q-0.5 -0.296875 -1.09375 -0.296875q-0.578125 0 -1.09375 0.296875q-0.515625 0.296875 -0.828125 0.84375q-0.296875 0.546875 -0.296875 1.25q0 0.703125 0.296875 1.25q0.3125 0.546875 0.828125 0.84375q0.515625 0.296875 1.09375 0.296875zm9.149506 1.8125q-0.609375 0 -1.125 -0.171875q-0.515625 -0.1875 -0.828125 -0.515625q-0.75 -0.71875 -0.75 -2.046875l0 -3.765625l-1.421875 0l0 -1.78125l1.421875 0l0 -2.3125l2.09375 0l0 2.3125l1.9999847 0l0 1.78125l-1.9999847 0l0 3.390625q0 0.609375 0.265625 0.890625q0.234375 0.25 0.78123474 0.25q0.296875 0 0.5 -0.078125q0.203125 -0.078125 0.515625 -0.265625l0 2.046875q-0.6875 0.265625 -1.4531097 0.265625zm4.3930206 -9.1875q-0.5625 0 -0.96875 -0.390625q-0.390625 -0.40625 -0.390625 -0.96875q0 -0.546875 0.390625 -0.9375q0.40625 -0.40625 0.96875 -0.40625q0.5625 0 0.953125 0.40625q0.390625 0.390625 0.390625 0.9375q0 0.5625 -0.390625 0.96875q-0.390625 0.390625 -0.953125 0.390625zm-1.046875 0.90625l2.09375 0l0 8.15625l-2.09375 0l0 -8.15625zm4.274994 0l1.953125 0l0 1.015625l0.140625 0q0.375 -0.59375 1.015625 -0.9375q0.65625 -0.34375 1.453125 -0.34375q0.875 0 1.515625 0.421875q0.640625 0.40625 0.90625 1.03125q0.40625 -0.640625 1.09375 -1.046875q0.703125 -0.40625 1.640625 -0.40625q1.390625 0 2.109375 0.859375q0.734375 0.859375 0.734375 2.3125l0 5.25l-2.078125 0l0 -4.859375q0 -0.765625 -0.359375 -1.1875q-0.359375 -0.421875 -1.0 -0.421875q-0.8125 0 -1.296875 0.65625q-0.484375 0.640625 -0.484375 1.703125l0 4.109375l-2.109375 0l0 -4.859375q0 -0.765625 -0.375 -1.1875q-0.375 -0.421875 -1.0625 -0.421875q-0.765625 0 -1.234375 0.65625q-0.46875 0.640625 -0.46875 1.703125l0 4.109375l-2.09375 0l0 -8.15625zm15.747925 -0.90625q-0.5625 0 -0.96875 -0.390625q-0.390625 -0.40625 -0.390625 -0.96875q0 -0.546875 0.390625 -0.9375q0.40625 -0.40625 0.96875 -0.40625q0.5625 0 0.953125 0.40625q0.390625 0.390625 0.390625 0.9375q0 0.5625 -0.390625 0.96875q-0.390625 0.390625 -0.953125 0.390625zm-1.046875 0.90625l2.09375 0l0 8.15625l-2.09375 0l0 -8.15625zm3.853119 6.4375l4.25 -4.671875l-4.125 0l0 -1.765625l6.703125 0l0 1.703125l-4.25 4.671875l4.375 0l0 1.78125l-6.953125 0l0 -1.71875zm10.922272 1.96875q-1.296875 0 -2.125 -0.75q-0.828125 -0.765625 -0.828125 -2.0q0 -0.8125 0.421875 -1.4375q0.4375 -0.625 1.1875 -0.953125q0.75 -0.34375 1.671875 -0.34375q1.265625 0 2.15625 0.375l0 -0.359375q0 -0.671875 -0.515625 -1.078125q-0.5 -0.421875 -1.34375 -0.421875q-0.578125 0 -1.109375 0.265625q-0.53125 0.265625 -0.890625 0.6875l-1.34375 -1.046875q0.59375 -0.765625 1.484375 -1.1875q0.90625 -0.421875 1.953125 -0.421875q1.875 0 2.84375 0.875q0.984375 0.859375 0.984375 2.515625l0 5.03125l-2.0625 0l0 -0.828125l-0.125 0q-0.375 0.46875 -0.984375 0.78125q-0.59375 0.296875 -1.375 0.296875zm0.5 -1.625q0.90625 0 1.4375 -0.578125q0.546875 -0.59375 0.546875 -1.375q-0.8125 -0.390625 -1.71875 -0.390625q-1.625 0 -1.625 1.21875q0 0.5 0.34375 0.8125q0.359375 0.3125 1.015625 0.3125zm9.3785095 1.5q-0.609375 0 -1.125 -0.171875q-0.515625 -0.1875 -0.828125 -0.515625q-0.75 -0.71875 -0.75 -2.046875l0 -3.765625l-1.421875 0l0 -1.78125l1.421875 0l0 -2.3125l2.09375 0l0 2.3125l2.0 0l0 1.78125l-2.0 0l0 3.390625q0 0.609375 0.265625 0.890625q0.234375 0.25 0.78125 0.25q0.296875 0 0.5 -0.078125q0.203125 -0.078125 0.515625 -0.265625l0 2.046875q-0.6875 0.265625 -1.453125 0.265625zm4.3930054 -9.1875q-0.5625 0 -0.96875 -0.390625q-0.390625 -0.40625 -0.390625 -0.96875q0 -0.546875 0.390625 -0.9375q0.40625 -0.40625 0.96875 -0.40625q0.5625 0 0.953125 0.40625q0.390625 0.390625 0.390625 0.9375q0 0.5625 -0.390625 0.96875q-0.390625 0.390625 -0.953125 0.390625zm-1.046875 0.90625l2.09375 0l0 8.15625l-2.09375 0l0 -8.15625zm8.085632 8.40625q-1.265625 0 -2.25 -0.5625q-0.984375 -0.5625 -1.546875 -1.546875q-0.546875 -0.984375 -0.546875 -2.21875q0 -1.21875 0.546875 -2.203125q0.5625 -1.0 1.546875 -1.5625q0.984375 -0.578125 2.25 -0.578125q1.25 0 2.234375 0.578125q1.0 0.5625 1.546875 1.5625q0.5625 0.984375 0.5625 2.203125q0 1.234375 -0.5625 2.21875q-0.546875 0.984375 -1.546875 1.546875q-0.984375 0.5625 -2.234375 0.5625zm0 -1.9375q0.609375 0 1.125 -0.28125q0.515625 -0.28125 0.8125 -0.828125q0.3125 -0.546875 0.3125 -1.28125q0 -0.71875 -0.3125 -1.265625q-0.296875 -0.546875 -0.8125 -0.828125q-0.515625 -0.296875 -1.125 -0.296875q-0.609375 0 -1.125 0.296875q-0.5 0.28125 -0.8125 0.828125q-0.3125 0.546875 -0.3125 1.265625q0 0.71875 0.3125 1.28125q0.3125 0.546875 0.8125 0.828125q0.515625 0.28125 1.125 0.28125zm5.789398 -6.46875l1.953125 0l0 1.015625l0.140625 0q0.359375 -0.59375 1.03125 -0.9375q0.671875 -0.34375 1.453125 -0.34375q1.484375 0 2.25 0.90625q0.765625 0.890625 0.765625 2.4375l0 5.078125l-2.09375 0l0 -4.8125q0 -0.78125 -0.40625 -1.21875q-0.390625 -0.4375 -1.109375 -0.4375q-0.859375 0 -1.375 0.65625q-0.515625 0.65625 -0.515625 1.65625l0 4.15625l-2.09375 0l0 -8.15625zm8.552765 8.15625l0 0zm5.0565186 -11.453125l4.03125 0q1.09375 0 1.984375 0.453125q0.890625 0.453125 1.40625 1.28125q0.515625 0.828125 0.515625 1.875q0 1.0625 -0.515625 1.890625q-0.515625 0.828125 -1.40625 1.296875q-0.890625 0.453125 -1.984375 0.453125l-1.875 0l0 4.203125l-2.15625 0l0 -11.453125zm4.09375 5.203125q0.796875 0 1.25 -0.46875q0.46875 -0.46875 0.46875 -1.125q0 -0.65625 -0.46875 -1.109375q-0.453125 -0.453125 -1.25 -0.453125l-1.9375 0l0 3.15625l1.9375 0zm7.5493774 6.5q-1.296875 0 -2.125 -0.75q-0.828125 -0.765625 -0.828125 -2.0q0 -0.8125 0.421875 -1.4375q0.4375 -0.625 1.1875 -0.953125q0.75 -0.34375 1.671875 -0.34375q1.265625 0 2.15625 0.375l0 -0.359375q0 -0.671875 -0.515625 -1.078125q-0.5 -0.421875 -1.34375 -0.421875q-0.578125 0 -1.109375 0.265625q-0.53125 0.265625 -0.890625 0.6875l-1.34375 -1.046875q0.59375 -0.765625 1.484375 -1.1875q0.90625 -0.421875 1.953125 -0.421875q1.875 0 2.84375 0.875q0.984375 0.859375 0.984375 2.515625l0 5.03125l-2.0625 0l0 -0.828125l-0.125 0q-0.375 0.46875 -0.984375 0.78125q-0.59375 0.296875 -1.375 0.296875zm0.5 -1.625q0.90625 0 1.4375 -0.578125q0.546875 -0.59375 0.546875 -1.375q-0.8125 -0.390625 -1.71875 -0.390625q-1.625 0 -1.625 1.21875q0 0.5 0.34375 0.8125q0.359375 0.3125 1.015625 0.3125zm9.005402 1.625q-1.484375 0 -2.40625 -0.59375q-0.921875 -0.609375 -1.28125 -1.59375l1.859375 -0.8125q0.265625 0.578125 0.734375 0.875q0.46875 0.296875 1.09375 0.296875q0.578125 0 0.953125 -0.1875q0.390625 -0.1875 0.390625 -0.609375q0 -0.390625 -0.359375 -0.59375q-0.34375 -0.203125 -1.046875 -0.359375l-0.953125 -0.203125q-1.0 -0.25 -1.65625 -0.875q-0.65625 -0.640625 -0.65625 -1.578125q0 -0.703125 0.421875 -1.265625q0.421875 -0.5625 1.15625 -0.859375q0.734375 -0.3125 1.609375 -0.3125q2.53125 0 3.375 1.78125l-1.796875 0.78125q-0.46875 -0.859375 -1.53125 -0.859375q-0.546875 0 -0.875 0.203125q-0.3125 0.203125 -0.3125 0.5q0 0.578125 1.09375 0.859375l1.203125 0.296875q1.21875 0.296875 1.828125 0.921875q0.609375 0.625 0.609375 1.53125q0 0.796875 -0.453125 1.390625q-0.453125 0.59375 -1.25 0.9375q-0.78125 0.328125 -1.75 0.328125zm8.080017 0q-1.484375 0 -2.40625 -0.59375q-0.921875 -0.609375 -1.28125 -1.59375l1.859375 -0.8125q0.265625 0.578125 0.734375 0.875q0.46875 0.296875 1.09375 0.296875q0.578125 0 0.953125 -0.1875q0.390625 -0.1875 0.390625 -0.609375q0 -0.390625 -0.359375 -0.59375q-0.34375 -0.203125 -1.046875 -0.359375l-0.953125 -0.203125q-1.0 -0.25 -1.65625 -0.875q-0.65625 -0.640625 -0.65625 -1.578125q0 -0.703125 0.421875 -1.265625q0.421875 -0.5625 1.15625 -0.859375q0.734375 -0.3125 1.609375 -0.3125q2.53125 0 3.375 1.78125l-1.796875 0.78125q-0.46875 -0.859375 -1.53125 -0.859375q-0.546875 0 -0.875 0.203125q-0.3125 0.203125 -0.3125 0.5q0 0.578125 1.09375 0.859375l1.203125 0.296875q1.21875 0.296875 1.828125 0.921875q0.609375 0.625 0.609375 1.53125q0 0.796875 -0.453125 1.390625q-0.453125 0.59375 -1.25 0.9375q-0.78125 0.328125 -1.75 0.328125zm8.878754 0q-1.21875 0 -2.1875 -0.546875q-0.96875 -0.5625 -1.53125 -1.546875q-0.546875 -0.984375 -0.546875 -2.21875q0 -1.171875 0.53125 -2.171875q0.546875 -1.0 1.5 -1.59375q0.96875 -0.59375 2.15625 -0.59375q1.265625 0 2.171875 0.546875q0.921875 0.546875 1.390625 1.5q0.46875 0.9375 0.46875 2.09375q0 0.359375 -0.046875 0.703125l-6.125 0q0.15625 0.96875 0.765625 1.484375q0.625 0.5 1.484375 0.5q0.71875 0 1.234375 -0.3125q0.53125 -0.3125 0.828125 -0.84375l1.703125 0.828125q-1.25 2.171875 -3.796875 2.171875zm1.9375 -5.328125q-0.03125 -0.375 -0.28125 -0.75q-0.25 -0.375 -0.6875 -0.625q-0.4375 -0.25 -1.03125 -0.25q-0.75 0 -1.296875 0.4375q-0.53125 0.4375 -0.765625 1.1875l4.0625 0zm6.815796 5.328125q-1.484375 0 -2.40625 -0.59375q-0.921875 -0.609375 -1.28125 -1.59375l1.859375 -0.8125q0.265625 0.578125 0.734375 0.875q0.46875 0.296875 1.09375 0.296875q0.578125 0 0.953125 -0.1875q0.390625 -0.1875 0.390625 -0.609375q0 -0.390625 -0.359375 -0.59375q-0.34375 -0.203125 -1.046875 -0.359375l-0.953125 -0.203125q-1.0 -0.25 -1.65625 -0.875q-0.65625 -0.640625 -0.65625 -1.578125q0 -0.703125 0.421875 -1.265625q0.421875 -0.5625 1.15625 -0.859375q0.734375 -0.3125 1.609375 -0.3125q2.53125 0 3.375 1.78125l-1.796875 0.78125q-0.46875 -0.859375 -1.53125 -0.859375q-0.546875 0 -0.875 0.203125q-0.3125 0.203125 -0.3125 0.5q0 0.578125 1.09375 0.859375l1.203125 0.296875q1.21875 0.296875 1.828125 0.921875q0.609375 0.625 0.609375 1.53125q0 0.796875 -0.453125 1.390625q-0.453125 0.59375 -1.25 0.9375q-0.78125 0.328125 -1.75 0.328125zm3.955017 -0.25l0 0zm7.5877075 2.171875q-1.140625 -1.265625 -1.984375 -3.203125q-0.828125 -1.9375 -0.828125 -4.125q0 -2.171875 0.828125 -4.109375q0.84375 -1.953125 1.984375 -3.21875l1.578125 1.09375q-2.296875 2.859375 -2.296875 6.234375q0 3.375 2.296875 6.25l-1.578125 1.078125zm3.2127686 -13.625l2.78125 0l3.046875 8.046875l0.125 0l3.03125 -8.046875l2.8125 0l0 11.453125l-2.15625 0l0 -5.640625l0.140625 -1.90625l-0.140625 0l-2.90625 7.546875l-1.671875 0l-2.9375 -7.546875l-0.125 0l0.125 1.90625l0 5.640625l-2.125 0l0 -11.453125zm14.400024 0l2.15625 0l0 9.40625l4.84375 0l0 2.046875l-7.0 0l0 -11.453125zm8.81604 0l2.15625 0l0 11.453125l-2.15625 0l0 -11.453125zm4.7680054 0l4.171875 0q1.125 0 2.0 0.46875q0.875 0.453125 1.34375 1.28125q0.484375 0.828125 0.484375 1.859375q0 1.109375 -0.703125 1.96875q-0.6875 0.84375 -1.75 1.234375l-0.015625 0.109375l3.078125 4.40625l0 0.125l-2.484375 0l-2.953125 -4.296875l-1.015625 0l0 4.296875l-2.15625 0l0 -11.453125zm4.15625 5.171875q0.734375 0 1.203125 -0.453125q0.46875 -0.453125 0.46875 -1.140625q0 -0.65625 -0.453125 -1.109375q-0.4375 -0.46875 -1.1875 -0.46875l-2.03125 0l0 3.171875l2.0 0zm4.987793 7.375q2.3125 -2.875 2.3125 -6.25q0 -3.375 -2.3125 -6.234375l1.59375 -1.09375q1.140625 1.265625 1.96875 3.21875q0.84375 1.9375 0.84375 4.109375q0 2.1875 -0.84375 4.125q-0.828125 1.9375 -1.96875 3.203125l-1.59375 -1.078125z" fill-rule="nonzero"/></g><path fill="#ffd966" d="m122.42606 66.10025l0 0c0 -6.296917 5.1046524 -11.401577 11.401573 -11.401577l78.83464 0c3.0238953 0 5.9239197 1.2012329 8.062134 3.3394432c2.138214 2.1382103 3.339447 5.038246 3.339447 8.062134l0 0l0 0c0 6.296913 -5.10466 11.401573 -11.401581 11.401573l-78.83464 0c-6.296921 0 -11.401573 -5.10466 -11.401573 -11.401573z" fill-rule="evenodd"/><path stroke="#595959" stroke-width="1.0" stroke-linejoin="round" stroke-linecap="butt" d="m122.42606 66.10025l0 0c0 -6.296917 5.1046524 -11.401577 11.401573 -11.401577l78.83464 0c3.0238953 0 5.9239197 1.2012329 8.062134 3.3394432c2.138214 2.1382103 3.339447 5.038246 3.339447 8.062134l0 0l0 0c0 6.296913 -5.10466 11.401573 -11.401581 11.401573l-78.83464 0c-6.296921 0 -11.401573 -5.10466 -11.401573 -11.401573z" fill-rule="evenodd"/><path fill="#000000" d="m143.17075 71.96024l0 -10.109371l-3.78125 0l0 -1.34375l9.078125 0l0 1.34375l-3.78125 0l0 10.109371l-1.515625 0zm6.9296875 0l0 -11.453121l7.734375 0l0 1.34375l-6.21875 0l0 3.5468712l5.375 0l0 1.359375l-5.375 0l0 5.203125l-1.515625 0zm19.5 -4.5l0 -1.34375l4.859375 0l0 4.25q-1.125 0.890625 -2.3125 1.34375q-1.1875 0.453125 -2.4375 0.453125q-1.6875 0 -3.0625 -0.71875q-1.375 -0.734375 -2.078125 -2.09375q-0.703125 -1.375 -0.703125 -3.0625q0 -1.671875 0.6875 -3.1249962q0.703125 -1.453125 2.015625 -2.15625q1.3125 -0.703125 3.03125 -0.703125q1.234375 0 2.234375 0.40625q1.015625 0.40625 1.578125 1.125q0.578125 0.71875 0.875 1.875l-1.375 0.3749962q-0.25 -0.8749962 -0.640625 -1.3749962q-0.375 -0.5 -1.09375 -0.796875q-0.703125 -0.3125 -1.578125 -0.3125q-1.03125 0 -1.796875 0.328125q-0.75 0.3125 -1.21875 0.828125q-0.46875 0.515625 -0.71875 1.125q-0.4375 1.0624962 -0.4375 2.3124962q0 1.53125 0.515625 2.5625q0.53125 1.03125 1.53125 1.53125q1.015625 0.5 2.15625 0.5q0.984375 0 1.921875 -0.375q0.9375 -0.390625 1.421875 -0.8125l0 -2.140625l-3.375 0zm6.8984375 4.5l0 -8.296871l1.265625 0l0 1.2499962q0.484375 -0.875 0.890625 -1.1562462q0.40625 -0.28125 0.90625 -0.28125q0.703125 0 1.4375 0.453125l-0.484375 1.2968712q-0.515625 -0.296875 -1.03125 -0.296875q-0.453125 0 -0.828125 0.28125q-0.359375 0.265625 -0.515625 0.765625q-0.234375 0.75 -0.234375 1.640625l0 4.34375l-1.40625 0zm10.75 -1.03125q-0.78125 0.671875 -1.5 0.953125q-0.71875 0.265625 -1.546875 0.265625q-1.375 0 -2.109375 -0.671875q-0.734375 -0.671875 -0.734375 -1.703125q0 -0.609375 0.28125 -1.109375q0.28125 -0.515625 0.71875 -0.8125q0.453125 -0.3125 1.015625 -0.46875q0.421875 -0.109375 1.25 -0.203125q1.703125 -0.203125 2.515625 -0.484375q0 -0.296875 0 -0.375q0 -0.859375 -0.390625 -1.203125q-0.546875 -0.484375 -1.609375 -0.484375q-0.984375 0 -1.46875 0.359375q-0.46875 0.34375 -0.6875 1.21875l-1.375 -0.1875q0.1875 -0.875 0.609375 -1.421875q0.4375 -0.546875 1.25 -0.8281212q0.8125 -0.296875 1.875 -0.296875q1.0625 0 1.71875 0.25q0.671875 0.25 0.984375 0.6249962q0.3125 0.375 0.4375 0.953125q0.078125 0.359375 0.078125 1.296875l0 1.875q0 1.96875 0.078125 2.484375q0.09375 0.515625 0.359375 1.0l-1.46875 0q-0.21875 -0.4375 -0.28125 -1.03125zm-0.109375 -3.140625q-0.765625 0.3125 -2.296875 0.53125q-0.875 0.125 -1.234375 0.28125q-0.359375 0.15625 -0.5625 0.46875q-0.1875 0.296875 -0.1875 0.65625q0 0.5625 0.421875 0.9375q0.4375 0.375 1.25 0.375q0.8125 0 1.4375 -0.34375q0.640625 -0.359375 0.9375 -0.984375q0.234375 -0.46875 0.234375 -1.40625l0 -0.515625zm3.6015625 7.359375l0 -11.484371l1.28125 0l0 1.0781212q0.453125 -0.640625 1.015625 -0.9531212q0.578125 -0.3125 1.390625 -0.3125q1.0625 0 1.875 0.5468712q0.8125 0.546875 1.21875 1.546875q0.421875 0.984375 0.421875 2.171875q0 1.28125 -0.46875 2.296875q-0.453125 1.015625 -1.328125 1.5625q-0.859375 0.546875 -1.828125 0.546875q-0.703125 0 -1.265625 -0.296875q-0.546875 -0.296875 -0.90625 -0.75l0 4.046875l-1.40625 0zm1.265625 -7.296875q0 1.609375 0.640625 2.375q0.65625 0.765625 1.578125 0.765625q0.9375 0 1.609375 -0.796875q0.671875 -0.796875 0.671875 -2.453125q0 -1.59375 -0.65625 -2.375q-0.65625 -0.796875 -1.5625 -0.796875q-0.890625 0 -1.59375 0.84375q-0.6875 0.84375 -0.6875 2.4375zm7.6328125 4.109375l0 -11.453121l1.40625 0l0 4.109371q0.984375 -1.1406212 2.484375 -1.1406212q0.921875 0 1.59375 0.359375q0.6875 0.3593712 0.96875 0.9999962q0.296875 0.640625 0.296875 1.859375l0 5.265625l-1.40625 0l0 -5.265625q0 -1.046875 -0.453125 -1.53125q-0.453125 -0.484375 -1.296875 -0.484375q-0.625 0 -1.171875 0.328125q-0.546875 0.328125 -0.78125 0.890625q-0.234375 0.546875 -0.234375 1.515625l0 4.546875l-1.40625 0z" fill-rule="nonzero"/><path fill="#000000" fill-opacity="0.0" d="m55.628517 62.53634l-0.5354347 214.20471" fill-rule="evenodd"/><path stroke="#ff6f00" stroke-width="2.0" stroke-linejoin="round" stroke-linecap="butt" d="m55.628517 62.536335l-0.50543976 202.20476" fill-rule="evenodd"/><path fill="#ff6f00" stroke="#ff6f00" stroke-width="2.0" stroke-linecap="butt" d="m51.819626 264.73285l3.2807655 9.084412l3.3261414 -9.067902z" fill-rule="evenodd"/><path fill="#ffd966" d="m119.89532 149.7281l0 0c0 -6.296921 5.10466 -11.401581 11.401573 -11.401581l174.23622 0c3.0238953 0 5.9239197 1.2012329 8.062134 3.339447c2.138214 2.138214 3.339447 5.0382385 3.339447 8.062134l0 0l0 0c0 6.2969055 -5.1046753 11.401566 -11.401581 11.401566l-174.23622 0c-6.296913 0 -11.401573 -5.10466 -11.401573 -11.401566z" fill-rule="evenodd"/><path stroke="#595959" stroke-width="1.0" stroke-linejoin="round" stroke-linecap="butt" d="m119.89532 149.7281l0 0c0 -6.296921 5.10466 -11.401581 11.401573 -11.401581l174.23622 0c3.0238953 0 5.9239197 1.2012329 8.062134 3.339447c2.138214 2.138214 3.339447 5.0382385 3.339447 8.062134l0 0l0 0c0 6.2969055 -5.1046753 11.401566 -11.401581 11.401566l-174.23622 0c-6.296913 0 -11.401573 -5.10466 -11.401573 -11.401566z" fill-rule="evenodd"/><path fill="#000000" d="m161.96187 155.5881l0 -11.453125l2.28125 0l2.71875 8.109375q0.375 1.125 0.546875 1.6875q0.1875 -0.625 0.609375 -1.828125l2.734375 -7.96875l2.046875 0l0 11.453125l-1.46875 0l0 -9.59375l-3.328125 9.59375l-1.359375 0l-3.3125 -9.75l0 9.75l-1.46875 0zm13.3125 0l0 -11.453125l1.515625 0l0 10.09375l5.640625 0l0 1.359375l-7.15625 0zm9.2265625 0l0 -11.453125l1.515625 0l0 11.453125l-1.515625 0zm4.2109375 0l0 -11.453125l5.078125 0q1.53125 0 2.328125 0.3125q0.796875 0.296875 1.265625 1.078125q0.484375 0.78125 0.484375 1.734375q0 1.21875 -0.796875 2.0625q-0.78125 0.828125 -2.4375 1.046875q0.609375 0.296875 0.921875 0.578125q0.65625 0.609375 1.25 1.515625l2.0 3.125l-1.90625 0l-1.515625 -2.390625q-0.671875 -1.03125 -1.109375 -1.578125q-0.421875 -0.546875 -0.765625 -0.765625q-0.328125 -0.21875 -0.6875 -0.296875q-0.25 -0.0625 -0.84375 -0.0625l-1.75 0l0 5.09375l-1.515625 0zm1.515625 -6.40625l3.25 0q1.046875 0 1.625 -0.203125q0.59375 -0.21875 0.890625 -0.6875q0.3125 -0.484375 0.3125 -1.03125q0 -0.8125 -0.59375 -1.328125q-0.59375 -0.53125 -1.859375 -0.53125l-3.625 0l0 3.78125zm17.085938 6.40625l0 -10.109375l-3.78125 0l0 -1.34375l9.078125 0l0 1.34375l-3.78125 0l0 10.109375l-1.515625 0zm6.9296875 0l0 -11.453125l7.734375 0l0 1.34375l-6.21875 0l0 3.546875l5.375 0l0 1.359375l-5.375 0l0 5.203125l-1.515625 0zm14.140625 0l0 -11.453125l3.953125 0q1.328125 0 2.03125 0.15625q0.984375 0.234375 1.6875 0.828125q0.90625 0.765625 1.34375 1.953125q0.453125 1.1875 0.453125 2.71875q0 1.3125 -0.3125 2.328125q-0.296875 1.0 -0.78125 1.65625q-0.46875 0.65625 -1.03125 1.046875q-0.5625 0.375 -1.375 0.578125q-0.796875 0.1875 -1.828125 0.1875l-4.140625 0zm1.515625 -1.359375l2.453125 0q1.125 0 1.765625 -0.203125q0.65625 -0.21875 1.03125 -0.59375q0.546875 -0.546875 0.84375 -1.453125q0.296875 -0.90625 0.296875 -2.203125q0 -1.796875 -0.59375 -2.765625q-0.578125 -0.96875 -1.421875 -1.296875q-0.609375 -0.234375 -1.96875 -0.234375l-2.40625 0l0 8.75zm9.8671875 -8.484375l0 -1.609375l1.40625 0l0 1.609375l-1.40625 0zm0 9.84375l0 -8.296875l1.40625 0l0 8.296875l-1.40625 0zm8.9609375 -1.03125q-0.78125 0.671875 -1.5 0.953125q-0.71875 0.265625 -1.546875 0.265625q-1.375 0 -2.109375 -0.671875q-0.734375 -0.671875 -0.734375 -1.703125q0 -0.609375 0.28125 -1.109375q0.28125 -0.515625 0.71875 -0.8125q0.453125 -0.3125 1.015625 -0.46875q0.421875 -0.109375 1.25 -0.203125q1.703125 -0.203125 2.515625 -0.484375q0 -0.296875 0 -0.375q0 -0.859375 -0.390625 -1.203125q-0.546875 -0.484375 -1.609375 -0.484375q-0.984375 0 -1.46875 0.359375q-0.46875 0.34375 -0.6875 1.21875l-1.375 -0.1875q0.1875 -0.875 0.609375 -1.421875q0.4375 -0.546875 1.25 -0.828125q0.8125 -0.296875 1.875 -0.296875q1.0625 0 1.71875 0.25q0.671875 0.25 0.984375 0.625q0.3125 0.375 0.4375 0.953125q0.078125 0.359375 0.078125 1.296875l0 1.875q0 1.96875 0.078125 2.484375q0.09375 0.515625 0.359375 1.0l-1.46875 0q-0.21875 -0.4375 -0.28125 -1.03125zm-0.109375 -3.140625q-0.765625 0.3125 -2.296875 0.53125q-0.875 0.125 -1.234375 0.28125q-0.359375 0.15625 -0.5625 0.46875q-0.1875 0.296875 -0.1875 0.65625q0 0.5625 0.421875 0.9375q0.4375 0.375 1.25 0.375q0.8125 0 1.4375 -0.34375q0.640625 -0.359375 0.9375 -0.984375q0.234375 -0.46875 0.234375 -1.40625l0 -0.515625zm3.5703125 4.171875l0 -11.453125l1.40625 0l0 11.453125l-1.40625 0zm9.257797 -2.671875l1.453125 0.171875q-0.34375 1.28125 -1.28125 1.984375q-0.921875 0.703125 -2.359375 0.703125q-1.828125 0 -2.890625 -1.125q-1.0624847 -1.125 -1.0624847 -3.140625q0 -2.09375 1.0781097 -3.25q1.078125 -1.15625 2.796875 -1.15625q1.65625 0 2.703125 1.140625q1.0625 1.125 1.0625 3.171875q0 0.125 0 0.375l-6.1875 0q0.078125 1.375 0.765625 2.109375q0.703125 0.71875 1.734375 0.71875q0.78125 0 1.328125 -0.40625q0.546875 -0.40625 0.859375 -1.296875zm-4.609375 -2.28125l4.625 0q-0.09375 -1.046875 -0.53125 -1.5625q-0.671875 -0.8125 -1.734375 -0.8125q-0.96875 0 -1.640625 0.65625q-0.65625 0.640625 -0.71875 1.71875zm13.2421875 1.90625l1.390625 0.1875q-0.234375 1.421875 -1.171875 2.234375q-0.921875 0.8125 -2.28125 0.8125q-1.703125 0 -2.75 -1.109375q-1.03125 -1.125 -1.03125 -3.203125q0 -1.34375 0.4375 -2.34375q0.453125 -1.015625 1.359375 -1.515625q0.921875 -0.5 1.984375 -0.5q1.359375 0 2.21875 0.6875q0.859375 0.671875 1.09375 1.9375l-1.359375 0.203125q-0.203125 -0.828125 -0.703125 -1.25q-0.484375 -0.421875 -1.1875 -0.421875q-1.0625 0 -1.734375 0.765625q-0.65625 0.75 -0.65625 2.40625q0 1.671875 0.640625 2.4375q0.640625 0.75 1.671875 0.75q0.828125 0 1.375 -0.5q0.5625 -0.515625 0.703125 -1.578125zm5.65625 1.78125l0.203125 1.25q-0.59375 0.125 -1.0625 0.125q-0.765625 0 -1.1875 -0.234375q-0.421875 -0.25 -0.59375 -0.640625q-0.171875 -0.40625 -0.171875 -1.671875l0 -4.765625l-1.03125 0l0 -1.09375l1.03125 0l0 -2.0625l1.40625 -0.84375l0 2.90625l1.40625 0l0 1.09375l-1.40625 0l0 4.84375q0 0.609375 0.0625 0.78125q0.078125 0.171875 0.25 0.28125q0.171875 0.09375 0.484375 0.09375q0.234375 0 0.609375 -0.0625z" fill-rule="nonzero"/><path fill="#d9d9d9" d="m119.89501 193.53806l0 0c0 -6.296921 5.10466 -11.401566 11.401573 -11.401566l209.95274 0c3.0238953 0 5.92395 1.2012329 8.062134 3.3394318c2.138214 2.138214 3.339447 5.038254 3.339447 8.062134l0 0l0 0c0 6.296921 -5.104645 11.401581 -11.401581 11.401581l-209.95274 0c-6.296913 0 -11.401573 -5.10466 -11.401573 -11.401581z" fill-rule="evenodd"/><path stroke="#595959" stroke-width="1.0" stroke-linejoin="round" stroke-linecap="butt" d="m119.89501 193.53806l0 0c0 -6.296921 5.10466 -11.401566 11.401573 -11.401566l209.95274 0c3.0238953 0 5.92395 1.2012329 8.062134 3.3394318c2.138214 2.138214 3.339447 5.038254 3.339447 8.062134l0 0l0 0c0 6.296921 -5.104645 11.401581 -11.401581 11.401581l-209.95274 0c-6.296913 0 -11.401573 -5.10466 -11.401573 -11.401581z" fill-rule="evenodd"/><path fill="#000000" d="m138.92531 199.39806l0 -10.109375l-3.78125 0l0 -1.34375l9.078125 0l0 1.34375l-3.78125 0l0 10.109375l-1.515625 0zm6.9296875 0l0 -11.453125l7.734375 0l0 1.34375l-6.21875 0l0 3.546875l5.375 0l0 1.359375l-5.375 0l0 5.203125l-1.515625 0zm9.7265625 0l0 -11.453125l5.078125 0q1.53125 0 2.328125 0.3125q0.796875 0.296875 1.265625 1.078125q0.484375 0.78125 0.484375 1.734375q0 1.21875 -0.796875 2.0625q-0.78125 0.828125 -2.4375 1.046875q0.609375 0.296875 0.921875 0.578125q0.65625 0.609375 1.25 1.515625l2.0 3.125l-1.90625 0l-1.515625 -2.390625q-0.671875 -1.03125 -1.109375 -1.578125q-0.421875 -0.546875 -0.765625 -0.765625q-0.328125 -0.21875 -0.6875 -0.296875q-0.25 -0.0625 -0.84375 -0.0625l-1.75 0l0 5.09375l-1.515625 0zm1.515625 -6.40625l3.25 0q1.046875 0 1.625 -0.203125q0.59375 -0.21875 0.890625 -0.6875q0.3125 -0.484375 0.3125 -1.03125q0 -0.8125 -0.59375 -1.328125q-0.59375 -0.53125 -1.859375 -0.53125l-3.625 0l0 3.78125zm12.640625 6.40625l0 -10.109375l-3.78125 0l0 -1.34375l9.078125 0l0 1.34375l-3.78125 0l0 10.109375l-1.515625 0zm11.0546875 0l0 -11.453125l1.515625 0l0 4.703125l5.953125 0l0 -4.703125l1.515625 0l0 11.453125l-1.515625 0l0 -5.40625l-5.953125 0l0 5.40625l-1.515625 0zm10.8046875 -4.15625q0 -2.296875 1.28125 -3.40625q1.078125 -0.921875 2.609375 -0.921875q1.71875 0 2.796875 1.125q1.09375 1.109375 1.09375 3.09375q0 1.59375 -0.484375 2.515625q-0.484375 0.921875 -1.40625 1.4375q-0.90625 0.5 -2.0 0.5q-1.734375 0 -2.8125 -1.109375q-1.078125 -1.125 -1.078125 -3.234375zm1.453125 0q0 1.59375 0.6875 2.390625q0.703125 0.796875 1.75 0.796875q1.046875 0 1.734375 -0.796875q0.703125 -0.796875 0.703125 -2.4375q0 -1.53125 -0.703125 -2.328125q-0.6875 -0.796875 -1.734375 -0.796875q-1.046875 0 -1.75 0.796875q-0.6875 0.78125 -0.6875 2.375zm7.4140625 1.671875l1.390625 -0.21875q0.109375 0.84375 0.640625 1.296875q0.546875 0.4375 1.5 0.4375q0.96875 0 1.4375 -0.390625q0.46875 -0.40625 0.46875 -0.9375q0 -0.46875 -0.40625 -0.75q-0.296875 -0.1875 -1.4375 -0.46875q-1.546875 -0.390625 -2.15625 -0.671875q-0.59375 -0.296875 -0.90625 -0.796875q-0.296875 -0.5 -0.296875 -1.109375q0 -0.5625 0.25 -1.03125q0.25 -0.46875 0.6875 -0.78125q0.328125 -0.25 0.890625 -0.40625q0.578125 -0.171875 1.21875 -0.171875q0.984375 0 1.71875 0.28125q0.734375 0.28125 1.078125 0.765625q0.359375 0.46875 0.5 1.28125l-1.375 0.1875q-0.09375 -0.640625 -0.546875 -1.0q-0.453125 -0.359375 -1.265625 -0.359375q-0.96875 0 -1.390625 0.328125q-0.40625 0.3125 -0.40625 0.734375q0 0.28125 0.171875 0.5q0.171875 0.21875 0.53125 0.375q0.21875 0.078125 1.25 0.359375q1.484375 0.390625 2.078125 0.65625q0.59375 0.25 0.921875 0.734375q0.34375 0.484375 0.34375 1.203125q0 0.703125 -0.421875 1.328125q-0.40625 0.609375 -1.1875 0.953125q-0.765625 0.34375 -1.734375 0.34375q-1.625 0 -2.46875 -0.671875q-0.84375 -0.671875 -1.078125 -2.0zm11.625 1.21875l0.203125 1.25q-0.59375 0.125 -1.0625 0.125q-0.765625 0 -1.1875 -0.234375q-0.421875 -0.25 -0.59375 -0.640625q-0.171875 -0.40625 -0.171875 -1.671875l0 -4.765625l-1.03125 0l0 -1.09375l1.03125 0l0 -2.0625l1.40625 -0.84375l0 2.90625l1.40625 0l0 1.09375l-1.40625 0l0 4.84375q0 0.609375 0.0625 0.78125q0.078125 0.171875 0.25 0.28125q0.171875 0.09375 0.484375 0.09375q0.234375 0 0.609375 -0.0625zm6.0 1.265625l0 -11.453125l4.328125 0q1.140625 0 1.734375 0.109375q0.84375 0.140625 1.40625 0.53125q0.578125 0.390625 0.921875 1.109375q0.359375 0.703125 0.359375 1.5625q0 1.453125 -0.9375 2.46875q-0.921875 1.015625 -3.359375 1.015625l-2.9375 0l0 4.65625l-1.515625 0zm1.515625 -6.015625l2.96875 0q1.46875 0 2.078125 -0.546875q0.625 -0.546875 0.625 -1.53125q0 -0.71875 -0.375 -1.234375q-0.359375 -0.515625 -0.953125 -0.671875q-0.375 -0.109375 -1.40625 -0.109375l-2.9375 0l0 4.09375zm8.96875 6.015625l0 -8.296875l1.265625 0l0 1.25q0.484375 -0.875 0.890625 -1.15625q0.40625 -0.28125 0.90625 -0.28125q0.703125 0 1.4375 0.453125l-0.484375 1.296875q-0.515625 -0.296875 -1.03125 -0.296875q-0.453125 0 -0.828125 0.28125q-0.359375 0.265625 -0.515625 0.765625q-0.234375 0.75 -0.234375 1.640625l0 4.34375l-1.40625 0zm4.8125 -4.15625q0 -2.296875 1.28125 -3.40625q1.078125 -0.921875 2.609375 -0.921875q1.71875 0 2.796875 1.125q1.09375 1.109375 1.09375 3.09375q0 1.59375 -0.484375 2.515625q-0.484375 0.921875 -1.40625 1.4375q-0.90625 0.5 -2.0 0.5q-1.734375 0 -2.8125 -1.109375q-1.078125 -1.125 -1.078125 -3.234375zm1.453125 0q0 1.59375 0.6875 2.390625q0.703125 0.796875 1.75 0.796875q1.046875 0 1.734375 -0.796875q0.703125 -0.796875 0.703125 -2.4375q0 -1.53125 -0.703125 -2.328125q-0.6875 -0.796875 -1.734375 -0.796875q-1.046875 0 -1.75 0.796875q-0.6875 0.78125 -0.6875 2.375zm7.7109375 4.84375l1.375 0.203125q0.078125 0.640625 0.46875 0.921875q0.53125 0.390625 1.4375 0.390625q0.96875 0 1.5 -0.390625q0.53125 -0.390625 0.71875 -1.09375q0.109375 -0.421875 0.109375 -1.8125q-0.921875 1.09375 -2.296875 1.09375q-1.71875 0 -2.65625 -1.234375q-0.9375 -1.234375 -0.9375 -2.96875q0 -1.1875 0.421875 -2.1875q0.4375 -1.0 1.25 -1.546875q0.828125 -0.546875 1.921875 -0.546875q1.46875 0 2.421875 1.1875l0 -1.0l1.296875 0l0 7.171875q0 1.9375 -0.390625 2.75q-0.390625 0.8125 -1.25 1.28125q-0.859375 0.46875 -2.109375 0.46875q-1.484375 0 -2.40625 -0.671875q-0.90625 -0.671875 -0.875 -2.015625zm1.171875 -4.984375q0 1.625 0.640625 2.375q0.65625 0.75 1.625 0.75q0.96875 0 1.625 -0.734375q0.65625 -0.75 0.65625 -2.34375q0 -1.53125 -0.671875 -2.296875q-0.671875 -0.78125 -1.625 -0.78125q-0.9375 0 -1.59375 0.765625q-0.65625 0.765625 -0.65625 2.265625zm7.9765625 4.296875l0 -8.296875l1.265625 0l0 1.25q0.484375 -0.875 0.890625 -1.15625q0.40625 -0.28125 0.90625 -0.28125q0.703125 0 1.4374847 0.453125l-0.48435974 1.296875q-0.515625 -0.296875 -1.03125 -0.296875q-0.453125 0 -0.828125 0.28125q-0.359375 0.265625 -0.515625 0.765625q-0.234375 0.75 -0.234375 1.640625l0 4.34375l-1.40625 0zm10.749985 -1.03125q-0.78125 0.671875 -1.5 0.953125q-0.71875 0.265625 -1.546875 0.265625q-1.375 0 -2.109375 -0.671875q-0.734375 -0.671875 -0.734375 -1.703125q0 -0.609375 0.28125 -1.109375q0.28125 -0.515625 0.71875 -0.8125q0.453125 -0.3125 1.015625 -0.46875q0.421875 -0.109375 1.25 -0.203125q1.703125 -0.203125 2.515625 -0.484375q0 -0.296875 0 -0.375q0 -0.859375 -0.390625 -1.203125q-0.546875 -0.484375 -1.609375 -0.484375q-0.984375 0 -1.46875 0.359375q-0.46875 0.34375 -0.6875 1.21875l-1.375 -0.1875q0.1875 -0.875 0.609375 -1.421875q0.4375 -0.546875 1.25 -0.828125q0.8125 -0.296875 1.875 -0.296875q1.0625 0 1.71875 0.25q0.671875 0.25 0.984375 0.625q0.3125 0.375 0.4375 0.953125q0.078125 0.359375 0.078125 1.296875l0 1.875q0 1.96875 0.078125 2.484375q0.09375 0.515625 0.359375 1.0l-1.46875 0q-0.21875 -0.4375 -0.28125 -1.03125zm-0.109375 -3.140625q-0.765625 0.3125 -2.296875 0.53125q-0.875 0.125 -1.234375 0.28125q-0.359375 0.15625 -0.5625 0.46875q-0.1875 0.296875 -0.1875 0.65625q0 0.5625 0.421875 0.9375q0.4375 0.375 1.25 0.375q0.8125 0 1.4375 -0.34375q0.640625 -0.359375 0.9375 -0.984375q0.234375 -0.46875 0.234375 -1.40625l0 -0.515625zm3.6015625 4.171875l0 -8.296875l1.25 0l0 1.15625q0.390625 -0.609375 1.03125 -0.96875q0.65625 -0.375 1.484375 -0.375q0.921875 0 1.515625 0.390625q0.59375 0.375 0.828125 1.0625q0.984375 -1.453125 2.5625 -1.453125q1.234375 0 1.890625 0.6875q0.671875 0.671875 0.671875 2.09375l0 5.703125l-1.390625 0l0 -5.234375q0 -0.84375 -0.140625 -1.203125q-0.140625 -0.375 -0.5 -0.59375q-0.359375 -0.234375 -0.84375 -0.234375q-0.875 0 -1.453125 0.578125q-0.578125 0.578125 -0.578125 1.859375l0 4.828125l-1.40625 0l0 -5.390625q0 -0.9375 -0.34375 -1.40625q-0.34375 -0.46875 -1.125 -0.46875q-0.59375 0 -1.09375 0.3125q-0.5 0.3125 -0.734375 0.921875q-0.21875 0.59375 -0.21875 1.71875l0 4.3125l-1.40625 0zm17.773438 -9.84375l0 -1.609375l1.40625 0l0 1.609375l-1.40625 0zm0 9.84375l0 -8.296875l1.40625 0l0 8.296875l-1.40625 0zm3.5546875 0l0 -8.296875l1.265625 0l0 1.171875q0.90625 -1.359375 2.640625 -1.359375q0.75 0 1.375 0.265625q0.625 0.265625 0.9375 0.703125q0.3125 0.4375 0.4375 1.046875q0.078125 0.390625 0.078125 1.359375l0 5.109375l-1.40625 0l0 -5.046875q0 -0.859375 -0.171875 -1.28125q-0.15625 -0.4375 -0.578125 -0.6875q-0.40625 -0.25 -0.96875 -0.25q-0.90625 0 -1.5625 0.578125q-0.640625 0.5625 -0.640625 2.15625l0 4.53125l-1.40625 0zm13.46875 0l0 -11.453125l2.28125 0l2.71875 8.109375q0.375 1.125 0.546875 1.6875q0.1875 -0.625 0.609375 -1.828125l2.734375 -7.96875l2.046875 0l0 11.453125l-1.46875 0l0 -9.59375l-3.328125 9.59375l-1.359375 0l-3.3125 -9.75l0 9.75l-1.46875 0zm13.3125 0l0 -11.453125l1.515625 0l0 10.09375l5.640625 0l0 1.359375l-7.15625 0zm9.2265625 0l0 -11.453125l1.515625 0l0 11.453125l-1.515625 0zm4.2109375 0l0 -11.453125l5.078125 0q1.53125 0 2.328125 0.3125q0.796875 0.296875 1.265625 1.078125q0.484375 0.78125 0.484375 1.734375q0 1.21875 -0.796875 2.0625q-0.78125 0.828125 -2.4375 1.046875q0.609375 0.296875 0.921875 0.578125q0.65625 0.609375 1.25 1.515625l2.0 3.125l-1.90625 0l-1.515625 -2.390625q-0.671875 -1.03125 -1.109375 -1.578125q-0.421875 -0.546875 -0.765625 -0.765625q-0.328125 -0.21875 -0.6875 -0.296875q-0.25 -0.0625 -0.84375 -0.0625l-1.75 0l0 5.09375l-1.515625 0zm1.515625 -6.40625l3.25 0q1.046875 0 1.625 -0.203125q0.59375 -0.21875 0.890625 -0.6875q0.3125 -0.484375 0.3125 -1.03125q0 -0.8125 -0.59375 -1.328125q-0.59375 -0.53125 -1.859375 -0.53125l-3.625 0l0 3.78125z" fill-rule="nonzero"/><path fill="#000000" fill-opacity="0.0" d="m170.90843 160.78322l0.0315094 22.047241" fill-rule="evenodd"/><path stroke="#4285f4" stroke-width="2.0" stroke-linejoin="round" stroke-linecap="butt" d="m170.90843 160.78322l0.0143585205 10.047256" fill-rule="evenodd"/><path fill="#4285f4" stroke="#4285f4" stroke-width="2.0" stroke-linecap="butt" d="m167.61932 170.83519l3.3164368 9.071472l3.2904816 -9.080902z" fill-rule="evenodd"/><path fill="#d9d9d9" d="m119.89532 237.51796l0 0c0 -6.2969055 5.10466 -11.401566 11.401573 -11.401566l278.74017 0c3.0238953 0 5.9239197 1.2012329 8.062134 3.339447c2.138214 2.1381989 3.339447 5.0382385 3.339447 8.062119l0 0l0 0c0 6.296921 -5.1046753 11.401581 -11.401581 11.401581l-278.74017 0c-6.296913 0 -11.401573 -5.10466 -11.401573 -11.401581z" fill-rule="evenodd"/><path stroke="#595959" stroke-width="1.0" stroke-linejoin="round" stroke-linecap="butt" d="m119.89532 237.51796l0 0c0 -6.2969055 5.10466 -11.401566 11.401573 -11.401566l278.74017 0c3.0238953 0 5.9239197 1.2012329 8.062134 3.339447c2.138214 2.1381989 3.339447 5.0382385 3.339447 8.062119l0 0l0 0c0 6.296921 -5.1046753 11.401581 -11.401581 11.401581l-278.74017 0c-6.296913 0 -11.401573 -5.10466 -11.401573 -11.401581z" fill-rule="evenodd"/><path fill="#000000" d="m137.3037 243.37796l0 -10.109375l-3.78125 0l0 -1.34375l9.078125 0l0 1.34375l-3.78125 0l0 10.109375l-1.515625 0zm6.9296875 0l0 -11.453125l7.734375 0l0 1.34375l-6.21875 0l0 3.546875l5.375 0l0 1.359375l-5.375 0l0 5.203125l-1.515625 0zm9.7265625 0l0 -11.453125l5.078125 0q1.53125 0 2.328125 0.3125q0.796875 0.296875 1.265625 1.078125q0.484375 0.78125 0.484375 1.734375q0 1.21875 -0.796875 2.0625q-0.78125 0.828125 -2.4375 1.046875q0.609375 0.296875 0.921875 0.578125q0.65625 0.609375 1.25 1.515625l2.0 3.125l-1.90625 0l-1.515625 -2.390625q-0.671875 -1.03125 -1.109375 -1.578125q-0.421875 -0.546875 -0.765625 -0.765625q-0.328125 -0.21875 -0.6875 -0.296875q-0.25 -0.0625 -0.84375 -0.0625l-1.75 0l0 5.09375l-1.515625 0zm1.515625 -6.40625l3.25 0q1.046875 0 1.625 -0.203125q0.59375 -0.21875 0.890625 -0.6875q0.3125 -0.484375 0.3125 -1.03125q0 -0.8125 -0.59375 -1.328125q-0.59375 -0.53125 -1.859375 -0.53125l-3.625 0l0 3.78125zm12.640625 6.40625l0 -10.109375l-3.78125 0l0 -1.34375l9.078125 0l0 1.34375l-3.78125 0l0 10.109375l-1.515625 0zm10.9453125 0l0 -11.453125l4.296875 0q1.3125 0 2.109375 0.34375q0.796875 0.34375 1.234375 1.078125q0.453125 0.71875 0.453125 1.5q0 0.734375 -0.40625 1.390625q-0.390625 0.640625 -1.1875 1.046875q1.03125 0.296875 1.59375 1.03125q0.5625 0.734375 0.5625 1.734375q0 0.8125 -0.34375 1.5q-0.34375 0.6875 -0.84375 1.0625q-0.5 0.375 -1.25 0.578125q-0.75 0.1875 -1.84375 0.1875l-4.375 0zm1.515625 -6.640625l2.484375 0q1.0 0 1.4375 -0.140625q0.578125 -0.171875 0.875 -0.5625q0.296875 -0.40625 0.296875 -1.0q0 -0.578125 -0.28125 -1.0q-0.265625 -0.4375 -0.78125 -0.59375q-0.5 -0.171875 -1.734375 -0.171875l-2.296875 0l0 3.46875zm0 5.28125l2.859375 0q0.734375 0 1.03125 -0.046875q0.515625 -0.09375 0.859375 -0.3125q0.359375 -0.21875 0.578125 -0.640625q0.234375 -0.421875 0.234375 -0.96875q0 -0.640625 -0.328125 -1.109375q-0.328125 -0.46875 -0.90625 -0.65625q-0.578125 -0.203125 -1.671875 -0.203125l-2.65625 0l0 3.9375zm9.046875 -8.484375l0 -1.609375l1.40625 0l0 1.609375l-1.40625 0zm0 9.84375l0 -8.296875l1.40625 0l0 8.296875l-1.40625 0zm3.5546875 0l0 -8.296875l1.265625 0l0 1.171875q0.90625 -1.359375 2.640625 -1.359375q0.75 0 1.375 0.265625q0.625 0.265625 0.9375 0.703125q0.3125 0.4375 0.4375 1.046875q0.078125 0.390625 0.078125 1.359375l0 5.109375l-1.40625 0l0 -5.046875q0 -0.859375 -0.171875 -1.28125q-0.15625 -0.4375 -0.578125 -0.6875q-0.40625 -0.25 -0.96875 -0.25q-0.90625 0 -1.5625 0.578125q-0.640625 0.5625 -0.640625 2.15625l0 4.53125l-1.40625 0zm14.3046875 -1.03125q-0.78125 0.671875 -1.5 0.953125q-0.71875 0.265625 -1.546875 0.265625q-1.375 0 -2.109375 -0.671875q-0.734375 -0.671875 -0.734375 -1.703125q0 -0.609375 0.28125 -1.109375q0.28125 -0.515625 0.71875 -0.8125q0.453125 -0.3125 1.015625 -0.46875q0.421875 -0.109375 1.25 -0.203125q1.703125 -0.203125 2.515625 -0.484375q0 -0.296875 0 -0.375q0 -0.859375 -0.390625 -1.203125q-0.546875 -0.484375 -1.609375 -0.484375q-0.984375 0 -1.46875 0.359375q-0.46875 0.34375 -0.6875 1.21875l-1.375 -0.1875q0.1875 -0.875 0.609375 -1.421875q0.4375 -0.546875 1.25 -0.828125q0.8125 -0.296875 1.875 -0.296875q1.0625 0 1.71875 0.25q0.671875 0.25 0.984375 0.625q0.3125 0.375 0.4375 0.953125q0.078125 0.359375 0.078125 1.296875l0 1.875q0 1.96875 0.078125 2.484375q0.09375 0.515625 0.359375 1.0l-1.46875 0q-0.21875 -0.4375 -0.28125 -1.03125zm-0.109375 -3.140625q-0.765625 0.3125 -2.296875 0.53125q-0.875 0.125 -1.234375 0.28125q-0.359375 0.15625 -0.5625 0.46875q-0.1875 0.296875 -0.1875 0.65625q0 0.5625 0.421875 0.9375q0.4375 0.375 1.25 0.375q0.8125 0 1.4375 -0.34375q0.640625 -0.359375 0.9375 -0.984375q0.234375 -0.46875 0.234375 -1.40625l0 -0.515625zm3.5859375 4.171875l0 -8.296875l1.265625 0l0 1.25q0.484375 -0.875 0.890625 -1.15625q0.40625 -0.28125 0.90625 -0.28125q0.703125 0 1.4375 0.453125l-0.484375 1.296875q-0.515625 -0.296875 -1.03125 -0.296875q-0.453125 0 -0.828125 0.28125q-0.359375 0.265625 -0.515625 0.765625q-0.234375 0.75 -0.234375 1.640625l0 4.34375l-1.40625 0zm5.28125 3.203125l-0.15625 -1.328125q0.453125 0.125 0.796875 0.125q0.46875 0 0.75 -0.15625q0.28125 -0.15625 0.46875 -0.4375q0.125 -0.203125 0.421875 -1.046875q0.046875 -0.109375 0.125 -0.34375l-3.140625 -8.3125l1.515625 0l1.71875 4.796875q0.34375 0.921875 0.609375 1.921875q0.234375 -0.96875 0.578125 -1.890625l1.765625 -4.828125l1.40625 0l-3.15625 8.4375q-0.5 1.375 -0.78125 1.890625q-0.375 0.6875 -0.859375 1.015625q-0.484375 0.328125 -1.15625 0.328125q-0.40625 0 -0.90625 -0.171875zm12.7109375 -3.203125l0 -11.453125l8.28125 0l0 1.34375l-6.765625 0l0 3.515625l6.34375 0l0 1.34375l-6.34375 0l0 3.890625l7.03125 0l0 1.359375l-8.546875 0zm9.53125 0l3.03125 -4.3125l-2.8125 -3.984375l1.765625 0l1.265625 1.9375q0.359375 0.5625 0.578125 0.9375q0.34375 -0.515625 0.640625 -0.921875l1.390625 -1.953125l1.6875 0l-2.875 3.90625l3.09375 4.390625l-1.734375 0l-1.703125 -2.578125l-0.453125 -0.703125l-2.171875 3.28125l-1.703125 0zm14.609375 -2.671875l1.453125 0.171875q-0.34375 1.28125 -1.28125 1.984375q-0.921875 0.703125 -2.359375 0.703125q-1.828125 0 -2.890625 -1.125q-1.0625 -1.125 -1.0625 -3.140625q0 -2.09375 1.078125 -3.25q1.078125 -1.15625 2.796875 -1.15625q1.65625 0 2.703125 1.140625q1.0625 1.125 1.0625 3.171875q0 0.125 0 0.375l-6.1875 0q0.078125 1.375 0.765625 2.109375q0.703125 0.71875 1.734375 0.71875q0.78125 0 1.328125 -0.40625q0.546875 -0.40625 0.859375 -1.296875zm-4.609375 -2.28125l4.625 0q-0.09375 -1.046875 -0.53125 -1.5625q-0.671875 -0.8125 -1.734375 -0.8125q-0.96875 0 -1.640625 0.65625q-0.65625 0.640625 -0.71875 1.71875zm13.242172 1.90625l1.390625 0.1875q-0.234375 1.421875 -1.171875 2.234375q-0.921875 0.8125 -2.28125 0.8125q-1.703125 0 -2.75 -1.109375q-1.0312347 -1.125 -1.0312347 -3.203125q0 -1.34375 0.43748474 -2.34375q0.453125 -1.015625 1.359375 -1.515625q0.921875 -0.5 1.984375 -0.5q1.359375 0 2.21875 0.6875q0.859375 0.671875 1.09375 1.9375l-1.359375 0.203125q-0.203125 -0.828125 -0.703125 -1.25q-0.484375 -0.421875 -1.1875 -0.421875q-1.0625 0 -1.734375 0.765625q-0.65625 0.75 -0.65625 2.40625q0 1.671875 0.640625 2.4375q0.640625 0.75 1.671875 0.75q0.828125 0 1.375 -0.5q0.5625 -0.515625 0.703125 -1.578125zm8.03125 3.046875l0 -1.21875q-0.96875 1.40625 -2.640625 1.40625q-0.734375 0 -1.375 -0.28125q-0.625 -0.28125 -0.9375 -0.703125q-0.3125 -0.4375 -0.4375 -1.046875q-0.078125 -0.421875 -0.078125 -1.3125l0 -5.140625l1.40625 0l0 4.59375q0 1.109375 0.078125 1.484375q0.140625 0.5625 0.5625 0.875q0.4375 0.3125 1.0625 0.3125q0.640625 0 1.1875 -0.3125q0.5625 -0.328125 0.78125 -0.890625q0.234375 -0.5625 0.234375 -1.625l0 -4.4375l1.40625 0l0 8.296875l-1.25 0zm6.5234375 -1.265625l0.203125 1.25q-0.59375 0.125 -1.0625 0.125q-0.765625 0 -1.1875 -0.234375q-0.421875 -0.25 -0.59375 -0.640625q-0.171875 -0.40625 -0.171875 -1.671875l0 -4.765625l-1.03125 0l0 -1.09375l1.03125 0l0 -2.0625l1.40625 -0.84375l0 2.90625l1.40625 0l0 1.09375l-1.40625 0l0 4.84375q0 0.609375 0.0625 0.78125q0.078125 0.171875 0.25 0.28125q0.171875 0.09375 0.484375 0.09375q0.234375 0 0.609375 -0.0625zm6.7890625 0.234375q-0.78125 0.671875 -1.5 0.953125q-0.71875 0.265625 -1.546875 0.265625q-1.375 0 -2.109375 -0.671875q-0.734375 -0.671875 -0.734375 -1.703125q0 -0.609375 0.28125 -1.109375q0.28125 -0.515625 0.71875 -0.8125q0.453125 -0.3125 1.015625 -0.46875q0.421875 -0.109375 1.25 -0.203125q1.703125 -0.203125 2.515625 -0.484375q0 -0.296875 0 -0.375q0 -0.859375 -0.390625 -1.203125q-0.546875 -0.484375 -1.609375 -0.484375q-0.984375 0 -1.46875 0.359375q-0.46875 0.34375 -0.6875 1.21875l-1.375 -0.1875q0.1875 -0.875 0.609375 -1.421875q0.4375 -0.546875 1.25 -0.828125q0.8125 -0.296875 1.875 -0.296875q1.0625 0 1.71875 0.25q0.671875 0.25 0.984375 0.625q0.3125 0.375 0.4375 0.953125q0.078125 0.359375 0.078125 1.296875l0 1.875q0 1.96875 0.078125 2.484375q0.09375 0.515625 0.359375 1.0l-1.46875 0q-0.21875 -0.4375 -0.28125 -1.03125zm-0.109375 -3.140625q-0.765625 0.3125 -2.296875 0.53125q-0.875 0.125 -1.234375 0.28125q-0.359375 0.15625 -0.5625 0.46875q-0.1875 0.296875 -0.1875 0.65625q0 0.5625 0.421875 0.9375q0.4375 0.375 1.25 0.375q0.8125 0 1.4375 -0.34375q0.640625 -0.359375 0.9375 -0.984375q0.234375 -0.46875 0.234375 -1.40625l0 -0.515625zm4.8984375 4.171875l-1.3125 0l0 -11.453125l1.40625 0l0 4.078125q0.890625 -1.109375 2.28125 -1.109375q0.765625 0 1.4375 0.3125q0.6875 0.296875 1.125 0.859375q0.453125 0.5625 0.703125 1.359375q0.25 0.78125 0.25 1.671875q0 2.140625 -1.0625 3.3125q-1.046875 1.15625 -2.53125 1.15625q-1.46875 0 -2.296875 -1.234375l0 1.046875zm-0.015625 -4.21875q0 1.5 0.40625 2.15625q0.65625 1.09375 1.796875 1.09375q0.921875 0 1.59375 -0.796875q0.671875 -0.8125 0.671875 -2.390625q0 -1.625 -0.65625 -2.390625q-0.640625 -0.78125 -1.546875 -0.78125q-0.921875 0 -1.59375 0.796875q-0.671875 0.796875 -0.671875 2.3125zm7.5859375 4.21875l0 -11.453125l1.40625 0l0 11.453125l-1.40625 0zm9.2578125 -2.671875l1.453125 0.171875q-0.34375 1.28125 -1.28125 1.984375q-0.921875 0.703125 -2.359375 0.703125q-1.828125 0 -2.890625 -1.125q-1.0625 -1.125 -1.0625 -3.140625q0 -2.09375 1.078125 -3.25q1.078125 -1.15625 2.796875 -1.15625q1.65625 0 2.703125 1.140625q1.0625 1.125 1.0625 3.171875q0 0.125 0 0.375l-6.1875 0q0.078125 1.375 0.765625 2.109375q0.703125 0.71875 1.734375 0.71875q0.78125 0 1.328125 -0.40625q0.546875 -0.40625 0.859375 -1.296875zm-4.609375 -2.28125l4.625 0q-0.09375 -1.046875 -0.53125 -1.5625q-0.671875 -0.8125 -1.734375 -0.8125q-0.96875 0 -1.640625 0.65625q-0.65625 0.640625 -0.71875 1.71875zm12.53125 4.953125l0 -11.453125l7.734375 0l0 1.34375l-6.21875 0l0 3.546875l5.375 0l0 1.359375l-5.375 0l0 5.203125l-1.515625 0zm8.9921875 -4.15625q0 -2.296875 1.28125 -3.40625q1.078125 -0.921875 2.609375 -0.921875q1.71875 0 2.796875 1.125q1.09375 1.109375 1.09375 3.09375q0 1.59375 -0.484375 2.515625q-0.484375 0.921875 -1.40625 1.4375q-0.90625 0.5 -2.0 0.5q-1.734375 0 -2.8125 -1.109375q-1.078125 -1.125 -1.078125 -3.234375zm1.453125 0q0 1.59375 0.6875 2.390625q0.703125 0.796875 1.75 0.796875q1.046875 0 1.734375 -0.796875q0.703125 -0.796875 0.703125 -2.4375q0 -1.53125 -0.703125 -2.328125q-0.6875 -0.796875 -1.734375 -0.796875q-1.046875 0 -1.75 0.796875q-0.6875 0.78125 -0.6875 2.375zm7.9609375 4.15625l0 -8.296875l1.265625 0l0 1.25q0.484375 -0.875 0.890625 -1.15625q0.40625 -0.28125 0.90625 -0.28125q0.703125 0 1.4375 0.453125l-0.484375 1.296875q-0.515625 -0.296875 -1.03125 -0.296875q-0.453125 0 -0.828125 0.28125q-0.359375 0.265625 -0.515625 0.765625q-0.234375 0.75 -0.234375 1.640625l0 4.34375l-1.40625 0zm5.34375 0l0 -8.296875l1.25 0l0 1.15625q0.390625 -0.609375 1.03125 -0.96875q0.65625 -0.375 1.484375 -0.375q0.921875 0 1.515625 0.390625q0.59375 0.375 0.828125 1.0625q0.984375 -1.453125 2.5625 -1.453125q1.234375 0 1.890625 0.6875q0.671875 0.671875 0.671875 2.09375l0 5.703125l-1.390625 0l0 -5.234375q0 -0.84375 -0.140625 -1.203125q-0.140625 -0.375 -0.5 -0.59375q-0.359375 -0.234375 -0.84375 -0.234375q-0.875 0 -1.453125 0.578125q-0.578125 0.578125 -0.578125 1.859375l0 4.828125l-1.40625 0l0 -5.390625q0 -0.9375 -0.34375 -1.40625q-0.34375 -0.46875 -1.125 -0.46875q-0.59375 0 -1.09375 0.3125q-0.5 0.3125 -0.734375 0.921875q-0.21875 0.59375 -0.21875 1.71875l0 4.3125l-1.40625 0zm18.734375 -1.03125q-0.78125 0.671875 -1.5 0.953125q-0.71875 0.265625 -1.546875 0.265625q-1.375 0 -2.109375 -0.671875q-0.734375 -0.671875 -0.734375 -1.703125q0 -0.609375 0.28125 -1.109375q0.28125 -0.515625 0.71875 -0.8125q0.453125 -0.3125 1.015625 -0.46875q0.421875 -0.109375 1.25 -0.203125q1.703125 -0.203125 2.515625 -0.484375q0 -0.296875 0 -0.375q0 -0.859375 -0.390625 -1.203125q-0.546875 -0.484375 -1.609375 -0.484375q-0.984375 0 -1.46875 0.359375q-0.46875 0.34375 -0.6875 1.21875l-1.375 -0.1875q0.1875 -0.875 0.609375 -1.421875q0.4375 -0.546875 1.25 -0.828125q0.8125 -0.296875 1.875 -0.296875q1.0625 0 1.71875 0.25q0.671875 0.25 0.984375 0.625q0.3125 0.375 0.4375 0.953125q0.078125 0.359375 0.078125 1.296875l0 1.875q0 1.96875 0.078125 2.484375q0.09375 0.515625 0.359375 1.0l-1.46875 0q-0.21875 -0.4375 -0.28125 -1.03125zm-0.109375 -3.140625q-0.765625 0.3125 -2.296875 0.53125q-0.875 0.125 -1.234375 0.28125q-0.359375 0.15625 -0.5625 0.46875q-0.1875 0.296875 -0.1875 0.65625q0 0.5625 0.421875 0.9375q0.4375 0.375 1.25 0.375q0.8125 0 1.4375 -0.34375q0.640625 -0.359375 0.9375 -0.984375q0.234375 -0.46875 0.234375 -1.40625l0 -0.515625zm6.6640625 2.90625l0.203125 1.25q-0.59375 0.125 -1.0625 0.125q-0.765625 0 -1.1875 -0.234375q-0.421875 -0.25 -0.59375 -0.640625q-0.171875 -0.40625 -0.171875 -1.671875l0 -4.765625l-1.03125 0l0 -1.09375l1.03125 0l0 -2.0625l1.40625 -0.84375l0 2.90625l1.40625 0l0 1.09375l-1.40625 0l0 4.84375q0 0.609375 0.0625 0.78125q0.078125 0.171875 0.25 0.28125q0.171875 0.09375 0.484375 0.09375q0.234375 0 0.609375 -0.0625zm8.515625 4.640625q-1.171875 -1.46875 -1.984375 -3.4375q-0.796875 -1.984375 -0.796875 -4.09375q0 -1.859375 0.609375 -3.5625q0.703125 -1.96875 2.171875 -3.9375l1.0 0q-0.9375 1.625 -1.25 2.328125q-0.46875 1.078125 -0.75 2.25q-0.328125 1.453125 -0.328125 2.9375q0 3.75 2.328125 7.515625l-1.0 0zm2.75 -3.375l0 -11.453125l4.296875 0q1.3125 0 2.109375 0.34375q0.796875 0.34375 1.234375 1.078125q0.453125 0.71875 0.453125 1.5q0 0.734375 -0.40625 1.390625q-0.390625 0.640625 -1.1875 1.046875q1.03125 0.296875 1.59375 1.03125q0.5625 0.734375 0.5625 1.734375q0 0.8125 -0.34375 1.5q-0.34375 0.6875 -0.84375 1.0625q-0.5 0.375 -1.25 0.578125q-0.75 0.1875 -1.84375 0.1875l-4.375 0zm1.515625 -6.640625l2.484375 0q1.0 0 1.4375 -0.140625q0.578125 -0.171875 0.875 -0.5625q0.296875 -0.40625 0.296875 -1.0q0 -0.578125 -0.28125 -1.0q-0.265625 -0.4375 -0.78125 -0.59375q-0.5 -0.171875 -1.734375 -0.171875l-2.296875 0l0 3.46875zm0 5.28125l2.859375 0q0.734375 0 1.03125 -0.046875q0.515625 -0.09375 0.859375 -0.3125q0.359375 -0.21875 0.578125 -0.640625q0.234375 -0.421875 0.234375 -0.96875q0 -0.640625 -0.328125 -1.109375q-0.328125 -0.46875 -0.90625 -0.65625q-0.578125 -0.203125 -1.671875 -0.203125l-2.65625 0l0 3.9375zm9.25 1.359375l0 -11.453125l8.28125 0l0 1.34375l-6.765625 0l0 3.515625l6.34375 0l0 1.34375l-6.34375 0l0 3.890625l7.03125 0l0 1.359375l-8.546875 0zm10.71875 0l0 -11.453125l7.734375 0l0 1.34375l-6.21875 0l0 3.546875l5.375 0l0 1.359375l-5.375 0l0 5.203125l-1.515625 0zm10.4453125 3.375l-1.015625 0q2.34375 -3.765625 2.34375 -7.515625q0 -1.46875 -0.34375 -2.921875q-0.265625 -1.171875 -0.734375 -2.25q-0.3125 -0.703125 -1.265625 -2.34375l1.015625 0q1.46875 1.96875 2.171875 3.9375q0.59375 1.703125 0.59375 3.5625q0 2.109375 -0.8125 4.09375q-0.796875 1.96875 -1.953125 3.4375z" fill-rule="nonzero"/><path fill="#000000" fill-opacity="0.0" d="m170.90843 204.76485l0.0315094 22.047241" fill-rule="evenodd"/><path stroke="#4285f4" stroke-width="2.0" stroke-linejoin="round" stroke-linecap="butt" d="m170.90843 204.76485l0.0143585205 10.047256" fill-rule="evenodd"/><path fill="#4285f4" stroke="#4285f4" stroke-width="2.0" stroke-linecap="butt" d="m167.61932 214.81682l3.3164368 9.071472l3.2904816 -9.080902z" fill-rule="evenodd"/><g filter="url(#shadowFilter-p.4)"><use xlink:href="#p.4" transform="matrix(1.0 0.0 0.0 1.0 5.362311095390417 4.499513320722605)"/></g><defs><filter id="shadowFilter-p.4" filterUnits="userSpaceOnUse"><feGaussianBlur in="SourceAlpha" stdDeviation="2.0" result="blur"/><feComponentTransfer in="blur" color-interpolation-filters="sRGB"><feFuncR type="linear" slope="0" intercept="0.8"/><feFuncG type="linear" slope="0" intercept="0.8"/><feFuncB type="linear" slope="0" intercept="0.8"/><feFuncA type="linear" slope="0.36" intercept="0"/></feComponentTransfer></filter></defs><g id="p.4"><path fill="#ff6f00" d="m21.112858 288.2047l422.14172 0l0 45.858276l-422.14172 0z" fill-rule="evenodd"/><path stroke="#666666" stroke-width="1.0" stroke-linejoin="round" stroke-linecap="butt" d="m21.112858 288.2047l422.14172 0l0 45.858276l-422.14172 0z" fill-rule="evenodd"/><path fill="#ffffff" d="m184.55212 305.54074l4.484375 0q0.953125 0 1.765625 0.40625q0.8125 0.390625 1.265625 1.078125q0.46875 0.6875 0.46875 1.5q0 0.875 -0.421875 1.5q-0.421875 0.625 -1.109375 0.96875l0 0.125q0.890625 0.328125 1.421875 1.03125q0.53125 0.6875 0.53125 1.65625q0 0.953125 -0.515625 1.6875q-0.5 0.71875 -1.359375 1.109375q-0.859375 0.390625 -1.890625 0.390625l-4.640625 0l0 -11.453125zm4.3125 4.671875q0.71875 0 1.140625 -0.390625q0.421875 -0.390625 0.421875 -0.984375q0 -0.578125 -0.40625 -0.96875q-0.40625 -0.390625 -1.078125 -0.390625l-2.234375 0l0 2.734375l2.15625 0zm0.25 4.8125q0.78125 0 1.21875 -0.40625q0.4375 -0.40625 0.4375 -1.0625q0 -0.65625 -0.453125 -1.0625q-0.4375 -0.421875 -1.265625 -0.421875l-2.34375 0l0 2.953125l2.40625 0zm5.7895203 -9.484375l7.265625 0l0 2.046875l-5.109375 0l0 2.65625l4.59375 0l0 2.046875l-4.59375 0l0 2.65625l5.109375 0l0 2.046875l-7.265625 0l0 -11.453125zm9.488022 0l7.265625 0l0 2.046875l-5.109375 0l0 2.78125l4.59375 0l0 2.046875l-4.59375 0l0 4.578125l-2.15625 0l0 -11.453125zm9.168015 0l7.265625 0l0 2.046875l-5.109375 0l0 2.65625l4.59375 0l0 2.046875l-4.59375 0l0 2.65625l5.109375 0l0 2.046875l-7.265625 0l0 -11.453125zm11.062393 7.3125l-2.828125 -4.015625l2.484375 0l1.546875 2.328125l0.109375 0l1.453125 -2.328125l2.5625 0l-2.875 4.015625l2.875 4.140625l-2.484375 0l-1.578125 -2.390625l-0.09375 0l-1.53125 2.390625l-2.484375 0l2.84375 -4.140625zm10.132889 4.390625q-1.21875 0 -2.1875 -0.546875q-0.96875 -0.5625 -1.53125 -1.546875q-0.546875 -0.984375 -0.546875 -2.21875q0 -1.171875 0.53125 -2.171875q0.546875 -1.0 1.5 -1.59375q0.96875 -0.59375 2.15625 -0.59375q1.265625 0 2.171875 0.546875q0.921875 0.546875 1.390625 1.5q0.46875 0.9375 0.46875 2.09375q0 0.359375 -0.046875 0.703125l-6.125 0q0.15625 0.96875 0.765625 1.484375q0.625 0.5 1.484375 0.5q0.71875 0 1.234375 -0.3125q0.53125 -0.3125 0.828125 -0.84375l1.703125 0.828125q-1.25 2.171875 -3.796875 2.171875zm1.9375 -5.328125q-0.03125 -0.375 -0.28125 -0.75q-0.25 -0.375 -0.6875 -0.625q-0.4375 -0.25 -1.03125 -0.25q-0.75 0 -1.296875 0.4375q-0.53125 0.4375 -0.765625 1.1875l4.0625 0zm7.5501404 5.328125q-1.234375 0 -2.203125 -0.546875q-0.96875 -0.546875 -1.53125 -1.53125q-0.546875 -1.0 -0.546875 -2.25q0 -1.25 0.546875 -2.234375q0.5625 -0.984375 1.53125 -1.546875q0.96875 -0.5625 2.203125 -0.5625q1.359375 0 2.328125 0.59375q0.984375 0.578125 1.421875 1.65625l-1.921875 0.796875q-0.515625 -1.09375 -1.828125 -1.09375q-0.953125 0 -1.578125 0.65625q-0.609375 0.65625 -0.609375 1.734375q0 1.09375 0.609375 1.75q0.625 0.640625 1.578125 0.640625q1.328125 0 1.921875 -1.140625l1.90625 0.828125q-0.53125 1.078125 -1.515625 1.671875q-0.96875 0.578125 -2.3125 0.578125zm8.27739 0q-1.46875 0 -2.25 -0.90625q-0.765625 -0.90625 -0.765625 -2.546875l0 -4.953125l2.109375 0l0 4.703125q0 0.828125 0.390625 1.296875q0.40625 0.46875 1.0625 0.46875q0.890625 0 1.421875 -0.640625q0.53125 -0.65625 0.53125 -1.671875l0 -4.15625l2.0937653 0l0 8.15625l-1.9687653 0l0 -1.03125l-0.125 0q-0.375 0.59375 -1.046875 0.9375q-0.65625 0.34375 -1.453125 0.34375zm10.273392 -0.125q-0.609375 0 -1.125 -0.171875q-0.515625 -0.1875 -0.828125 -0.515625q-0.75 -0.71875 -0.75 -2.046875l0 -3.765625l-1.421875 0l0 -1.78125l1.421875 0l0 -2.3125l2.09375 0l0 2.3125l2.0 0l0 1.78125l-2.0 0l0 3.390625q0 0.609375 0.265625 0.890625q0.234375 0.25 0.78125 0.25q0.296875 0 0.5 -0.078125q0.203125 -0.078125 0.515625 -0.265625l0 2.046875q-0.6875 0.265625 -1.453125 0.265625zm6.7437744 0.125q-1.265625 0 -2.25 -0.5625q-0.984375 -0.5625 -1.546875 -1.546875q-0.546875 -0.984375 -0.546875 -2.21875q0 -1.21875 0.546875 -2.203125q0.5625 -1.0 1.546875 -1.5625q0.984375 -0.578125 2.25 -0.578125q1.25 0 2.234375 0.578125q1.0 0.5625 1.546875 1.5625q0.5625 0.984375 0.5625 2.203125q0 1.234375 -0.5625 2.21875q-0.546875 0.984375 -1.546875 1.546875q-0.984375 0.5625 -2.234375 0.5625zm0 -1.9375q0.609375 0 1.125 -0.28125q0.515625 -0.28125 0.8125 -0.828125q0.3125 -0.546875 0.3125 -1.28125q0 -0.71875 -0.3125 -1.265625q-0.296875 -0.546875 -0.8125 -0.828125q-0.515625 -0.296875 -1.125 -0.296875q-0.609375 0 -1.125 0.296875q-0.5 0.28125 -0.8125 0.828125q-0.3125 0.546875 -0.3125 1.265625q0 0.71875 0.3125 1.28125q0.3125 0.546875 0.8125 0.828125q0.515625 0.28125 1.125 0.28125zm5.789398 -6.46875l1.953125 0l0 1.078125l0.140625 0q0.296875 -0.5625 0.9375 -0.9375q0.640625 -0.390625 1.40625 -0.390625q0.5625 0 1.03125 0.1875l0 2.09375q-0.4375 -0.15625 -0.734375 -0.234375q-0.296875 -0.078125 -0.625 -0.078125q-0.9375 0 -1.484375 0.671875q-0.53125 0.671875 -0.53125 1.703125l0 4.0625l-2.09375 0l0 -8.15625z" fill-rule="nonzero"/></g><path fill="#ffffff" d="m0.679753 0l466.04724 0l0 350.04724l-466.04724 0zm26.512579 26.512579l0 297.0221l413.0221 0l0 -297.0221z" fill-rule="evenodd"/></g></svg>