<?xml version="1.0" encoding="UTF-8" standalone="no"?>
<svg
   xmlns:dc="http://purl.org/dc/elements/1.1/"
   xmlns:cc="http://creativecommons.org/ns#"
   xmlns:rdf="http://www.w3.org/1999/02/22-rdf-syntax-ns#"
   xmlns:svg="http://www.w3.org/2000/svg"
   xmlns="http://www.w3.org/2000/svg"
   xmlns:sodipodi="http://sodipodi.sourceforge.net/DTD/sodipodi-0.dtd"
   xmlns:inkscape="http://www.inkscape.org/namespaces/inkscape"
   version="1.1"
   viewBox="0 0 375.99207 295.05276"
   stroke-miterlimit="10"
   id="svg5661"
   sodipodi:docname="mlir-bef.svg"
   width="375.99207"
   height="295.05276"
   style="fill:none;stroke:none;stroke-linecap:square;stroke-miterlimit:10"
   inkscape:version="0.92.4 (5da689c313, 2019-01-14)">
  <metadata
     id="metadata5667">
    <rdf:RDF>
      <cc:Work
         rdf:about="">
        <dc:format>image/svg+xml</dc:format>
        <dc:type
           rdf:resource="http://purl.org/dc/dcmitype/StillImage" />
      </cc:Work>
    </rdf:RDF>
  </metadata>
  <defs
     id="defs5665" />
  <sodipodi:namedview
     pagecolor="#ffffff"
     bordercolor="#666666"
     borderopacity="1"
     objecttolerance="10"
     gridtolerance="10"
     guidetolerance="10"
     inkscape:pageopacity="0"
     inkscape:pageshadow="2"
     inkscape:window-width="1920"
     inkscape:window-height="1002"
     id="namedview5663"
     showgrid="false"
     inkscape:zoom="1.5222222"
     inkscape:cx="187.99606"
     inkscape:cy="147.63385"
     inkscape:window-x="162"
     inkscape:window-y="0"
     inkscape:window-maximized="1"
     inkscape:current-layer="svg5661" />
  <clipPath
     id="g731531eed1_0_106.0">
    <path
       d="M 0,0 H 960 V 540 H 0 Z"
       id="path5562"
       inkscape:connector-curvature="0"
       style="clip-rule:nonzero" />
  </clipPath>
  <path
     style="fill:#f9cb9c;fill-rule:evenodd"
     inkscape:connector-curvature="0"
     id="path5567"
     d="m 88.61023,105.19846 v 0 c 0,-10.106375 26.75717,-18.299215 59.76379,-18.299215 v 0 c 33.00663,0 59.76377,8.19284 59.76377,18.299215 v 0 c 0,10.10638 -26.75714,18.29921 -59.76377,18.29921 v 0 c -33.00662,0 -59.76379,-8.19283 -59.76379,-18.29921 z" />
  <path
     style="fill-rule:evenodd;stroke:#595959;stroke-width:1;stroke-linecap:butt;stroke-linejoin:round"
     inkscape:connector-curvature="0"
     id="path5569"
     d="m 88.61023,105.19846 v 0 c 0,-10.106375 26.75717,-18.299215 59.76379,-18.299215 v 0 c 33.00663,0 59.76377,8.19284 59.76377,18.299215 v 0 c 0,10.10638 -26.75714,18.29921 -59.76377,18.29921 v 0 c -33.00662,0 -59.76379,-8.19283 -59.76379,-18.29921 z" />
  <path
     style="fill:#000000;fill-rule:nonzero"
     inkscape:connector-curvature="0"
     id="path5571"
     d="m 123.65736,101.32533 q -0.96875,-0.20313 -1.6875,-0.20313 -1.67188,0 -1.67188,1.75 v 1.26563 h 3.14063 v 1.03125 h -3.14063 v 5.10937 h -1.26562 v -5.10937 h -2.3125 v -1.03125 h 2.3125 v -1.1875 q 0,-2.875 2.98437,-2.875 0.75,0 1.64063,0.17187 z m -7.51563,1.76562 z m 15.46433,3.53125 q 0,0.84375 -0.25,1.54688 -0.23438,0.6875 -0.67188,1.1875 -0.4375,0.5 -1.07812,0.78125 -0.64063,0.26562 -1.45313,0.26562 -0.76562,0 -1.39062,-0.23437 -0.60938,-0.23438 -1.03125,-0.70313 -0.42188,-0.46875 -0.65625,-1.15625 -0.21875,-0.6875 -0.21875,-1.57812 0,-0.84375 0.23437,-1.53125 0.23438,-0.6875 0.67188,-1.1875 0.45312,-0.5 1.09375,-0.76563 0.64062,-0.28125 1.4375,-0.28125 0.78125,0 1.39062,0.25 0.60938,0.23438 1.03125,0.70313 0.4375,0.45312 0.65625,1.14062 0.23438,0.6875 0.23438,1.5625 z m -1.28125,0.0625 q 0,-0.67187 -0.15625,-1.15625 -0.14063,-0.5 -0.42188,-0.82812 -0.26562,-0.34375 -0.65625,-0.5 -0.375,-0.17188 -0.85937,-0.17188 -0.5625,0 -0.96875,0.21875 -0.39063,0.21875 -0.64063,0.57813 -0.25,0.35937 -0.375,0.84375 -0.10937,0.48437 -0.10937,1.01562 0,0.67188 0.14062,1.17188 0.14063,0.5 0.40625,0.82812 0.28125,0.32813 0.67188,0.5 0.39062,0.17188 0.875,0.17188 0.5625,0 0.95312,-0.21875 0.39063,-0.21875 0.64063,-0.57813 0.26562,-0.375 0.375,-0.85937 0.125,-0.48438 0.125,-1.01563 z m 9.33932,-0.0625 q 0,0.84375 -0.25,1.54688 -0.23437,0.6875 -0.67187,1.1875 -0.4375,0.5 -1.07813,0.78125 -0.64062,0.26562 -1.45312,0.26562 -0.76563,0 -1.39063,-0.23437 -0.60937,-0.23438 -1.03125,-0.70313 -0.42187,-0.46875 -0.65625,-1.15625 -0.21875,-0.6875 -0.21875,-1.57812 0,-0.84375 0.23438,-1.53125 0.23437,-0.6875 0.67187,-1.1875 0.45313,-0.5 1.09375,-0.76563 0.64063,-0.28125 1.4375,-0.28125 0.78125,0 1.39063,0.25 0.60937,0.23438 1.03125,0.70313 0.4375,0.45312 0.65625,1.14062 0.23437,0.6875 0.23437,1.5625 z m -1.28125,0.0625 q 0,-0.67187 -0.15625,-1.15625 -0.14062,-0.5 -0.42187,-0.82812 -0.26563,-0.34375 -0.65625,-0.5 -0.375,-0.17188 -0.85938,-0.17188 -0.5625,0 -0.96875,0.21875 -0.39062,0.21875 -0.64062,0.57813 -0.25,0.35937 -0.375,0.84375 -0.10938,0.48437 -0.10938,1.01562 0,0.67188 0.14063,1.17188 0.14062,0.5 0.40625,0.82812 0.28125,0.32813 0.67187,0.5 0.39063,0.17188 0.875,0.17188 0.5625,0 0.95313,-0.21875 0.39062,-0.21875 0.64062,-0.57813 0.26563,-0.375 0.375,-0.85937 0.125,-0.48438 0.125,-1.01563 z m 5.90183,1.34375 q 0.25,0 0.46875,0.0937 0.21875,0.0937 0.375,0.26563 0.15625,0.15625 0.25,0.375 0.0937,0.21875 0.0937,0.46875 0,0.23437 -0.0937,0.45312 -0.0937,0.21875 -0.25,0.375 -0.15625,0.15625 -0.375,0.25 -0.21875,0.0937 -0.46875,0.0937 -0.25,0 -0.46875,-0.0937 -0.20313,-0.0937 -0.375,-0.25 -0.15625,-0.15625 -0.25,-0.375 -0.0937,-0.21875 -0.0937,-0.45312 0,-0.25 0.0937,-0.46875 0.0937,-0.21875 0.25,-0.375 0.17187,-0.17188 0.375,-0.26563 0.21875,-0.0937 0.46875,-0.0937 z m 10.35495,2.25 v -5.15625 q 0,-0.34375 -0.0312,-0.54687 -0.0156,-0.21875 -0.0781,-0.34375 -0.0469,-0.125 -0.125,-0.17188 -0.0781,-0.0625 -0.20312,-0.0625 -0.14063,0 -0.26563,0.0937 -0.125,0.0781 -0.26562,0.28125 -0.14063,0.1875 -0.3125,0.51563 -0.15625,0.3125 -0.39063,0.78125 v 4.60937 h -1.14062 v -5.03125 q 0,-0.39062 -0.0312,-0.625 -0.0156,-0.25 -0.0781,-0.375 -0.0469,-0.14062 -0.14062,-0.1875 -0.0781,-0.0625 -0.20313,-0.0625 -0.125,0 -0.25,0.0781 -0.10937,0.0625 -0.25,0.25 -0.125,0.1875 -0.29687,0.51562 -0.17188,0.32813 -0.40625,0.82813 v 4.60937 h -1.15625 v -7.1875 h 0.95312 l 0.0625,1.375 q 0.1875,-0.40625 0.35938,-0.6875 0.17187,-0.29687 0.35937,-0.46875 0.1875,-0.1875 0.39063,-0.26562 0.21875,-0.0781 0.46875,-0.0781 0.59375,0 0.89062,0.375 0.29688,0.375 0.29688,1.17188 0.17187,-0.375 0.32812,-0.65625 0.17188,-0.29688 0.35938,-0.48438 0.1875,-0.20312 0.42187,-0.29687 0.23438,-0.10938 0.53125,-0.10938 1.34375,0 1.34375,2.07813 v 5.23437 z m 5.3862,-9.09375 h -2.125 v -1.01562 h 3.39062 v 9.07812 h 2.125 v 1.03125 h -5.75 v -1.03125 h 2.35938 z m 8.05807,2.9375 h -2.125 v -1.03125 h 3.39063 v 6.15625 h 2.125 v 1.03125 h -5.75 v -1.03125 h 2.35937 z m 0.4375,-4.04687 q 0.20313,0 0.375,0.0781 0.1875,0.0781 0.3125,0.21875 0.14063,0.125 0.21875,0.3125 0.0781,0.17188 0.0781,0.375 0,0.20313 -0.0781,0.39063 -0.0781,0.17187 -0.21875,0.3125 -0.125,0.125 -0.3125,0.20312 -0.17187,0.0781 -0.375,0.0781 -0.20312,0 -0.39062,-0.0781 -0.17188,-0.0781 -0.3125,-0.20312 -0.125,-0.14063 -0.20313,-0.3125 -0.0781,-0.1875 -0.0781,-0.39063 0,-0.20312 0.0781,-0.375 0.0781,-0.1875 0.20313,-0.3125 0.14062,-0.14062 0.3125,-0.21875 0.1875,-0.0781 0.39062,-0.0781 z m 5.46433,3.01562 h 1.14062 l 0.0312,1.32813 q 0.64063,-0.76563 1.25,-1.10938 0.625,-0.34375 1.25,-0.34375 1.125,0 1.70313,0.71875 0.57812,0.71875 0.53125,2.15625 h -1.26563 q 0.0312,-0.95312 -0.26562,-1.375 -0.29688,-0.42187 -0.875,-0.42187 -0.25,0 -0.51563,0.0937 -0.25,0.0781 -0.51562,0.28125 -0.26563,0.1875 -0.5625,0.5 -0.29688,0.3125 -0.64063,0.75 v 4.60937 h -1.26562 z" />
  <path
     style="fill:#f9cb9c;fill-rule:evenodd"
     inkscape:connector-curvature="0"
     id="path5573"
     d="m 88.61023,219.23521 v 0 c 0,-10.10638 26.75717,-18.29922 59.76379,-18.29922 v 0 c 33.00663,0 59.76377,8.19284 59.76377,18.29922 v 0 c 0,10.10635 -26.75714,18.29919 -59.76377,18.29919 v 0 c -33.00662,0 -59.76379,-8.19284 -59.76379,-18.29919 z" />
  <path
     style="fill-rule:evenodd;stroke:#595959;stroke-width:1;stroke-linecap:butt;stroke-linejoin:round"
     inkscape:connector-curvature="0"
     id="path5575"
     d="m 88.61023,219.23521 v 0 c 0,-10.10638 26.75717,-18.29922 59.76379,-18.29922 v 0 c 33.00663,0 59.76377,8.19284 59.76377,18.29922 v 0 c 0,10.10635 -26.75714,18.29919 -59.76377,18.29919 v 0 c -33.00662,0 -59.76379,-8.19284 -59.76379,-18.29919 z" />
  <path
     style="fill:#000000;fill-rule:nonzero"
     inkscape:connector-curvature="0"
     id="path5577"
     d="m 127.68636,215.36208 q -0.96875,-0.20313 -1.6875,-0.20313 -1.67188,0 -1.67188,1.75 v 1.26563 h 3.14063 v 1.03125 h -3.14063 v 5.10937 h -1.26562 v -5.10937 h -2.3125 v -1.03125 h 2.3125 v -1.1875 q 0,-2.875 2.98437,-2.875 0.75,0 1.64063,0.17187 z m -7.51563,1.76562 z m 15.46433,3.53125 q 0,0.84375 -0.25,1.54688 -0.23438,0.6875 -0.67188,1.1875 -0.4375,0.5 -1.07812,0.78125 -0.64063,0.26562 -1.45313,0.26562 -0.76562,0 -1.39062,-0.23437 -0.60938,-0.23438 -1.03125,-0.70313 -0.42188,-0.46875 -0.65625,-1.15625 -0.21875,-0.6875 -0.21875,-1.57812 0,-0.84375 0.23437,-1.53125 0.23438,-0.6875 0.67188,-1.1875 0.45312,-0.5 1.09375,-0.76563 0.64062,-0.28125 1.4375,-0.28125 0.78125,0 1.39062,0.25 0.60938,0.23438 1.03125,0.70313 0.4375,0.45312 0.65625,1.14062 0.23438,0.6875 0.23438,1.5625 z m -1.28125,0.0625 q 0,-0.67187 -0.15625,-1.15625 -0.14063,-0.5 -0.42188,-0.82812 -0.26562,-0.34375 -0.65625,-0.5 -0.375,-0.17188 -0.85937,-0.17188 -0.5625,0 -0.96875,0.21875 -0.39063,0.21875 -0.64063,0.57813 -0.25,0.35937 -0.375,0.84375 -0.10937,0.48437 -0.10937,1.01562 0,0.67188 0.14062,1.17188 0.14063,0.5 0.40625,0.82812 0.28125,0.32813 0.67188,0.5 0.39062,0.17188 0.875,0.17188 0.5625,0 0.95312,-0.21875 0.39063,-0.21875 0.64063,-0.57813 0.26562,-0.375 0.375,-0.85937 0.125,-0.48438 0.125,-1.01563 z m 9.33932,-0.0625 q 0,0.84375 -0.25,1.54688 -0.23437,0.6875 -0.67187,1.1875 -0.4375,0.5 -1.07813,0.78125 -0.64062,0.26562 -1.45312,0.26562 -0.76563,0 -1.39063,-0.23437 -0.60937,-0.23438 -1.03125,-0.70313 -0.42187,-0.46875 -0.65625,-1.15625 -0.21875,-0.6875 -0.21875,-1.57812 0,-0.84375 0.23438,-1.53125 0.23437,-0.6875 0.67187,-1.1875 0.45313,-0.5 1.09375,-0.76563 0.64063,-0.28125 1.4375,-0.28125 0.78125,0 1.39063,0.25 0.60937,0.23438 1.03125,0.70313 0.4375,0.45312 0.65625,1.14062 0.23437,0.6875 0.23437,1.5625 z m -1.28125,0.0625 q 0,-0.67187 -0.15625,-1.15625 -0.14062,-0.5 -0.42187,-0.82812 -0.26563,-0.34375 -0.65625,-0.5 -0.375,-0.17188 -0.85938,-0.17188 -0.5625,0 -0.96875,0.21875 -0.39062,0.21875 -0.64062,0.57813 -0.25,0.35937 -0.375,0.84375 -0.10938,0.48437 -0.10938,1.01562 0,0.67188 0.14063,1.17188 0.14062,0.5 0.40625,0.82812 0.28125,0.32813 0.67187,0.5 0.39063,0.17188 0.875,0.17188 0.5625,0 0.95313,-0.21875 0.39062,-0.21875 0.64062,-0.57813 0.26563,-0.375 0.375,-0.85937 0.125,-0.48438 0.125,-1.01563 z m 5.90183,1.34375 q 0.25,0 0.46875,0.0937 0.21875,0.0937 0.375,0.26563 0.15625,0.15625 0.25,0.375 0.0937,0.21875 0.0937,0.46875 0,0.23437 -0.0937,0.45312 -0.0937,0.21875 -0.25,0.375 -0.15625,0.15625 -0.375,0.25 -0.21875,0.0937 -0.46875,0.0937 -0.25,0 -0.46875,-0.0937 -0.20313,-0.0937 -0.375,-0.25 -0.15625,-0.15625 -0.25,-0.375 -0.0937,-0.21875 -0.0937,-0.45312 0,-0.25 0.0937,-0.46875 0.0937,-0.21875 0.25,-0.375 0.17187,-0.17188 0.375,-0.26563 0.21875,-0.0937 0.46875,-0.0937 z m 11.37057,-1.46875 q 0,0.89063 -0.25,1.59375 -0.23437,0.70313 -0.70312,1.20313 -0.45313,0.48437 -1.10938,0.75 -0.64062,0.25 -1.45312,0.25 -0.64063,0 -1.3125,-0.10938 -0.65625,-0.125 -1.3125,-0.39062 v -9.6875 h 1.25 v 2.78125 l -0.0625,1.32812 q 0.54687,-0.71875 1.15625,-1.01562 0.60937,-0.29688 1.3125,-0.29688 0.60937,0 1.07812,0.26563 0.46875,0.25 0.78125,0.71875 0.3125,0.46875 0.46875,1.14062 0.15625,0.65625 0.15625,1.46875 z m -1.26562,0.0469 q 0,-0.5625 -0.0937,-1.03125 -0.0781,-0.46875 -0.26563,-0.79688 -0.17187,-0.34375 -0.45312,-0.53125 -0.26563,-0.1875 -0.65625,-0.1875 -0.23438,0 -0.48438,0.0781 -0.23437,0.0625 -0.5,0.25 -0.26562,0.17187 -0.5625,0.46875 -0.28125,0.28125 -0.60937,0.70312 v 3.48438 q 0.35937,0.14062 0.73437,0.23437 0.39063,0.0781 0.73438,0.0781 0.42187,0 0.8125,-0.125 0.39062,-0.14063 0.6875,-0.45313 0.29687,-0.32812 0.46875,-0.85937 0.1875,-0.53125 0.1875,-1.3125 z m 9.2612,-0.29688 q 0,0.26563 -0.0156,0.45313 0,0.17187 -0.0156,0.32812 h -5.04688 q 0,1.09375 0.60938,1.6875 0.625,0.59375 1.78125,0.59375 0.3125,0 0.625,-0.0156 0.3125,-0.0312 0.60937,-0.0781 0.29688,-0.0469 0.5625,-0.0937 0.26563,-0.0625 0.5,-0.125 v 1.03125 q -0.51562,0.14063 -1.15625,0.21875 -0.64062,0.0937 -1.32812,0.0937 -0.92188,0 -1.59375,-0.25 -0.65625,-0.25 -1.07813,-0.71875 -0.42187,-0.48437 -0.625,-1.17187 -0.20312,-0.6875 -0.20312,-1.5625 0,-0.76563 0.21875,-1.4375 0.21875,-0.67188 0.625,-1.1875 0.42187,-0.51563 1.03125,-0.8125 0.60937,-0.29688 1.375,-0.29688 0.76562,0 1.34375,0.23438 0.57812,0.23437 0.96875,0.67187 0.40625,0.4375 0.60937,1.0625 0.20313,0.60938 0.20313,1.375 z m -1.29688,-0.1875 q 0.0156,-0.46875 -0.10937,-0.85937 -0.10938,-0.40625 -0.34375,-0.6875 -0.23438,-0.29688 -0.59375,-0.45313 -0.35938,-0.15625 -0.82813,-0.15625 -0.40625,0 -0.75,0.15625 -0.32812,0.15625 -0.57812,0.4375 -0.25,0.28125 -0.40625,0.6875 -0.14063,0.40625 -0.17188,0.875 z m 9.65183,-4.79687 q -0.96875,-0.20313 -1.6875,-0.20313 -1.67188,0 -1.67188,1.75 v 1.26563 h 3.14063 v 1.03125 h -3.14063 v 5.10937 h -1.26562 v -5.10937 h -2.3125 v -1.03125 h 2.3125 v -1.1875 q 0,-2.875 2.98437,-2.875 0.75,0 1.64063,0.17187 z m -7.51563,1.76562 z" />
  <path
     style="fill:#ffe599;fill-rule:evenodd"
     inkscape:connector-curvature="0"
     id="path5579"
     d="m 0.5,143.91763 h 119.52756 v 36.59842 H 0.5 Z" />
  <path
     style="fill-rule:evenodd;stroke:#595959;stroke-width:1;stroke-linecap:butt;stroke-linejoin:round"
     inkscape:connector-curvature="0"
     id="path5581"
     d="m 0.5,143.91763 h 119.52756 v 36.59842 H 0.5 Z" />
  <path
     style="fill:#000000;fill-rule:nonzero"
     inkscape:connector-curvature="0"
     id="path5583"
     d="m 18.72473,168.07683 v -5.64063 q 0,-0.35937 -0.0312,-0.59375 -0.0156,-0.23437 -0.0781,-0.375 -0.0625,-0.14062 -0.15625,-0.1875 -0.0781,-0.0625 -0.21875,-0.0625 -0.15625,0 -0.29688,0.0937 -0.125,0.0937 -0.28125,0.3125 -0.14062,0.20313 -0.32812,0.5625 -0.1875,0.34375 -0.4375,0.84375 v 5.04688 H 15.6623 v -5.48438 q 0,-0.4375 -0.0312,-0.70312 -0.0312,-0.26563 -0.0937,-0.40625 -0.0469,-0.15625 -0.14062,-0.20313 -0.0937,-0.0625 -0.23438,-0.0625 -0.14062,0 -0.26562,0.0781 -0.125,0.0781 -0.28125,0.28125 -0.14063,0.20312 -0.32813,0.5625 -0.1875,0.34375 -0.45312,0.89062 v 5.04688 h -1.25 V 160.233 h 1.04687 l 0.0625,1.48437 q 0.20313,-0.4375 0.39063,-0.75 0.1875,-0.3125 0.39062,-0.5 0.20313,-0.20312 0.4375,-0.28125 0.23438,-0.0937 0.51563,-0.0937 0.625,0 0.95312,0.42188 0.32813,0.40625 0.32813,1.26562 0.1875,-0.40625 0.35937,-0.71875 0.1875,-0.3125 0.39063,-0.53125 0.21875,-0.21875 0.46875,-0.32812 0.25,-0.10938 0.57812,-0.10938 1.46875,0 1.46875,2.26563 v 5.71875 z m 5.875,-9.92188 h -2.3125 v -1.125 h 3.6875 v 9.90625 h 2.34375 v 1.14063 h -6.29687 v -1.14063 h 2.57812 z m 8.79688,3.20313 h -2.3125 v -1.125 h 3.6875 v 6.70312 h 2.34375 v 1.14063 h -6.29688 v -1.14063 h 2.57813 z m 0.48437,-4.42188 q 0.21875,0 0.40625,0.0937 0.20313,0.0781 0.34375,0.23438 0.15625,0.14062 0.23438,0.32812 0.0781,0.1875 0.0781,0.42188 0,0.21875 -0.0781,0.42187 -0.0781,0.1875 -0.23438,0.34375 -0.14062,0.14063 -0.34375,0.21875 -0.1875,0.0781 -0.40625,0.0781 -0.23437,0 -0.4375,-0.0781 -0.1875,-0.0781 -0.32812,-0.21875 -0.14063,-0.15625 -0.23438,-0.34375 -0.0781,-0.20312 -0.0781,-0.42187 0,-0.23438 0.0781,-0.42188 0.0937,-0.1875 0.23438,-0.32812 0.14062,-0.15625 0.32812,-0.23438 0.20313,-0.0937 0.4375,-0.0937 z m 5.96875,3.29688 h 1.23438 l 0.0469,1.4375 q 0.6875,-0.82813 1.35938,-1.20313 0.6875,-0.375 1.375,-0.375 1.21875,0 1.84375,0.79688 0.625,0.78125 0.57812,2.32812 h -1.375 q 0.0312,-1.03125 -0.29687,-1.48437 -0.32813,-0.46875 -0.95313,-0.46875 -0.26562,0 -0.54687,0.0937 -0.28125,0.0937 -0.57813,0.3125 -0.28125,0.21875 -0.60937,0.5625 -0.32813,0.32812 -0.70313,0.79687 v 5.04688 h -1.375 z m 16.01563,11.04687 h -8.79688 v -1.125 h 8.79688 z m 7.57812,-3.3125 q -0.46875,0.125 -0.96875,0.17188 -0.48437,0.0469 -0.98437,0.0469 -1.48438,0 -2.21875,-0.67187 -0.71875,-0.67188 -0.71875,-2.04688 v -4.09375 h -2.1875 v -1.14062 h 2.1875 v -2.15625 l 1.35937,-0.35938 v 2.51563 h 3.53125 v 1.14062 h -3.53125 v 3.98438 q 0,0.84375 0.45313,1.26562 0.45312,0.40625 1.32812,0.40625 0.375,0 0.8125,-0.0469 0.45313,-0.0625 0.9375,-0.1875 z m 9.29688,-3.875 q 0,0.90625 -0.26563,1.67188 -0.25,0.76562 -0.73437,1.3125 -0.48438,0.53125 -1.1875,0.84375 -0.6875,0.29687 -1.5625,0.29687 -0.84375,0 -1.51563,-0.26562 -0.67187,-0.26563 -1.14062,-0.76563 -0.45313,-0.51562 -0.70313,-1.26562 -0.25,-0.75 -0.25,-1.71875 0,-0.92188 0.25,-1.67188 0.26563,-0.75 0.75,-1.29687 0.48438,-0.54688 1.17188,-0.84375 0.70312,-0.29688 1.59375,-0.29688 0.84375,0 1.5,0.26563 0.67187,0.25 1.14062,0.76562 0.46875,0.5 0.70313,1.25 0.25,0.75 0.25,1.71875 z m -1.39063,0.0625 q 0,-0.73437 -0.15625,-1.26562 -0.15625,-0.54688 -0.45312,-0.90625 -0.29688,-0.375 -0.73438,-0.54688 -0.42187,-0.1875 -0.9375,-0.1875 -0.60937,0 -1.04687,0.23438 -0.4375,0.23437 -0.71875,0.64062 -0.26563,0.39063 -0.40625,0.92188 -0.125,0.53125 -0.125,1.10937 0,0.71875 0.15625,1.26563 0.17187,0.54687 0.46875,0.92187 0.29687,0.35938 0.71875,0.54688 0.42187,0.17187 0.95312,0.17187 0.60938,0 1.03125,-0.23437 0.4375,-0.23438 0.71875,-0.625 0.28125,-0.40625 0.40625,-0.9375 0.125,-0.53125 0.125,-1.10938 z m 10.90625,7.125 h -8.79687 v -1.125 h 8.79687 z m 7.95313,-7.26562 q 0,0.96875 -0.26563,1.75 -0.26562,0.76562 -0.76562,1.29687 -0.5,0.53125 -1.21875,0.82813 -0.70313,0.28125 -1.59375,0.28125 -0.6875,0 -1.42188,-0.125 -0.71875,-0.14063 -1.4375,-0.4375 v -10.57813 h 1.35938 v 3.04688 l -0.0625,1.45312 q 0.59375,-0.79687 1.25,-1.10937 0.67187,-0.32813 1.4375,-0.32813 0.67187,0 1.17187,0.28125 0.51563,0.28125 0.85938,0.79688 0.34375,0.5 0.51562,1.23437 0.17188,0.71875 0.17188,1.60938 z m -1.39063,0.0625 q 0,-0.625 -0.0937,-1.14063 -0.0781,-0.51562 -0.28125,-0.875 -0.1875,-0.375 -0.5,-0.57812 -0.29687,-0.20313 -0.71875,-0.20313 -0.26562,0 -0.53125,0.0781 -0.26562,0.0781 -0.54687,0.28125 -0.28125,0.1875 -0.60938,0.5 -0.3125,0.3125 -0.67187,0.78125 v 3.8125 q 0.40625,0.15625 0.8125,0.25 0.42187,0.0781 0.79687,0.0781 0.46875,0 0.89063,-0.14062 0.42187,-0.15625 0.75,-0.5 0.32812,-0.34375 0.51562,-0.92188 0.1875,-0.57812 0.1875,-1.42187 z m 10.10938,-0.34375 q 0,0.29687 -0.0156,0.5 0,0.1875 -0.0156,0.35937 h -5.5 q 0,1.20313 0.67187,1.84375 0.67188,0.64063 1.9375,0.64063 0.34375,0 0.6875,-0.0156 0.34375,-0.0312 0.65625,-0.0781 0.32813,-0.0469 0.60938,-0.10938 0.29687,-0.0625 0.54687,-0.125 v 1.10938 q -0.54687,0.15625 -1.25,0.25 -0.70312,0.10937 -1.45312,0.10937 -1,0 -1.73438,-0.26562 -0.71875,-0.28125 -1.1875,-0.79688 -0.46875,-0.53125 -0.6875,-1.28125 -0.21875,-0.75 -0.21875,-1.70312 0,-0.82813 0.23438,-1.5625 0.23437,-0.75 0.6875,-1.29688 0.46875,-0.5625 1.125,-0.89062 0.67187,-0.32813 1.51562,-0.32813 0.8125,0 1.4375,0.26563 0.64063,0.25 1.07813,0.71875 0.4375,0.46875 0.65625,1.15625 0.21875,0.67187 0.21875,1.5 z m -1.40625,-0.1875 q 0.0156,-0.53125 -0.10938,-0.95313 -0.125,-0.4375 -0.39062,-0.75 -0.25,-0.3125 -0.64063,-0.48437 -0.39062,-0.1875 -0.90625,-0.1875 -0.45312,0 -0.82812,0.17187 -0.35938,0.17188 -0.625,0.48438 -0.26563,0.3125 -0.4375,0.75 -0.15625,0.4375 -0.1875,0.96875 z m 10.54687,-5.25 q -1.07812,-0.21875 -1.84375,-0.21875 -1.84375,0 -1.84375,1.92187 v 1.375 h 3.4375 v 1.125 h -3.4375 v 5.57813 h -1.375 v -5.57813 h -2.53125 v -1.125 h 2.53125 v -1.29687 q 0,-3.14063 3.26563,-3.14063 0.8125,0 1.79687,0.1875 z m -8.21875,1.9375 z" />
  <path
     style="fill:#ffe599;fill-rule:evenodd"
     inkscape:connector-curvature="0"
     id="path5585"
     d="m 247.93306,257.95436 h 127.55902 v 36.59842 H 247.93306 Z" />
  <path
     style="fill-rule:evenodd;stroke:#595959;stroke-width:1;stroke-linecap:butt;stroke-linejoin:round"
     inkscape:connector-curvature="0"
     id="path5587"
     d="m 247.93306,257.95436 h 127.55902 v 36.59842 H 247.93306 Z" />
  <path
     style="fill:#000000;fill-rule:nonzero"
     inkscape:connector-curvature="0"
     id="path5589"
     d="m 266.88446,278.05107 q 0,0.96875 -0.26562,1.75 -0.26563,0.76562 -0.76563,1.29687 -0.5,0.53125 -1.21875,0.82813 -0.70312,0.28125 -1.59375,0.28125 -0.6875,0 -1.42187,-0.125 -0.71875,-0.14063 -1.4375,-0.4375 v -10.57813 h 1.35937 v 3.04688 l -0.0625,1.45312 q 0.59375,-0.79687 1.25,-1.10937 0.67188,-0.32813 1.4375,-0.32813 0.67188,0 1.17188,0.28125 0.51562,0.28125 0.85937,0.79688 0.34375,0.5 0.51563,1.23437 0.17187,0.71875 0.17187,1.60938 z m -1.39062,0.0625 q 0,-0.625 -0.0937,-1.14063 -0.0781,-0.51562 -0.28125,-0.875 -0.1875,-0.375 -0.5,-0.57812 -0.29688,-0.20313 -0.71875,-0.20313 -0.26563,0 -0.53125,0.0781 -0.26563,0.0781 -0.54688,0.28125 -0.28125,0.1875 -0.60937,0.5 -0.3125,0.3125 -0.67188,0.78125 v 3.8125 q 0.40625,0.15625 0.8125,0.25 0.42188,0.0781 0.79688,0.0781 0.46875,0 0.89062,-0.14062 0.42188,-0.15625 0.75,-0.5 0.32813,-0.34375 0.51563,-0.92188 0.1875,-0.57812 0.1875,-1.42187 z m 10.10937,-0.34375 q 0,0.29687 -0.0156,0.5 0,0.1875 -0.0156,0.35937 h -5.5 q 0,1.20313 0.67188,1.84375 0.67187,0.64063 1.9375,0.64063 0.34375,0 0.6875,-0.0156 0.34375,-0.0312 0.65625,-0.0781 0.32812,-0.0469 0.60937,-0.10938 0.29688,-0.0625 0.54688,-0.125 v 1.10938 q -0.54688,0.15625 -1.25,0.25 -0.70313,0.10937 -1.45313,0.10937 -1,0 -1.73437,-0.26562 -0.71875,-0.28125 -1.1875,-0.79688 -0.46875,-0.53125 -0.6875,-1.28125 -0.21875,-0.75 -0.21875,-1.70312 0,-0.82813 0.23437,-1.5625 0.23438,-0.75 0.6875,-1.29688 0.46875,-0.5625 1.125,-0.89062 0.67188,-0.32813 1.51563,-0.32813 0.8125,0 1.4375,0.26563 0.64062,0.25 1.07812,0.71875 0.4375,0.46875 0.65625,1.15625 0.21875,0.67187 0.21875,1.5 z m -1.40625,-0.1875 q 0.0156,-0.53125 -0.10937,-0.95313 -0.125,-0.4375 -0.39063,-0.75 -0.25,-0.3125 -0.64062,-0.48437 -0.39063,-0.1875 -0.90625,-0.1875 -0.45313,0 -0.82813,0.17187 -0.35937,0.17188 -0.625,0.48438 -0.26562,0.3125 -0.4375,0.75 -0.15625,0.4375 -0.1875,0.96875 z m 10.54688,-5.25 q -1.07813,-0.21875 -1.84375,-0.21875 -1.84375,0 -1.84375,1.92187 v 1.375 h 3.4375 v 1.125 h -3.4375 v 5.57813 h -1.375 v -5.57813 h -2.53125 v -1.125 h 2.53125 v -1.29687 q 0,-3.14063 3.26562,-3.14063 0.8125,0 1.79688,0.1875 z m -8.21875,1.9375 z m 17.59375,11.04687 h -8.79688 v -1.125 h 8.79688 z m 7.875,-7.54687 q 0,0.29687 -0.0156,0.5 0,0.1875 -0.0156,0.35937 h -5.5 q 0,1.20313 0.67187,1.84375 0.67188,0.64063 1.9375,0.64063 0.34375,0 0.6875,-0.0156 0.34375,-0.0312 0.65625,-0.0781 0.32813,-0.0469 0.60938,-0.10938 0.29687,-0.0625 0.54687,-0.125 v 1.10938 q -0.54687,0.15625 -1.25,0.25 -0.70312,0.10937 -1.45312,0.10937 -1,0 -1.73438,-0.26562 -0.71875,-0.28125 -1.1875,-0.79688 -0.46875,-0.53125 -0.6875,-1.28125 -0.21875,-0.75 -0.21875,-1.70312 0,-0.82813 0.23438,-1.5625 0.23437,-0.75 0.6875,-1.29688 0.46875,-0.5625 1.125,-0.89062 0.67187,-0.32813 1.51562,-0.32813 0.8125,0 1.4375,0.26563 0.64063,0.25 1.07813,0.71875 0.4375,0.46875 0.65625,1.15625 0.21875,0.67187 0.21875,1.5 z m -1.40625,-0.1875 q 0.0156,-0.53125 -0.10938,-0.95313 -0.125,-0.4375 -0.39062,-0.75 -0.25,-0.3125 -0.64063,-0.48437 -0.39062,-0.1875 -0.90625,-0.1875 -0.45312,0 -0.82812,0.17187 -0.35938,0.17188 -0.625,0.48438 -0.26563,0.3125 -0.4375,0.75 -0.15625,0.4375 -0.1875,0.96875 z m 10.65625,4.53125 h -1.8125 l -2.10938,-3 -2.09375,3 h -1.76562 l 3.04687,-3.9375 -2.90625,-3.90625 h 1.75 l 2.0625,3.01562 2.01563,-3.01562 h 1.6875 l -2.95313,3.9375 z m 8.34375,-4.34375 q 0,0.29687 -0.0156,0.5 0,0.1875 -0.0156,0.35937 h -5.5 q 0,1.20313 0.67187,1.84375 0.67188,0.64063 1.9375,0.64063 0.34375,0 0.6875,-0.0156 0.34375,-0.0312 0.65625,-0.0781 0.32813,-0.0469 0.60938,-0.10938 0.29687,-0.0625 0.54687,-0.125 v 1.10938 q -0.54687,0.15625 -1.25,0.25 -0.70312,0.10937 -1.45312,0.10937 -1,0 -1.73438,-0.26562 -0.71875,-0.28125 -1.1875,-0.79688 -0.46875,-0.53125 -0.6875,-1.28125 -0.21875,-0.75 -0.21875,-1.70312 0,-0.82813 0.23438,-1.5625 0.23437,-0.75 0.6875,-1.29688 0.46875,-0.5625 1.125,-0.89062 0.67187,-0.32813 1.51562,-0.32813 0.8125,0 1.4375,0.26563 0.64063,0.25 1.07813,0.71875 0.4375,0.46875 0.65625,1.15625 0.21875,0.67187 0.21875,1.5 z m -1.40625,-0.1875 q 0.0156,-0.53125 -0.10938,-0.95313 -0.125,-0.4375 -0.39062,-0.75 -0.25,-0.3125 -0.64063,-0.48437 -0.39062,-0.1875 -0.90625,-0.1875 -0.45312,0 -0.82812,0.17187 -0.35938,0.17188 -0.625,0.48438 -0.26563,0.3125 -0.4375,0.75 -0.15625,0.4375 -0.1875,0.96875 z m 9.67187,4.23437 q -0.53125,0.20313 -1.09375,0.29688 -0.54687,0.10937 -1.14062,0.10937 -1.85938,0 -2.875,-1 -1,-1.01562 -1,-2.95312 0,-0.9375 0.28125,-1.6875 0.29687,-0.76563 0.8125,-1.29688 0.53125,-0.54687 1.25,-0.82812 0.73437,-0.29688 1.60937,-0.29688 0.60938,0 1.14063,0.0937 0.53125,0.0781 1.01562,0.26563 v 1.29687 q -0.5,-0.26562 -1.03125,-0.375 -0.53125,-0.125 -1.09375,-0.125 -0.51562,0 -0.98437,0.20313 -0.46875,0.1875 -0.82813,0.5625 -0.34375,0.375 -0.54687,0.92187 -0.20313,0.53125 -0.20313,1.21875 0,1.42188 0.6875,2.125 0.70313,0.70313 1.92188,0.70313 0.5625,0 1.07812,-0.125 0.51563,-0.125 1,-0.375 z m 9.01563,0.29688 h -1.21875 l -0.0469,-1.26563 q -0.35937,0.40625 -0.67187,0.67188 -0.3125,0.26562 -0.625,0.4375 -0.3125,0.17187 -0.64063,0.23437 -0.3125,0.0625 -0.65625,0.0625 -1.21875,0 -1.84375,-0.70312 -0.60937,-0.71875 -0.60937,-2.15625 v -5.125 h 1.35937 v 5.01562 q 0,1.79688 1.35938,1.79688 0.25,0 0.48437,-0.0625 0.25,-0.0781 0.5,-0.26563 0.26563,-0.1875 0.5625,-0.5 0.3125,-0.3125 0.6875,-0.78125 v -5.20312 h 1.35938 z m 8.8125,-0.10938 q -0.46875,0.125 -0.96875,0.17188 -0.48438,0.0469 -0.98438,0.0469 -1.48437,0 -2.21875,-0.67187 -0.71875,-0.67188 -0.71875,-2.04688 v -4.09375 h -2.1875 v -1.14062 h 2.1875 v -2.15625 l 1.35938,-0.35938 v 2.51563 h 3.53125 v 1.14062 h -3.53125 v 3.98438 q 0,0.84375 0.45312,1.26562 0.45313,0.40625 1.32813,0.40625 0.375,0 0.8125,-0.0469 0.45312,-0.0625 0.9375,-0.1875 z m 9.29687,-3.875 q 0,0.90625 -0.26562,1.67188 -0.25,0.76562 -0.73438,1.3125 -0.48437,0.53125 -1.1875,0.84375 -0.6875,0.29687 -1.5625,0.29687 -0.84375,0 -1.51562,-0.26562 -0.67188,-0.26563 -1.14063,-0.76563 -0.45312,-0.51562 -0.70312,-1.26562 -0.25,-0.75 -0.25,-1.71875 0,-0.92188 0.25,-1.67188 0.26562,-0.75 0.75,-1.29687 0.48437,-0.54688 1.17187,-0.84375 0.70313,-0.29688 1.59375,-0.29688 0.84375,0 1.5,0.26563 0.67188,0.25 1.14063,0.76562 0.46875,0.5 0.70312,1.25 0.25,0.75 0.25,1.71875 z m -1.39062,0.0625 q 0,-0.73437 -0.15625,-1.26562 -0.15625,-0.54688 -0.45313,-0.90625 -0.29687,-0.375 -0.73437,-0.54688 -0.42188,-0.1875 -0.9375,-0.1875 -0.60938,0 -1.04688,0.23438 -0.4375,0.23437 -0.71875,0.64062 -0.26562,0.39063 -0.40625,0.92188 -0.125,0.53125 -0.125,1.10937 0,0.71875 0.15625,1.26563 0.17188,0.54687 0.46875,0.92187 0.29688,0.35938 0.71875,0.54688 0.42188,0.17187 0.95313,0.17187 0.60937,0 1.03125,-0.23437 0.4375,-0.23438 0.71875,-0.625 0.28125,-0.40625 0.40625,-0.9375 0.125,-0.53125 0.125,-1.10938 z m 3.6875,-3.92187 h 1.23437 l 0.0469,1.4375 q 0.6875,-0.82813 1.35937,-1.20313 0.6875,-0.375 1.375,-0.375 1.21875,0 1.84375,0.79688 0.625,0.78125 0.57813,2.32812 h -1.375 q 0.0312,-1.03125 -0.29688,-1.48437 -0.32812,-0.46875 -0.95312,-0.46875 -0.26563,0 -0.54688,0.0937 -0.28125,0.0937 -0.57812,0.3125 -0.28125,0.21875 -0.60938,0.5625 -0.32812,0.32812 -0.70312,0.79687 v 5.04688 h -1.375 z" />
  <path
     style="fill:#ffe599;fill-rule:evenodd"
     inkscape:connector-curvature="0"
     id="path5591"
     d="m 180.74146,143.91237 h 119.52756 v 36.59842 H 180.74146 Z" />
  <path
     style="fill-rule:evenodd;stroke:#595959;stroke-width:1;stroke-linecap:butt;stroke-linejoin:round"
     inkscape:connector-curvature="0"
     id="path5593"
     d="m 180.74146,143.91237 h 119.52756 v 36.59842 H 180.74146 Z" />
  <path
     style="fill:#000000;fill-rule:nonzero"
     inkscape:connector-curvature="0"
     id="path5595"
     d="m 200.07556,164.00908 q 0,0.96875 -0.26563,1.75 -0.26562,0.76562 -0.76562,1.29687 -0.5,0.53125 -1.21875,0.82813 -0.70313,0.28125 -1.59375,0.28125 -0.6875,0 -1.42188,-0.125 -0.71875,-0.14063 -1.4375,-0.4375 V 157.0247 h 1.35938 v 3.04688 l -0.0625,1.45312 q 0.59375,-0.79687 1.25,-1.10937 0.67187,-0.32813 1.4375,-0.32813 0.67187,0 1.17187,0.28125 0.51563,0.28125 0.85938,0.79688 0.34375,0.5 0.51562,1.23437 0.17188,0.71875 0.17188,1.60938 z m -1.39063,0.0625 q 0,-0.625 -0.0937,-1.14063 -0.0781,-0.51562 -0.28125,-0.875 -0.1875,-0.375 -0.5,-0.57812 -0.29687,-0.20313 -0.71875,-0.20313 -0.26562,0 -0.53125,0.0781 -0.26562,0.0781 -0.54687,0.28125 -0.28125,0.1875 -0.60938,0.5 -0.3125,0.3125 -0.67187,0.78125 v 3.8125 q 0.40625,0.15625 0.8125,0.25 0.42187,0.0781 0.79687,0.0781 0.46875,0 0.89063,-0.14062 0.42187,-0.15625 0.75,-0.5 0.32812,-0.34375 0.51562,-0.92188 0.1875,-0.57812 0.1875,-1.42187 z m 10.10938,-0.34375 q 0,0.29687 -0.0156,0.5 0,0.1875 -0.0156,0.35937 h -5.5 q 0,1.20313 0.67187,1.84375 0.67188,0.64063 1.9375,0.64063 0.34375,0 0.6875,-0.0156 0.34375,-0.0312 0.65625,-0.0781 0.32813,-0.0469 0.60938,-0.10938 0.29687,-0.0625 0.54687,-0.125 v 1.10938 q -0.54687,0.15625 -1.25,0.25 -0.70312,0.10937 -1.45312,0.10937 -1,0 -1.73438,-0.26562 -0.71875,-0.28125 -1.1875,-0.79688 -0.46875,-0.53125 -0.6875,-1.28125 -0.21875,-0.75 -0.21875,-1.70312 0,-0.82813 0.23438,-1.5625 0.23437,-0.75 0.6875,-1.29688 0.46875,-0.5625 1.125,-0.89062 0.67187,-0.32813 1.51562,-0.32813 0.8125,0 1.4375,0.26563 0.64063,0.25 1.07813,0.71875 0.4375,0.46875 0.65625,1.15625 0.21875,0.67187 0.21875,1.5 z m -1.40625,-0.1875 q 0.0156,-0.53125 -0.10938,-0.95313 -0.125,-0.4375 -0.39062,-0.75 -0.25,-0.3125 -0.64063,-0.48437 -0.39062,-0.1875 -0.90625,-0.1875 -0.45312,0 -0.82812,0.17187 -0.35938,0.17188 -0.625,0.48438 -0.26563,0.3125 -0.4375,0.75 -0.15625,0.4375 -0.1875,0.96875 z m 10.54687,-5.25 q -1.07812,-0.21875 -1.84375,-0.21875 -1.84375,0 -1.84375,1.92187 v 1.375 h 3.4375 v 1.125 h -3.4375 v 5.57813 h -1.375 v -5.57813 h -2.53125 v -1.125 h 2.53125 v -1.29687 q 0,-3.14063 3.26563,-3.14063 0.8125,0 1.79687,0.1875 z m -8.21875,1.9375 z m 17.59373,11.04687 h -8.79685 v -1.125 h 8.79685 z m 7.57812,-3.3125 q -0.46875,0.125 -0.96875,0.17188 -0.48437,0.0469 -0.98437,0.0469 -1.48438,0 -2.21875,-0.67187 -0.71875,-0.67188 -0.71875,-2.04688 v -4.09375 h -2.1875 v -1.14062 h 2.1875 v -2.15625 l 1.35937,-0.35938 v 2.51563 h 3.53125 v 1.14062 h -3.53125 v 3.98438 q 0,0.84375 0.45313,1.26562 0.45312,0.40625 1.32812,0.40625 0.375,0 0.8125,-0.0469 0.45313,-0.0625 0.9375,-0.1875 z m 9.29688,-3.875 q 0,0.90625 -0.26563,1.67188 -0.25,0.76562 -0.73437,1.3125 -0.48438,0.53125 -1.1875,0.84375 -0.6875,0.29687 -1.5625,0.29687 -0.84375,0 -1.51563,-0.26562 -0.67187,-0.26563 -1.14062,-0.76563 -0.45313,-0.51562 -0.70313,-1.26562 -0.25,-0.75 -0.25,-1.71875 0,-0.92188 0.25,-1.67188 0.26563,-0.75 0.75,-1.29687 0.48438,-0.54688 1.17188,-0.84375 0.70312,-0.29688 1.59375,-0.29688 0.84375,0 1.5,0.26563 0.67187,0.25 1.14062,0.76562 0.46875,0.5 0.70313,1.25 0.25,0.75 0.25,1.71875 z m -1.39063,0.0625 q 0,-0.73437 -0.15625,-1.26562 -0.15625,-0.54688 -0.45312,-0.90625 -0.29688,-0.375 -0.73438,-0.54688 -0.42187,-0.1875 -0.9375,-0.1875 -0.60937,0 -1.04687,0.23438 -0.4375,0.23437 -0.71875,0.64062 -0.26563,0.39063 -0.40625,0.92188 -0.125,0.53125 -0.125,1.10937 0,0.71875 0.15625,1.26563 0.17187,0.54687 0.46875,0.92187 0.29687,0.35938 0.71875,0.54688 0.42187,0.17187 0.95312,0.17187 0.60938,0 1.03125,-0.23437 0.4375,-0.23438 0.71875,-0.625 0.28125,-0.40625 0.40625,-0.9375 0.125,-0.53125 0.125,-1.10938 z m 10.90625,7.125 h -8.79687 v -1.125 h 8.79687 z m 6.84375,-3.20312 v -5.64063 q 0,-0.35937 -0.0312,-0.59375 -0.0156,-0.23437 -0.0781,-0.375 -0.0625,-0.14062 -0.15625,-0.1875 -0.0781,-0.0625 -0.21875,-0.0625 -0.15625,0 -0.29688,0.0937 -0.125,0.0937 -0.28125,0.3125 -0.14062,0.20313 -0.32812,0.5625 -0.1875,0.34375 -0.4375,0.84375 v 5.04688 h -1.23438 v -5.48438 q 0,-0.4375 -0.0312,-0.70312 -0.0312,-0.26563 -0.0937,-0.40625 -0.0469,-0.15625 -0.14062,-0.20313 -0.0937,-0.0625 -0.23438,-0.0625 -0.14062,0 -0.26562,0.0781 -0.125,0.0781 -0.28125,0.28125 -0.14063,0.20312 -0.32813,0.5625 -0.1875,0.34375 -0.45312,0.89062 v 5.04688 h -1.25 v -7.84375 h 1.04687 l 0.0625,1.48437 q 0.20313,-0.4375 0.39063,-0.75 0.1875,-0.3125 0.39062,-0.5 0.20313,-0.20312 0.4375,-0.28125 0.23438,-0.0937 0.51563,-0.0937 0.625,0 0.95312,0.42188 0.32813,0.40625 0.32813,1.26562 0.1875,-0.40625 0.35937,-0.71875 0.1875,-0.3125 0.39063,-0.53125 0.21875,-0.21875 0.46875,-0.32812 0.25,-0.10938 0.57812,-0.10938 1.46875,0 1.46875,2.26563 v 5.71875 z m 5.875,-9.92188 h -2.3125 v -1.125 h 3.6875 v 9.90625 h 2.34375 v 1.14063 h -6.29687 v -1.14063 h 2.57812 z m 8.79688,3.20313 h -2.3125 v -1.125 h 3.6875 v 6.70312 h 2.34375 v 1.14063 h -6.29688 v -1.14063 h 2.57813 z m 0.48437,-4.42188 q 0.21875,0 0.40625,0.0937 0.20313,0.0781 0.34375,0.23438 0.15625,0.14062 0.23438,0.32812 0.0781,0.1875 0.0781,0.42188 0,0.21875 -0.0781,0.42187 -0.0781,0.1875 -0.23438,0.34375 -0.14062,0.14063 -0.34375,0.21875 -0.1875,0.0781 -0.40625,0.0781 -0.23437,0 -0.4375,-0.0781 -0.1875,-0.0781 -0.32812,-0.21875 -0.14063,-0.15625 -0.23438,-0.34375 -0.0781,-0.20312 -0.0781,-0.42187 0,-0.23438 0.0781,-0.42188 0.0937,-0.1875 0.23438,-0.32812 0.14062,-0.15625 0.32812,-0.23438 0.20313,-0.0937 0.4375,-0.0937 z m 5.96875,3.29688 h 1.23438 l 0.0469,1.4375 q 0.6875,-0.82813 1.35938,-1.20313 0.6875,-0.375 1.375,-0.375 1.21875,0 1.84375,0.79688 0.625,0.78125 0.57812,2.32812 h -1.375 q 0.0312,-1.03125 -0.29687,-1.48437 -0.32813,-0.46875 -0.95313,-0.46875 -0.26562,0 -0.54687,0.0937 -0.28125,0.0937 -0.57813,0.3125 -0.28125,0.21875 -0.60937,0.5625 -0.32813,0.32812 -0.70313,0.79687 v 5.04688 h -1.375 z" />
  <path
     style="fill:#000000;fill-opacity:0;fill-rule:evenodd"
     inkscape:connector-curvature="0"
     id="path5597"
     d="M 88.61023,105.19846 60.26379,143.90712" />
  <path
     style="fill-rule:evenodd;stroke:#595959;stroke-width:1;stroke-linecap:butt;stroke-linejoin:round"
     inkscape:connector-curvature="0"
     id="path5599"
     d="M 88.61023,105.19846 63.80872,139.0663" />
  <path
     style="fill:#595959;fill-rule:evenodd;stroke:#595959;stroke-width:1;stroke-linecap:butt"
     inkscape:connector-curvature="0"
     id="path5601"
     d="m 62.4761,138.09043 -1.3486,4.63721 4.01382,-2.68546 z" />
  <path
     style="fill:#000000;fill-opacity:0;fill-rule:evenodd"
     inkscape:connector-curvature="0"
     id="path5603"
     d="m 60.26379,180.51603 28.34644,38.70868" />
  <path
     style="fill-rule:evenodd;stroke:#595959;stroke-width:1;stroke-linecap:butt;stroke-linejoin:round"
     inkscape:connector-curvature="0"
     id="path5605"
     d="m 60.26379,180.51603 24.80148,33.86786" />
  <path
     style="fill:#595959;fill-rule:evenodd;stroke:#595959;stroke-width:1;stroke-linecap:butt"
     inkscape:connector-curvature="0"
     id="path5607"
     d="m 83.73266,215.35979 4.01385,2.68546 -1.3486,-4.63724 z" />
  <path
     style="fill:#c9daf8;fill-rule:evenodd"
     inkscape:connector-curvature="0"
     id="path5609"
     d="m 88.61023,262.52916 v 0 c 0,2.52661 26.75717,4.5748 59.76379,4.5748 33.00663,0 59.76377,-2.04819 59.76377,-4.5748 v 27.44882 c 0,2.52661 -26.75714,4.5748 -59.76377,4.5748 -33.00662,0 -59.76379,-2.04819 -59.76379,-4.5748 z" />
  <path
     style="fill:#dee8fa;fill-rule:evenodd"
     inkscape:connector-curvature="0"
     id="path5611"
     d="m 88.61023,262.52916 v 0 c 0,-2.52658 26.75717,-4.5748 59.76379,-4.5748 33.00663,0 59.76377,2.04822 59.76377,4.5748 v 0 c 0,2.52661 -26.75714,4.5748 -59.76377,4.5748 -33.00662,0 -59.76379,-2.04819 -59.76379,-4.5748 z" />
  <path
     style="fill:#000000;fill-opacity:0;fill-rule:evenodd"
     inkscape:connector-curvature="0"
     id="path5613"
     d="m 208.13778,262.52916 v 0 c 0,2.52661 -26.75714,4.5748 -59.76376,4.5748 -33.00662,0 -59.7638,-2.04819 -59.7638,-4.5748 v 0 c 0,-2.52658 26.75718,-4.5748 59.7638,-4.5748 33.00662,0 59.76376,2.04822 59.76376,4.5748 v 27.44882 c 0,2.52661 -26.75714,4.5748 -59.76376,4.5748 -33.00662,0 -59.7638,-2.04819 -59.7638,-4.5748 v -27.44882" />
  <path
     style="fill-rule:evenodd;stroke:#595959;stroke-width:1;stroke-linecap:butt;stroke-linejoin:round"
     inkscape:connector-curvature="0"
     id="path5615"
     d="m 208.13778,262.52916 v 0 c 0,2.52661 -26.75714,4.5748 -59.76376,4.5748 -33.00662,0 -59.7638,-2.04819 -59.7638,-4.5748 v 0 c 0,-2.52658 26.75718,-4.5748 59.7638,-4.5748 33.00662,0 59.76376,2.04822 59.76376,4.5748 v 27.44882 c 0,2.52661 -26.75714,4.5748 -59.76376,4.5748 -33.00662,0 -59.7638,-2.04819 -59.7638,-4.5748 v -27.44882" />
  <path
     style="fill:#000000;fill-rule:nonzero"
     inkscape:connector-curvature="0"
     id="path5617"
     d="m 116.54654,281.16411 1.65625,-0.14063 q 0.125,1 0.54687,1.64063 0.4375,0.64062 1.34375,1.04687 0.92188,0.39063 2.0625,0.39063 1,0 1.78125,-0.29688 0.78125,-0.29687 1.15625,-0.8125 0.375,-0.53125 0.375,-1.15625 0,-0.625 -0.375,-1.09375 -0.35937,-0.46875 -1.1875,-0.79687 -0.54687,-0.20313 -2.39062,-0.64063 -1.82813,-0.45312 -2.5625,-0.84375 -0.96875,-0.5 -1.4375,-1.23437 -0.46875,-0.75 -0.46875,-1.67188 0,-1 0.57812,-1.875 0.57813,-0.89062 1.67188,-1.34375 1.10937,-0.45312 2.45312,-0.45312 1.48438,0 2.60938,0.48437 1.14062,0.46875 1.75,1.40625 0.60937,0.92188 0.65625,2.09375 l -1.6875,0.125 q -0.14063,-1.26562 -0.9375,-1.90625 -0.78125,-0.65625 -2.3125,-0.65625 -1.60938,0 -2.34375,0.59375 -0.73438,0.59375 -0.73438,1.42188 0,0.71875 0.53125,1.17187 0.5,0.46875 2.65625,0.96875 2.15625,0.48438 2.95313,0.84375 1.17187,0.53125 1.71875,1.35938 0.5625,0.82812 0.5625,1.90625 0,1.0625 -0.60938,2.01562 -0.60937,0.9375 -1.75,1.46875 -1.14062,0.51563 -2.57812,0.51563 -1.8125,0 -3.04688,-0.53125 -1.21875,-0.53125 -1.92187,-1.59375 -0.6875,-1.0625 -0.71875,-2.40625 z m 16.41232,2.82812 0.23438,1.45313 q -0.6875,0.14062 -1.23438,0.14062 -0.89062,0 -1.39062,-0.28125 -0.48438,-0.28125 -0.6875,-0.73437 -0.20313,-0.46875 -0.20313,-1.9375 v -5.57813 h -1.20312 v -1.26562 h 1.20312 v -2.39063 l 1.625,-0.98437 v 3.375 h 1.65625 v 1.26562 h -1.65625 v 5.67188 q 0,0.6875 0.0781,0.89062 0.0937,0.20313 0.28125,0.32813 0.20312,0.10937 0.57812,0.10937 0.26563,0 0.71875,-0.0625 z m 0.99582,-3.375 q 0,-2.6875 1.48438,-3.96875 1.25,-1.07812 3.04687,-1.07812 2,0 3.26563,1.3125 1.26562,1.29687 1.26562,3.60937 0,1.85938 -0.5625,2.9375 -0.5625,1.0625 -1.64062,1.65625 -1.0625,0.59375 -2.32813,0.59375 -2.03125,0 -3.28125,-1.29687 -1.25,-1.3125 -1.25,-3.76563 z m 1.6875,0 q 0,1.85938 0.79688,2.79688 0.8125,0.92187 2.04687,0.92187 1.21875,0 2.03125,-0.92187 0.8125,-0.9375 0.8125,-2.84375 0,-1.79688 -0.8125,-2.71875 -0.8125,-0.92188 -2.03125,-0.92188 -1.23437,0 -2.04687,0.92188 -0.79688,0.90625 -0.79688,2.76562 z m 9.28195,4.84375 v -9.67187 h 1.46875 v 1.46875 q 0.5625,-1.03125 1.03125,-1.35938 0.48438,-0.32812 1.0625,-0.32812 0.82813,0 1.6875,0.53125 l -0.5625,1.51562 q -0.60937,-0.35937 -1.20312,-0.35937 -0.54688,0 -0.96875,0.32812 -0.42188,0.32813 -0.60938,0.89063 -0.28125,0.875 -0.28125,1.92187 v 5.0625 z m 12.54081,-1.1875 q -0.92188,0.76563 -1.76563,1.09375 -0.82812,0.3125 -1.79687,0.3125 -1.59375,0 -2.45313,-0.78125 -0.85937,-0.78125 -0.85937,-1.98437 0,-0.71875 0.32812,-1.29688 0.32813,-0.59375 0.84375,-0.9375 0.53125,-0.35937 1.1875,-0.54687 0.46875,-0.125 1.45313,-0.25 1.98437,-0.23438 2.92187,-0.5625 0.0156,-0.34375 0.0156,-0.42188 0,-1 -0.46875,-1.42187 -0.625,-0.54688 -1.875,-0.54688 -1.15625,0 -1.70313,0.40625 -0.54687,0.40625 -0.8125,1.42188 l -1.60937,-0.21875 q 0.21875,-1.01563 0.71875,-1.64063 0.5,-0.64062 1.45312,-0.98437 0.95313,-0.34375 2.1875,-0.34375 1.25,0 2.01563,0.29687 0.78125,0.28125 1.14062,0.73438 0.375,0.4375 0.51563,1.10937 0.0781,0.42188 0.0781,1.51563 v 2.1875 q 0,2.28125 0.10938,2.89062 0.10937,0.59375 0.40625,1.15625 h -1.70308 q -0.26562,-0.51562 -0.32812,-1.1875 z m -0.14063,-3.67187 q -0.89062,0.375 -2.67187,0.625 -1.01563,0.14062 -1.4375,0.32812 -0.42188,0.1875 -0.65625,0.53125 -0.21875,0.34375 -0.21875,0.78125 0,0.65625 0.5,1.09375 0.5,0.4375 1.45312,0.4375 0.9375,0 1.67188,-0.40625 0.75,-0.42187 1.09375,-1.14062 0.26562,-0.5625 0.26562,-1.64063 z m 3.89136,5.65625 1.59375,0.23437 q 0.10937,0.75 0.5625,1.07813 0.60937,0.45312 1.67187,0.45312 1.14063,0 1.75,-0.45312 0.625,-0.45313 0.84375,-1.26563 0.125,-0.5 0.10938,-2.10937 -1.0625,1.26562 -2.67188,1.26562 -2,0 -3.09375,-1.4375 -1.09375,-1.4375 -1.09375,-3.45312 0,-1.39063 0.5,-2.5625 0.51563,-1.17188 1.45313,-1.79688 0.95312,-0.64062 2.25,-0.64062 1.70312,0 2.8125,1.375 v -1.15625 h 1.51562 v 8.35937 q 0,2.26563 -0.46875,3.20313 -0.45312,0.9375 -1.45312,1.48437 -0.98438,0.54688 -2.45313,0.54688 -1.71875,0 -2.79687,-0.78125 -1.0625,-0.76563 -1.03125,-2.34375 z m 1.35937,-5.8125 q 0,1.90625 0.75,2.78125 0.76563,0.875 1.90625,0.875 1.125,0 1.89063,-0.85938 0.76562,-0.875 0.76562,-2.73437 0,-1.78125 -0.79687,-2.67188 -0.78125,-0.90625 -1.89063,-0.90625 -1.09375,0 -1.85937,0.89063 -0.76563,0.875 -0.76563,2.625 z m 15.95383,1.90625 1.6875,0.20312 q -0.40625,1.48438 -1.48437,2.3125 -1.07813,0.8125 -2.76563,0.8125 -2.125,0 -3.375,-1.29687 -1.23437,-1.3125 -1.23437,-3.67188 0,-2.45312 1.25,-3.79687 1.26562,-1.34375 3.26562,-1.34375 1.9375,0 3.15625,1.32812 1.23438,1.3125 1.23438,3.70313 0,0.15625 0,0.4375 h -7.21875 q 0.0937,1.59375 0.90625,2.45312 0.8125,0.84375 2.01562,0.84375 0.90625,0 1.54688,-0.46875 0.64062,-0.48437 1.01562,-1.51562 z m -5.39062,-2.65625 h 5.40625 q -0.10938,-1.21875 -0.625,-1.82813 -0.78125,-0.95312 -2.03125,-0.95312 -1.125,0 -1.90625,0.76562 -0.76563,0.75 -0.84375,2.01563 z" />
  <path
     style="fill:#000000;fill-opacity:0;fill-rule:evenodd"
     inkscape:connector-curvature="0"
     id="path5619"
     d="m 148.37402,237.53441 v 20.40945" />
  <path
     style="fill-rule:evenodd;stroke:#595959;stroke-width:1;stroke-linecap:butt;stroke-linejoin:round"
     inkscape:connector-curvature="0"
     id="path5621"
     d="m 148.37402,237.53441 v 14.40945" />
  <path
     style="fill:#595959;fill-rule:evenodd;stroke:#595959;stroke-width:1;stroke-linecap:butt"
     inkscape:connector-curvature="0"
     id="path5623"
     d="m 146.72229,251.94386 1.65173,4.53809 1.65174,-4.53809 z" />
  <path
     style="fill:#000000;fill-opacity:0;fill-rule:evenodd"
     inkscape:connector-curvature="0"
     id="path5625"
     d="m 208.13778,276.25359 h 39.81104" />
  <path
     style="fill-rule:evenodd;stroke:#595959;stroke-width:1;stroke-linecap:butt;stroke-linejoin:round"
     inkscape:connector-curvature="0"
     id="path5627"
     d="m 208.13778,276.25359 h 33.81104" />
  <path
     style="fill:#595959;fill-rule:evenodd;stroke:#595959;stroke-width:1;stroke-linecap:butt"
     inkscape:connector-curvature="0"
     id="path5629"
     d="m 241.94882,277.90533 4.53809,-1.65173 -4.53809,-1.65174 z" />
  <path
     style="fill:#000000;fill-opacity:0;fill-rule:evenodd"
     inkscape:connector-curvature="0"
     id="path5631"
     d="m 208.13778,219.23521 32.37799,-38.70868" />
  <path
     style="fill-rule:evenodd;stroke:#595959;stroke-width:1;stroke-linecap:butt;stroke-linejoin:round"
     inkscape:connector-curvature="0"
     id="path5633"
     d="M 208.13778,219.23521 236.66616,185.1288" />
  <path
     style="fill:#595959;fill-rule:evenodd;stroke:#595959;stroke-width:1;stroke-linecap:butt"
     inkscape:connector-curvature="0"
     id="path5635"
     d="m 237.93316,186.18855 1.64465,-4.54068 -4.17859,2.42117 z" />
  <path
     style="fill:#000000;fill-opacity:0;fill-rule:evenodd"
     inkscape:connector-curvature="0"
     id="path5637"
     d="M 240.50526,143.91237 208.12727,105.20371" />
  <path
     style="fill-rule:evenodd;stroke:#595959;stroke-width:1;stroke-linecap:butt;stroke-linejoin:round"
     inkscape:connector-curvature="0"
     id="path5639"
     d="m 240.50526,143.91237 -28.52841,-34.1064" />
  <path
     style="fill:#595959;fill-rule:evenodd;stroke:#595959;stroke-width:1;stroke-linecap:butt"
     inkscape:connector-curvature="0"
     id="path5641"
     d="m 213.2438,108.74622 -4.17856,-2.42117 1.64469,4.54066 z" />
  <path
     style="fill:#d9ead3;fill-rule:evenodd"
     inkscape:connector-curvature="0"
     id="path5643"
     d="m 86.13604,22.277585 v 0 c -1.22476,-5.33319 2.79636,-10.61273 10.35709,-13.5983099 7.5607,-2.98558 17.33499,-3.1536 25.17529,-0.43276 v 0 c 2.77728,-3.10093 7.8605,-5.24191 13.7121,-5.77533 5.85159,-0.53343 11.78427,0.60336 16.00351,3.0665 v 0 c 2.36587,-2.81151 7.01132,-4.70047995 12.28787,-4.99660995 5.27658,-0.29614 10.4375,1.04247995 13.65143,3.54083995 v 0 c 4.27429,-2.98019 11.07483,-4.23497995 17.45895,-3.22140995 6.38412,1.01357995 11.2052,4.11346995 12.37711,7.95832995 v 0 c 5.23675,0.84638 9.59887,2.9980099 11.95929,5.8989799 2.36041,2.90096 2.48761,6.26666 0.34875,9.22754 v 0 c 5.15668,3.97678 6.36292,9.27577 3.16864,13.91951 -3.19427,4.64374 -10.3092,7.93454 -18.68964,8.64435 -0.0591,4.35831 -4.09295,8.35745 -10.54684,10.45596 -6.45389,2.09851 -14.31998,1.96872 -20.56631,-0.33935 -2.66059,5.21983 -10.14933,9.06054 -19.23078,9.86279 -9.08142,0.80225 -18.12756,-1.57777 -23.2301,-6.11182 -6.25467,2.23484 -13.75974,2.87863 -20.82221,1.78614 -7.0625,-1.0925 -13.08749,-3.82924 -16.71588,-7.5929 v 0 c -6.39148,0.44318 -12.57113,-1.51897 -15.47207,-4.91264 -2.90091,-3.39368 -1.90555,-7.49643 2.49212,-10.27211 v 0 c -5.70138,-1.98835 -8.61053,-5.9339 -7.21051,-9.77921 1.40003,-3.8453 6.79199,-6.71901 13.36423,-7.12257 z" />
  <path
     style="fill:#000000;fill-opacity:0;fill-rule:evenodd"
     inkscape:connector-curvature="0"
     id="path5645"
     d="m 79.85598,39.384915 v 0 c 2.69046,0.93831 5.79861,1.36394 8.9071,1.21976 m 4.07145,13.96531 c 1.33676,-0.0927 2.64703,-0.28897 3.89706,-0.58378 m 33.63916,6.3903 c -0.94019,-0.83543 -1.72739,-1.72818 -2.34811,-2.66301 m 44.8106,-1.08812 v 0 c 0.48508,-0.95164 0.79938,-1.9311 0.93763,-2.92202 m 30.17437,-7.19422 c 0.0629,-4.6401 -4.38488,-8.88862 -11.43289,-10.9207 m 26.95371,-11.64267 c -1.14139,1.58005 -2.88385,2.98168 -5.09079,4.095 M 207.15911,8.8188251 v 0 c 0.19449,0.63806 0.28449,1.2857099 0.26877,1.9339799 M 177.32354,4.0821051 v 0 c -1.06622,0.74341 -1.94467,1.57416 -2.60794,2.46638 m -23.33161,-1.01092 v 0 c -0.5682,0.67523 -0.99252,1.38974 -1.26312,2.12707 m -28.45291,0.58182 v 0 c 1.659,0.57571 3.19382,1.26868 4.57071,2.0636299 m -40.10263,11.9675 v 0 c 0.16879,0.73505 0.43552,1.46104 0.79764,2.17117" />
  <path
     style="fill-rule:evenodd;stroke:#595959;stroke-width:1;stroke-linecap:butt;stroke-linejoin:round"
     inkscape:connector-curvature="0"
     id="path5647"
     d="m 86.13604,22.277585 v 0 c -1.22476,-5.33319 2.79636,-10.61273 10.35709,-13.5983099 7.5607,-2.98558 17.33499,-3.1536 25.17529,-0.43276 v 0 c 2.77728,-3.10093 7.8605,-5.24191 13.7121,-5.77533 5.85159,-0.53343 11.78427,0.60336 16.00351,3.0665 v 0 c 2.36587,-2.81151 7.01132,-4.70047995 12.28787,-4.99660995 5.27658,-0.29614 10.4375,1.04247995 13.65143,3.54083995 v 0 c 4.27429,-2.98019 11.07483,-4.23497995 17.45895,-3.22140995 6.38412,1.01357995 11.2052,4.11346995 12.37711,7.95832995 v 0 c 5.23675,0.84638 9.59887,2.9980099 11.95929,5.8989799 2.36041,2.90096 2.48761,6.26666 0.34875,9.22754 v 0 c 5.15668,3.97678 6.36292,9.27577 3.16864,13.91951 -3.19427,4.64374 -10.3092,7.93454 -18.68964,8.64435 -0.0591,4.35831 -4.09295,8.35745 -10.54684,10.45596 -6.45389,2.09851 -14.31998,1.96872 -20.56631,-0.33935 -2.66059,5.21983 -10.14933,9.06054 -19.23078,9.86279 -9.08142,0.80225 -18.12756,-1.57777 -23.2301,-6.11182 -6.25467,2.23484 -13.75974,2.87863 -20.82221,1.78614 -7.0625,-1.0925 -13.08749,-3.82924 -16.71588,-7.5929 v 0 c -6.39148,0.44318 -12.57113,-1.51897 -15.47207,-4.91264 -2.90091,-3.39368 -1.90555,-7.49643 2.49212,-10.27211 v 0 c -5.70138,-1.98835 -8.61053,-5.9339 -7.21051,-9.77921 1.40003,-3.8453 6.79199,-6.71901 13.36423,-7.12257 z" />
  <path
     style="fill-rule:evenodd;stroke:#595959;stroke-width:1;stroke-linecap:butt;stroke-linejoin:round"
     inkscape:connector-curvature="0"
     id="path5649"
     d="m 79.85598,39.384915 v 0 c 2.69046,0.93831 5.79861,1.36394 8.9071,1.21976 m 4.07145,13.96531 c 1.33676,-0.0927 2.64703,-0.28897 3.89706,-0.58378 m 33.63916,6.3903 c -0.94019,-0.83543 -1.72739,-1.72818 -2.34811,-2.66301 m 44.8106,-1.08812 v 0 c 0.48508,-0.95164 0.79938,-1.9311 0.93763,-2.92202 m 30.17437,-7.19422 c 0.0629,-4.6401 -4.38488,-8.88862 -11.43289,-10.9207 m 26.95371,-11.64267 c -1.14139,1.58005 -2.88385,2.98168 -5.09079,4.095 M 207.15911,8.8188251 v 0 c 0.19449,0.63806 0.28449,1.2857099 0.26877,1.9339799 M 177.32354,4.0821051 v 0 c -1.06622,0.74341 -1.94467,1.57416 -2.60794,2.46638 m -23.33161,-1.01092 v 0 c -0.5682,0.67523 -0.99252,1.38974 -1.26312,2.12707 m -28.45291,0.58182 v 0 c 1.659,0.57571 3.19382,1.26868 4.57071,2.0636299 m -40.10263,11.9675 v 0 c 0.16879,0.73505 0.43552,1.46104 0.79764,2.17117" />
  <path
     style="fill:#000000;fill-rule:nonzero"
     inkscape:connector-curvature="0"
     id="path5651"
     d="m 116.62021,34.043225 1.76562,0.45312 q -0.5625,2.17188 -2,3.32813 -1.4375,1.14062 -3.53125,1.14062 -2.15625,0 -3.51562,-0.875 -1.34375,-0.89062 -2.0625,-2.54687 -0.70313,-1.67188 -0.70313,-3.59375 0,-2.07813 0.79688,-3.625 0.79687,-1.5625 2.26562,-2.35938 1.48438,-0.8125 3.25,-0.8125 2,0 3.35938,1.01563 1.375,1.01562 1.90625,2.875 l -1.73438,0.40625 q -0.46875,-1.45313 -1.35937,-2.10938 -0.875,-0.67187 -2.20313,-0.67187 -1.54687,0 -2.57812,0.73437 -1.03125,0.73438 -1.45313,1.98438 -0.42187,1.23437 -0.42187,2.5625 0,1.70312 0.5,2.96875 0.5,1.26562 1.54687,1.90625 1.04688,0.625 2.26563,0.625 1.48437,0 2.51562,-0.85938 1.03125,-0.85937 1.39063,-2.54687 z m 3.12921,-0.15625 q 0,-2.6875 1.48438,-3.96875 1.25,-1.07813 3.04687,-1.07813 2,0 3.26563,1.3125 1.26562,1.29688 1.26562,3.60938 0,1.85937 -0.5625,2.9375 -0.5625,1.0625 -1.64062,1.65625 -1.0625,0.59375 -2.32813,0.59375 -2.03125,0 -3.28125,-1.29688 -1.25,-1.3125 -1.25,-3.76562 z m 1.6875,0 q 0,1.85937 0.79688,2.79687 0.8125,0.92188 2.04687,0.92188 1.21875,0 2.03125,-0.92188 0.8125,-0.9375 0.8125,-2.84375 0,-1.79687 -0.8125,-2.71875 -0.8125,-0.92187 -2.03125,-0.92187 -1.23437,0 -2.04687,0.92187 -0.79688,0.90625 -0.79688,2.76563 z m 9.29758,4.84375 v -9.67188 h 1.46875 v 1.35938 q 0.45312,-0.71875 1.20312,-1.14063 0.76563,-0.4375 1.71875,-0.4375 1.07813,0 1.76563,0.45313 0.6875,0.4375 0.96875,1.23437 1.15625,-1.6875 2.98437,-1.6875 1.45313,0 2.21875,0.79688 0.78125,0.79687 0.78125,2.45312 v 6.64063 h -1.64062 v -6.09375 q 0,-0.98438 -0.15625,-1.40625 -0.15625,-0.4375 -0.57813,-0.70313 -0.42187,-0.26562 -0.98437,-0.26562 -1.01563,0 -1.6875,0.6875 -0.67188,0.67187 -0.67188,2.15625 v 5.625 h -1.64062 v -6.28125 q 0,-1.09375 -0.40625,-1.64063 -0.40625,-0.54687 -1.3125,-0.54687 -0.6875,0 -1.28125,0.35937 -0.59375,0.35938 -0.85938,1.0625 -0.25,0.70313 -0.25,2.03125 v 5.01563 z m 15.5408,3.70312 v -13.375 h 1.48438 v 1.25 q 0.53125,-0.73437 1.1875,-1.09375 0.67187,-0.375 1.625,-0.375 1.23437,0 2.17187,0.64063 0.95313,0.625 1.4375,1.79687 0.48438,1.15625 0.48438,2.54688 0,1.48437 -0.53125,2.67187 -0.53125,1.1875 -1.54688,1.82813 -1.01562,0.625 -2.14062,0.625 -0.8125,0 -1.46875,-0.34375 -0.65625,-0.34375 -1.0625,-0.875 v 4.70312 z m 1.48438,-8.48437 q 0,1.85937 0.75,2.76562 0.76562,0.89063 1.82812,0.89063 1.09375,0 1.875,-0.92188 0.78125,-0.9375 0.78125,-2.875 0,-1.84375 -0.76562,-2.76562 -0.75,-0.92188 -1.8125,-0.92188 -1.04688,0 -1.85938,0.98438 -0.79687,0.96875 -0.79687,2.84375 z m 8.89135,-6.6875 v -1.89063 h 1.64063 v 1.89063 z m 0,11.46875 v -9.67188 h 1.64063 v 9.67188 z m 4.09793,0 v -13.35938 h 1.64063 v 13.35938 z m 10.81671,-3.10938 1.6875,0.20313 q -0.40625,1.48437 -1.48437,2.3125 -1.07813,0.8125 -2.76563,0.8125 -2.125,0 -3.375,-1.29688 -1.23437,-1.3125 -1.23437,-3.67187 0,-2.45313 1.25,-3.79688 1.26562,-1.34375 3.26562,-1.34375 1.9375,0 3.15625,1.32813 1.23438,1.3125 1.23438,3.70312 0,0.15625 0,0.4375 h -7.21875 q 0.0937,1.59375 0.90625,2.45313 0.8125,0.84375 2.01562,0.84375 0.90625,0 1.54688,-0.46875 0.64062,-0.48438 1.01562,-1.51563 z m -5.39062,-2.65625 h 5.40625 q -0.10938,-1.21875 -0.625,-1.82812 -0.78125,-0.95313 -2.03125,-0.95313 -1.125,0 -1.90625,0.76563 -0.76563,0.75 -0.84375,2.01562 z m 9.1257,5.76563 v -9.67188 h 1.46875 v 1.46875 q 0.5625,-1.03125 1.03125,-1.35937 0.48438,-0.32813 1.0625,-0.32813 0.82813,0 1.6875,0.53125 l -0.5625,1.51563 q -0.60937,-0.35938 -1.20312,-0.35938 -0.54688,0 -0.96875,0.32813 -0.42188,0.32812 -0.60938,0.89062 -0.28125,0.875 -0.28125,1.92188 v 5.0625 z" />
  <path
     style="fill:#000000;fill-opacity:0;fill-rule:evenodd"
     inkscape:connector-curvature="0"
     id="path5653"
     d="m 148.37406,66.329935 v 20.56694" />
  <path
     style="fill-rule:evenodd;stroke:#595959;stroke-width:1;stroke-linecap:butt;stroke-linejoin:round"
     inkscape:connector-curvature="0"
     id="path5655"
     d="m 148.37406,66.329935 v 14.56692" />
  <path
     style="fill:#595959;fill-rule:evenodd;stroke:#595959;stroke-width:1;stroke-linecap:butt"
     inkscape:connector-curvature="0"
     id="path5657"
     d="m 146.72232,80.896865 1.65173,4.5381 1.65174,-4.5381 z" />
</svg>
