<svg version="1.1" viewBox="0.0 0.0 646.5301837270341 315.249343832021" fill="none" stroke="none" stroke-linecap="square" stroke-miterlimit="10" xmlns:xlink="http://www.w3.org/1999/xlink" xmlns="http://www.w3.org/2000/svg"><clipPath id="p.0"><path d="m0 0l646.5302 0l0 315.24933l-646.5302 0l0 -315.24933z" clip-rule="nonzero"/></clipPath><g clip-path="url(#p.0)"><path fill="#000000" fill-opacity="0.0" d="m0 0l646.5302 0l0 315.24933l-646.5302 0z" fill-rule="evenodd"/><path fill="#000000" fill-opacity="0.0" d="m8.813648 56.51365l101.6378 0l0 25.51181l-101.6378 0z" fill-rule="evenodd"/><path fill="#4285f4" d="m39.680573 75.88205q-0.984375 -1.125 -1.6875 -2.71875q-0.6875 -1.59375 -0.6875 -3.390625q0 -1.796875 0.6875 -3.390625q0.703125 -1.59375 1.6875 -2.7031212l0.8125 0.5781212q-0.90625 1.078125 -1.5 2.546875q-0.578125 1.453125 -0.578125 2.96875q0 1.53125 0.578125 2.984375q0.59375 1.453125 1.5 2.53125l-0.8125 0.59375zm6.633087 -1.59375q-1.34375 0 -2.484375 -0.65625q-1.125 -0.65625 -1.796875 -1.796875q-0.671875 -1.15625 -0.671875 -2.53125q0 -1.390625 0.671875 -2.53125q0.671875 -1.15625 1.796875 -1.796875q1.140625 -0.65625 2.484375 -0.65625q1.046875 0 1.96875 0.375q0.9375 0.359375 1.53125 1.046875l-0.796875 0.8125q-0.46875 -0.5625 -1.171875 -0.859375q-0.703125 -0.296875 -1.515625 -0.296875q-1.0 0 -1.890625 0.484375q-0.875 0.484375 -1.40625 1.375q-0.515625 0.875 -0.515625 2.046875q0 1.15625 0.515625 2.046875q0.53125 0.875 1.40625 1.375q0.890625 0.484375 1.890625 0.484375q0.953125 0 1.59375 -0.296875q0.65625 -0.3125 1.125 -0.796875q0.34375 -0.375 0.546875 -0.90625q0.21875 -0.53125 0.28125 -1.171875l-3.53125 0l0 -1.046875l4.578125 0q0.0625 0.375 0.0625 0.6875q0 0.890625 -0.28125 1.71875q-0.28125 0.828125 -0.890625 1.453125q-1.3125 1.4375 -3.5 1.4375zm5.8659363 -7.015625l1.078125 0l0 1.09375l0.046875 0q0.203125 -0.5625 0.765625 -0.921875q0.578125 -0.375 1.203125 -0.375q0.46875 0 0.8125 0.140625l0 1.21875q-0.4375 -0.203125 -0.96875 -0.203125q-0.484375 0 -0.90625 0.28125q-0.40625 0.265625 -0.65625 0.75q-0.25 0.46875 -0.25 1.015625l0 3.796875l-1.125 0l0 -6.796875zm6.903244 7.015625q-0.75 0 -1.34375 -0.296875q-0.578125 -0.296875 -0.90625 -0.8125q-0.3125 -0.515625 -0.3125 -1.15625q0 -1.078125 0.8125 -1.6875q0.8125 -0.609375 2.046875 -0.609375q0.625 0 1.140625 0.140625q0.53125 0.125 0.8125 0.296875l0 -0.40625q0 -0.765625 -0.53125 -1.21875q-0.53125 -0.46875 -1.34375 -0.46875q-0.5625 0 -1.046875 0.25q-0.484375 0.25 -0.765625 0.6875l-0.859375 -0.640625q0.40625 -0.609375 1.109375 -0.953125q0.703125 -0.359375 1.5625 -0.359375q1.375 0 2.15625 0.734375q0.796875 0.71875 0.796875 1.96875l0 4.3125l-1.078125 0l0 -0.96875l-0.046875 0q-0.296875 0.484375 -0.890625 0.84375q-0.578125 0.34375 -1.3125 0.34375zm0.109375 -1.0q0.5625 0 1.046875 -0.296875q0.5 -0.296875 0.796875 -0.78125q0.296875 -0.5 0.296875 -1.09375q-0.328125 -0.203125 -0.796875 -0.328125q-0.453125 -0.140625 -0.984375 -0.140625q-0.921875 0 -1.40625 0.390625q-0.46875 0.375 -0.46875 0.984375q0 0.5625 0.421875 0.921875q0.4375 0.34375 1.09375 0.34375zm4.7334595 -6.015625l1.078125 0l0 1.015625l0.0625 0q0.296875 -0.515625 0.921875 -0.875q0.625 -0.359375 1.390625 -0.359375q0.921875 0 1.65625 0.46875q0.75 0.46875 1.171875 1.296875q0.421875 0.828125 0.421875 1.84375q0 1.046875 -0.421875 1.875q-0.421875 0.8125 -1.171875 1.28125q-0.734375 0.46875 -1.65625 0.46875q-0.765625 0 -1.390625 -0.359375q-0.625 -0.359375 -0.921875 -0.859375l-0.0625 0l0.0625 0.9375l0 2.9375l-1.140625 0l0 -9.671875zm3.34375 5.984375q0.578125 0 1.09375 -0.3125q0.53125 -0.328125 0.828125 -0.90625q0.3125 -0.59375 0.3125 -1.375q0 -0.765625 -0.3125 -1.34375q-0.296875 -0.59375 -0.828125 -0.90625q-0.515625 -0.328125 -1.09375 -0.328125q-0.609375 0 -1.125 0.328125q-0.5 0.3125 -0.828125 0.90625q-0.3125 0.578125 -0.3125 1.34375q0 0.78125 0.3125 1.375q0.328125 0.578125 0.828125 0.90625q0.515625 0.3125 1.125 0.3125zm4.555603 -8.734375l1.1250076 0l0 2.8125l-0.046875 0.9375l0.046875 0q0.28125 -0.515625 0.890625 -0.859375q0.609375 -0.359375 1.328125 -0.359375q1.234375 0 1.890625 0.734375q0.65625 0.71875 0.65625 1.921875l0 4.359375l-1.140625 0l0 -4.1875q0 -0.921875 -0.46875 -1.359375q-0.453125 -0.4375 -1.203125 -0.4375q-0.53125 0 -0.984375 0.328125q-0.4375 0.3125 -0.703125 0.828125q-0.265625 0.5 -0.265625 1.046875l0 3.78125l-1.1250076 0l0 -9.546875zm6.9389114 10.765625q0.90625 -1.078125 1.484375 -2.53125q0.59375 -1.453125 0.59375 -2.984375q0 -1.515625 -0.59375 -2.96875q-0.578125 -1.46875 -1.484375 -2.546875l0.828125 -0.5781212q0.96875 1.1093712 1.671875 2.7031212q0.703125 1.59375 0.703125 3.390625q0 1.796875 -0.703125 3.390625q-0.703125 1.59375 -1.671875 2.71875l-0.828125 -0.59375z" fill-rule="nonzero"/><path fill="#000000" fill-opacity="0.0" d="m8.813648 88.30466l101.6378 0l0 25.51181l-101.6378 0z" fill-rule="evenodd"/><path fill="#ff6f00" d="m41.27321 107.673065q-0.984375 -1.125 -1.6875 -2.71875q-0.6875 -1.59375 -0.6875 -3.390625q0 -1.796875 0.6875 -3.390625q0.703125 -1.59375 1.6875 -2.703125l0.8125 0.578125q-0.90625 1.078125 -1.5 2.546875q-0.578125 1.453125 -0.578125 2.96875q0 1.53125 0.578125 2.984375q0.59375 1.453125 1.5 2.53125l-0.8125 0.59375zm2.1487122 -11.359375l5.515625 0l0 1.078125l-4.375 0l0 3.171875l3.953125 0l0 1.0625l-3.953125 0l0 3.15625l4.375 0l0 1.078125l-5.515625 0l0 -9.546875zm9.096893 9.765625q-0.75 0 -1.34375 -0.296875q-0.578125 -0.296875 -0.90625 -0.8125q-0.3125 -0.515625 -0.3125 -1.15625q0 -1.078125 0.8125 -1.6875q0.8125 -0.609375 2.046875 -0.609375q0.625 0 1.140625 0.140625q0.53125 0.125 0.8125 0.296875l0 -0.40625q0 -0.765625 -0.53125 -1.21875q-0.53125 -0.46875 -1.34375 -0.46875q-0.5625 0 -1.046875 0.25q-0.484375 0.25 -0.765625 0.6875l-0.859375 -0.640625q0.40625 -0.609375 1.109375 -0.953125q0.703125 -0.359375 1.5625 -0.359375q1.375 0 2.15625 0.734375q0.796875 0.71875 0.796875 1.96875l0 4.3125l-1.078125 0l0 -0.96875l-0.046875 0q-0.296875 0.484375 -0.890625 0.84375q-0.578125 0.34375 -1.3125 0.34375zm0.109375 -1.0q0.5625 0 1.046875 -0.296875q0.5 -0.296875 0.796875 -0.78125q0.296875 -0.5 0.296875 -1.09375q-0.328125 -0.203125 -0.796875 -0.328125q-0.453125 -0.140625 -0.984375 -0.140625q-0.921875 0 -1.40625 0.390625q-0.46875 0.375 -0.46875 0.984375q0 0.5625 0.421875 0.921875q0.4375 0.34375 1.09375 0.34375zm7.713669 3.875q-1.203125 0 -1.984375 -0.5625q-0.78125 -0.5625 -1.046875 -1.34375l1.046875 -0.4375q0.203125 0.578125 0.734375 0.9375q0.53125 0.375 1.25 0.375q1.046875 0 1.625 -0.609375q0.578125 -0.609375 0.578125 -1.734375l0 -0.765625l-0.046875 0q-0.328125 0.53125 -0.9375 0.859375q-0.609375 0.328125 -1.375 0.328125q-0.890625 0 -1.625 -0.453125q-0.71875 -0.453125 -1.140625 -1.265625q-0.421875 -0.828125 -0.421875 -1.859375q0 -1.03125 0.421875 -1.84375q0.421875 -0.828125 1.140625 -1.28125q0.734375 -0.453125 1.625 -0.453125q0.765625 0 1.375 0.328125q0.609375 0.328125 0.9375 0.859375l0.046875 0l0 -0.96875l1.09375 0l0 6.53125q0 1.640625 -0.921875 2.5q-0.90625 0.859375 -2.375 0.859375zm0 -3.984375q0.609375 0 1.109375 -0.296875q0.5 -0.3125 0.796875 -0.890625q0.296875 -0.578125 0.296875 -1.359375q0 -0.796875 -0.296875 -1.375q-0.296875 -0.578125 -0.796875 -0.875q-0.5 -0.296875 -1.109375 -0.296875q-0.609375 0 -1.125 0.3125q-0.5 0.296875 -0.8125 0.875q-0.296875 0.578125 -0.296875 1.359375q0 0.78125 0.296875 1.359375q0.3125 0.578125 0.8125 0.890625q0.515625 0.296875 1.125 0.296875zm7.9214478 1.109375q-0.96875 0 -1.75 -0.46875q-0.765625 -0.46875 -1.203125 -1.28125q-0.421875 -0.828125 -0.421875 -1.859375q0 -0.96875 0.40625 -1.796875q0.40625 -0.84375 1.15625 -1.328125q0.75 -0.5 1.71875 -0.5q1.0 0 1.734375 0.453125q0.734375 0.4375 1.125 1.234375q0.40625 0.78125 0.40625 1.796875q0 0.15625 -0.03125 0.34375l-5.390625 0q0.046875 0.78125 0.375 1.3125q0.328125 0.53125 0.84375 0.796875q0.515625 0.265625 1.078125 0.265625q1.328125 0 2.015625 -1.234375l0.953125 0.46875q-0.421875 0.8125 -1.1875 1.3125q-0.75 0.484375 -1.828125 0.484375zm1.96875 -4.34375q-0.03125 -0.421875 -0.25 -0.84375q-0.203125 -0.421875 -0.65625 -0.71875q-0.453125 -0.296875 -1.15625 -0.296875q-0.796875 0 -1.359375 0.515625q-0.546875 0.515625 -0.734375 1.34375l4.15625 0zm2.519333 -2.671875l1.0781326 0l0 1.09375l0.046875 0q0.203125 -0.5625 0.765625 -0.921875q0.578125 -0.375 1.203125 -0.375q0.46875 0 0.8125 0.140625l0 1.21875q-0.4375 -0.203125 -0.96875 -0.203125q-0.484375 0 -0.90625 0.28125q-0.40625 0.265625 -0.65625 0.75q-0.25 0.46875 -0.25 1.015625l0 3.796875l-1.1250076 0l0 -6.796875zm4.4199142 8.015625q0.90625 -1.078125 1.484375 -2.53125q0.59375 -1.453125 0.59375 -2.984375q0 -1.515625 -0.59375 -2.96875q-0.578125 -1.46875 -1.484375 -2.546875l0.828125 -0.578125q0.96875 1.109375 1.671875 2.703125q0.703125 1.59375 0.703125 3.390625q0 1.796875 -0.703125 3.390625q-0.703125 1.59375 -1.671875 2.71875l-0.828125 -0.59375z" fill-rule="nonzero"/><g filter="url(#shadowFilter-p.1)"><use xlink:href="#p.1" transform="matrix(1.0 0.0 0.0 1.0 5.36231109539042 4.499513320722605)"/></g><defs><filter id="shadowFilter-p.1" filterUnits="userSpaceOnUse"><feGaussianBlur in="SourceAlpha" stdDeviation="2.0" result="blur"/><feComponentTransfer in="blur" color-interpolation-filters="sRGB"><feFuncR type="linear" slope="0" intercept="0.8"/><feFuncG type="linear" slope="0" intercept="0.8"/><feFuncB type="linear" slope="0" intercept="0.8"/><feFuncA type="linear" slope="0.36" intercept="0"/></feComponentTransfer></filter></defs><g id="p.1"><path fill="#d9d9d9" d="m6.608924 6.3989964l106.04724 0l0 41.322838l-106.04724 0z" fill-rule="evenodd"/><path stroke="#666666" stroke-width="1.0" stroke-linejoin="round" stroke-linecap="butt" d="m6.608924 6.3989964l106.04724 0l0 41.322838l-106.04724 0z" fill-rule="evenodd"/><path fill="#434343" d="m44.193504 23.514162l-3.1875 0l0 -2.046875l8.546875 0l0 2.046875l-3.1875 0l0 9.406252l-2.171875 0l0 -9.406252zm7.09552 -2.046875l7.265625 0l0 2.046875l-5.109375 0l0 2.78125l4.59375 0l0 2.046875l-4.59375 0l0 4.578127l-2.15625 0l0 -11.453127zm9.168015 0l4.171875 0q1.125 0 2.0 0.46875q0.875 0.453125 1.34375 1.28125q0.484375 0.828125 0.484375 1.859375q0 1.109375 -0.703125 1.96875q-0.6875 0.84375 -1.75 1.234375l-0.015625 0.109375l3.078125 4.406252l0 0.125l-2.484375 0l-2.953125 -4.296877l-1.015625 0l0 4.296877l-2.15625 0l0 -11.453127zm4.15625 5.171875q0.734375 0 1.203125 -0.453125q0.46875 -0.453125 0.46875 -1.140625q0 -0.65625 -0.453125 -1.109375q-0.4375 -0.46875 -1.1875 -0.46875l-2.03125 0l0 3.171875l2.0 0zm8.300278 -3.125l-3.1875 0l0 -2.046875l8.546875 0l0 2.046875l-3.1875 0l0 9.406252l-2.171875 0l0 -9.406252z" fill-rule="nonzero"/></g><g filter="url(#shadowFilter-p.2)"><use xlink:href="#p.2" transform="matrix(1.0 0.0 0.0 1.0 5.36231109539042 4.499513320722605)"/></g><defs><filter id="shadowFilter-p.2" filterUnits="userSpaceOnUse"><feGaussianBlur in="SourceAlpha" stdDeviation="2.0" result="blur"/><feComponentTransfer in="blur" color-interpolation-filters="sRGB"><feFuncR type="linear" slope="0" intercept="0.8"/><feFuncG type="linear" slope="0" intercept="0.8"/><feFuncB type="linear" slope="0" intercept="0.8"/><feFuncA type="linear" slope="0.36" intercept="0"/></feComponentTransfer></filter></defs><g id="p.2"><path fill="#d9d9d9" d="m5.553806 183.67455l636.6299 0l0 67.08661l-636.6299 0z" fill-rule="evenodd"/><path stroke="#666666" stroke-width="1.0" stroke-linejoin="round" stroke-linecap="butt" d="m5.553806 183.67455l636.6299 0l0 67.08661l-636.6299 0z" fill-rule="evenodd"/></g><g filter="url(#shadowFilter-p.3)"><use xlink:href="#p.3" transform="matrix(1.0 0.0 0.0 1.0 5.36231109539042 4.499513320722605)"/></g><defs><filter id="shadowFilter-p.3" filterUnits="userSpaceOnUse"><feGaussianBlur in="SourceAlpha" stdDeviation="2.0" result="blur"/><feComponentTransfer in="blur" color-interpolation-filters="sRGB"><feFuncR type="linear" slope="0" intercept="0.8"/><feFuncG type="linear" slope="0" intercept="0.8"/><feFuncB type="linear" slope="0" intercept="0.8"/><feFuncA type="linear" slope="0.36" intercept="0"/></feComponentTransfer></filter></defs><g id="p.3"><path fill="#ffffff" d="m225.55737 11.966891l197.03937 0l0 45.85827l-197.03937 0z" fill-rule="evenodd"/><path stroke="#666666" stroke-width="1.0" stroke-linejoin="round" stroke-linecap="butt" d="m225.55737 11.966891l197.03937 0l0 45.85827l-197.03937 0z" fill-rule="evenodd"/><path fill="#ff6f00" d="m299.702 31.349775l-3.1875 0l0 -2.046875l8.546875 0l0 2.046875l-3.1875 0l0 9.406248l-2.171875 0l0 -9.406248zm7.09552 -2.046875l7.265625 0l0 2.046875l-5.109375 0l0 2.781248l4.59375 0l0 2.046875l-4.59375 0l0 4.578125l-2.15625 0l0 -11.453123zm7.85553 11.453123l0 0zm7.7952576 -11.453123l2.484375 0l4.296875 11.453123l-2.390625 0l-0.953125 -2.734375l-4.390625 0l-0.953125 2.734375l-2.390625 0l4.296875 -11.453123zm2.734375 6.734373l-1.015625 -2.875l-0.40625 -1.3749981l-0.125 0l-0.421875 1.3749981l-1.03125 2.875l3.0 0zm5.598877 -6.734373l4.03125 0q1.09375 0 1.984375 0.453125q0.890625 0.453125 1.40625 1.28125q0.515625 0.828125 0.515625 1.8749981q0 1.0625 -0.515625 1.890625q-0.515625 0.828125 -1.40625 1.296875q-0.890625 0.453125 -1.984375 0.453125l-1.875 0l0 4.203125l-2.15625 0l0 -11.453123zm4.09375 5.203123q0.796875 0 1.25 -0.46875q0.46875 -0.46875 0.46875 -1.125q0 -0.65625 -0.46875 -1.1093731q-0.453125 -0.453125 -1.25 -0.453125l-1.9375 0l0 3.156248l1.9375 0zm5.6662903 -5.203123l2.15625 0l0 11.453123l-2.15625 0l0 -11.453123zm7.5805054 11.703123q-1.484375 0 -2.40625 -0.59375q-0.921875 -0.609375 -1.28125 -1.59375l1.859375 -0.8125q0.265625 0.578125 0.734375 0.875q0.46875 0.296875 1.09375 0.296875q0.578125 0 0.953125 -0.1875q0.390625 -0.1875 0.390625 -0.609375q0 -0.390625 -0.359375 -0.59375q-0.34375 -0.203125 -1.046875 -0.359375l-0.953125 -0.203125q-1.0 -0.25 -1.65625 -0.875q-0.65625 -0.640625 -0.65625 -1.578125q0 -0.703125 0.421875 -1.265625q0.421875 -0.5625 1.15625 -0.859375q0.734375 -0.3125 1.609375 -0.3125q2.53125 0 3.375 1.78125l-1.796875 0.78125q-0.46875 -0.859375 -1.53125 -0.859375q-0.546875 0 -0.875 0.203125q-0.3125 0.203125 -0.3125 0.5q0 0.578125 1.09375 0.859375l1.203125 0.296875q1.21875 0.296875 1.828125 0.921875q0.609375 0.625 0.609375 1.53125q0 0.796875 -0.453125 1.390625q-0.453125 0.59375 -1.25 0.9375q-0.78125 0.328125 -1.75 0.328125z" fill-rule="nonzero"/></g><g filter="url(#shadowFilter-p.4)"><use xlink:href="#p.4" transform="matrix(1.0 0.0 0.0 1.0 5.36231109539042 4.499513320722605)"/></g><defs><filter id="shadowFilter-p.4" filterUnits="userSpaceOnUse"><feGaussianBlur in="SourceAlpha" stdDeviation="2.0" result="blur"/><feComponentTransfer in="blur" color-interpolation-filters="sRGB"><feFuncR type="linear" slope="0" intercept="0.8"/><feFuncG type="linear" slope="0" intercept="0.8"/><feFuncB type="linear" slope="0" intercept="0.8"/><feFuncA type="linear" slope="0.36" intercept="0"/></feComponentTransfer></filter></defs><g id="p.4"><path fill="#ffffff" d="m297.2512 97.821655l343.3386 0l0 45.85826l-343.3386 0z" fill-rule="evenodd"/><path stroke="#666666" stroke-width="1.0" stroke-linejoin="round" stroke-linecap="butt" d="m297.2512 97.821655l343.3386 0l0 45.85826l-343.3386 0z" fill-rule="evenodd"/><path fill="#ff6f00" d="m311.64865 115.15766l2.15625 0l0 9.40625l4.84375 0l0 2.046875l-7.0 0l0 -11.453125zm12.281403 11.703125q-1.265625 0 -2.25 -0.5625q-0.984375 -0.5625 -1.546875 -1.546875q-0.546875 -0.984375 -0.546875 -2.21875q0 -1.21875 0.546875 -2.203125q0.5625 -1.0 1.546875 -1.5625q0.984375 -0.578125 2.25 -0.578125q1.25 0 2.234375 0.578125q1.0 0.5625 1.546875 1.5625q0.5625 0.984375 0.5625 2.203125q0 1.234375 -0.5625 2.21875q-0.546875 0.984375 -1.546875 1.546875q-0.984375 0.5625 -2.234375 0.5625zm0 -1.9375q0.609375 0 1.125 -0.28125q0.515625 -0.28125 0.8125 -0.828125q0.3125 -0.546875 0.3125 -1.28125q0 -0.71875 -0.3125 -1.265625q-0.296875 -0.546875 -0.8125 -0.828125q-0.515625 -0.296875 -1.125 -0.296875q-0.609375 0 -1.125 0.296875q-0.5 0.28125 -0.8125 0.828125q-0.3125 0.546875 -0.3125 1.265625q0 0.71875 0.3125 1.28125q0.3125 0.546875 0.8125 0.828125q0.515625 0.28125 1.125 0.28125zm4.867523 -6.46875l2.359375 0l1.40625 5.296875l0.109375 0l1.625 -5.296875l2.15625 0l1.625 5.296875l0.109375 0l1.40625 -5.296875l2.328125 0l-2.609375 8.15625l-2.25 0l-1.671875 -5.28125l-0.109375 0l-1.65625 5.28125l-2.234375 0l-2.59375 -8.15625zm17.902405 8.40625q-1.21875 0 -2.1875 -0.546875q-0.96875 -0.5625 -1.53125 -1.546875q-0.546875 -0.984375 -0.546875 -2.21875q0 -1.171875 0.53125 -2.171875q0.546875 -1.0 1.5 -1.59375q0.96875 -0.59375 2.15625 -0.59375q1.265625 0 2.171875 0.546875q0.921875 0.546875 1.390625 1.5q0.46875 0.9375 0.46875 2.09375q0 0.359375 -0.046875 0.703125l-6.125 0q0.15625 0.96875 0.765625 1.484375q0.625 0.5 1.484375 0.5q0.71875 0 1.234375 -0.3125q0.53125 -0.3125 0.828125 -0.84375l1.703125 0.828125q-1.25 2.171875 -3.796875 2.171875zm1.9375 -5.328125q-0.03125 -0.375 -0.28125 -0.75q-0.25 -0.375 -0.6875 -0.625q-0.4375 -0.25 -1.03125 -0.25q-0.75 0 -1.296875 0.4375q-0.53125 0.4375 -0.765625 1.1875l4.0625 0zm3.6420288 -3.078125l1.953125 0l0 1.078125l0.140625 0q0.296875 -0.5625 0.9375 -0.9375q0.640625 -0.390625 1.40625 -0.390625q0.5625 0 1.03125 0.1875l0 2.09375q-0.4375 -0.15625 -0.734375 -0.234375q-0.296875 -0.078125 -0.625 -0.078125q-0.9375 0 -1.484375 0.671875q-0.53125 0.671875 -0.53125 1.703125l0 4.0625l-2.09375 0l0 -8.15625zm8.003876 -0.90625q-0.5625 0 -0.96875 -0.390625q-0.390625 -0.40625 -0.390625 -0.96875q0 -0.546875 0.390625 -0.9375q0.40625 -0.40625 0.96875 -0.40625q0.5625 0 0.953125 0.40625q0.390625 0.390625 0.390625 0.9375q0 0.5625 -0.390625 0.96875q-0.390625 0.390625 -0.953125 0.390625zm-1.046875 0.90625l2.09375 0l0 8.15625l-2.09375 0l0 -8.15625zm4.2750244 0l1.953125 0l0 1.015625l0.140625 0q0.359375 -0.59375 1.03125 -0.9375q0.671875 -0.34375 1.453125 -0.34375q1.484375 0 2.25 0.90625q0.765625 0.890625 0.765625 2.4375l0 5.078125l-2.09375 0l0 -4.8125q0 -0.78125 -0.40625 -1.21875q-0.390625 -0.4375 -1.109375 -0.4375q-0.859375 0 -1.375 0.65625q-0.515625 0.65625 -0.515625 1.65625l0 4.15625l-2.09375 0l0 -8.15625zm13.253998 11.874992q-1.546875 0 -2.578125 -0.70310974q-1.015625 -0.703125 -1.375 -1.6718826l1.96875 -0.796875q0.265625 0.609375 0.78125 0.9531326q0.53125 0.359375 1.203125 0.359375q1.0 0 1.578125 -0.6093826q0.578125 -0.609375 0.578125 -1.734375l0 -0.640625l-0.125 0q-0.375 0.546875 -1.0 0.84375q-0.625 0.28125 -1.421875 0.28125q-1.015625 0 -1.890625 -0.515625q-0.875 -0.53125 -1.40625 -1.46875q-0.515625 -0.953125 -0.515625 -2.21875q0 -1.265625 0.515625 -2.21875q0.53125 -0.953125 1.40625 -1.46875q0.875 -0.53125 1.890625 -0.53125q0.796875 0 1.421875 0.296875q0.625 0.28125 1.0 0.828125l0.125 0l0 -0.859375l2.015625 0l0 7.59375q0 1.3125 -0.515625 2.2656326q-0.5 0.96875 -1.453125 1.484375q-0.9375 0.53123474 -2.203125 0.53123474zm0.03125 -5.6249924q0.890625 0 1.5 -0.609375q0.625 -0.625 0.625 -1.6875q0 -1.109375 -0.609375 -1.703125q-0.609375 -0.609375 -1.515625 -0.609375q-0.890625 0 -1.515625 0.609375q-0.625 0.609375 -0.625 1.703125q0 1.078125 0.625 1.6875q0.625 0.609375 1.515625 0.609375zm5.1715393 1.90625l0 0zm7.259613 0.25q-1.296875 0 -2.125 -0.75q-0.828125 -0.765625 -0.828125 -2.0q0 -0.8125 0.421875 -1.4375q0.4375 -0.625 1.1875 -0.953125q0.75 -0.34375 1.671875 -0.34375q1.265625 0 2.15625 0.375l0 -0.359375q0 -0.671875 -0.515625 -1.078125q-0.5 -0.421875 -1.34375 -0.421875q-0.578125 0 -1.109375 0.265625q-0.53125 0.265625 -0.890625 0.6875l-1.34375 -1.046875q0.59375 -0.765625 1.484375 -1.1875q0.90625 -0.421875 1.953125 -0.421875q1.875 0 2.84375 0.875q0.984375 0.859375 0.984375 2.515625l0 5.03125l-2.0625 0l0 -0.828125l-0.125 0q-0.375 0.46875 -0.984375 0.78125q-0.59375 0.296875 -1.375 0.296875zm0.5 -1.625q0.90625 0 1.4375 -0.578125q0.546875 -0.59375 0.546875 -1.375q-0.8125 -0.390625 -1.71875 -0.390625q-1.625 0 -1.625 1.21875q0 0.5 0.34375 0.8125q0.359375 0.3125 1.015625 0.3125zm5.991638 -6.78125l1.953125 0l0 1.015625l0.140625 0q0.359375 -0.59375 1.03125 -0.9375q0.671875 -0.34375 1.453125 -0.34375q1.484375 0 2.25 0.90625q0.765625 0.890625 0.765625 2.4375l0 5.078125l-2.09375 0l0 -4.8125q0 -0.78125 -0.40625 -1.21875q-0.390625 -0.4375 -1.109375 -0.4375q-0.859375 0 -1.375 0.65625q-0.515625 0.65625 -0.515625 1.65625l0 4.15625l-2.09375 0l0 -8.15625zm13.084015 8.40625q-1.109375 0 -2.015625 -0.546875q-0.90625 -0.546875 -1.421875 -1.53125q-0.515625 -0.984375 -0.515625 -2.25q0 -1.25 0.515625 -2.234375q0.515625 -1.0 1.421875 -1.546875q0.90625 -0.5625 2.015625 -0.5625q0.828125 0 1.46875 0.359375q0.640625 0.359375 0.96875 0.890625l0.140625 0l-0.140625 -1.140625l0 -3.140625l2.09375 0l0 11.453125l-1.953125 0l0 -0.96875l-0.140625 0q-0.3125 0.515625 -0.96875 0.875q-0.640625 0.34375 -1.46875 0.34375zm0.34375 -1.9375q0.59375 0 1.109375 -0.296875q0.515625 -0.296875 0.8125 -0.84375q0.3125 -0.546875 0.3125 -1.25q0 -0.703125 -0.3125 -1.25q-0.296875 -0.546875 -0.8125 -0.84375q-0.515625 -0.296875 -1.109375 -0.296875q-0.578125 0 -1.09375 0.296875q-0.5 0.296875 -0.8125 0.84375q-0.296875 0.546875 -0.296875 1.25q0 0.703125 0.296875 1.25q0.3125 0.546875 0.8125 0.84375q0.515625 0.296875 1.09375 0.296875zm5.221039 1.6875l0 0zm10.142731 0.25q-1.671875 0 -3.046875 -0.78125q-1.375 -0.796875 -2.15625 -2.171875q-0.78125 -1.375 -0.78125 -3.03125q0 -1.640625 0.78125 -3.015625q0.78125 -1.375 2.15625 -2.171875q1.375 -0.796875 3.046875 -0.796875q1.6875 0 3.046875 0.796875q1.375 0.796875 2.15625 2.171875q0.78125 1.375 0.78125 3.015625q0 1.65625 -0.78125 3.03125q-0.78125 1.375 -2.15625 2.171875q-1.359375 0.78125 -3.046875 0.78125zm0 -2.046875q1.0625 0 1.9375 -0.484375q0.875 -0.5 1.375 -1.390625q0.515625 -0.90625 0.515625 -2.0625q0 -1.140625 -0.515625 -2.03125q-0.5 -0.90625 -1.375 -1.390625q-0.875 -0.5 -1.9375 -0.5q-1.0625 0 -1.9375 0.5q-0.859375 0.484375 -1.375 1.390625q-0.5 0.890625 -0.5 2.03125q0 1.15625 0.5 2.0625q0.515625 0.890625 1.375 1.390625q0.875 0.484375 1.9375 0.484375zm7.674408 -6.359375l1.96875 0l0 0.984375l0.140625 0q0.328125 -0.53125 0.96875 -0.890625q0.640625 -0.359375 1.46875 -0.359375q1.109375 0 2.015625 0.5625q0.90625 0.546875 1.40625 1.546875q0.515625 0.984375 0.515625 2.234375q0 1.265625 -0.515625 2.25q-0.5 0.984375 -1.40625 1.53125q-0.90625 0.546875 -2.015625 0.546875q-0.828125 0 -1.484375 -0.34375q-0.640625 -0.359375 -0.953125 -0.875l-0.140625 0l0.140625 1.140625l0 3.2812424l-2.109375 0l0 -11.609367zm4.1875 6.46875q0.59375 0 1.09375 -0.296875q0.515625 -0.296875 0.8125 -0.84375q0.3125 -0.546875 0.3125 -1.25q0 -0.703125 -0.3125 -1.25q-0.296875 -0.546875 -0.8125 -0.84375q-0.5 -0.296875 -1.09375 -0.296875q-0.578125 0 -1.09375 0.296875q-0.515625 0.296875 -0.828125 0.84375q-0.296875 0.546875 -0.296875 1.25q0 0.703125 0.296875 1.25q0.3125 0.546875 0.828125 0.84375q0.515625 0.296875 1.09375 0.296875zm9.149506 1.8125q-0.609375 0 -1.125 -0.171875q-0.515625 -0.1875 -0.828125 -0.515625q-0.75 -0.71875 -0.75 -2.046875l0 -3.765625l-1.421875 0l0 -1.78125l1.421875 0l0 -2.3125l2.09375 0l0 2.3125l2.0 0l0 1.78125l-2.0 0l0 3.390625q0 0.609375 0.265625 0.890625q0.234375 0.25 0.78125 0.25q0.296875 0 0.5 -0.078125q0.203125 -0.078125 0.515625 -0.265625l0 2.046875q-0.6875 0.265625 -1.453125 0.265625zm4.393036 -9.1875q-0.5625 0 -0.96875 -0.390625q-0.390625 -0.40625 -0.390625 -0.96875q0 -0.546875 0.390625 -0.9375q0.40625 -0.40625 0.96875 -0.40625q0.5625 0 0.953125 0.40625q0.390625 0.390625 0.390625 0.9375q0 0.5625 -0.390625 0.96875q-0.390625 0.390625 -0.953125 0.390625zm-1.046875 0.90625l2.09375 0l0 8.15625l-2.09375 0l0 -8.15625zm4.274994 0l1.953125 0l0 1.015625l0.140625 0q0.375 -0.59375 1.015625 -0.9375q0.65625 -0.34375 1.453125 -0.34375q0.875 0 1.515625 0.421875q0.640625 0.40625 0.90625 1.03125q0.40625 -0.640625 1.09375 -1.046875q0.703125 -0.40625 1.640625 -0.40625q1.390625 0 2.109375 0.859375q0.734375 0.859375 0.734375 2.3125l0 5.25l-2.078125 0l0 -4.859375q0 -0.765625 -0.359375 -1.1875q-0.359375 -0.421875 -1.0 -0.421875q-0.8125 0 -1.296875 0.65625q-0.484375 0.640625 -0.484375 1.703125l0 4.109375l-2.109375 0l0 -4.859375q0 -0.765625 -0.375 -1.1875q-0.375 -0.421875 -1.0625 -0.421875q-0.765625 0 -1.234375 0.65625q-0.46875 0.640625 -0.46875 1.703125l0 4.109375l-2.09375 0l0 -8.15625zm15.747925 -0.90625q-0.5625 0 -0.96875 -0.390625q-0.390625 -0.40625 -0.390625 -0.96875q0 -0.546875 0.390625 -0.9375q0.40625 -0.40625 0.96875 -0.40625q0.5625 0 0.953125 0.40625q0.390625 0.390625 0.390625 0.9375q0 0.5625 -0.390625 0.96875q-0.390625 0.390625 -0.953125 0.390625zm-1.046875 0.90625l2.09375 0l0 8.15625l-2.09375 0l0 -8.15625zm3.853119 6.4375l4.25 -4.671875l-4.125 0l0 -1.765625l6.703125 0l0 1.703125l-4.25 4.671875l4.375 0l0 1.78125l-6.953125 0l0 -1.71875zm10.922272 1.96875q-1.296875 0 -2.125 -0.75q-0.828125 -0.765625 -0.828125 -2.0q0 -0.8125 0.421875 -1.4375q0.4375 -0.625 1.1875 -0.953125q0.75 -0.34375 1.671875 -0.34375q1.265625 0 2.15625 0.375l0 -0.359375q0 -0.671875 -0.515625 -1.078125q-0.5 -0.421875 -1.34375 -0.421875q-0.578125 0 -1.109375 0.265625q-0.53125 0.265625 -0.890625 0.6875l-1.34375 -1.046875q0.59375 -0.765625 1.484375 -1.1875q0.90625 -0.421875 1.953125 -0.421875q1.875 0 2.84375 0.875q0.984375 0.859375 0.984375 2.515625l0 5.03125l-2.0625 0l0 -0.828125l-0.125 0q-0.375 0.46875 -0.984375 0.78125q-0.59375 0.296875 -1.375 0.296875zm0.5 -1.625q0.90625 0 1.4375 -0.578125q0.546875 -0.59375 0.546875 -1.375q-0.8125 -0.390625 -1.71875 -0.390625q-1.625 0 -1.625 1.21875q0 0.5 0.34375 0.8125q0.359375 0.3125 1.015625 0.3125zm9.3785095 1.5q-0.609375 0 -1.125 -0.171875q-0.515625 -0.1875 -0.828125 -0.515625q-0.75 -0.71875 -0.75 -2.046875l0 -3.765625l-1.421875 0l0 -1.78125l1.421875 0l0 -2.3125l2.09375 0l0 2.3125l2.0 0l0 1.78125l-2.0 0l0 3.390625q0 0.609375 0.265625 0.890625q0.234375 0.25 0.78125 0.25q0.296875 0 0.5 -0.078125q0.203125 -0.078125 0.515625 -0.265625l0 2.046875q-0.6875 0.265625 -1.453125 0.265625zm4.3930054 -9.1875q-0.5625 0 -0.96875 -0.390625q-0.390625 -0.40625 -0.390625 -0.96875q0 -0.546875 0.390625 -0.9375q0.40625 -0.40625 0.96875 -0.40625q0.5625 0 0.953125 0.40625q0.390625 0.390625 0.390625 0.9375q0 0.5625 -0.390625 0.96875q-0.390625 0.390625 -0.953125 0.390625zm-1.046875 0.90625l2.09375 0l0 8.15625l-2.09375 0l0 -8.15625zm8.085632 8.40625q-1.265625 0 -2.25 -0.5625q-0.984375 -0.5625 -1.546875 -1.546875q-0.546875 -0.984375 -0.546875 -2.21875q0 -1.21875 0.546875 -2.203125q0.5625 -1.0 1.546875 -1.5625q0.984375 -0.578125 2.25 -0.578125q1.25 0 2.234375 0.578125q1.0 0.5625 1.546875 1.5625q0.5625 0.984375 0.5625 2.203125q0 1.234375 -0.5625 2.21875q-0.546875 0.984375 -1.546875 1.546875q-0.984375 0.5625 -2.234375 0.5625zm0 -1.9375q0.609375 0 1.125 -0.28125q0.515625 -0.28125 0.8125 -0.828125q0.3125 -0.546875 0.3125 -1.28125q0 -0.71875 -0.3125 -1.265625q-0.296875 -0.546875 -0.8125 -0.828125q-0.515625 -0.296875 -1.125 -0.296875q-0.609375 0 -1.125 0.296875q-0.5 0.28125 -0.8125 0.828125q-0.3125 0.546875 -0.3125 1.265625q0 0.71875 0.3125 1.28125q0.3125 0.546875 0.8125 0.828125q0.515625 0.28125 1.125 0.28125zm5.789398 -6.46875l1.953125 0l0 1.015625l0.140625 0q0.359375 -0.59375 1.03125 -0.9375q0.671875 -0.34375 1.453125 -0.34375q1.484375 0 2.25 0.90625q0.765625 0.890625 0.765625 2.4375l0 5.078125l-2.09375 0l0 -4.8125q0 -0.78125 -0.40625 -1.21875q-0.390625 -0.4375 -1.109375 -0.4375q-0.859375 0 -1.375 0.65625q-0.515625 0.65625 -0.515625 1.65625l0 4.15625l-2.09375 0l0 -8.15625zm8.552795 8.15625l0 0zm5.0564575 -11.453125l4.03125 0q1.09375 0 1.984375 0.453125q0.890625 0.453125 1.40625 1.28125q0.515625 0.828125 0.515625 1.875q0 1.0625 -0.515625 1.890625q-0.515625 0.828125 -1.40625 1.296875q-0.890625 0.453125 -1.984375 0.453125l-1.875 0l0 4.203125l-2.15625 0l0 -11.453125zm4.09375 5.203125q0.796875 0 1.25 -0.46875q0.46875 -0.46875 0.46875 -1.125q0 -0.65625 -0.46875 -1.109375q-0.453125 -0.453125 -1.25 -0.453125l-1.9375 0l0 3.15625l1.9375 0zm7.5494385 6.5q-1.296875 0 -2.125 -0.75q-0.828125 -0.765625 -0.828125 -2.0q0 -0.8125 0.421875 -1.4375q0.4375 -0.625 1.1875 -0.953125q0.75 -0.34375 1.671875 -0.34375q1.265625 0 2.15625 0.375l0 -0.359375q0 -0.671875 -0.515625 -1.078125q-0.5 -0.421875 -1.34375 -0.421875q-0.578125 0 -1.109375 0.265625q-0.53125 0.265625 -0.890625 0.6875l-1.34375 -1.046875q0.59375 -0.765625 1.484375 -1.1875q0.90625 -0.421875 1.953125 -0.421875q1.875 0 2.84375 0.875q0.984375 0.859375 0.984375 2.515625l0 5.03125l-2.0625 0l0 -0.828125l-0.125 0q-0.375 0.46875 -0.984375 0.78125q-0.59375 0.296875 -1.375 0.296875zm0.5 -1.625q0.90625 0 1.4375 -0.578125q0.546875 -0.59375 0.546875 -1.375q-0.8125 -0.390625 -1.71875 -0.390625q-1.625 0 -1.625 1.21875q0 0.5 0.34375 0.8125q0.359375 0.3125 1.015625 0.3125zm9.005371 1.625q-1.484375 0 -2.40625 -0.59375q-0.921875 -0.609375 -1.28125 -1.59375l1.859375 -0.8125q0.265625 0.578125 0.734375 0.875q0.46875 0.296875 1.09375 0.296875q0.578125 0 0.953125 -0.1875q0.390625 -0.1875 0.390625 -0.609375q0 -0.390625 -0.359375 -0.59375q-0.34375 -0.203125 -1.046875 -0.359375l-0.953125 -0.203125q-1.0 -0.25 -1.65625 -0.875q-0.65625 -0.640625 -0.65625 -1.578125q0 -0.703125 0.421875 -1.265625q0.421875 -0.5625 1.15625 -0.859375q0.734375 -0.3125 1.609375 -0.3125q2.53125 0 3.375 1.78125l-1.796875 0.78125q-0.46875 -0.859375 -1.53125 -0.859375q-0.546875 0 -0.875 0.203125q-0.3125 0.203125 -0.3125 0.5q0 0.578125 1.09375 0.859375l1.203125 0.296875q1.21875 0.296875 1.828125 0.921875q0.609375 0.625 0.609375 1.53125q0 0.796875 -0.453125 1.390625q-0.453125 0.59375 -1.25 0.9375q-0.78125 0.328125 -1.75 0.328125zm8.080017 0q-1.484375 0 -2.40625 -0.59375q-0.921875 -0.609375 -1.28125 -1.59375l1.859375 -0.8125q0.265625 0.578125 0.734375 0.875q0.46875 0.296875 1.09375 0.296875q0.578125 0 0.953125 -0.1875q0.390625 -0.1875 0.390625 -0.609375q0 -0.390625 -0.359375 -0.59375q-0.34375 -0.203125 -1.046875 -0.359375l-0.953125 -0.203125q-1.0 -0.25 -1.65625 -0.875q-0.65625 -0.640625 -0.65625 -1.578125q0 -0.703125 0.421875 -1.265625q0.421875 -0.5625 1.15625 -0.859375q0.734375 -0.3125 1.609375 -0.3125q2.53125 0 3.375 1.78125l-1.796875 0.78125q-0.46875 -0.859375 -1.53125 -0.859375q-0.546875 0 -0.875 0.203125q-0.3125 0.203125 -0.3125 0.5q0 0.578125 1.09375 0.859375l1.203125 0.296875q1.21875 0.296875 1.828125 0.921875q0.609375 0.625 0.609375 1.53125q0 0.796875 -0.453125 1.390625q-0.453125 0.59375 -1.25 0.9375q-0.78125 0.328125 -1.75 0.328125zm8.878723 0q-1.21875 0 -2.1875 -0.546875q-0.96875 -0.5625 -1.53125 -1.546875q-0.546875 -0.984375 -0.546875 -2.21875q0 -1.171875 0.53125 -2.171875q0.546875 -1.0 1.5 -1.59375q0.96875 -0.59375 2.15625 -0.59375q1.265625 0 2.171875 0.546875q0.921875 0.546875 1.390625 1.5q0.46875 0.9375 0.46875 2.09375q0 0.359375 -0.046875 0.703125l-6.125 0q0.15625 0.96875 0.765625 1.484375q0.625 0.5 1.484375 0.5q0.71875 0 1.234375 -0.3125q0.53125 -0.3125 0.828125 -0.84375l1.703125 0.828125q-1.25 2.171875 -3.796875 2.171875zm1.9375 -5.328125q-0.03125 -0.375 -0.28125 -0.75q-0.25 -0.375 -0.6875 -0.625q-0.4375 -0.25 -1.03125 -0.25q-0.75 0 -1.296875 0.4375q-0.53125 0.4375 -0.765625 1.1875l4.0625 0zm6.815796 5.328125q-1.484375 0 -2.40625 -0.59375q-0.921875 -0.609375 -1.28125 -1.59375l1.859375 -0.8125q0.265625 0.578125 0.734375 0.875q0.46875 0.296875 1.09375 0.296875q0.578125 0 0.953125 -0.1875q0.390625 -0.1875 0.390625 -0.609375q0 -0.390625 -0.359375 -0.59375q-0.34375 -0.203125 -1.046875 -0.359375l-0.953125 -0.203125q-1.0 -0.25 -1.65625 -0.875q-0.65625 -0.640625 -0.65625 -1.578125q0 -0.703125 0.421875 -1.265625q0.421875 -0.5625 1.15625 -0.859375q0.734375 -0.3125 1.609375 -0.3125q2.53125 0 3.375 1.78125l-1.796875 0.78125q-0.46875 -0.859375 -1.53125 -0.859375q-0.546875 0 -0.875 0.203125q-0.3125 0.203125 -0.3125 0.5q0 0.578125 1.09375 0.859375l1.203125 0.296875q1.21875 0.296875 1.828125 0.921875q0.609375 0.625 0.609375 1.53125q0 0.796875 -0.453125 1.390625q-0.453125 0.59375 -1.25 0.9375q-0.78125 0.328125 -1.75 0.328125zm3.955017 -0.25l0 0zm7.5877075 2.1718826q-1.140625 -1.2656326 -1.984375 -3.2031326q-0.828125 -1.9375 -0.828125 -4.125q0 -2.171875 0.828125 -4.109375q0.84375 -1.953125 1.984375 -3.21875l1.578125 1.09375q-2.296875 2.859375 -2.296875 6.234375q0 3.375 2.296875 6.25l-1.578125 1.0781326zm3.2127686 -13.625008l2.78125 0l3.046875 8.046875l0.125 0l3.03125 -8.046875l2.8125 0l0 11.453125l-2.15625 0l0 -5.640625l0.140625 -1.90625l-0.140625 0l-2.90625 7.546875l-1.671875 0l-2.9375 -7.546875l-0.125 0l0.125 1.90625l0 5.640625l-2.125 0l0 -11.453125zm14.400024 0l2.15625 0l0 9.40625l4.84375 0l0 2.046875l-7.0 0l0 -11.453125zm8.81604 0l2.15625 0l0 11.453125l-2.15625 0l0 -11.453125zm4.7680054 0l4.171875 0q1.125 0 2.0 0.46875q0.875 0.453125 1.34375 1.28125q0.484375 0.828125 0.484375 1.859375q0 1.109375 -0.703125 1.96875q-0.6875 0.84375 -1.75 1.234375l-0.015625 0.109375l3.078125 4.40625l0 0.125l-2.484375 0l-2.953125 -4.296875l-1.015625 0l0 4.296875l-2.15625 0l0 -11.453125zm4.15625 5.171875q0.734375 0 1.203125 -0.453125q0.46875 -0.453125 0.46875 -1.140625q0 -0.65625 -0.453125 -1.109375q-0.4375 -0.46875 -1.1875 -0.46875l-2.03125 0l0 3.171875l2.0 0zm4.987793 7.375q2.3125 -2.875 2.3125 -6.25q0 -3.375 -2.3125 -6.234375l1.59375 -1.09375q1.140625 1.265625 1.96875 3.21875q0.84375 1.9375 0.84375 4.109375q0 2.1875 -0.84375 4.125q-0.828125 1.9375 -1.96875 3.2031326l-1.59375 -1.0781326z" fill-rule="nonzero"/></g><g filter="url(#shadowFilter-p.5)"><use xlink:href="#p.5" transform="matrix(1.0 0.0 0.0 1.0 5.36231109539042 4.499513320722605)"/></g><defs><filter id="shadowFilter-p.5" filterUnits="userSpaceOnUse"><feGaussianBlur in="SourceAlpha" stdDeviation="2.0" result="blur"/><feComponentTransfer in="blur" color-interpolation-filters="sRGB"><feFuncR type="linear" slope="0" intercept="0.8"/><feFuncG type="linear" slope="0" intercept="0.8"/><feFuncB type="linear" slope="0" intercept="0.8"/><feFuncA type="linear" slope="0.36" intercept="0"/></feComponentTransfer></filter></defs><g id="p.5"><path fill="#ffffff" d="m13.469812 195.1462l145.13385 0l0 45.85826l-145.13385 0z" fill-rule="evenodd"/><path stroke="#666666" stroke-width="1.0" stroke-linejoin="round" stroke-linecap="butt" d="m13.469812 195.1462l145.13385 0l0 45.85826l-145.13385 0z" fill-rule="evenodd"/><path fill="#ff6f00" d="m52.453667 205.02908l-3.1875 0l0 -2.046875l8.546875 0l0 2.046875l-3.1875 0l0 9.40625l-2.171875 0l0 -9.40625zm7.09552 -2.046875l7.265625 0l0 2.046875l-5.109375 0l0 2.78125l4.59375 0l0 2.046875l-4.59375 0l0 4.578125l-2.15625 0l0 -11.453125zm9.168015 0l4.171875 0q1.125 0 2.0 0.46875q0.875 0.453125 1.34375 1.28125q0.484375 0.828125 0.484375 1.859375q0 1.109375 -0.703125 1.96875q-0.6875 0.84375 -1.75 1.234375l-0.015625 0.109375l3.078125 4.40625l0 0.125l-2.484375 0l-2.953125 -4.296875l-1.015625 0l0 4.296875l-2.15625 0l0 -11.453125zm4.15625 5.171875q0.734375 0 1.203125 -0.453125q0.46875 -0.453125 0.46875 -1.140625q0 -0.65625 -0.453125 -1.109375q-0.4375 -0.46875 -1.1875 -0.46875l-2.03125 0l0 3.171875l2.0 0zm8.300278 -3.125l-3.1875 0l0 -2.046875l8.546875 0l0 2.046875l-3.1875 0l0 9.40625l-2.171875 0l0 -9.40625zm5.78302 9.40625l0 0zm10.158371 0.25q-1.65625 0 -3.046875 -0.78125q-1.375 -0.796875 -2.171875 -2.15625q-0.78125 -1.375 -0.78125 -3.046875q0 -1.65625 0.78125 -3.015625q0.796875 -1.375 2.171875 -2.171875q1.390625 -0.796875 3.046875 -0.796875q2.59375 0 4.296875 1.875l-1.53125 1.46875q-1.09375 -1.28125 -2.75 -1.28125q-1.0625 0 -1.953125 0.484375q-0.875 0.484375 -1.390625 1.390625q-0.5 0.890625 -0.5 2.046875q0 1.171875 0.5 2.078125q0.515625 0.890625 1.390625 1.375q0.890625 0.484375 1.953125 0.484375q1.8125 0 3.03125 -1.5l1.53125 1.453125q-0.84375 1.03125 -2.015625 1.5625q-1.15625 0.53125 -2.5625 0.53125zm6.5781555 -11.703125l4.03125 0q1.09375 0 1.984375 0.453125q0.890625 0.453125 1.40625 1.28125q0.515625 0.828125 0.515625 1.875q0 1.0625 -0.515625 1.890625q-0.515625 0.828125 -1.40625 1.296875q-0.890625 0.453125 -1.984375 0.453125l-1.875 0l0 4.203125l-2.15625 0l0 -11.453125zm4.09375 5.203125q0.796875 0 1.25 -0.46875q0.46875 -0.46875 0.46875 -1.125q0 -0.65625 -0.46875 -1.109375q-0.453125 -0.453125 -1.25 -0.453125l-1.9375 0l0 3.15625l1.9375 0zm9.90065 6.5q-1.34375 0 -2.34375 -0.5625q-1.0 -0.578125 -1.546875 -1.671875q-0.546875 -1.09375 -0.546875 -2.578125l0 -6.890625l2.140625 0l0 7.015625q0 1.1875 0.59375 1.921875q0.609375 0.71875 1.703125 0.71875q1.109375 0 1.703125 -0.71875q0.609375 -0.734375 0.609375 -1.921875l0 -7.015625l2.140625 0l0 6.890625q0 1.421875 -0.546875 2.515625q-0.546875 1.09375 -1.5625 1.703125q-1.0 0.59375 -2.34375 0.59375zm5.557144 -0.25l0 0z" fill-rule="nonzero"/><path fill="#ff6f00" d="m58.365196 221.98221l2.15625 0l0 4.90625l0.125 0l4.203125 -4.90625l2.609375 0l0 0.125l-4.15625 4.734375l4.578125 6.46875l0 0.125l-2.640625 0l-3.421875 -4.875l-1.296875 1.515625l0 3.359375l-2.15625 0l0 -11.453125zm14.139267 11.703125q-1.21875 0 -2.1875 -0.546875q-0.96875 -0.5625 -1.53125 -1.546875q-0.546875 -0.984375 -0.546875 -2.21875q0 -1.171875 0.53125 -2.171875q0.546875 -1.0 1.5 -1.59375q0.96875 -0.59375 2.15625 -0.59375q1.265625 0 2.171875 0.546875q0.921875 0.546875 1.390625 1.5q0.46875 0.9375 0.46875 2.09375q0 0.359375 -0.046875 0.703125l-6.125 0q0.15625 0.96875 0.765625 1.484375q0.625 0.5 1.484375 0.5q0.71875 0 1.234375 -0.3125q0.53125 -0.3125 0.828125 -0.84375l1.703125 0.828125q-1.25 2.171875 -3.796875 2.171875zm1.9375 -5.328125q-0.03125 -0.375 -0.28125 -0.75q-0.25 -0.375 -0.6875 -0.625q-0.4375 -0.25 -1.03125 -0.25q-0.75 0 -1.296875 0.4375q-0.53125 0.4375 -0.765625 1.1875l4.0625 0zm3.6420135 -3.078125l1.953125 0l0 1.078125l0.140625 0q0.296875 -0.5625 0.9375 -0.9375q0.640625 -0.390625 1.40625 -0.390625q0.5625 0 1.03125 0.1875l0 2.09375q-0.4375 -0.15625 -0.734375 -0.234375q-0.296875 -0.078125 -0.625 -0.078125q-0.9375 0 -1.484375 0.671875q-0.53125 0.671875 -0.53125 1.703125l0 4.0625l-2.09375 0l0 -8.15625zm6.832016 0l1.953125 0l0 1.015625l0.140625 0q0.359375 -0.59375 1.03125 -0.9375q0.671875 -0.34375 1.453125 -0.34375q1.484375 0 2.25 0.90625q0.765625 0.890625 0.765625 2.4375l0 5.078125l-2.09375 0l0 -4.8125q0 -0.78125 -0.40625 -1.21875q-0.390625 -0.4375 -1.109375 -0.4375q-0.859375 0 -1.375 0.65625q-0.515625 0.65625 -0.515625 1.65625l0 4.15625l-2.09375 0l0 -8.15625zm13.396515 8.40625q-1.21875 0 -2.1875 -0.546875q-0.96875 -0.5625 -1.53125 -1.546875q-0.546875 -0.984375 -0.546875 -2.21875q0 -1.171875 0.53125 -2.171875q0.546875 -1.0 1.5 -1.59375q0.96875 -0.59375 2.15625 -0.59375q1.265625 0 2.171875 0.546875q0.921875 0.546875 1.390625 1.5q0.46875 0.9375 0.46875 2.09375q0 0.359375 -0.046875 0.703125l-6.125 0q0.15625 0.96875 0.765625 1.484375q0.625 0.5 1.484375 0.5q0.71875 0 1.234375 -0.3125q0.53125 -0.3125 0.828125 -0.84375l1.703125 0.828125q-1.25 2.171875 -3.796875 2.171875zm1.9375 -5.328125q-0.03125 -0.375 -0.28125 -0.75q-0.25 -0.375 -0.6875 -0.625q-0.4375 -0.25 -1.03125 -0.25q-0.75 0 -1.296875 0.4375q-0.53125 0.4375 -0.765625 1.1875l4.0625 0zm3.6420135 -6.375l2.09375 0l0 11.453125l-2.09375 0l0 -11.453125zm7.173752 11.703125q-1.484375 0 -2.40625 -0.59375q-0.921875 -0.609375 -1.28125 -1.59375l1.859375 -0.8125q0.265625 0.578125 0.734375 0.875q0.46875 0.296875 1.09375 0.296875q0.578125 0 0.953125 -0.1875q0.390625 -0.1875 0.390625 -0.609375q0 -0.390625 -0.359375 -0.59375q-0.34375 -0.203125 -1.046875 -0.359375l-0.953125 -0.203125q-1.0 -0.25 -1.65625 -0.875q-0.65625 -0.640625 -0.65625 -1.578125q0 -0.703125 0.421875 -1.265625q0.421875 -0.5625 1.15625 -0.859375q0.734375 -0.3125 1.609375 -0.3125q2.53125 0 3.375 1.78125l-1.796875 0.78125q-0.46875 -0.859375 -1.53125 -0.859375q-0.546875 0 -0.875 0.203125q-0.3125 0.203125 -0.3125 0.5q0 0.578125 1.09375 0.859375l1.203125 0.296875q1.21875 0.296875 1.828125 0.921875q0.609375 0.625 0.609375 1.53125q0 0.796875 -0.453125 1.390625q-0.453125 0.59375 -1.25 0.9375q-0.78125 0.328125 -1.75 0.328125z" fill-rule="nonzero"/></g><path fill="#000000" fill-opacity="0.0" d="m361.37704 57.82516l-0.50393677 40.12598" fill-rule="evenodd"/><path stroke="#4285f4" stroke-width="2.0" stroke-linejoin="round" stroke-linecap="butt" d="m361.37704 57.825157l-0.35321045 28.126938" fill-rule="evenodd"/><path fill="#4285f4" stroke="#4285f4" stroke-width="2.0" stroke-linecap="butt" d="m357.7206 85.91061l3.189209 9.116966l3.4172058 -9.033997z" fill-rule="evenodd"/><path fill="#ffd966" d="m312.1843 61.0311l0 0c0 -6.296913 5.104645 -11.401573 11.401581 -11.401573l78.834625 0c3.0238953 0 5.9239197 1.2012329 8.062134 3.3394432c2.138214 2.1382103 3.339447 5.038246 3.339447 8.06213l0 0l0 0c0 6.296917 -5.104645 11.401577 -11.401581 11.401577l-78.834625 0c-6.296936 0 -11.401581 -5.10466 -11.401581 -11.401577z" fill-rule="evenodd"/><path stroke="#595959" stroke-width="1.0" stroke-linejoin="round" stroke-linecap="butt" d="m312.1843 61.0311l0 0c0 -6.296913 5.104645 -11.401573 11.401581 -11.401573l78.834625 0c3.0238953 0 5.9239197 1.2012329 8.062134 3.3394432c2.138214 2.1382103 3.339447 5.038246 3.339447 8.06213l0 0l0 0c0 6.296917 -5.104645 11.401577 -11.401581 11.401577l-78.834625 0c-6.296936 0 -11.401581 -5.10466 -11.401581 -11.401577z" fill-rule="evenodd"/><path fill="#000000" d="m332.92896 66.8911l0 -10.109371l-3.78125 0l0 -1.34375l9.078125 0l0 1.34375l-3.78125 0l0 10.109371l-1.515625 0zm6.9296875 0l0 -11.453121l7.734375 0l0 1.34375l-6.21875 0l0 3.546875l5.375 0l0 1.359375l-5.375 0l0 5.203121l-1.515625 0zm19.5 -4.499996l0 -1.34375l4.859375 0l0 4.249996q-1.125 0.890625 -2.3125 1.34375q-1.1875 0.453125 -2.4375 0.453125q-1.6875 0 -3.0625 -0.71875q-1.375 -0.734375 -2.078125 -2.09375q-0.703125 -1.3749962 -0.703125 -3.0624962q0 -1.671875 0.6875 -3.125q0.703125 -1.453125 2.015625 -2.15625q1.3125 -0.703125 3.03125 -0.703125q1.234375 0 2.234375 0.40625q1.015625 0.40625 1.578125 1.125q0.578125 0.71875 0.875 1.875l-1.375 0.375q-0.25 -0.875 -0.640625 -1.375q-0.375 -0.5 -1.09375 -0.796875q-0.703125 -0.3125 -1.578125 -0.3125q-1.03125 0 -1.796875 0.328125q-0.75 0.3125 -1.21875 0.828125q-0.46875 0.515625 -0.71875 1.125q-0.4375 1.0625 -0.4375 2.3125q0 1.53125 0.515625 2.5625q0.53125 1.0312462 1.53125 1.5312462q1.015625 0.5 2.15625 0.5q0.984375 0 1.921875 -0.375q0.9375 -0.390625 1.421875 -0.8125l0 -2.1406212l-3.375 0zm6.8984375 4.499996l0 -8.296871l1.265625 0l0 1.25q0.484375 -0.875 0.890625 -1.15625q0.40625 -0.28125 0.90625 -0.28125q0.703125 0 1.4375 0.453125l-0.484375 1.296875q-0.515625 -0.296875 -1.03125 -0.296875q-0.453125 0 -0.828125 0.28125q-0.359375 0.265625 -0.515625 0.765625q-0.234375 0.75 -0.234375 1.640625l0 4.343746l-1.40625 0zm10.75 -1.03125q-0.78125 0.671875 -1.5 0.953125q-0.71875 0.265625 -1.546875 0.265625q-1.375 0 -2.109375 -0.671875q-0.734375 -0.671875 -0.734375 -1.703125q0 -0.609375 0.28125 -1.1093712q0.28125 -0.515625 0.71875 -0.8125q0.453125 -0.3125 1.015625 -0.46875q0.421875 -0.109375 1.25 -0.203125q1.703125 -0.203125 2.515625 -0.484375q0 -0.296875 0 -0.375q0 -0.859375 -0.390625 -1.203125q-0.546875 -0.484375 -1.609375 -0.484375q-0.984375 0 -1.46875 0.359375q-0.46875 0.34375 -0.6875 1.21875l-1.375 -0.1875q0.1875 -0.875 0.609375 -1.421875q0.4375 -0.546875 1.25 -0.828125q0.8125 -0.296875 1.875 -0.296875q1.0625 0 1.71875 0.25q0.671875 0.25 0.984375 0.625q0.3125 0.375 0.4375 0.953125q0.078125 0.359375 0.078125 1.296875l0 1.875q0 1.9687462 0.078125 2.4843712q0.09375 0.515625 0.359375 1.0l-1.46875 0q-0.21875 -0.4375 -0.28125 -1.03125zm-0.109375 -3.1406212q-0.765625 0.3125 -2.296875 0.53125q-0.875 0.125 -1.234375 0.28125q-0.359375 0.15625 -0.5625 0.4687462q-0.1875 0.296875 -0.1875 0.65625q0 0.5625 0.421875 0.9375q0.4375 0.375 1.25 0.375q0.8125 0 1.4375 -0.34375q0.640625 -0.359375 0.9375 -0.984375q0.234375 -0.46875 0.234375 -1.4062462l0 -0.515625zm3.6015625 7.359371l0 -11.484371l1.28125 0l0 1.078125q0.453125 -0.640625 1.015625 -0.953125q0.578125 -0.3125 1.390625 -0.3125q1.0625 0 1.875 0.546875q0.8125 0.546875 1.21875 1.546875q0.421875 0.984375 0.421875 2.171875q0 1.28125 -0.46875 2.2968712q-0.453125 1.015625 -1.328125 1.5625q-0.859375 0.546875 -1.828125 0.546875q-0.703125 0 -1.265625 -0.296875q-0.546875 -0.296875 -0.90625 -0.75l0 4.046875l-1.40625 0zm1.265625 -7.296871q0 1.6093712 0.640625 2.3749962q0.65625 0.765625 1.578125 0.765625q0.9375 0 1.609375 -0.796875q0.671875 -0.796875 0.671875 -2.4531212q0 -1.59375 -0.65625 -2.375q-0.65625 -0.796875 -1.5625 -0.796875q-0.890625 0 -1.59375 0.84375q-0.6875 0.84375 -0.6875 2.4375zm7.6328125 4.109371l0 -11.453121l1.40625 0l0 4.109375q0.984375 -1.140625 2.484375 -1.140625q0.921875 0 1.59375 0.359375q0.6875 0.359375 0.96875 1.0q0.296875 0.640625 0.296875 1.859375l0 5.265621l-1.40625 0l0 -5.265621q0 -1.046875 -0.453125 -1.53125q-0.453125 -0.484375 -1.296875 -0.484375q-0.625 0 -1.171875 0.328125q-0.546875 0.328125 -0.78125 0.890625q-0.234375 0.546875 -0.234375 1.515625l0 4.546871l-1.40625 0z" fill-rule="nonzero"/><g filter="url(#shadowFilter-p.6)"><use xlink:href="#p.6" transform="matrix(1.0 0.0 0.0 1.0 5.36231109539042 4.499513320722605)"/></g><defs><filter id="shadowFilter-p.6" filterUnits="userSpaceOnUse"><feGaussianBlur in="SourceAlpha" stdDeviation="2.0" result="blur"/><feComponentTransfer in="blur" color-interpolation-filters="sRGB"><feFuncR type="linear" slope="0" intercept="0.8"/><feFuncG type="linear" slope="0" intercept="0.8"/><feFuncB type="linear" slope="0" intercept="0.8"/><feFuncA type="linear" slope="0.36" intercept="0"/></feComponentTransfer></filter></defs><g id="p.6"><path fill="#ffffff" d="m171.81628 195.1462l145.13385 0l0 45.85826l-145.13385 0z" fill-rule="evenodd"/><path stroke="#666666" stroke-width="1.0" stroke-linejoin="round" stroke-linecap="butt" d="m171.81628 195.1462l145.13385 0l0 45.85826l-145.13385 0z" fill-rule="evenodd"/><path fill="#ff6f00" d="m210.19214 205.02908l-3.1875 0l0 -2.046875l8.546875 0l0 2.046875l-3.1875 0l0 9.40625l-2.171875 0l0 -9.40625zm7.09552 -2.046875l7.265625 0l0 2.046875l-5.109375 0l0 2.78125l4.59375 0l0 2.046875l-4.59375 0l0 4.578125l-2.15625 0l0 -11.453125zm9.168015 0l4.171875 0q1.125 0 2.0 0.46875q0.875 0.453125 1.34375 1.28125q0.484375 0.828125 0.484375 1.859375q0 1.109375 -0.703125 1.96875q-0.6875 0.84375 -1.75 1.234375l-0.015625 0.109375l3.078125 4.40625l0 0.125l-2.484375 0l-2.953125 -4.296875l-1.015625 0l0 4.296875l-2.15625 0l0 -11.453125zm4.15625 5.171875q0.734375 0 1.203125 -0.453125q0.46875 -0.453125 0.46875 -1.140625q0 -0.65625 -0.453125 -1.109375q-0.4375 -0.46875 -1.1875 -0.46875l-2.03125 0l0 3.171875l2.0 0zm8.300278 -3.125l-3.1875 0l0 -2.046875l8.546875 0l0 2.046875l-3.1875 0l0 9.40625l-2.171875 0l0 -9.40625zm5.78302 9.40625l0 0zm10.205246 0.25q-1.640625 0 -3.03125 -0.765625q-1.375 -0.78125 -2.203125 -2.140625q-0.8125 -1.375 -0.8125 -3.078125q0 -1.6875 0.8125 -3.046875q0.828125 -1.375 2.203125 -2.15625q1.390625 -0.78125 3.03125 -0.78125q1.3437653 0 2.4531403 0.484375q1.125 0.46875 1.921875 1.328125l-1.5 1.453125q-0.5625 -0.609375 -1.265625 -0.90625q-0.68751526 -0.296875 -1.6250153 -0.296875q-1.046875 0 -1.9375 0.484375q-0.875 0.484375 -1.40625 1.390625q-0.515625 0.90625 -0.515625 2.046875q0 1.15625 0.53125 2.0625q0.53125 0.90625 1.421875 1.390625q0.890625 0.484375 1.9375 0.484375q1.6093903 0 2.6250153 -0.9375q0.328125 -0.296875 0.5625 -0.734375q0.234375 -0.453125 0.359375 -0.984375l-3.6093903 0l0 -1.828125l5.6250153 0q0.109375 0.4375 0.109375 1.0q0 1.140625 -0.34375 2.125q-0.34375 0.96875 -1.046875 1.703125q-0.78125 0.828125 -1.875 1.265625q-1.078125 0.4375 -2.4218903 0.4375zm7.747299 -11.703125l4.03125 0q1.09375 0 1.984375 0.453125q0.890625 0.453125 1.40625 1.28125q0.515625 0.828125 0.515625 1.875q0 1.0625 -0.515625 1.890625q-0.515625 0.828125 -1.40625 1.296875q-0.890625 0.453125 -1.984375 0.453125l-1.875 0l0 4.203125l-2.15625 0l0 -11.453125zm4.09375 5.203125q0.796875 0 1.25 -0.46875q0.46875 -0.46875 0.46875 -1.125q0 -0.65625 -0.46875 -1.109375q-0.453125 -0.453125 -1.25 -0.453125l-1.9375 0l0 3.15625l1.9375 0zm9.900635 6.5q-1.34375 0 -2.34375 -0.5625q-1.0 -0.578125 -1.546875 -1.671875q-0.546875 -1.09375 -0.546875 -2.578125l0 -6.890625l2.140625 0l0 7.015625q0 1.1875 0.59375 1.921875q0.609375 0.71875 1.703125 0.71875q1.109375 0 1.703125 -0.71875q0.609375 -0.734375 0.609375 -1.921875l0 -7.015625l2.140625 0l0 6.890625q0 1.421875 -0.546875 2.515625q-0.546875 1.09375 -1.5625 1.703125q-1.0 0.59375 -2.34375 0.59375zm5.5571594 -0.25l0 0z" fill-rule="nonzero"/><path fill="#ff6f00" d="m216.71167 221.98221l2.15625 0l0 4.90625l0.125 0l4.203125 -4.90625l2.609375 0l0 0.125l-4.15625 4.734375l4.578125 6.46875l0 0.125l-2.640625 0l-3.421875 -4.875l-1.296875 1.515625l0 3.359375l-2.15625 0l0 -11.453125zm14.139267 11.703125q-1.21875 0 -2.1875 -0.546875q-0.96875 -0.5625 -1.53125 -1.546875q-0.546875 -0.984375 -0.546875 -2.21875q0 -1.171875 0.53125 -2.171875q0.546875 -1.0 1.5 -1.59375q0.96875 -0.59375 2.15625 -0.59375q1.265625 0 2.171875 0.546875q0.921875 0.546875 1.390625 1.5q0.46875 0.9375 0.46875 2.09375q0 0.359375 -0.046875 0.703125l-6.125 0q0.15625 0.96875 0.765625 1.484375q0.625 0.5 1.484375 0.5q0.71875 0 1.234375 -0.3125q0.53125 -0.3125 0.828125 -0.84375l1.703125 0.828125q-1.25 2.171875 -3.796875 2.171875zm1.9375 -5.328125q-0.03125 -0.375 -0.28125 -0.75q-0.25 -0.375 -0.6875 -0.625q-0.4375 -0.25 -1.03125 -0.25q-0.75 0 -1.296875 0.4375q-0.53125 0.4375 -0.765625 1.1875l4.0625 0zm3.6420135 -3.078125l1.953125 0l0 1.078125l0.140625 0q0.296875 -0.5625 0.9375 -0.9375q0.640625 -0.390625 1.40625 -0.390625q0.5625 0 1.03125 0.1875l0 2.09375q-0.4375 -0.15625 -0.734375 -0.234375q-0.296875 -0.078125 -0.625 -0.078125q-0.9375 0 -1.484375 0.671875q-0.53125 0.671875 -0.53125 1.703125l0 4.0625l-2.09375 0l0 -8.15625zm6.832016 0l1.953125 0l0 1.015625l0.140625 0q0.359375 -0.59375 1.03125 -0.9375q0.671875 -0.34375 1.453125 -0.34375q1.484375 0 2.25 0.90625q0.765625 0.890625 0.765625 2.4375l0 5.078125l-2.09375 0l0 -4.8125q0 -0.78125 -0.40625 -1.21875q-0.390625 -0.4375 -1.109375 -0.4375q-0.859375 0 -1.375 0.65625q-0.515625 0.65625 -0.515625 1.65625l0 4.15625l-2.09375 0l0 -8.15625zm13.39653 8.40625q-1.2187653 0 -2.1875153 -0.546875q-0.96875 -0.5625 -1.53125 -1.546875q-0.546875 -0.984375 -0.546875 -2.21875q0 -1.171875 0.53125 -2.171875q0.546875 -1.0 1.5 -1.59375q0.96875 -0.59375 2.1562653 -0.59375q1.265625 0 2.171875 0.546875q0.921875 0.546875 1.390625 1.5q0.46875 0.9375 0.46875 2.09375q0 0.359375 -0.046875 0.703125l-6.1250153 0q0.15625 0.96875 0.765625 1.484375q0.625 0.5 1.4843903 0.5q0.71875 0 1.234375 -0.3125q0.53125 -0.3125 0.828125 -0.84375l1.703125 0.828125q-1.25 2.171875 -3.796875 2.171875zm1.9375 -5.328125q-0.03125 -0.375 -0.28125 -0.75q-0.25 -0.375 -0.6875 -0.625q-0.4375 -0.25 -1.03125 -0.25q-0.75001526 0 -1.2968903 0.4375q-0.53125 0.4375 -0.765625 1.1875l4.0625153 0zm3.6419983 -6.375l2.09375 0l0 11.453125l-2.09375 0l0 -11.453125zm7.173767 11.703125q-1.484375 0 -2.40625 -0.59375q-0.921875 -0.609375 -1.28125 -1.59375l1.859375 -0.8125q0.265625 0.578125 0.734375 0.875q0.46875 0.296875 1.09375 0.296875q0.578125 0 0.953125 -0.1875q0.390625 -0.1875 0.390625 -0.609375q0 -0.390625 -0.359375 -0.59375q-0.34375 -0.203125 -1.046875 -0.359375l-0.953125 -0.203125q-1.0 -0.25 -1.65625 -0.875q-0.65625 -0.640625 -0.65625 -1.578125q0 -0.703125 0.421875 -1.265625q0.421875 -0.5625 1.15625 -0.859375q0.734375 -0.3125 1.609375 -0.3125q2.53125 0 3.375 1.78125l-1.796875 0.78125q-0.46875 -0.859375 -1.53125 -0.859375q-0.546875 0 -0.875 0.203125q-0.3125 0.203125 -0.3125 0.5q0 0.578125 1.09375 0.859375l1.203125 0.296875q1.21875 0.296875 1.828125 0.921875q0.609375 0.625 0.609375 1.53125q0 0.796875 -0.453125 1.390625q-0.453125 0.59375 -1.25 0.9375q-0.78125 0.328125 -1.75 0.328125z" fill-rule="nonzero"/></g><g filter="url(#shadowFilter-p.7)"><use xlink:href="#p.7" transform="matrix(1.0 0.0 0.0 1.0 5.36231109539042 4.499513320722605)"/></g><defs><filter id="shadowFilter-p.7" filterUnits="userSpaceOnUse"><feGaussianBlur in="SourceAlpha" stdDeviation="2.0" result="blur"/><feComponentTransfer in="blur" color-interpolation-filters="sRGB"><feFuncR type="linear" slope="0" intercept="0.8"/><feFuncG type="linear" slope="0" intercept="0.8"/><feFuncB type="linear" slope="0" intercept="0.8"/><feFuncA type="linear" slope="0.36" intercept="0"/></feComponentTransfer></filter></defs><g id="p.7"><path fill="#ffffff" d="m330.16278 195.1462l145.13385 0l0 45.85826l-145.13385 0z" fill-rule="evenodd"/><path stroke="#666666" stroke-width="1.0" stroke-linejoin="round" stroke-linecap="butt" d="m330.16278 195.1462l145.13385 0l0 45.85826l-145.13385 0z" fill-rule="evenodd"/><path fill="#ff6f00" d="m370.60263 205.02908l-3.1875 0l0 -2.046875l8.546875 0l0 2.046875l-3.1875 0l0 9.40625l-2.171875 0l0 -9.40625zm7.09552 -2.046875l7.265625 0l0 2.046875l-5.109375 0l0 2.78125l4.59375 0l0 2.046875l-4.59375 0l0 4.578125l-2.15625 0l0 -11.453125zm9.167999 0l4.171875 0q1.125 0 2.0 0.46875q0.875 0.453125 1.34375 1.28125q0.484375 0.828125 0.484375 1.859375q0 1.109375 -0.703125 1.96875q-0.6875 0.84375 -1.75 1.234375l-0.015625 0.109375l3.078125 4.40625l0 0.125l-2.484375 0l-2.953125 -4.296875l-1.015625 0l0 4.296875l-2.15625 0l0 -11.453125zm4.15625 5.171875q0.734375 0 1.203125 -0.453125q0.46875 -0.453125 0.46875 -1.140625q0 -0.65625 -0.453125 -1.109375q-0.4375 -0.46875 -1.1875 -0.46875l-2.03125 0l0 3.171875l2.0 0zm8.300293 -3.125l-3.1875 0l0 -2.046875l8.546875 0l0 2.046875l-3.1875 0l0 9.40625l-2.171875 0l0 -9.40625zm5.78302 9.40625l0 0zm6.729004 -9.40625l-3.1875 0l0 -2.046875l8.546875 0l0 2.046875l-3.1875 0l0 9.40625l-2.171875 0l0 -9.40625zm7.09552 -2.046875l4.03125 0q1.09375 0 1.984375 0.453125q0.890625 0.453125 1.40625 1.28125q0.515625 0.828125 0.515625 1.875q0 1.0625 -0.515625 1.890625q-0.515625 0.828125 -1.40625 1.296875q-0.890625 0.453125 -1.984375 0.453125l-1.875 0l0 4.203125l-2.15625 0l0 -11.453125zm4.09375 5.203125q0.796875 0 1.25 -0.46875q0.46875 -0.46875 0.46875 -1.125q0 -0.65625 -0.46875 -1.109375q-0.453125 -0.453125 -1.25 -0.453125l-1.9375 0l0 3.15625l1.9375 0zm9.900635 6.5q-1.34375 0 -2.34375 -0.5625q-1.0 -0.578125 -1.546875 -1.671875q-0.546875 -1.09375 -0.546875 -2.578125l0 -6.890625l2.140625 0l0 7.015625q0 1.1875 0.59375 1.921875q0.609375 0.71875 1.703125 0.71875q1.109375 0 1.703125 -0.71875q0.609375 -0.734375 0.609375 -1.921875l0 -7.015625l2.140625 0l0 6.890625q0 1.421875 -0.546875 2.515625q-0.546875 1.09375 -1.5625 1.703125q-1.0 0.59375 -2.34375 0.59375zm5.5571594 -0.25l0 0z" fill-rule="nonzero"/><path fill="#ff6f00" d="m442.22577 214.43533l0 0z" fill-rule="nonzero"/><path fill="#ff6f00" d="m375.05814 221.98221l2.15625 0l0 4.90625l0.125 0l4.203125 -4.90625l2.609375 0l0 0.125l-4.15625 4.734375l4.578125 6.46875l0 0.125l-2.640625 0l-3.421875 -4.875l-1.296875 1.515625l0 3.359375l-2.15625 0l0 -11.453125zm14.139282 11.703125q-1.21875 0 -2.1875 -0.546875q-0.96875 -0.5625 -1.53125 -1.546875q-0.546875 -0.984375 -0.546875 -2.21875q0 -1.171875 0.53125 -2.171875q0.546875 -1.0 1.5 -1.59375q0.96875 -0.59375 2.15625 -0.59375q1.265625 0 2.171875 0.546875q0.921875 0.546875 1.390625 1.5q0.46875 0.9375 0.46875 2.09375q0 0.359375 -0.046875 0.703125l-6.125 0q0.15625 0.96875 0.765625 1.484375q0.625 0.5 1.484375 0.5q0.71875 0 1.234375 -0.3125q0.53125 -0.3125 0.828125 -0.84375l1.703125 0.828125q-1.25 2.171875 -3.796875 2.171875zm1.9375 -5.328125q-0.03125 -0.375 -0.28125 -0.75q-0.25 -0.375 -0.6875 -0.625q-0.4375 -0.25 -1.03125 -0.25q-0.75 0 -1.296875 0.4375q-0.53125 0.4375 -0.765625 1.1875l4.0625 0zm3.6420288 -3.078125l1.953125 0l0 1.078125l0.140625 0q0.296875 -0.5625 0.9375 -0.9375q0.640625 -0.390625 1.40625 -0.390625q0.5625 0 1.03125 0.1875l0 2.09375q-0.4375 -0.15625 -0.734375 -0.234375q-0.296875 -0.078125 -0.625 -0.078125q-0.9375 0 -1.484375 0.671875q-0.53125 0.671875 -0.53125 1.703125l0 4.0625l-2.09375 0l0 -8.15625zm6.8320007 0l1.953125 0l0 1.015625l0.140625 0q0.359375 -0.59375 1.03125 -0.9375q0.671875 -0.34375 1.453125 -0.34375q1.484375 0 2.25 0.90625q0.765625 0.890625 0.765625 2.4375l0 5.078125l-2.09375 0l0 -4.8125q0 -0.78125 -0.40625 -1.21875q-0.390625 -0.4375 -1.109375 -0.4375q-0.859375 0 -1.375 0.65625q-0.515625 0.65625 -0.515625 1.65625l0 4.15625l-2.09375 0l0 -8.15625zm13.396515 8.40625q-1.21875 0 -2.1875 -0.546875q-0.96875 -0.5625 -1.53125 -1.546875q-0.546875 -0.984375 -0.546875 -2.21875q0 -1.171875 0.53125 -2.171875q0.546875 -1.0 1.5 -1.59375q0.96875 -0.59375 2.15625 -0.59375q1.265625 0 2.171875 0.546875q0.921875 0.546875 1.390625 1.5q0.46875 0.9375 0.46875 2.09375q0 0.359375 -0.046875 0.703125l-6.125 0q0.15625 0.96875 0.765625 1.484375q0.625 0.5 1.484375 0.5q0.71875 0 1.234375 -0.3125q0.53125 -0.3125 0.828125 -0.84375l1.703125 0.828125q-1.25 2.171875 -3.796875 2.171875zm1.9375 -5.328125q-0.03125 -0.375 -0.28125 -0.75q-0.25 -0.375 -0.6875 -0.625q-0.4375 -0.25 -1.03125 -0.25q-0.75 0 -1.296875 0.4375q-0.53125 0.4375 -0.765625 1.1875l4.0625 0zm3.6420288 -6.375l2.09375 0l0 11.453125l-2.09375 0l0 -11.453125zm7.1737366 11.703125q-1.484375 0 -2.40625 -0.59375q-0.921875 -0.609375 -1.28125 -1.59375l1.859375 -0.8125q0.265625 0.578125 0.734375 0.875q0.46875 0.296875 1.09375 0.296875q0.578125 0 0.953125 -0.1875q0.390625 -0.1875 0.390625 -0.609375q0 -0.390625 -0.359375 -0.59375q-0.34375 -0.203125 -1.046875 -0.359375l-0.953125 -0.203125q-1.0 -0.25 -1.65625 -0.875q-0.65625 -0.640625 -0.65625 -1.578125q0 -0.703125 0.421875 -1.265625q0.421875 -0.5625 1.15625 -0.859375q0.734375 -0.3125 1.609375 -0.3125q2.53125 0 3.375 1.78125l-1.796875 0.78125q-0.46875 -0.859375 -1.53125 -0.859375q-0.546875 0 -0.875 0.203125q-0.3125 0.203125 -0.3125 0.5q0 0.578125 1.09375 0.859375l1.203125 0.296875q1.21875 0.296875 1.828125 0.921875q0.609375 0.625 0.609375 1.53125q0 0.796875 -0.453125 1.390625q-0.453125 0.59375 -1.25 0.9375q-0.78125 0.328125 -1.75 0.328125z" fill-rule="nonzero"/></g><g filter="url(#shadowFilter-p.8)"><use xlink:href="#p.8" transform="matrix(1.0 0.0 0.0 1.0 5.36231109539042 4.499513320722605)"/></g><defs><filter id="shadowFilter-p.8" filterUnits="userSpaceOnUse"><feGaussianBlur in="SourceAlpha" stdDeviation="2.0" result="blur"/><feComponentTransfer in="blur" color-interpolation-filters="sRGB"><feFuncR type="linear" slope="0" intercept="0.8"/><feFuncG type="linear" slope="0" intercept="0.8"/><feFuncB type="linear" slope="0" intercept="0.8"/><feFuncA type="linear" slope="0.36" intercept="0"/></feComponentTransfer></filter></defs><g id="p.8"><path fill="#ffffff" d="m488.50925 195.1462l145.13388 0l0 45.85826l-145.13388 0z" fill-rule="evenodd"/><path stroke="#666666" stroke-width="1.0" stroke-linejoin="round" stroke-linecap="butt" d="m488.50925 195.1462l145.13388 0l0 45.85826l-145.13388 0z" fill-rule="evenodd"/><path fill="#ff6f00" d="m517.8211 205.02908l-3.1875 0l0 -2.046875l8.546875 0l0 2.046875l-3.1875 0l0 9.40625l-2.171875 0l0 -9.40625zm7.09552 -2.046875l7.265625 0l0 2.046875l-5.109375 0l0 2.78125l4.59375 0l0 2.046875l-4.59375 0l0 4.578125l-2.15625 0l0 -11.453125zm9.167969 0l4.171875 0q1.125 0 2.0 0.46875q0.875 0.453125 1.34375 1.28125q0.484375 0.828125 0.484375 1.859375q0 1.109375 -0.703125 1.96875q-0.6875 0.84375 -1.75 1.234375l-0.015625 0.109375l3.078125 4.40625l0 0.125l-2.484375 0l-2.953125 -4.296875l-1.015625 0l0 4.296875l-2.15625 0l0 -11.453125zm4.15625 5.171875q0.734375 0 1.203125 -0.453125q0.46875 -0.453125 0.46875 -1.140625q0 -0.65625 -0.453125 -1.109375q-0.4375 -0.46875 -1.1875 -0.46875l-2.03125 0l0 3.171875l2.0 0zm8.300293 -3.125l-3.1875 0l0 -2.046875l8.546875 0l0 2.046875l-3.1875 0l0 9.40625l-2.171875 0l0 -9.40625zm5.78302 9.40625l0 0zm5.0565186 -11.453125l2.78125 0l3.046875 8.046875l0.125 0l3.03125 -8.046875l2.8125 0l0 11.453125l-2.15625 0l0 -5.640625l0.140625 -1.90625l-0.140625 0l-2.90625 7.546875l-1.671875 0l-2.9375 -7.546875l-0.125 0l0.125 1.90625l0 5.640625l-2.125 0l0 -11.453125zm17.849365 11.703125q-1.265625 0 -2.25 -0.5625q-0.984375 -0.5625 -1.546875 -1.546875q-0.546875 -0.984375 -0.546875 -2.21875q0 -1.21875 0.546875 -2.203125q0.5625 -1.0 1.546875 -1.5625q0.984375 -0.578125 2.25 -0.578125q1.25 0 2.234375 0.578125q1.0 0.5625 1.546875 1.5625q0.5625 0.984375 0.5625 2.203125q0 1.234375 -0.5625 2.21875q-0.546875 0.984375 -1.546875 1.546875q-0.984375 0.5625 -2.234375 0.5625zm0 -1.9375q0.609375 0 1.125 -0.28125q0.515625 -0.28125 0.8125 -0.828125q0.3125 -0.546875 0.3125 -1.28125q0 -0.71875 -0.3125 -1.265625q-0.296875 -0.546875 -0.8125 -0.828125q-0.515625 -0.296875 -1.125 -0.296875q-0.609375 0 -1.125 0.296875q-0.5 0.28125 -0.8125 0.828125q-0.3125 0.546875 -0.3125 1.265625q0 0.71875 0.3125 1.28125q0.3125 0.546875 0.8125 0.828125q0.515625 0.28125 1.125 0.28125zm10.400696 1.9375q-0.828125 0 -1.484375 -0.34375q-0.640625 -0.359375 -0.953125 -0.875l-0.140625 0l0 0.96875l-1.953125 0l0 -11.453125l2.09375 0l0 3.140625l-0.140625 1.140625l0.140625 0q0.328125 -0.53125 0.96875 -0.890625q0.640625 -0.359375 1.46875 -0.359375q1.109375 0 2.015625 0.5625q0.90625 0.546875 1.40625 1.546875q0.515625 0.984375 0.515625 2.234375q0 1.265625 -0.515625 2.25q-0.5 0.984375 -1.40625 1.53125q-0.90625 0.546875 -2.015625 0.546875zm-0.359375 -1.9375q0.59375 0 1.09375 -0.296875q0.515625 -0.296875 0.8125 -0.84375q0.3125 -0.546875 0.3125 -1.25q0 -0.703125 -0.3125 -1.25q-0.296875 -0.546875 -0.8125 -0.84375q-0.5 -0.296875 -1.09375 -0.296875q-0.578125 0 -1.09375 0.296875q-0.515625 0.296875 -0.828125 0.84375q-0.296875 0.546875 -0.296875 1.25q0 0.703125 0.296875 1.25q0.3125 0.546875 0.828125 0.84375q0.515625 0.296875 1.09375 0.296875zm7.015991 -7.375q-0.5625 0 -0.96875 -0.390625q-0.390625 -0.40625 -0.390625 -0.96875q0 -0.546875 0.390625 -0.9375q0.40625 -0.40625 0.96875 -0.40625q0.5625 0 0.953125 0.40625q0.390625 0.390625 0.390625 0.9375q0 0.5625 -0.390625 0.96875q-0.390625 0.390625 -0.953125 0.390625zm-1.046875 0.90625l2.09375 0l0 8.15625l-2.09375 0l0 -8.15625zm4.2750244 -3.296875l2.09375 0l0 11.453125l-2.09375 0l0 -11.453125zm7.892517 11.703125q-1.21875 0 -2.1875 -0.546875q-0.96875 -0.5625 -1.53125 -1.546875q-0.546875 -0.984375 -0.546875 -2.21875q0 -1.171875 0.53125 -2.171875q0.546875 -1.0 1.5 -1.59375q0.96875 -0.59375 2.15625 -0.59375q1.265625 0 2.171875 0.546875q0.921875 0.546875 1.390625 1.5q0.46875 0.9375 0.46875 2.09375q0 0.359375 -0.046875 0.703125l-6.125 0q0.15625 0.96875 0.765625 1.484375q0.625 0.5 1.484375 0.5q0.71875 0 1.234375 -0.3125q0.53125 -0.3125 0.828125 -0.84375l1.703125 0.828125q-1.25 2.171875 -3.796875 2.171875zm1.9375 -5.328125q-0.03125 -0.375 -0.28125 -0.75q-0.25 -0.375 -0.6875 -0.625q-0.4375 -0.25 -1.03125 -0.25q-0.75 0 -1.296875 0.4375q-0.53125 0.4375 -0.765625 1.1875l4.0625 0zm2.6107178 5.078125l0 0z" fill-rule="nonzero"/><path fill="#ff6f00" d="m611.70026 214.43533l0 0z" fill-rule="nonzero"/><path fill="#ff6f00" d="m533.4046 221.98221l2.15625 0l0 4.90625l0.125 0l4.203125 -4.90625l2.609375 0l0 0.125l-4.15625 4.734375l4.578125 6.46875l0 0.125l-2.640625 0l-3.421875 -4.875l-1.296875 1.515625l0 3.359375l-2.15625 0l0 -11.453125zm14.139282 11.703125q-1.21875 0 -2.1875 -0.546875q-0.96875 -0.5625 -1.53125 -1.546875q-0.546875 -0.984375 -0.546875 -2.21875q0 -1.171875 0.53125 -2.171875q0.546875 -1.0 1.5 -1.59375q0.96875 -0.59375 2.15625 -0.59375q1.265625 0 2.171875 0.546875q0.921875 0.546875 1.390625 1.5q0.46875 0.9375 0.46875 2.09375q0 0.359375 -0.046875 0.703125l-6.125 0q0.15625 0.96875 0.765625 1.484375q0.625 0.5 1.484375 0.5q0.71875 0 1.234375 -0.3125q0.53125 -0.3125 0.828125 -0.84375l1.703125 0.828125q-1.25 2.171875 -3.796875 2.171875zm1.9375 -5.328125q-0.03125 -0.375 -0.28125 -0.75q-0.25 -0.375 -0.6875 -0.625q-0.4375 -0.25 -1.03125 -0.25q-0.75 0 -1.296875 0.4375q-0.53125 0.4375 -0.765625 1.1875l4.0625 0zm3.6420288 -3.078125l1.953125 0l0 1.078125l0.140625 0q0.296875 -0.5625 0.9375 -0.9375q0.640625 -0.390625 1.40625 -0.390625q0.5625 0 1.03125 0.1875l0 2.09375q-0.4375 -0.15625 -0.734375 -0.234375q-0.296875 -0.078125 -0.625 -0.078125q-0.9375 0 -1.484375 0.671875q-0.53125 0.671875 -0.53125 1.703125l0 4.0625l-2.09375 0l0 -8.15625zm6.8320312 0l1.953125 0l0 1.015625l0.140625 0q0.359375 -0.59375 1.03125 -0.9375q0.671875 -0.34375 1.453125 -0.34375q1.484375 0 2.25 0.90625q0.765625 0.890625 0.765625 2.4375l0 5.078125l-2.09375 0l0 -4.8125q0 -0.78125 -0.40625 -1.21875q-0.390625 -0.4375 -1.109375 -0.4375q-0.859375 0 -1.375 0.65625q-0.515625 0.65625 -0.515625 1.65625l0 4.15625l-2.09375 0l0 -8.15625zm13.396484 8.40625q-1.21875 0 -2.1875 -0.546875q-0.96875 -0.5625 -1.53125 -1.546875q-0.546875 -0.984375 -0.546875 -2.21875q0 -1.171875 0.53125 -2.171875q0.546875 -1.0 1.5 -1.59375q0.96875 -0.59375 2.15625 -0.59375q1.265625 0 2.171875 0.546875q0.921875 0.546875 1.390625 1.5q0.46875 0.9375 0.46875 2.09375q0 0.359375 -0.046875 0.703125l-6.125 0q0.15625 0.96875 0.765625 1.484375q0.625 0.5 1.484375 0.5q0.71875 0 1.234375 -0.3125q0.53125 -0.3125 0.828125 -0.84375l1.703125 0.828125q-1.25 2.171875 -3.796875 2.171875zm1.9375 -5.328125q-0.03125 -0.375 -0.28125 -0.75q-0.25 -0.375 -0.6875 -0.625q-0.4375 -0.25 -1.03125 -0.25q-0.75 0 -1.296875 0.4375q-0.53125 0.4375 -0.765625 1.1875l4.0625 0zm3.6420288 -6.375l2.09375 0l0 11.453125l-2.09375 0l0 -11.453125zm7.173767 11.703125q-1.484375 0 -2.40625 -0.59375q-0.921875 -0.609375 -1.28125 -1.59375l1.859375 -0.8125q0.265625 0.578125 0.734375 0.875q0.46875 0.296875 1.09375 0.296875q0.578125 0 0.953125 -0.1875q0.390625 -0.1875 0.390625 -0.609375q0 -0.390625 -0.359375 -0.59375q-0.34375 -0.203125 -1.046875 -0.359375l-0.953125 -0.203125q-1.0 -0.25 -1.65625 -0.875q-0.65625 -0.640625 -0.65625 -1.578125q0 -0.703125 0.421875 -1.265625q0.421875 -0.5625 1.15625 -0.859375q0.734375 -0.3125 1.609375 -0.3125q2.53125 0 3.375 1.78125l-1.796875 0.78125q-0.46875 -0.859375 -1.53125 -0.859375q-0.546875 0 -0.875 0.203125q-0.3125 0.203125 -0.3125 0.5q0 0.578125 1.09375 0.859375l1.203125 0.296875q1.21875 0.296875 1.828125 0.921875q0.609375 0.625 0.609375 1.53125q0 0.796875 -0.453125 1.390625q-0.453125 0.59375 -1.25 0.9375q-0.78125 0.328125 -1.75 0.328125z" fill-rule="nonzero"/></g><g filter="url(#shadowFilter-p.9)"><use xlink:href="#p.9" transform="matrix(1.0 0.0 0.0 1.0 5.36231109539042 4.499513320722605)"/></g><defs><filter id="shadowFilter-p.9" filterUnits="userSpaceOnUse"><feGaussianBlur in="SourceAlpha" stdDeviation="2.0" result="blur"/><feComponentTransfer in="blur" color-interpolation-filters="sRGB"><feFuncR type="linear" slope="0" intercept="0.8"/><feFuncG type="linear" slope="0" intercept="0.8"/><feFuncB type="linear" slope="0" intercept="0.8"/><feFuncA type="linear" slope="0.36" intercept="0"/></feComponentTransfer></filter></defs><g id="p.9"><path fill="#ffffff" d="m13.469812 263.79712l145.13385 0l0 45.858276l-145.13385 0z" fill-rule="evenodd"/><path stroke="#666666" stroke-width="1.0" stroke-linejoin="round" stroke-linecap="butt" d="m13.469812 263.79712l145.13385 0l0 45.858276l-145.13385 0z" fill-rule="evenodd"/><path fill="#ff6f00" d="m76.33908 292.83624q-1.65625 0 -3.046875 -0.78125q-1.375 -0.796875 -2.171875 -2.15625q-0.78125 -1.375 -0.78125 -3.046875q0 -1.65625 0.78125 -3.015625q0.796875 -1.375 2.171875 -2.171875q1.390625 -0.796875 3.046875 -0.796875q2.5937424 0 4.2968674 1.875l-1.53125 1.46875q-1.09375 -1.28125 -2.7499924 -1.28125q-1.0625 0 -1.953125 0.484375q-0.875 0.484375 -1.390625 1.390625q-0.5 0.890625 -0.5 2.046875q0 1.171875 0.5 2.078125q0.515625 0.890625 1.390625 1.375q0.890625 0.484375 1.953125 0.484375q1.8124924 0 3.0312424 -1.5l1.53125 1.453125q-0.84375 1.03125 -2.015625 1.5625q-1.15625 0.53125 -2.5624924 0.53125zm6.578148 -11.703125l4.03125 0q1.09375 0 1.984375 0.453125q0.890625 0.453125 1.40625 1.28125q0.515625 0.828125 0.515625 1.875q0 1.0625 -0.515625 1.890625q-0.515625 0.828125 -1.40625 1.296875q-0.890625 0.453125 -1.984375 0.453125l-1.875 0l0 4.203125l-2.15625 0l0 -11.453125zm4.09375 5.203125q0.796875 0 1.25 -0.46875q0.46875 -0.46875 0.46875 -1.125q0 -0.65625 -0.46875 -1.109375q-0.453125 -0.453125 -1.25 -0.453125l-1.9375 0l0 3.15625l1.9375 0zm9.90065 6.5q-1.34375 0 -2.34375 -0.5625q-1.0 -0.578125 -1.546875 -1.671875q-0.546875 -1.09375 -0.546875 -2.578125l0 -6.890625l2.140625 0l0 7.015625q0 1.1875 0.59375 1.921875q0.609375 0.71875 1.703125 0.71875q1.109375 0 1.703125 -0.71875q0.609375 -0.734375 0.609375 -1.921875l0 -7.015625l2.140625 0l0 6.890625q0 1.421875 -0.546875 2.515625q-0.546875 1.09375 -1.5625 1.703125q-1.0 0.59375 -2.34375 0.59375z" fill-rule="nonzero"/></g><g filter="url(#shadowFilter-p.10)"><use xlink:href="#p.10" transform="matrix(1.0 0.0 0.0 1.0 5.36231109539042 4.499513320722605)"/></g><defs><filter id="shadowFilter-p.10" filterUnits="userSpaceOnUse"><feGaussianBlur in="SourceAlpha" stdDeviation="2.0" result="blur"/><feComponentTransfer in="blur" color-interpolation-filters="sRGB"><feFuncR type="linear" slope="0" intercept="0.8"/><feFuncG type="linear" slope="0" intercept="0.8"/><feFuncB type="linear" slope="0" intercept="0.8"/><feFuncA type="linear" slope="0.36" intercept="0"/></feComponentTransfer></filter></defs><g id="p.10"><path fill="#ffffff" d="m172.43707 263.79712l145.13385 0l0 45.858276l-145.13385 0z" fill-rule="evenodd"/><path stroke="#666666" stroke-width="1.0" stroke-linejoin="round" stroke-linecap="butt" d="m172.43707 263.79712l145.13385 0l0 45.858276l-145.13385 0z" fill-rule="evenodd"/><path fill="#ff6f00" d="m234.74522 292.83624q-1.640625 0 -3.03125 -0.765625q-1.375 -0.78125 -2.203125 -2.140625q-0.8125 -1.375 -0.8125 -3.078125q0 -1.6875 0.8125 -3.046875q0.828125 -1.375 2.203125 -2.15625q1.390625 -0.78125 3.03125 -0.78125q1.34375 0 2.4531097 0.484375q1.125 0.46875 1.921875 1.328125l-1.5 1.453125q-0.5625 -0.609375 -1.2656097 -0.90625q-0.6875 -0.296875 -1.625 -0.296875q-1.046875 0 -1.9375 0.484375q-0.875 0.484375 -1.40625 1.390625q-0.515625 0.90625 -0.515625 2.046875q0 1.15625 0.53125 2.0625q0.53125 0.90625 1.421875 1.390625q0.890625 0.484375 1.9375 0.484375q1.609375 0 2.6249847 -0.9375q0.328125 -0.296875 0.5625 -0.734375q0.234375 -0.453125 0.359375 -0.984375l-3.6093597 0l0 -1.828125l5.6249847 0q0.109375 0.4375 0.109375 1.0q0 1.140625 -0.34375 2.125q-0.34375 0.96875 -1.046875 1.703125q-0.78125 0.828125 -1.875 1.265625q-1.0781097 0.4375 -2.4218597 0.4375zm7.7472687 -11.703125l4.03125 0q1.09375 0 1.984375 0.453125q0.890625 0.453125 1.40625 1.28125q0.515625 0.828125 0.515625 1.875q0 1.0625 -0.515625 1.890625q-0.515625 0.828125 -1.40625 1.296875q-0.890625 0.453125 -1.984375 0.453125l-1.875 0l0 4.203125l-2.15625 0l0 -11.453125zm4.09375 5.203125q0.796875 0 1.25 -0.46875q0.46875 -0.46875 0.46875 -1.125q0 -0.65625 -0.46875 -1.109375q-0.453125 -0.453125 -1.25 -0.453125l-1.9375 0l0 3.15625l1.9375 0zm9.900665 6.5q-1.3437653 0 -2.3437653 -0.5625q-1.0 -0.578125 -1.546875 -1.671875q-0.546875 -1.09375 -0.546875 -2.578125l0 -6.890625l2.140625 0l0 7.015625q0 1.1875 0.59375 1.921875q0.609375 0.71875 1.7031403 0.71875q1.109375 0 1.703125 -0.71875q0.609375 -0.734375 0.609375 -1.921875l0 -7.015625l2.140625 0l0 6.890625q0 1.421875 -0.546875 2.515625q-0.546875 1.09375 -1.5625 1.703125q-1.0 0.59375 -2.34375 0.59375z" fill-rule="nonzero"/></g><g filter="url(#shadowFilter-p.11)"><use xlink:href="#p.11" transform="matrix(1.0 0.0 0.0 1.0 5.36231109539042 4.499513320722605)"/></g><defs><filter id="shadowFilter-p.11" filterUnits="userSpaceOnUse"><feGaussianBlur in="SourceAlpha" stdDeviation="2.0" result="blur"/><feComponentTransfer in="blur" color-interpolation-filters="sRGB"><feFuncR type="linear" slope="0" intercept="0.8"/><feFuncG type="linear" slope="0" intercept="0.8"/><feFuncB type="linear" slope="0" intercept="0.8"/><feFuncA type="linear" slope="0.36" intercept="0"/></feComponentTransfer></filter></defs><g id="p.11"><path fill="#ffffff" d="m330.32324 263.79712l145.13385 0l0 45.858276l-145.13385 0z" fill-rule="evenodd"/><path stroke="#666666" stroke-width="1.0" stroke-linejoin="round" stroke-linecap="butt" d="m330.32324 263.79712l145.13385 0l0 45.858276l-145.13385 0z" fill-rule="evenodd"/><path fill="#ff6f00" d="m391.37915 283.18l-3.1875 0l0 -2.046875l8.546875 0l0 2.046875l-3.1875 0l0 9.40625l-2.171875 0l0 -9.40625zm7.09552 -2.046875l4.03125 0q1.09375 0 1.984375 0.453125q0.890625 0.453125 1.40625 1.28125q0.515625 0.828125 0.515625 1.875q0 1.0625 -0.515625 1.890625q-0.515625 0.828125 -1.40625 1.296875q-0.890625 0.453125 -1.984375 0.453125l-1.875 0l0 4.203125l-2.15625 0l0 -11.453125zm4.09375 5.203125q0.796875 0 1.25 -0.46875q0.46875 -0.46875 0.46875 -1.125q0 -0.65625 -0.46875 -1.109375q-0.453125 -0.453125 -1.25 -0.453125l-1.9375 0l0 3.15625l1.9375 0zm9.900635 6.5q-1.34375 0 -2.34375 -0.5625q-1.0 -0.578125 -1.546875 -1.671875q-0.546875 -1.09375 -0.546875 -2.578125l0 -6.890625l2.140625 0l0 7.015625q0 1.1875 0.59375 1.921875q0.609375 0.71875 1.703125 0.71875q1.109375 0 1.703125 -0.71875q0.609375 -0.734375 0.609375 -1.921875l0 -7.015625l2.140625 0l0 6.890625q0 1.421875 -0.546875 2.515625q-0.546875 1.09375 -1.5625 1.703125q-1.0 0.59375 -2.34375 0.59375z" fill-rule="nonzero"/></g><g filter="url(#shadowFilter-p.12)"><use xlink:href="#p.12" transform="matrix(1.0 0.0 0.0 1.0 5.36231109539042 4.499513320722605)"/></g><defs><filter id="shadowFilter-p.12" filterUnits="userSpaceOnUse"><feGaussianBlur in="SourceAlpha" stdDeviation="2.0" result="blur"/><feComponentTransfer in="blur" color-interpolation-filters="sRGB"><feFuncR type="linear" slope="0" intercept="0.8"/><feFuncG type="linear" slope="0" intercept="0.8"/><feFuncB type="linear" slope="0" intercept="0.8"/><feFuncA type="linear" slope="0.36" intercept="0"/></feComponentTransfer></filter></defs><g id="p.12"><path fill="#ffffff" d="m489.25253 263.79712l145.13388 0l0 45.858276l-145.13388 0z" fill-rule="evenodd"/><path stroke="#666666" stroke-width="1.0" stroke-linejoin="round" stroke-linecap="butt" d="m489.25253 263.79712l145.13388 0l0 45.858276l-145.13388 0z" fill-rule="evenodd"/><path fill="#ff6f00" d="m537.1879 281.13312l2.78125 0l3.046875 8.046875l0.125 0l3.03125 -8.046875l2.8125 0l0 11.453125l-2.15625 0l0 -5.640625l0.140625 -1.90625l-0.140625 0l-2.90625 7.546875l-1.671875 0l-2.9375 -7.546875l-0.125 0l0.125 1.90625l0 5.640625l-2.125 0l0 -11.453125zm17.849365 11.703125q-1.265625 0 -2.25 -0.5625q-0.984375 -0.5625 -1.546875 -1.546875q-0.546875 -0.984375 -0.546875 -2.21875q0 -1.21875 0.546875 -2.203125q0.5625 -1.0 1.546875 -1.5625q0.984375 -0.578125 2.25 -0.578125q1.25 0 2.234375 0.578125q1.0 0.5625 1.546875 1.5625q0.5625 0.984375 0.5625 2.203125q0 1.234375 -0.5625 2.21875q-0.546875 0.984375 -1.546875 1.546875q-0.984375 0.5625 -2.234375 0.5625zm0 -1.9375q0.609375 0 1.125 -0.28125q0.515625 -0.28125 0.8125 -0.828125q0.3125 -0.546875 0.3125 -1.28125q0 -0.71875 -0.3125 -1.265625q-0.296875 -0.546875 -0.8125 -0.828125q-0.515625 -0.296875 -1.125 -0.296875q-0.609375 0 -1.125 0.296875q-0.5 0.28125 -0.8125 0.828125q-0.3125 0.546875 -0.3125 1.265625q0 0.71875 0.3125 1.28125q0.3125 0.546875 0.8125 0.828125q0.515625 0.28125 1.125 0.28125zm10.400696 1.9375q-0.828125 0 -1.484375 -0.34375q-0.640625 -0.359375 -0.953125 -0.875l-0.140625 0l0 0.96875l-1.953125 0l0 -11.453125l2.09375 0l0 3.140625l-0.140625 1.140625l0.140625 0q0.328125 -0.53125 0.96875 -0.890625q0.640625 -0.359375 1.46875 -0.359375q1.109375 0 2.015625 0.5625q0.90625 0.546875 1.40625 1.546875q0.515625 0.984375 0.515625 2.234375q0 1.265625 -0.515625 2.25q-0.5 0.984375 -1.40625 1.53125q-0.90625 0.546875 -2.015625 0.546875zm-0.359375 -1.9375q0.59375 0 1.09375 -0.296875q0.515625 -0.296875 0.8125 -0.84375q0.3125 -0.546875 0.3125 -1.25q0 -0.703125 -0.3125 -1.25q-0.296875 -0.546875 -0.8125 -0.84375q-0.5 -0.296875 -1.09375 -0.296875q-0.578125 0 -1.09375 0.296875q-0.515625 0.296875 -0.828125 0.84375q-0.296875 0.546875 -0.296875 1.25q0 0.703125 0.296875 1.25q0.3125 0.546875 0.828125 0.84375q0.515625 0.296875 1.09375 0.296875zm7.015991 -7.375q-0.5625 0 -0.96875 -0.390625q-0.390625 -0.40625 -0.390625 -0.96875q0 -0.546875 0.390625 -0.9375q0.40625 -0.40625 0.96875 -0.40625q0.5625 0 0.953125 0.40625q0.390625 0.390625 0.390625 0.9375q0 0.5625 -0.390625 0.96875q-0.390625 0.390625 -0.953125 0.390625zm-1.046875 0.90625l2.09375 0l0 8.15625l-2.09375 0l0 -8.15625zm4.2750244 -3.296875l2.09375 0l0 11.453125l-2.09375 0l0 -11.453125zm7.892517 11.703125q-1.21875 0 -2.1875 -0.546875q-0.96875 -0.5625 -1.53125 -1.546875q-0.546875 -0.984375 -0.546875 -2.21875q0 -1.171875 0.53125 -2.171875q0.546875 -1.0 1.5 -1.59375q0.96875 -0.59375 2.15625 -0.59375q1.265625 0 2.171875 0.546875q0.921875 0.546875 1.390625 1.5q0.46875 0.9375 0.46875 2.09375q0 0.359375 -0.046875 0.703125l-6.125 0q0.15625 0.96875 0.765625 1.484375q0.625 0.5 1.484375 0.5q0.71875 0 1.234375 -0.3125q0.53125 -0.3125 0.828125 -0.84375l1.703125 0.828125q-1.25 2.171875 -3.796875 2.171875zm1.9375 -5.328125q-0.03125 -0.375 -0.28125 -0.75q-0.25 -0.375 -0.6875 -0.625q-0.4375 -0.25 -1.03125 -0.25q-0.75 0 -1.296875 0.4375q-0.53125 0.4375 -0.765625 1.1875l4.0625 0z" fill-rule="nonzero"/></g><path fill="#000000" fill-opacity="0.0" d="m86.03674 241.00446l0 22.803162" fill-rule="evenodd"/><path stroke="#000000" stroke-width="2.0" stroke-linejoin="round" stroke-linecap="butt" d="m86.03674 241.00447l0 10.803146" fill-rule="evenodd"/><path fill="#000000" stroke="#000000" stroke-width="2.0" stroke-linecap="butt" d="m82.733284 251.80762l3.3034592 9.076202l3.3034668 -9.076202z" fill-rule="evenodd"/><path fill="#000000" fill-opacity="0.0" d="m244.38322 241.00446l0.62991333 22.803162" fill-rule="evenodd"/><path stroke="#000000" stroke-width="2.0" stroke-linejoin="round" stroke-linecap="butt" d="m244.38322 241.00447l0.29855347 10.807724" fill-rule="evenodd"/><path fill="#000000" stroke="#000000" stroke-width="2.0" stroke-linecap="butt" d="m241.37958 251.90341l3.552826 8.981506l3.0515747 -9.16394z" fill-rule="evenodd"/><path fill="#000000" fill-opacity="0.0" d="m402.7297 241.00446l0.1574707 22.803162" fill-rule="evenodd"/><path stroke="#000000" stroke-width="2.0" stroke-linejoin="round" stroke-linecap="butt" d="m402.7297 241.00447l0.07458496 10.803436" fill-rule="evenodd"/><path fill="#000000" stroke="#000000" stroke-width="2.0" stroke-linecap="butt" d="m399.50092 251.83072l3.3660583 9.053162l3.2407227 -9.098785z" fill-rule="evenodd"/><path fill="#000000" fill-opacity="0.0" d="m561.0762 241.00446l0.7559204 22.803162" fill-rule="evenodd"/><path stroke="#000000" stroke-width="2.0" stroke-linejoin="round" stroke-linecap="butt" d="m561.0762 241.00447l0.3583374 10.809738" fill-rule="evenodd"/><path fill="#000000" stroke="#000000" stroke-width="2.0" stroke-linecap="butt" d="m558.1328 251.92366l3.602356 8.961746l3.0009766 -9.180649z" fill-rule="evenodd"/><path fill="#000000" fill-opacity="0.0" d="m22.557348 79.59396l76.850395 0" fill-rule="evenodd"/><path stroke="#4285f4" stroke-width="2.0" stroke-linejoin="round" stroke-linecap="butt" d="m22.557348 79.59396l64.850395 0" fill-rule="evenodd"/><path fill="#4285f4" stroke="#4285f4" stroke-width="2.0" stroke-linecap="butt" d="m87.407745 82.89743l9.076195 -3.3034668l-9.076195 -3.3034668z" fill-rule="evenodd"/><path fill="#000000" fill-opacity="0.0" d="m21.20735 113.07874l76.85039 0" fill-rule="evenodd"/><path stroke="#ff6f00" stroke-width="2.0" stroke-linejoin="round" stroke-linecap="butt" d="m21.20735 113.07874l64.85039 0" fill-rule="evenodd"/><path fill="#ff6f00" stroke="#ff6f00" stroke-width="2.0" stroke-linecap="butt" d="m86.05775 116.3822l9.076195 -3.3034592l-9.076195 -3.3034668z" fill-rule="evenodd"/><path fill="#000000" fill-opacity="0.0" d="m362.22046 143.67992l-0.88186646 40.692917" fill-rule="evenodd"/><path stroke="#4285f4" stroke-width="2.0" stroke-linejoin="round" stroke-linecap="butt" d="m362.22046 143.67992l-0.6218567 28.695724" fill-rule="evenodd"/><path fill="#4285f4" stroke="#4285f4" stroke-width="2.0" stroke-linecap="butt" d="m358.2959 172.30406l3.1060486 9.145645l3.4993286 -9.002487z" fill-rule="evenodd"/><path fill="#d9d9d9" d="m308.56168 147.31233l0 0c0 -6.2969055 5.1046753 -11.401566 11.401581 -11.401566l278.74017 0c3.0238647 0 5.923889 1.2012329 8.062134 3.3394318c2.1381836 2.138214 3.3394165 5.038254 3.3394165 8.062134l0 0l0 0c0 6.296921 -5.1046753 11.401581 -11.40155 11.401581l-278.74017 0c-6.2969055 0 -11.401581 -5.10466 -11.401581 -11.401581z" fill-rule="evenodd"/><path stroke="#595959" stroke-width="1.0" stroke-linejoin="round" stroke-linecap="butt" d="m308.56168 147.31233l0 0c0 -6.2969055 5.1046753 -11.401566 11.401581 -11.401566l278.74017 0c3.0238647 0 5.923889 1.2012329 8.062134 3.3394318c2.1381836 2.138214 3.3394165 5.038254 3.3394165 8.062134l0 0l0 0c0 6.296921 -5.1046753 11.401581 -11.40155 11.401581l-278.74017 0c-6.2969055 0 -11.401581 -5.10466 -11.401581 -11.401581z" fill-rule="evenodd"/><path fill="#000000" d="m325.97006 153.17233l0 -10.109375l-3.78125 0l0 -1.34375l9.078125 0l0 1.34375l-3.78125 0l0 10.109375l-1.515625 0zm6.9296875 0l0 -11.453125l7.734375 0l0 1.34375l-6.21875 0l0 3.546875l5.375 0l0 1.359375l-5.375 0l0 5.203125l-1.515625 0zm9.7265625 0l0 -11.453125l5.078125 0q1.53125 0 2.328125 0.3125q0.796875 0.296875 1.265625 1.078125q0.484375 0.78125 0.484375 1.734375q0 1.21875 -0.796875 2.0625q-0.78125 0.828125 -2.4375 1.046875q0.609375 0.296875 0.921875 0.578125q0.65625 0.609375 1.25 1.515625l2.0 3.125l-1.90625 0l-1.515625 -2.390625q-0.671875 -1.03125 -1.109375 -1.578125q-0.421875 -0.546875 -0.765625 -0.765625q-0.328125 -0.21875 -0.6875 -0.296875q-0.25 -0.0625 -0.84375 -0.0625l-1.75 0l0 5.09375l-1.515625 0zm1.515625 -6.40625l3.25 0q1.046875 0 1.625 -0.203125q0.59375 -0.21875 0.890625 -0.6875q0.3125 -0.484375 0.3125 -1.03125q0 -0.8125 -0.59375 -1.328125q-0.59375 -0.53125 -1.859375 -0.53125l-3.625 0l0 3.78125zm12.640625 6.40625l0 -10.109375l-3.78125 0l0 -1.34375l9.078125 0l0 1.34375l-3.78125 0l0 10.109375l-1.515625 0zm10.9453125 0l0 -11.453125l4.296875 0q1.3125 0 2.109375 0.34375q0.796875 0.34375 1.234375 1.078125q0.453125 0.71875 0.453125 1.5q0 0.734375 -0.40625 1.390625q-0.390625 0.640625 -1.1875 1.046875q1.03125 0.296875 1.59375 1.03125q0.5625 0.734375 0.5625 1.734375q0 0.8125 -0.34375 1.5q-0.34375 0.6875 -0.84375 1.0625q-0.5 0.375 -1.25 0.578125q-0.75 0.1875 -1.84375 0.1875l-4.375 0zm1.515625 -6.640625l2.484375 0q1.0 0 1.4375 -0.140625q0.578125 -0.171875 0.875 -0.5625q0.296875 -0.40625 0.296875 -1.0q0 -0.578125 -0.28125 -1.0q-0.265625 -0.4375 -0.78125 -0.59375q-0.5 -0.171875 -1.734375 -0.171875l-2.296875 0l0 3.46875zm0 5.28125l2.859375 0q0.734375 0 1.03125 -0.046875q0.515625 -0.09375 0.859375 -0.3125q0.359375 -0.21875 0.578125 -0.640625q0.234375 -0.421875 0.234375 -0.96875q0 -0.640625 -0.328125 -1.109375q-0.328125 -0.46875 -0.90625 -0.65625q-0.578125 -0.203125 -1.671875 -0.203125l-2.65625 0l0 3.9375zm9.046875 -8.484375l0 -1.609375l1.40625 0l0 1.609375l-1.40625 0zm0 9.84375l0 -8.296875l1.40625 0l0 8.296875l-1.40625 0zm3.5546875 0l0 -8.296875l1.265625 0l0 1.171875q0.90625 -1.359375 2.640625 -1.359375q0.75 0 1.375 0.265625q0.625 0.265625 0.9375 0.703125q0.3125 0.4375 0.4375 1.046875q0.078125 0.390625 0.078125 1.359375l0 5.109375l-1.40625 0l0 -5.046875q0 -0.859375 -0.171875 -1.28125q-0.15625 -0.4375 -0.578125 -0.6875q-0.40625 -0.25 -0.96875 -0.25q-0.90625 0 -1.5625 0.578125q-0.640625 0.5625 -0.640625 2.15625l0 4.53125l-1.40625 0zm14.3046875 -1.03125q-0.78125 0.671875 -1.5 0.953125q-0.71875 0.265625 -1.546875 0.265625q-1.375 0 -2.109375 -0.671875q-0.734375 -0.671875 -0.734375 -1.703125q0 -0.609375 0.28125 -1.109375q0.28125 -0.515625 0.71875 -0.8125q0.453125 -0.3125 1.015625 -0.46875q0.421875 -0.109375 1.25 -0.203125q1.703125 -0.203125 2.515625 -0.484375q0 -0.296875 0 -0.375q0 -0.859375 -0.390625 -1.203125q-0.546875 -0.484375 -1.609375 -0.484375q-0.984375 0 -1.46875 0.359375q-0.46875 0.34375 -0.6875 1.21875l-1.375 -0.1875q0.1875 -0.875 0.609375 -1.421875q0.4375 -0.546875 1.25 -0.828125q0.8125 -0.296875 1.875 -0.296875q1.0625 0 1.71875 0.25q0.671875 0.25 0.984375 0.625q0.3125 0.375 0.4375 0.953125q0.078125 0.359375 0.078125 1.296875l0 1.875q0 1.96875 0.078125 2.484375q0.09375 0.515625 0.359375 1.0l-1.46875 0q-0.21875 -0.4375 -0.28125 -1.03125zm-0.109375 -3.140625q-0.765625 0.3125 -2.296875 0.53125q-0.875 0.125 -1.234375 0.28125q-0.359375 0.15625 -0.5625 0.46875q-0.1875 0.296875 -0.1875 0.65625q0 0.5625 0.421875 0.9375q0.4375 0.375 1.25 0.375q0.8125 0 1.4375 -0.34375q0.640625 -0.359375 0.9375 -0.984375q0.234375 -0.46875 0.234375 -1.40625l0 -0.515625zm3.5859375 4.171875l0 -8.296875l1.265625 0l0 1.25q0.484375 -0.875 0.890625 -1.15625q0.40625 -0.28125 0.90625 -0.28125q0.703125 0 1.4375 0.453125l-0.484375 1.296875q-0.515625 -0.296875 -1.03125 -0.296875q-0.453125 0 -0.828125 0.28125q-0.359375 0.265625 -0.515625 0.765625q-0.234375 0.75 -0.234375 1.640625l0 4.34375l-1.40625 0zm5.28125 3.203125l-0.15625 -1.328125q0.453125 0.125 0.796875 0.125q0.46875 0 0.75 -0.15625q0.28125 -0.15625 0.46875 -0.4375q0.125 -0.203125 0.421875 -1.046875q0.046875 -0.109375 0.125 -0.34375l-3.140625 -8.3125l1.515625 0l1.71875 4.796875q0.34375 0.921875 0.609375 1.921875q0.234375 -0.96875 0.578125 -1.890625l1.765625 -4.828125l1.40625 0l-3.15625 8.4375q-0.5 1.375 -0.78125 1.890625q-0.375 0.6875 -0.859375 1.015625q-0.484375 0.328125 -1.15625 0.328125q-0.40625 0 -0.90625 -0.171875zm12.7109375 -3.203125l0 -11.453125l8.28125 0l0 1.34375l-6.765625 0l0 3.515625l6.34375 0l0 1.34375l-6.34375 0l0 3.890625l7.03125 0l0 1.359375l-8.546875 0zm9.53125 0l3.03125 -4.3125l-2.8125 -3.984375l1.765625 0l1.265625 1.9375q0.359375 0.5625 0.578125 0.9375q0.34375 -0.515625 0.640625 -0.921875l1.390625 -1.953125l1.6875 0l-2.875 3.90625l3.09375 4.390625l-1.734375 0l-1.703125 -2.578125l-0.453125 -0.703125l-2.171875 3.28125l-1.703125 0zm14.609375 -2.671875l1.453125 0.171875q-0.34375 1.28125 -1.28125 1.984375q-0.921875 0.703125 -2.359375 0.703125q-1.828125 0 -2.890625 -1.125q-1.0625 -1.125 -1.0625 -3.140625q0 -2.09375 1.078125 -3.25q1.078125 -1.15625 2.796875 -1.15625q1.65625 0 2.703125 1.140625q1.0625 1.125 1.0625 3.171875q0 0.125 0 0.375l-6.1875 0q0.078125 1.375 0.765625 2.109375q0.703125 0.71875 1.734375 0.71875q0.78125 0 1.328125 -0.40625q0.546875 -0.40625 0.859375 -1.296875zm-4.609375 -2.28125l4.625 0q-0.09375 -1.046875 -0.53125 -1.5625q-0.671875 -0.8125 -1.734375 -0.8125q-0.96875 0 -1.640625 0.65625q-0.65625 0.640625 -0.71875 1.71875zm13.2421875 1.90625l1.390625 0.1875q-0.234375 1.421875 -1.171875 2.234375q-0.921875 0.8125 -2.28125 0.8125q-1.703125 0 -2.75 -1.109375q-1.03125 -1.125 -1.03125 -3.203125q0 -1.34375 0.4375 -2.34375q0.453125 -1.015625 1.359375 -1.515625q0.921875 -0.5 1.984375 -0.5q1.359375 0 2.21875 0.6875q0.859375 0.671875 1.09375 1.9375l-1.359375 0.203125q-0.203125 -0.828125 -0.703125 -1.25q-0.484375 -0.421875 -1.1875 -0.421875q-1.0625 0 -1.734375 0.765625q-0.65625 0.75 -0.65625 2.40625q0 1.671875 0.640625 2.4375q0.640625 0.75 1.671875 0.75q0.828125 0 1.375 -0.5q0.5625 -0.515625 0.703125 -1.578125zm8.03125 3.046875l0 -1.21875q-0.96875 1.40625 -2.640625 1.40625q-0.734375 0 -1.375 -0.28125q-0.625 -0.28125 -0.9375 -0.703125q-0.3125 -0.4375 -0.4375 -1.046875q-0.078125 -0.421875 -0.078125 -1.3125l0 -5.140625l1.40625 0l0 4.59375q0 1.109375 0.078125 1.484375q0.140625 0.5625 0.5625 0.875q0.4375 0.3125 1.0625 0.3125q0.640625 0 1.1875 -0.3125q0.5625 -0.328125 0.78125 -0.890625q0.234375 -0.5625 0.234375 -1.625l0 -4.4375l1.40625 0l0 8.296875l-1.25 0zm6.5234375 -1.265625l0.203125 1.25q-0.59375 0.125 -1.0625 0.125q-0.765625 0 -1.1875 -0.234375q-0.421875 -0.25 -0.59375 -0.640625q-0.171875 -0.40625 -0.171875 -1.671875l0 -4.765625l-1.03125 0l0 -1.09375l1.03125 0l0 -2.0625l1.40625 -0.84375l0 2.90625l1.40625 0l0 1.09375l-1.40625 0l0 4.84375q0 0.609375 0.0625 0.78125q0.078125 0.171875 0.25 0.28125q0.171875 0.09375 0.484375 0.09375q0.234375 0 0.609375 -0.0625zm6.7890625 0.234375q-0.78125 0.671875 -1.5 0.953125q-0.71875 0.265625 -1.546875 0.265625q-1.375 0 -2.109375 -0.671875q-0.734375 -0.671875 -0.734375 -1.703125q0 -0.609375 0.28125 -1.109375q0.28125 -0.515625 0.71875 -0.8125q0.453125 -0.3125 1.015625 -0.46875q0.421875 -0.109375 1.25 -0.203125q1.703125 -0.203125 2.515625 -0.484375q0 -0.296875 0 -0.375q0 -0.859375 -0.390625 -1.203125q-0.546875 -0.484375 -1.609375 -0.484375q-0.984375 0 -1.46875 0.359375q-0.46875 0.34375 -0.6875 1.21875l-1.375 -0.1875q0.1875 -0.875 0.609375 -1.421875q0.4375 -0.546875 1.25 -0.828125q0.8125 -0.296875 1.875 -0.296875q1.0625 0 1.71875 0.25q0.671875 0.25 0.984375 0.625q0.3125 0.375 0.4375 0.953125q0.078125 0.359375 0.078125 1.296875l0 1.875q0 1.96875 0.078125 2.484375q0.09375 0.515625 0.359375 1.0l-1.46875 0q-0.21875 -0.4375 -0.28125 -1.03125zm-0.109375 -3.140625q-0.765625 0.3125 -2.296875 0.53125q-0.875 0.125 -1.234375 0.28125q-0.359375 0.15625 -0.5625 0.46875q-0.1875 0.296875 -0.1875 0.65625q0 0.5625 0.421875 0.9375q0.4375 0.375 1.25 0.375q0.8125 0 1.4375 -0.34375q0.640625 -0.359375 0.9375 -0.984375q0.234375 -0.46875 0.234375 -1.40625l0 -0.515625zm4.8984375 4.171875l-1.3125 0l0 -11.453125l1.40625 0l0 4.078125q0.890625 -1.109375 2.28125 -1.109375q0.765625 0 1.4375 0.3125q0.6875 0.296875 1.125 0.859375q0.453125 0.5625 0.703125 1.359375q0.25 0.78125 0.25 1.671875q0 2.140625 -1.0625 3.3125q-1.046875 1.15625 -2.53125 1.15625q-1.46875 0 -2.296875 -1.234375l0 1.046875zm-0.015625 -4.21875q0 1.5 0.40625 2.15625q0.65625 1.09375 1.796875 1.09375q0.921875 0 1.59375 -0.796875q0.671875 -0.8125 0.671875 -2.390625q0 -1.625 -0.65625 -2.390625q-0.640625 -0.78125 -1.546875 -0.78125q-0.921875 0 -1.59375 0.796875q-0.671875 0.796875 -0.671875 2.3125zm7.5859375 4.21875l0 -11.453125l1.40625 0l0 11.453125l-1.40625 0zm9.2578125 -2.671875l1.453125 0.171875q-0.34375 1.28125 -1.28125 1.984375q-0.921875 0.703125 -2.359375 0.703125q-1.828125 0 -2.890625 -1.125q-1.0625 -1.125 -1.0625 -3.140625q0 -2.09375 1.078125 -3.25q1.078125 -1.15625 2.796875 -1.15625q1.65625 0 2.703125 1.140625q1.0625 1.125 1.0625 3.171875q0 0.125 0 0.375l-6.1875 0q0.078125 1.375 0.765625 2.109375q0.703125 0.71875 1.734375 0.71875q0.78125 0 1.328125 -0.40625q0.546875 -0.40625 0.859375 -1.296875zm-4.609375 -2.28125l4.625 0q-0.09375 -1.046875 -0.53125 -1.5625q-0.671875 -0.8125 -1.734375 -0.8125q-0.96875 0 -1.640625 0.65625q-0.65625 0.640625 -0.71875 1.71875zm12.53125 4.953125l0 -11.453125l7.734375 0l0 1.34375l-6.21875 0l0 3.546875l5.375 0l0 1.359375l-5.375 0l0 5.203125l-1.515625 0zm8.9921875 -4.15625q0 -2.296875 1.28125 -3.40625q1.0780945 -0.921875 2.6093445 -0.921875q1.71875 0 2.796875 1.125q1.09375 1.109375 1.09375 3.09375q0 1.59375 -0.484375 2.515625q-0.484375 0.921875 -1.40625 1.4375q-0.90625 0.5 -2.0 0.5q-1.734375 0 -2.8124695 -1.109375q-1.078125 -1.125 -1.078125 -3.234375zm1.453125 0q0 1.59375 0.6874695 2.390625q0.703125 0.796875 1.75 0.796875q1.046875 0 1.734375 -0.796875q0.703125 -0.796875 0.703125 -2.4375q0 -1.53125 -0.703125 -2.328125q-0.6875 -0.796875 -1.734375 -0.796875q-1.046875 0 -1.75 0.796875q-0.6874695 0.78125 -0.6874695 2.375zm7.960907 4.15625l0 -8.296875l1.265625 0l0 1.25q0.484375 -0.875 0.890625 -1.15625q0.40625 -0.28125 0.90625 -0.28125q0.703125 0 1.4375 0.453125l-0.484375 1.296875q-0.515625 -0.296875 -1.03125 -0.296875q-0.453125 0 -0.828125 0.28125q-0.359375 0.265625 -0.515625 0.765625q-0.234375 0.75 -0.234375 1.640625l0 4.34375l-1.40625 0zm5.34375 0l0 -8.296875l1.25 0l0 1.15625q0.390625 -0.609375 1.03125 -0.96875q0.65625 -0.375 1.484375 -0.375q0.921875 0 1.515625 0.390625q0.59375 0.375 0.828125 1.0625q0.984375 -1.453125 2.5625 -1.453125q1.234375 0 1.890625 0.6875q0.671875 0.671875 0.671875 2.09375l0 5.703125l-1.390625 0l0 -5.234375q0 -0.84375 -0.140625 -1.203125q-0.140625 -0.375 -0.5 -0.59375q-0.359375 -0.234375 -0.84375 -0.234375q-0.875 0 -1.453125 0.578125q-0.578125 0.578125 -0.578125 1.859375l0 4.828125l-1.40625 0l0 -5.390625q0 -0.9375 -0.34375 -1.40625q-0.34375 -0.46875 -1.125 -0.46875q-0.59375 0 -1.09375 0.3125q-0.5 0.3125 -0.734375 0.921875q-0.21875 0.59375 -0.21875 1.71875l0 4.3125l-1.40625 0zm18.734375 -1.03125q-0.78125 0.671875 -1.5 0.953125q-0.71875 0.265625 -1.546875 0.265625q-1.375 0 -2.109375 -0.671875q-0.734375 -0.671875 -0.734375 -1.703125q0 -0.609375 0.28125 -1.109375q0.28125 -0.515625 0.71875 -0.8125q0.453125 -0.3125 1.015625 -0.46875q0.421875 -0.109375 1.25 -0.203125q1.703125 -0.203125 2.515625 -0.484375q0 -0.296875 0 -0.375q0 -0.859375 -0.390625 -1.203125q-0.546875 -0.484375 -1.609375 -0.484375q-0.984375 0 -1.46875 0.359375q-0.46875 0.34375 -0.6875 1.21875l-1.375 -0.1875q0.1875 -0.875 0.609375 -1.421875q0.4375 -0.546875 1.25 -0.828125q0.8125 -0.296875 1.875 -0.296875q1.0625 0 1.71875 0.25q0.671875 0.25 0.984375 0.625q0.3125 0.375 0.4375 0.953125q0.078125 0.359375 0.078125 1.296875l0 1.875q0 1.96875 0.078125 2.484375q0.09375 0.515625 0.359375 1.0l-1.46875 0q-0.21875 -0.4375 -0.28125 -1.03125zm-0.109375 -3.140625q-0.765625 0.3125 -2.296875 0.53125q-0.875 0.125 -1.234375 0.28125q-0.359375 0.15625 -0.5625 0.46875q-0.1875 0.296875 -0.1875 0.65625q0 0.5625 0.421875 0.9375q0.4375 0.375 1.25 0.375q0.8125 0 1.4375 -0.34375q0.640625 -0.359375 0.9375 -0.984375q0.234375 -0.46875 0.234375 -1.40625l0 -0.515625zm6.6640625 2.90625l0.203125 1.25q-0.59375 0.125 -1.0625 0.125q-0.765625 0 -1.1875 -0.234375q-0.421875 -0.25 -0.59375 -0.640625q-0.171875 -0.40625 -0.171875 -1.671875l0 -4.765625l-1.03125 0l0 -1.09375l1.03125 0l0 -2.0625l1.40625 -0.84375l0 2.90625l1.40625 0l0 1.09375l-1.40625 0l0 4.84375q0 0.609375 0.0625 0.78125q0.078125 0.171875 0.25 0.28125q0.171875 0.09375 0.484375 0.09375q0.234375 0 0.609375 -0.0625zm8.515625 4.640625q-1.171875 -1.46875 -1.984375 -3.4375q-0.796875 -1.984375 -0.796875 -4.09375q0 -1.859375 0.609375 -3.5625q0.703125 -1.96875 2.171875 -3.9375l1.0 0q-0.9375 1.625 -1.25 2.328125q-0.46875 1.078125 -0.75 2.25q-0.328125 1.453125 -0.328125 2.9375q0 3.75 2.328125 7.515625l-1.0 0zm2.75 -3.375l0 -11.453125l4.296875 0q1.3125 0 2.109375 0.34375q0.796875 0.34375 1.234375 1.078125q0.453125 0.71875 0.453125 1.5q0 0.734375 -0.40625 1.390625q-0.390625 0.640625 -1.1875 1.046875q1.03125 0.296875 1.59375 1.03125q0.5625 0.734375 0.5625 1.734375q0 0.8125 -0.34375 1.5q-0.34375 0.6875 -0.84375 1.0625q-0.5 0.375 -1.25 0.578125q-0.75 0.1875 -1.84375 0.1875l-4.375 0zm1.515625 -6.640625l2.484375 0q1.0 0 1.4375 -0.140625q0.578125 -0.171875 0.875 -0.5625q0.296875 -0.40625 0.296875 -1.0q0 -0.578125 -0.28125 -1.0q-0.265625 -0.4375 -0.78125 -0.59375q-0.5 -0.171875 -1.734375 -0.171875l-2.296875 0l0 3.46875zm0 5.28125l2.859375 0q0.734375 0 1.03125 -0.046875q0.515625 -0.09375 0.859375 -0.3125q0.359375 -0.21875 0.578125 -0.640625q0.234375 -0.421875 0.234375 -0.96875q0 -0.640625 -0.328125 -1.109375q-0.328125 -0.46875 -0.90625 -0.65625q-0.578125 -0.203125 -1.671875 -0.203125l-2.65625 0l0 3.9375zm9.25 1.359375l0 -11.453125l8.28125 0l0 1.34375l-6.765625 0l0 3.515625l6.34375 0l0 1.34375l-6.34375 0l0 3.890625l7.03125 0l0 1.359375l-8.546875 0zm10.71875 0l0 -11.453125l7.734375 0l0 1.34375l-6.21875 0l0 3.546875l5.375 0l0 1.359375l-5.375 0l0 5.203125l-1.515625 0zm10.4453125 3.375l-1.015625 0q2.34375 -3.765625 2.34375 -7.515625q0 -1.46875 -0.34375 -2.921875q-0.265625 -1.171875 -0.734375 -2.25q-0.3125 -0.703125 -1.265625 -2.34375l1.015625 0q1.46875 1.96875 2.171875 3.9375q0.59375 1.703125 0.59375 3.5625q0 2.109375 -0.8125 4.09375q-0.796875 1.96875 -1.953125 3.4375z" fill-rule="nonzero"/><path fill="#000000" fill-opacity="0.0" d="m8.813648 120.09567l101.6378 0l0 25.51181l-101.6378 0z" fill-rule="evenodd"/><path fill="#434343" d="m44.405273 139.46408q-0.984375 -1.125 -1.6875 -2.71875q-0.6875 -1.59375 -0.6875 -3.390625q0 -1.796875 0.6875 -3.390625q0.703125 -1.59375 1.6875 -2.7031326l0.8125 0.578125q-0.90625 1.0781326 -1.5 2.5468826q-0.578125 1.453125 -0.578125 2.96875q0 1.53125 0.578125 2.984375q0.59375 1.453125 1.5 2.53125l-0.8125 0.59375z" fill-rule="nonzero"/><path fill="#000000" d="m46.553986 128.1047l3.421875 0q0.734375 0 1.359375 0.34375q0.640625 0.328125 1.0 0.921875q0.375 0.578125 0.375 1.3125q0 0.6875 -0.359375 1.21875q-0.34375 0.515625 -0.9375 0.796875l0 0.046875q0.71875 0.234375 1.171875 0.828125q0.453125 0.59375 0.453125 1.375q0 0.765625 -0.40625 1.390625q-0.390625 0.625 -1.046875 0.96875q-0.65625 0.34375 -1.421875 0.34375l-3.609375 0l0 -9.546875zm3.421875 4.125q0.484375 0 0.84375 -0.21875q0.375 -0.21875 0.578125 -0.578125q0.203125 -0.359375 0.203125 -0.71875q0 -0.359375 -0.203125 -0.71875q-0.1875 -0.359375 -0.546875 -0.578125q-0.34375 -0.234375 -0.8125 -0.234375l-2.34375 0l0 3.046875l2.28125 0zm0.265625 4.34375q0.46875 0 0.84375 -0.234375q0.390625 -0.25 0.59375 -0.625q0.203125 -0.375 0.203125 -0.78125q0 -0.40625 -0.21875 -0.78125q-0.203125 -0.375 -0.59375 -0.609375q-0.375 -0.234375 -0.890625 -0.234375l-2.484375 0l0 3.265625l2.546875 0zm7.2955627 1.296875q-1.0 0 -1.796875 -0.484375q-0.796875 -0.484375 -1.25 -1.3125q-0.4375 -0.828125 -0.4375 -1.828125q0 -0.984375 0.4375 -1.8125q0.453125 -0.828125 1.25 -1.3125q0.796875 -0.484375 1.796875 -0.484375q1.0 0 1.796875 0.484375q0.8125 0.484375 1.25 1.3125q0.453125 0.828125 0.453125 1.8125q0 1.0 -0.453125 1.828125q-0.4375 0.828125 -1.25 1.3125q-0.796875 0.484375 -1.796875 0.484375zm0 -1.03125q0.625 0 1.15625 -0.3125q0.546875 -0.3125 0.875 -0.890625q0.328125 -0.59375 0.328125 -1.390625q0 -0.78125 -0.328125 -1.359375q-0.328125 -0.59375 -0.875 -0.90625q-0.53125 -0.3125 -1.15625 -0.3125q-0.625 0 -1.171875 0.3125q-0.546875 0.3125 -0.875 0.90625q-0.328125 0.578125 -0.328125 1.359375q0 0.796875 0.328125 1.390625q0.328125 0.578125 0.875 0.890625q0.546875 0.3125 1.171875 0.3125zm7.2279053 0.921875q-0.421875 0 -0.78125 -0.125q-0.34375 -0.140625 -0.578125 -0.375q-0.53125 -0.5 -0.53125 -1.390625l0 -3.984375l-1.1875 0l0 -1.03125l1.1875 0l0 -1.921875l1.125 0l0 1.921875l1.671875 0l0 1.03125l-1.671875 0l0 3.703125q0 0.5625 0.21875 0.828125q0.25 0.28125 0.734375 0.28125q0.40625 0 0.75 -0.21875l0 1.109375q-0.203125 0.09375 -0.421875 0.125q-0.203125 0.046875 -0.515625 0.046875zm2.335373 -9.65625l1.125 0l0 2.8125l-0.046875 0.9375l0.046875 0q0.28125 -0.515625 0.890625 -0.859375q0.609375 -0.359375 1.328125 -0.359375q1.234375 0 1.890625 0.734375q0.6562576 0.71875 0.6562576 1.921875l0 4.359375l-1.1406326 0l0 -4.1875q0 -0.921875 -0.46875 -1.359375q-0.453125 -0.4375 -1.203125 -0.4375q-0.53125 0 -0.984375 0.328125q-0.4375 0.3125 -0.703125 0.828125q-0.265625 0.5 -0.265625 1.046875l0 3.78125l-1.125 0l0 -9.546875z" fill-rule="nonzero"/><path fill="#434343" d="m74.03924 138.87033q0.90625 -1.078125 1.484375 -2.53125q0.59375 -1.453125 0.59375 -2.984375q0 -1.515625 -0.59375 -2.96875q-0.578125 -1.46875 -1.484375 -2.5468826l0.828125 -0.578125q0.96875 1.1093826 1.671875 2.7031326q0.703125 1.59375 0.703125 3.390625q0 1.796875 -0.703125 3.390625q-0.703125 1.59375 -1.671875 2.71875l-0.828125 -0.59375z" fill-rule="nonzero"/><path fill="#000000" fill-opacity="0.0" d="m23.163517 143.53806l76.85039 0" fill-rule="evenodd"/><path stroke="#000000" stroke-width="2.0" stroke-linejoin="round" stroke-linecap="butt" d="m23.163517 143.53806l64.8504 0" fill-rule="evenodd"/><path fill="#000000" stroke="#000000" stroke-width="2.0" stroke-linecap="butt" d="m88.013916 146.84152l9.076195 -3.3034668l-9.076195 -3.3034668z" fill-rule="evenodd"/><path fill="#000000" fill-opacity="0.0" d="m245.38675 57.46719l-0.69291687 122.83464" fill-rule="evenodd"/><path stroke="#ff6f00" stroke-width="2.0" stroke-linejoin="round" stroke-linecap="butt" d="m245.38675 57.46719l-0.6252289 110.83484" fill-rule="evenodd"/><path fill="#ff6f00" stroke="#ff6f00" stroke-width="2.0" stroke-linecap="butt" d="m241.45811 168.2834l3.2522125 9.094681l3.3546143 -9.057419z" fill-rule="evenodd"/></g></svg>